<svg xmlns="http://www.w3.org/2000/svg" xmlns:xlink="http://www.w3.org/1999/xlink" xmlns:fi="http://pattern.flaticon.com/" x="0" y="0" width="700" height="350" viewBox="0 0 700 350"><rect x="0px" y="0px" width="100%" height="100%" opacity="1" fill="#ffffff"/><defs><g transform="matrix(0.13671875 0 0 0.13671875 315 315)" id="L1_1815"><path d="M512,245.442v9.689c0,50.769-30.399,95.857-75.967,115.928  c-27.762,12.228-54.761,26.11-81.209,40.953l-93.919,52.706c-3.046,1.709-6.766,1.709-9.811,0l-93.919-52.706  c-26.448-14.842-53.447-28.725-81.209-40.953C30.399,350.988,0,305.9,0,255.131v-9.689c0-70.07,57.307-126.874,128-126.874l0,0  c70.692,0,128,56.803,128,126.874c0-70.07,57.307-126.874,128-126.874l0,0C454.693,118.568,512,175.372,512,245.442z" fill="#8ce16e"/><path d="M512,245.442v9.689c0,50.77-30.399,95.858-75.967,115.928c-27.762,12.228-54.761,26.11-81.209,40.952  l-93.919,52.707c-3.046,1.709-6.766,1.709-9.811,0l-20.403-11.45l94.502-53.033c27.171-15.248,54.908-29.51,83.429-42.073  c46.813-20.619,78.044-66.94,78.044-119.098v-9.954c0-37.626-16.091-71.521-41.816-95.313C484.84,155.255,512,197.204,512,245.442z" fill="#7dc86e"/><path d="M70.645,427.213l1.737-9.822c15.345-86.754,98.27-144.681,185.235-129.394l0.119,0.021  c5.437,0.956,9.068,6.129,8.109,11.553l0,0c-15.345,86.754-98.27,144.68-185.235,129.394L70.645,427.213z" fill="#7db764"/><path d="M246.154,299.57L246.154,299.57c-0.959-5.424,2.671-10.597,8.109-11.553l0.119-0.021  c86.965-15.286,169.89,42.64,185.235,129.394l1.737,9.822l-9.965,1.752C344.425,444.251,261.5,386.325,246.154,299.57z" fill="#74a45f"/><path d="M256,315.154l-23.804-23.73c-62.541-62.345-62.541-163.476,0-225.821l16.736-16.684  c3.905-3.892,10.232-3.892,14.137,0l16.736,16.684c62.541,62.345,62.541,163.476,0,225.821L256,315.154z" fill="#ffa5a5"/><path d="M395.73,84.813l23.442-4.12c5.438-0.956,10.624,2.666,11.583,8.091l4.112,23.25  c15.359,86.83-42.761,169.636-129.802,184.936l-33.288,5.851l-5.85-33.071C250.569,182.919,308.689,100.113,395.73,84.813z" fill="#ff8787"/><path d="M305.109,296.962l-33.332,5.859l-5.877-33.228c-2.204-12.461-2.885-24.837-2.19-36.944l2.068,11.688  l33.332-5.859c74.523-13.099,127.833-75.649,131.976-147.828l3.81,21.539C450.239,198.94,392.132,281.665,305.109,296.962z" fill="#ff6969"/><path d="M240.223,302.821l-33.288-5.851c-87.041-15.3-145.161-98.106-129.802-184.936l4.112-23.25  c0.96-5.425,6.145-9.047,11.583-8.091l23.442,4.12c87.041,15.3,145.161,98.106,129.802,184.936L240.223,302.821z" fill="#ff8787"/><path d="M299.077,215.145v99.561h-86.154v-99.561c0-22.091,17.909-40,40-40h6.154  C281.168,175.145,299.077,193.054,299.077,215.145z" fill="#ffcf65"/><path d="M44.692,207.352h117.231c55.228,0,100,44.771,100,100v18.09H134.692c-55.228,0-100-44.771-100-100  v-8.09C34.692,211.829,39.169,207.352,44.692,207.352z" fill="#ff6969"/><path d="M477.308,217.352v8.09c0,55.228-44.771,100-100,100H250.077v-18.09c0-55.228,44.771-100,100-100  h117.231C472.831,207.352,477.308,211.829,477.308,217.352z" fill="#d24a4a"/><path d="M337.974,325.442h-87.898v-18.404c0-55.055,44.771-99.687,100-99.687h77.898  c5.523,0,10,4.463,10,9.969v8.435C437.974,280.811,393.203,325.442,337.974,325.442z" fill="#ff4b4b"/></g><g transform="matrix(0.09765625 0 0 0.09765625 237.5 150)" id="L1_1816"><path d="M63.438,33.75h73.125v33.685c0,17.922-4.173,35.597-12.188,51.627l0,0V180h-48.75v-60.938l0,0  c-8.015-16.03-12.188-33.705-12.188-51.627L63.438,33.75L63.438,33.75z M375.438,33.75v33.685c0,17.922,4.173,35.597,12.188,51.627  l0,0V180h48.75v-60.938l0,0c8.015-16.03,12.188-33.705,12.188-51.627V33.75H375.438z" fill="#e6af78"/><path d="M372,450c13.807,0,25,11.193,25,25v15h-50v-15C347,461.193,358.193,450,372,450z M155,360h-30  c-5.523,0-10,4.477-10,10v70c0,5.523,4.477,10,10,10h15c-13.807,0-25,11.193-25,25v15h50v-15c0-13.807-11.193-25-25-25h15  c5.523,0,10-4.477,10-10v-70C165,364.477,160.523,360,155,360z M75,360H45c-5.523,0-10,4.477-10,10v70c0,5.523,4.477,10,10,10h15  c-13.807,0-25,11.193-25,25v15h50v-15c0-13.807-11.193-25-25-25h15c5.523,0,10-4.477,10-10v-70C85,364.477,80.523,360,75,360z   M387,360h-30c-5.523,0-10,4.477-10,10v70c0,5.523,4.477,10,10,10h15h15c5.523,0,10-4.477,10-10v-70  C397,364.477,392.523,360,387,360z M427,475v15h50v-15c0-13.807-11.193-25-25-25S427,461.193,427,475z M477,440v-70  c0-5.523-4.477-10-10-10h-30c-5.523,0-10,4.477-10,10v70c0,5.523,4.477,10,10,10h15h15C472.523,450,477,445.523,477,440z" fill="#ce8855"/><g><path d="M467,450h-15h-1.5v-90H467c5.523,0,10,4.477,10,10v70C477,445.523,472.523,450,467,450z M450.5,490   H477v-15c0-13.807-11.193-25-25-25c-0.504,0-1.003,0.019-1.5,0.049V490z" fill="#c37a4f"/><path d="M194.479,374.526c0.28,2.936-2.029,5.474-4.977,5.474H10.499c-2.949,0-5.257-2.539-4.977-5.474   l19.048-200c0.244-2.566,2.4-4.526,4.977-4.526h140.907c2.578,0,4.733,1.96,4.977,4.526L194.479,374.526z M506.479,374.526   l-19.048-200c-0.244-2.566-2.4-4.526-4.977-4.526H341.546c-2.578,0-4.733,1.96-4.977,4.526l-19.048,200   c-0.28,2.936,2.029,5.474,4.977,5.474H501.5C504.45,380,506.758,377.461,506.479,374.526z" fill="#c37a4f"/></g><path d="M186,173.541V190v10v90c0,5.523-4.477,10-10,10h-30c-5.523,0-10-4.477-10-10v-70  c0-11.046-8.954-20-20-20H84c-11.046,0-20,8.954-20,20v70c0,5.523-4.477,10-10,10H24c-5.523,0-10-4.477-10-10v-90v-10v-16.459  c0-8.178,4.979-15.532,12.572-18.569L64,140v-10c0-5.523,4.477-10,10-10h52c5.523,0,10,4.477,10,10v10l37.428,14.971  C181.021,158.008,186,165.363,186,173.541z M485.428,154.971L448,140v-10c0-5.523-4.477-10-10-10h-52c-5.523,0-10,4.477-10,10v10  l-37.428,14.971c-7.593,3.037-12.572,10.392-12.572,18.57V190v10v90c0,5.523,4.477,10,10,10h30c5.523,0,10-4.477,10-10v-70  c0-11.046,8.954-20,20-20h32c11.046,0,20,8.954,20,20v70c0,5.523,4.477,10,10,10h30c5.523,0,10-4.477,10-10v-90v-10v-16.459  C498,165.363,493.021,158.008,485.428,154.971z" fill="#ce8855"/><path d="M498,173.541V190v10v90c0,5.523-4.477,10-10,10h-20v-78.667v-10v-16.459  c0-8.178-4.979-15.532-12.572-18.57L418,161.333v-10c0-4.718-3.271-8.663-7.667-9.715V120H438c5.523,0,10,4.477,10,10v10  l37.428,14.971C493.021,158.008,498,165.363,498,173.541z" fill="#c37a4f"/><path d="M35,280v20c0,5.523-4.477,10-10,10H10c-5.523,0-10-4.477-10-10v-20c0-5.523,4.477-10,10-10h15  C30.523,270,35,274.477,35,280z M502,270h-15c-5.523,0-10,4.477-10,10v20c0,5.523,4.477,10,10,10h15c5.523,0,10-4.477,10-10v-20  C512,274.477,507.523,270,502,270z" fill="#e6af78"/><path d="M292.563,33.75v33.685c0,17.922-4.173,35.597-12.188,51.627l0,0V180h-48.75v-60.938l0,0  c-8.015-16.03-12.188-33.705-12.188-51.627V33.75H292.563z" fill="#f0c087"/><path d="M241,370v70c0,5.523-4.477,10-10,10h-15c13.807,0,25,11.193,25,25v15h-50v-15  c0-13.807,11.193-25,25-25h-15c-5.523,0-10-4.477-10-10v-70c0-5.523,4.477-10,10-10h30C236.523,360,241,364.477,241,370z M321,440  v-70c0-5.523-4.477-10-10-10h-30c-5.523,0-10,4.477-10,10v70c0,5.523,4.477,10,10,10h15c-13.807,0-25,11.193-25,25v15h50v-15  c0-13.807-11.193-25-25-25h15C316.523,450,321,445.523,321,440z" fill="#e6af78"/><path d="M331.431,174.526l19.048,200c0.28,2.935-2.029,5.474-4.977,5.474H166.499  c-2.949,0-5.257-2.539-4.977-5.474l19.048-200c0.244-2.566,2.4-4.526,4.977-4.526h140.907  C329.031,170,331.187,171.96,331.431,174.526z" fill="#d5945e"/><path d="M342,173.541V190v10v90c0,5.523-4.477,10-10,10h-30c-5.523,0-10-4.477-10-10v-70  c0-11.046-8.954-20-20-20h-32c-11.046,0-20,8.954-20,20v70c0,5.523-4.477,10-10,10h-30c-5.523,0-10-4.477-10-10v-90v-10v-16.459  c0-8.178,4.979-15.532,12.572-18.57L220,140v-10c0-5.523,4.477-10,10-10h52c5.523,0,10,4.477,10,10v10l37.428,14.971  C337.021,158.008,342,165.363,342,173.541z" fill="#e6af78"/><g><path d="M191,280v20c0,5.523-4.477,10-10,10h-15c-5.523,0-10-4.477-10-10v-20c0-5.523,4.477-10,10-10h15   C186.523,270,191,274.477,191,280z M346,270h-15c-5.523,0-10,4.477-10,10v20c0,5.523,4.477,10,10,10h15c5.523,0,10-4.477,10-10v-20   C356,274.477,351.523,270,346,270z" fill="#f0c087"/><path d="M263.5,116.998V160c0,4.142-3.358,7.5-7.5,7.5s-7.5-3.358-7.5-7.5v-43.002H263.5z" fill="#f0c087"/></g><path d="M145,40v5c0,2.761-2.239,5-5,5H60c-2.761,0-5-2.239-5-5v-5c0-11.046,8.954-20,20-20h5V5  c0-2.761,2.239-5,5-5h30c2.761,0,5,2.239,5,5v15h5C136.046,20,145,28.954,145,40z M437,20h-5V5c0-2.761-2.239-5-5-5h-30  c-2.761,0-5,2.239-5,5v15h-5c-11.046,0-20,8.954-20,20v5c0,2.761,2.239,5,5,5h80c2.761,0,5-2.239,5-5v-5  C457,28.954,448.046,20,437,20z M281,20h-5V5c0-2.761-2.239-5-5-5h-30c-2.761,0-5,2.239-5,5v15h-5c-11.046,0-20,8.954-20,20v5  c0,2.761,2.239,5,5,5h80c2.761,0,5-2.239,5-5v-5C301,28.954,292.046,20,281,20z" fill="#d5945e"/><path d="M512,487v20c0,2.761-2.239,5-5,5H5c-2.761,0-5-2.239-5-5v-20c0-2.761,2.239-5,5-5h502  C509.761,482,512,484.239,512,487z" fill="#c37a4f"/><path d="M419.5,116.998V160c0,4.142-3.358,7.5-7.5,7.5s-7.5-3.358-7.5-7.5v-43.002H419.5z M92.5,160  c0,4.142,3.358,7.5,7.5,7.5s7.5-3.358,7.5-7.5v-43.002h-15V160z" fill="#e6af78"/></g><g transform="matrix(0.09765625 0 0 0.09765625 62.5 150)" id="L1_1817"><g><path d="M320.282,118.005l-23.364-22.929c-6.07-5.957-14.271-8.576-22.218-7.863l10.371-19.232   c9.092-16.861,7.558-39.764-3.648-54.458C274.774,4.802,265.745,0,255.999,0s-18.774,4.802-25.424,13.521   c-11.206,14.694-12.74,37.598-3.648,54.459l10.372,19.232c-7.947-0.713-16.148,1.907-22.218,7.863l-23.365,22.929   c-5.299,5.2-8.217,12.123-8.217,19.495s2.918,14.295,8.217,19.495l23.365,22.929c5.421,5.32,12.543,7.98,19.664,7.98   c4.754,0,9.506-1.192,13.755-3.564V397.5c0,4.142,3.357,7.5,7.5,7.5s7.5-3.358,7.5-7.5V184.341c4.249,2.371,9,3.564,13.755,3.564   c7.121,0,14.243-2.66,19.664-7.98l23.364-22.929c5.299-5.2,8.217-12.123,8.217-19.495S325.581,123.205,320.282,118.005z    M242.503,22.617C246.25,17.705,251.042,15,255.999,15s9.75,2.705,13.496,7.617c7.68,10.07,8.7,26.511,2.373,38.243l-15.869,29.428   L240.13,60.861C233.803,49.128,234.824,32.688,242.503,22.617z M243.903,169.218c-5.051,4.955-13.266,4.955-18.316,0   l-23.365-22.929c-2.4-2.355-3.723-5.477-3.723-8.789s1.322-6.434,3.723-8.789l23.365-22.929c5.051-4.955,13.268-4.956,18.316,0   l1.389,1.363l-11.067,10.86c-5.299,5.2-8.216,12.123-8.216,19.495s2.917,14.295,8.216,19.495l11.067,10.86L243.903,169.218z    M255.999,157.347l-11.268-11.058c-2.4-2.355-3.722-5.477-3.722-8.789s1.321-6.434,3.722-8.789l11.268-11.058l11.268,11.058   c2.4,2.355,3.723,5.477,3.723,8.789s-1.322,6.434-3.723,8.789L255.999,157.347z M309.776,146.289l-23.364,22.929   c-5.051,4.955-13.266,4.955-18.316,0l-1.389-1.363l11.067-10.86c5.299-5.2,8.217-12.123,8.217-19.495s-2.918-14.295-8.217-19.495   l-11.067-10.86l1.389-1.363c5.05-4.955,13.267-4.956,18.316,0l23.364,22.929c2.4,2.355,3.723,5.477,3.723,8.789   S312.177,143.934,309.776,146.289z" fill="#ff4b4b"/><path d="M255.999,280L255.999,280c9.695,0,17.801,7.232,18.721,16.702l19.494,200.474   c0.264,2.714-1.145,5.35-3.613,6.6c-10.368,5.252-22.129,8.224-34.602,8.224c-12.472,0-24.234-2.972-34.602-8.224   c-2.468-1.25-3.877-3.886-3.613-6.6l19.494-200.474C238.199,287.232,246.305,280,255.999,280z" fill="#ff4b4b"/></g><path d="M263.499,370v141.632c-2.467,0.239-4.968,0.368-7.5,0.368c-2.532,0-5.032-0.129-7.5-0.368V370  c0-4.142,3.357-7.5,7.5-7.5S263.499,365.858,263.499,370z" fill="#963737"/><path d="M255.999,300c-22.511,0-40.76-17.909-40.76-40s18.249-40,40.76-40s40.761,17.909,40.761,40  S278.511,300,255.999,300z" fill="#ffcf65"/><path d="M296.759,260c0,22.091-18.249,40-40.76,40c-6.329,0-12.322-1.416-17.666-3.942  c13.664-6.459,23.094-20.178,23.094-36.058s-9.43-29.599-23.094-36.058c5.344-2.526,11.337-3.942,17.666-3.942  C278.51,220,296.759,237.909,296.759,260z" fill="#ffb450"/><path d="M255.999,240.747c-11.466,0-20.761-9.121-20.761-20.373S244.534,200,255.999,200  c11.466,0,20.761,9.121,20.761,20.373S267.465,240.747,255.999,240.747z" fill="#c83741"/></g><g transform="matrix(0.09765625 0 0 0.09765625 150 325)" id="L1_1818"><path d="M154,435.749v40.223c0,2.777-2.239,5.028-5,5.028H66c-2.761,0-5-2.251-5-5.028v-40.223  c0-2.777,2.239-5.028,5-5.028h83C151.761,430.721,154,432.972,154,435.749z M446,430.721h-83c-2.761,0-5,2.251-5,5.028v40.223  c0,2.777,2.239,5.028,5,5.028h83c2.761,0,5-2.251,5-5.028v-40.223C451,432.972,448.761,430.721,446,430.721z" fill="#d5945e"/><path d="M512,405.581v40.223c0,2.777-2.239,5.028-5,5.028H5c-2.761,0-5-2.251-5-5.028v-40.223  c0-2.777,2.239-5.028,5-5.028h39.951c-8.284,0-15-6.753-15-15.084v-25.14h70.097v25.14c0,8.331-6.716,15.084-15,15.084h170.854  c-8.284,0-15-6.753-15-15.084v-25.14H401v25.14c0,8.331-6.716,15.084-15,15.084h121C509.761,400.553,512,402.804,512,405.581z" fill="#e6af78"/><path d="M512,279.883v20.112c0,26.338-21.309,47.765-47.5,47.765h-51.242  c4.635-4.507,8.727-9.568,12.175-15.084H464.5c17.921,0,32.5-14.661,32.5-32.682v-20.112c0-18.021-14.579-32.682-32.5-32.682  h-39.067c-3.447-5.516-7.54-10.577-12.175-15.084H464.5C490.691,232.117,512,253.545,512,279.883z" fill="#803030"/><path d="M29.951,360.33h70.097v25.14c0,8.331-6.716,15.084-15,15.084H44.951c-8.284,0-15-6.753-15-15.084  V360.33z M381,209.492L381,209.492v-15.084c0-2.777-2.239-5.028-5-5.028h5l0,0c0-24.342-17.202-44.64-40.049-49.28v-11.055  c0-11.107-8.954-20.112-20-20.112l0,0c-11.045,0-20,9.004-20,20.112V140.1c-22.846,4.64-40.049,24.939-40.049,49.28l0,0h5  c-2.761,0-5,2.251-5,5.028v15.084l0,0c-24.611,0-46.617,11.185-61.292,28.765l-35.676-35.876c-1.875-1.886-4.419-2.945-7.071-2.945  H125c-2.761,0-5,2.251-5,5.028c0,19.249,6.208,37.978,17.693,53.377l38.973,52.254c2.357,3.16,5.44,5.391,8.818,6.693  c8.813,25.031,29.583,44.376,55.418,51.063v17.618c0,8.331,6.716,15.084,15,15.084H386c8.284,0,15-6.753,15-15.084v-17.618  c34.504-8.93,60-40.427,60-77.912l0,0C461,245.509,425.183,209.492,381,209.492z" fill="#963737"/><path d="M435.5,289.938L435.5,289.938c0,44.43-35.817,80.447-80,80.447h-94.597  c-44.183,0-80-36.017-80-80.447l0,0c0-44.43,35.817-80.447,80-80.447v-15.084c0-2.777,2.239-5.028,5-5.028h-5l0,0  c0-27.391,21.786-49.651,48.882-50.251c27.096,0.6,48.882,22.859,48.882,50.251l0,0H350.5c2.761,0,5,2.251,5,5.028v15.084  C399.683,209.492,435.5,245.509,435.5,289.938z" fill="#aa4141"/><path d="M130,315.078v5.028c0,27.768-22.386,50.279-50,50.279H50c-27.614,0-50-22.511-50-50.279v-5.028  c0-2.777,2.239-5.028,5-5.028h120C127.761,310.05,130,312.301,130,315.078z M386,179.324H255.903c-8.284,0-15,6.753-15,15.084  s6.716,15.084,15,15.084H386c8.284,0,15-6.753,15-15.084C401,186.077,394.284,179.324,386,179.324z" fill="#d24a4a"/><path d="M512,405.581v40.223c0,2.777-2.239,5.028-5,5.028h-25c2.761,0,5-2.251,5-5.028v-40.223  c0-2.777-2.239-5.028-5-5.028h25C509.761,400.553,512,402.804,512,405.581z" fill="#d5945e"/><path d="M125,310.05h-23c2.761,0,5,2.251,5,5.028v5.028c0,27.768-22.386,50.279-50,50.279h23  c27.614,0,50-22.511,50-50.279v-5.028C130,312.301,127.761,310.05,125,310.05z M386,179.324h-23c8.284,0,15,6.753,15,15.084  s-6.716,15.084-15,15.084h23c8.284,0,15-6.753,15-15.084C401,186.077,394.284,179.324,386,179.324z" fill="#c83741"/><path d="M167.5,88.821c0,14.983-5.803,29.07-16.338,39.665l-1.718,1.727  c-7.702,7.745-11.944,18.044-11.944,28.998v10.056c0,4.165-3.357,7.542-7.5,7.542s-7.5-3.377-7.5-7.542v-10.056  c0-14.983,5.803-29.07,16.338-39.665l1.718-1.727c7.702-7.745,11.944-18.044,11.944-28.998s-4.242-21.254-11.945-29l-15.857-15.946  c-2.93-2.945-2.93-7.72-0.001-10.666c2.93-2.945,7.679-2.946,10.606,0l15.858,15.946C161.697,59.751,167.5,73.838,167.5,88.821z   M190,71.224c-4.143,0-7.5,3.377-7.5,7.542v20.111c0,10.954-4.242,21.254-11.944,28.999l-1.718,1.727  c-10.535,10.595-16.338,24.682-16.338,39.666c0,4.165,3.357,7.542,7.5,7.542s7.5-3.377,7.5-7.542  c0-10.954,4.242-21.254,11.944-28.999l1.718-1.727c10.535-10.595,16.338-24.682,16.338-39.666V78.765  C197.5,74.6,194.143,71.224,190,71.224z" fill="#dcdbde"/></g></defs><g fi:class="KUsePattern"><pattern id="pattern_L1_1815" width="350" height="350" patternUnits="userSpaceOnUse"><use xlink:href="#L1_1815" x="-350" y="-350"/><use xlink:href="#L1_1815" x="0" y="-350"/><use xlink:href="#L1_1815" x="350" y="-350"/><use xlink:href="#L1_1815" x="-350" y="0"/><use xlink:href="#L1_1815" x="0" y="0"/><use xlink:href="#L1_1815" x="350" y="0"/><use xlink:href="#L1_1815" x="-350" y="350"/><use xlink:href="#L1_1815" x="0" y="350"/><use xlink:href="#L1_1815" x="350" y="350"/></pattern><rect x="0" y="0" width="100%" height="100%" fill="url(#pattern_L1_1815)"/></g><g fi:class="KUsePattern"><pattern id="pattern_L1_1816" width="350" height="350" patternUnits="userSpaceOnUse"><use xlink:href="#L1_1816" x="-350" y="-350"/><use xlink:href="#L1_1816" x="0" y="-350"/><use xlink:href="#L1_1816" x="350" y="-350"/><use xlink:href="#L1_1816" x="-350" y="0"/><use xlink:href="#L1_1816" x="0" y="0"/><use xlink:href="#L1_1816" x="350" y="0"/><use xlink:href="#L1_1816" x="-350" y="350"/><use xlink:href="#L1_1816" x="0" y="350"/><use xlink:href="#L1_1816" x="350" y="350"/></pattern><rect x="0" y="0" width="100%" height="100%" fill="url(#pattern_L1_1816)"/></g><g fi:class="KUsePattern"><pattern id="pattern_L1_1817" width="350" height="350" patternUnits="userSpaceOnUse"><use xlink:href="#L1_1817" x="-350" y="-350"/><use xlink:href="#L1_1817" x="0" y="-350"/><use xlink:href="#L1_1817" x="350" y="-350"/><use xlink:href="#L1_1817" x="-350" y="0"/><use xlink:href="#L1_1817" x="0" y="0"/><use xlink:href="#L1_1817" x="350" y="0"/><use xlink:href="#L1_1817" x="-350" y="350"/><use xlink:href="#L1_1817" x="0" y="350"/><use xlink:href="#L1_1817" x="350" y="350"/></pattern><rect x="0" y="0" width="100%" height="100%" fill="url(#pattern_L1_1817)"/></g><g fi:class="KUsePattern"><pattern id="pattern_L1_1818" width="350" height="350" patternUnits="userSpaceOnUse"><use xlink:href="#L1_1818" x="-350" y="-350"/><use xlink:href="#L1_1818" x="0" y="-350"/><use xlink:href="#L1_1818" x="350" y="-350"/><use xlink:href="#L1_1818" x="-350" y="0"/><use xlink:href="#L1_1818" x="0" y="0"/><use xlink:href="#L1_1818" x="350" y="0"/><use xlink:href="#L1_1818" x="-350" y="350"/><use xlink:href="#L1_1818" x="0" y="350"/><use xlink:href="#L1_1818" x="350" y="350"/></pattern><rect x="0" y="0" width="100%" height="100%" fill="url(#pattern_L1_1818)"/></g></svg>