<svg xmlns="http://www.w3.org/2000/svg" xmlns:xlink="http://www.w3.org/1999/xlink" xmlns:fi="http://pattern.flaticon.com/" x="0" y="0" width="700" height="350" viewBox="0 0 700 350"><rect x="0px" y="0px" width="100%" height="100%" opacity="1" fill="#ffffff"/><defs><path d="M165,0C74.019,0,0,74.019,0,165s74.019,165,165,165c90.982,0,165-74.019,165-165S255.982,0,165,0z" transform="matrix(0.03030303120613098 0 0 0.03030303120613098 257.5 257.5)" id="L1_2507" fill="#7b7ab3"/><g transform="matrix(0.17578090727329254 0 0 0.17578090727329254 305 305)" id="L1_2508"><ellipse cx="256px" cy="276px" rx="253px" ry="235px" fill="#f3ce72"/><path d="M111.411,254.551c5.754-1.983,12.154,0.022,15.61,5.031  c18.307,26.533,53.445,59.421,128.981,59.421s110.675-32.888,128.981-59.421c3.456-5.009,9.856-7.014,15.61-5.031  c36.915,12.722,66.284,2.434,86.315-16.832c7.011-6.743,11.418-15.303,13.13-24.372c-29.491-99.805-127.569-173.12-244.036-173.12  c-139.79,0-253.113,105.61-253.113,235.887c0,130.277,113.323,235.887,253.113,235.887c75.97,0,144.114-31.199,190.509-80.59  c-42.423,31.741-96.141,50.717-154.581,50.717c-136.29,0-246.923-103.159-248.354-230.92  C61.745,260.882,84.583,263.797,111.411,254.551z" opacity="0.08"/><g opacity="0.1"><circle cx="103" cy="409" r="7"/><circle cx="49" cy="309" r="7"/><circle cx="80" cy="283" r="7"/><circle cx="144" cy="432" r="7"/><circle cx="448" cy="294" r="7"/><circle cx="466" cy="336" r="7"/></g><path d="M256.002,25.132c-103.329,0-193.28,54.566-238.668,134.504c-10.462,18.427-7.51,41.727,7.762,56.416  c20.032,19.266,49.4,29.554,86.315,16.832c5.754-1.983,12.154,0.022,15.61,5.031c18.306,26.533,53.445,59.421,128.981,59.421  s110.675-32.888,128.981-59.421c3.456-5.009,9.856-7.014,15.61-5.031c36.915,12.722,66.284,2.434,86.315-16.832  c15.272-14.689,18.224-37.989,7.762-56.416C449.282,79.698,359.331,25.132,256.002,25.132z" fill="#c06376"/><path d="M313.911,254.215c-66.858,26.247-112.741-14.759-130.151-71.314  c-21.938-71.263,15.354-131.12,51.648-157.034c-94.596,6.705-175.73,59.191-218.074,133.769  c-10.462,18.427-7.51,41.727,7.762,56.416c20.032,19.266,49.4,29.554,86.315,16.833c5.754-1.983,12.154,0.022,15.61,5.031  c18.307,26.533,53.445,59.421,128.981,59.421c47.253,0,78.696-12.871,100.1-29.004C366.511,252.443,364.385,234.4,313.911,254.215z" opacity="0.1"/><path d="M480.852,60.205l-44.511-16.844c-8.538-3.231-17.935,1.971-19.73,10.921l-9.787,48.799  c-1.498,7.468,2.923,14.852,10.212,17.059l18.374,5.564c5.329,1.614,11.113,0.096,14.964-3.925l35.924-37.518  C493.627,76.607,490.763,63.956,480.852,60.205z" fill="#f3ce72"/><path d="M352.908,217.255c-11.082,0.001-24.658-3.816-35.804-18.534c-7.719-10.193-12.544-23.237-17.21-35.85  c-11.197-30.268-17.107-39.496-32.246-38.183c-10.386,0.892-13.164,5.892-17.49,31.469c-2.005,11.852-4.077,24.108-9.852,34.762  c-7.763,14.326-20.808,22.483-37.725,23.59c-11.843,0.77-21.748-2.255-29.43-9.006c-14.321-12.587-15.617-32.998-16.869-52.737  c-0.646-10.181-1.314-20.708-3.825-27.326c-1.712-4.513-3.096-5.036-6.33-5.296c-17.786-1.435-33.528,24.013-46.194,44.453  l-1.161,1.873c-5.008,8.07-15.61,10.553-23.681,5.546c-8.071-5.008-10.554-15.61-5.546-23.681l1.15-1.856  c16.664-26.893,39.474-63.716,78.181-60.622c11.927,0.957,27.81,6.484,35.739,27.382c4.35,11.466,5.185,24.623,5.993,37.349  c0.615,9.691,1.645,25.911,5.25,29.08c0.414,0.362,1.992,0.683,4.477,0.518c8.785-0.575,11.574-4.139,15.908-29.766  c2.039-12.055,4.147-24.519,10.094-35.487c7.897-14.561,21.164-23.039,38.366-24.517c19.665-1.68,35.771,5.274,47.884,20.692  c9.132,11.622,14.435,25.961,19.565,39.828c9.968,26.95,14.234,32.884,22.831,31.781c11.957-1.543,14.444-6.481,16.627-33.019  c1.656-20.128,3.716-45.177,26.51-57.957c8.283-4.646,18.766-1.695,23.412,6.59c4.645,8.285,1.695,18.767-6.59,23.412  c-6.375,3.574-7.672,14.011-9.051,30.776c-1.036,12.597-2.108,25.623-7.603,37.33c-7.178,15.294-20.63,24.623-38.902,26.981  C357.362,217.093,355.187,217.255,352.908,217.255z" fill="#ffffff"/><path d="M70.059,45.161l36.911,64.714c2.924,5.126,9.224,7.251,14.655,4.941l43.188-18.365  c3.682-1.566,6.301-4.914,6.934-8.865l11.863-74.104c1.357-8.479-6.625-15.455-14.845-12.974L76.801,28.264  C69.648,30.423,66.357,38.671,70.059,45.161z" fill="#f3ce72"/><g><path d="M337.828,96.836c-2.13,0-4.246-0.902-5.729-2.655c-2.675-3.162-2.281-7.895,0.881-10.57   l10.812-9.148c3.163-2.674,7.895-2.279,10.57,0.881c2.675,3.162,2.281,7.895-0.881,10.57l-10.812,9.148   C341.26,96.253,339.539,96.836,337.828,96.836z" fill="#7dd49b"/><path d="M468.392,195.808c-1.207,0-2.43-0.291-3.565-0.906l-19.96-10.811   c-3.642-1.973-4.995-6.524-3.022-10.167c1.973-3.643,6.524-4.996,10.167-3.022l19.96,10.811c3.643,1.973,4.996,6.525,3.023,10.167   C473.636,194.386,471.056,195.808,468.392,195.808z" fill="#7dd49b"/><path d="M287.098,253.194c-2.45,0-4.851-1.199-6.289-3.404c-2.263-3.469-1.284-8.116,2.185-10.379   l19.129-12.476c3.471-2.262,8.116-1.284,10.379,2.186c2.263,3.469,1.284,8.116-2.185,10.379l-19.129,12.476   C289.923,252.8,288.502,253.194,287.098,253.194z" fill="#7dd49b"/><path d="M210.52,86.226c-1.813,0-3.63-0.652-5.07-1.975c-3.052-2.802-3.254-7.546-0.453-10.598   l16.634-18.119c2.802-3.051,7.547-3.254,10.597-0.453c3.052,2.802,3.254,7.546,0.453,10.598l-16.634,18.119   C214.567,85.408,212.546,86.226,210.52,86.226z" fill="#7dd49b"/><path d="M101.624,207.565H80.832c-4.142,0-7.5-3.358-7.5-7.5c0-4.143,3.358-7.5,7.5-7.5h20.792   c4.142,0,7.5,3.357,7.5,7.5S105.766,207.565,101.624,207.565z" fill="#7dd49b"/></g><path d="M272.417,21.292l5.944,37.307c1.398,8.774,10.619,13.945,18.834,10.561l51.209-21.09  c12.079-4.975,11.082-22.402-1.484-25.968L289.766,5.886C280.091,3.141,270.834,11.361,272.417,21.292z" fill="#f3ce72"/><g><path d="M159.403,360.12c-4.142,0-7.5-3.357-7.5-7.5v-16.475c0-4.143,3.358-7.5,7.5-7.5s7.5,3.357,7.5,7.5   v16.475C166.903,356.763,163.545,360.12,159.403,360.12z" fill="#485358"/><path d="M352.601,360.12c-4.142,0-7.5-3.357-7.5-7.5v-16.475c0-4.143,3.358-7.5,7.5-7.5s7.5,3.357,7.5,7.5   v16.475C360.101,356.763,356.743,360.12,352.601,360.12z" fill="#485358"/><path d="M284.826,365.227c0,15.696-13.003,28.355-28.824,27.792c-15.07-0.536-26.796-13.379-26.796-28.459   v-19.561c0-4.188,3.395-7.583,7.583-7.583h40.455c4.188,0,7.583,3.395,7.583,7.583v20.228H284.826z" fill="#485358"/></g></g><g transform="matrix(0.05859375 0 0 0.05859375 335 160)" id="L1_2509"><circle cx="204" cy="243" r="162" fill="#ffffff"/><circle cx="204" cy="243" r="95" fill="#e978a0"/><path d="M204.015,148.069c-40.768,0-75.585,25.461-89.432,61.346h178.863  C279.6,173.53,244.783,148.069,204.015,148.069z" fill="#f3ce72"/><path d="M149.052,322.403c4.389,3.079,9.047,5.798,13.934,8.117  c9.93-6.95,21.79-14.093,35.241-20.678c19.669-9.628,53.565-23.122,92.728-25.595c2.238-4.814,4.087-9.843,5.509-15.05  c-44.393,1.484-82.874,16.67-104.734,27.37C176.142,304.196,161.397,313.235,149.052,322.403z M299.003,231.181  c-52.104-2.984-98.455,14.988-123.315,27.157c-20.658,10.112-39.842,22.698-53.906,34.783c2.549,4.249,5.417,8.285,8.573,12.073  c11.995-10.487,29.777-22.784,51.832-33.58c23.74-11.621,68.196-28.884,117.632-25.589c0.015-0.707,0.027-1.414,0.027-2.125  C299.844,239.587,299.555,235.342,299.003,231.181z" opacity="0.5" fill="#ffffff"/><path d="M204.015,413.923c-93.752,0-170.024-76.272-170.024-170.024S110.263,73.875,204.015,73.875  S374.04,150.148,374.04,243.899C374.04,337.651,297.767,413.923,204.015,413.923z M204.015,88.874  c-85.481,0-155.024,69.544-155.024,155.024c0,85.481,69.543,155.024,155.024,155.024S359.04,329.379,359.04,243.898  C359.04,158.418,289.496,88.874,204.015,88.874z" fill="#485358"/><circle cx="341" cy="243" r="162" fill="#ffffff"/><circle cx="341" cy="243" r="95" fill="#e978a0"/><path d="M341.975,148.069c-40.768,0-75.585,25.461-89.432,61.346h178.863  C417.561,173.53,382.744,148.069,341.975,148.069z" fill="#f3ce72"/><path d="M287.012,322.403c4.389,3.079,9.047,5.798,13.934,8.117  c9.93-6.95,21.79-14.093,35.241-20.678c19.669-9.628,53.565-23.122,92.728-25.595c2.238-4.814,4.087-9.843,5.509-15.05  c-44.393,1.484-82.874,16.67-104.734,27.37C314.103,304.196,299.358,313.235,287.012,322.403z M436.963,231.181  c-52.104-2.984-98.455,14.988-123.315,27.157c-20.658,10.112-39.842,22.698-53.906,34.783c2.549,4.249,5.417,8.285,8.573,12.073  c11.995-10.487,29.777-22.784,51.832-33.58c23.739-11.621,68.196-28.884,117.632-25.589c0.015-0.707,0.027-1.414,0.027-2.125  C437.805,239.587,437.515,235.342,436.963,231.181z" opacity="0.5" fill="#ffffff"/><path d="M302.887,189.254c0-41.392,15.482-79.161,40.959-107.856  c-0.624-0.007-1.245-0.024-1.871-0.024c-89.76,0-162.524,72.765-162.524,162.525s72.765,162.524,162.524,162.524  c48.368,0,91.793-21.137,121.565-54.668C374.644,350.75,302.887,278.388,302.887,189.254z" opacity="0.1"/><g><path d="M341.976,413.923c-93.752,0-170.024-76.272-170.024-170.024S248.224,73.875,341.976,73.875   C435.727,73.874,512,150.147,512,243.899S435.727,413.923,341.976,413.923z M341.976,88.874   c-85.481,0-155.024,69.544-155.024,155.024c0,85.481,69.543,155.024,155.024,155.024C427.456,398.923,497,329.38,497,243.899   S427.456,88.874,341.976,88.874z" fill="#485358"/><path d="M0,331.258v85.792c0,11.639,9.435,21.075,21.075,21.075h299.826   c11.639,0,21.075-9.435,21.075-21.075v-85.792c0-11.639-9.435-21.075-21.075-21.075H21.075C9.435,310.184,0,319.619,0,331.258z" fill="#485358"/></g><path d="M70.277,417.051v-85.792c0-11.639,9.436-21.075,21.075-21.075H21.075  C9.435,310.184,0,319.619,0,331.258v85.792c0,11.639,9.435,21.075,21.075,21.075h70.277  C79.712,438.126,70.277,428.69,70.277,417.051z" opacity="0.1"/><g><path d="M102.793,379.61c-4.142,0-7.5-3.358-7.5-7.5v-11.32c0-4.142,3.358-7.5,7.5-7.5s7.5,3.358,7.5,7.5   v11.32C110.293,376.252,106.935,379.61,102.793,379.61z" fill="#ffffff"/><path d="M239.182,379.61c-4.142,0-7.5-3.358-7.5-7.5v-11.32c0-4.142,3.358-7.5,7.5-7.5s7.5,3.358,7.5,7.5   v11.32C246.682,376.252,243.324,379.61,239.182,379.61z" fill="#ffffff"/><path d="M170.988,388.302c-9.058,0-17.672-3.923-23.633-10.763c-2.721-3.123-2.396-7.86,0.727-10.582   c3.123-2.721,7.859-2.397,10.582,0.727c3.111,3.57,7.604,5.618,12.325,5.618s9.213-2.048,12.325-5.618   c2.721-3.123,7.459-3.447,10.582-0.727c3.123,2.722,3.448,7.459,0.727,10.582C188.66,384.379,180.046,388.302,170.988,388.302z" fill="#ffffff"/></g></g><g transform="matrix(0.09765625 0 0 0.09765625 150 325)" id="L1_2510"><path d="M434.951,300.096c-25.053,48.653-60.567,83.117-76.447,97.072c-3.053,2.683-7.813,0.232-7.402-3.812  c2.135-21.032,9.564-69.959,34.617-118.612s60.566-83.117,76.447-97.072c3.053-2.683,7.812-0.232,7.402,3.812  C467.433,202.516,460.004,251.443,434.951,300.096z" fill="#7dd49b"/><path d="M434.951,300.096c-25.053,48.653-60.567,83.117-76.447,97.072  c-3.053,2.683-7.813,0.232-7.402-3.812c2.135-21.032,9.564-69.959,34.617-118.612s60.566-83.117,76.447-97.072  c3.053-2.683,7.812-0.232,7.402,3.812C467.433,202.516,460.004,251.443,434.951,300.096z" opacity="0.2"/><path d="M364.977,512h-89.575c-7.237,0-12.992-6.074-12.602-13.301l2.013-37.272  c0.946-17.512,0.946-35.063,0-52.575l-2.731-50.573h116.215l-2.731,50.573c-0.946,17.512-0.946,35.063,0,52.575l2.013,37.272  C377.969,505.926,372.214,512,364.977,512z" fill="#7dd49b"/><path d="M364.977,512h-89.575c-7.237,0-12.992-6.074-12.602-13.301l2.013-37.272  c0.946-17.512,0.946-35.063,0-52.575l-2.731-50.573h116.215l-2.731,50.573c-0.946,17.512-0.946,35.063,0,52.575l2.013,37.272  C377.969,505.926,372.214,512,364.977,512z" opacity="0.1"/><path d="M378.297,358.28H262.082l2.731-50.573c0.946-17.512,0.946-35.063,0-52.575L262.8,217.86  c-0.39-7.227,5.364-13.3,12.602-13.3h89.575c7.237,0,12.992,6.074,12.602,13.3l-2.013,37.272c-0.946,17.512-0.946,35.063,0,52.575  L378.297,358.28z" fill="#7dd49b"/><path d="M375.115,347.71H265.264c-3.355,0-6.075,2.72-6.075,6.075v8.989c0,3.355,2.72,6.075,6.075,6.075  h109.851c3.355,0,6.075-2.72,6.075-6.075v-8.989C381.191,350.43,378.47,347.71,375.115,347.71z" fill="#f3ce72"/><path d="M311.694,330.277l-2.592-47.99c-0.946-17.512-0.946-35.063,0-52.575  l1.358-25.153h-35.058c-7.237,0-12.992,6.074-12.602,13.301l2.013,37.272c0.946,17.512,0.946,35.063,0,52.575l-2.194,40.632  c-2.024,0.986-3.431,3.043-3.431,5.446v8.989c0,2.403,1.407,4.46,3.431,5.446l2.194,40.632c0.946,17.512,0.946,35.063,0,52.575  l-2.013,37.272c-0.39,7.227,5.364,13.301,12.602,13.301h23.665c7.185,0,12.898-6.03,12.51-13.204l-2.476-45.842  c-0.946-17.512-0.946-35.063,0-52.575l2.592-47.99c2.253-1.092,3.81-3.394,3.81-6.066v-9.98  C315.503,333.672,313.946,331.37,311.694,330.277z" opacity="0.05"/><g><path d="M274.767,512H172.188c-7.185,0-12.898-6.03-12.51-13.204l2.476-45.842   c0.946-17.512,0.946-35.063,0-52.575l-3.189-59.046h129.026l-3.189,59.046c-0.946,17.512-0.946,35.063,0,52.575l2.476,45.842   C287.665,505.97,281.952,512,274.767,512z" fill="#7dd49b"/><path d="M287.991,341.333H158.964l3.189-59.046c0.946-17.512,0.946-35.063,0-52.575l-3.189-59.046H287.99   l-3.189,59.046c-0.946,17.512-0.946,35.063,0,52.575L287.991,341.333z" fill="#7dd49b"/></g><path d="M287.991,341.333H158.964l3.189-59.046c0.946-17.512,0.946-35.063,0-52.575  l-3.189-59.046H287.99l-3.189,59.046c-0.946,17.512-0.946,35.063,0,52.575L287.991,341.333z" opacity="0.1"/><path d="M287.991,170.667H158.964l3.189-59.046c0.946-17.512,0.946-35.063,0-52.575l-2.476-45.842  C159.29,6.03,165.003,0,172.188,0h102.579c7.185,0,12.898,6.03,12.51,13.204l-2.476,45.842c-0.946,17.512-0.946,35.063,0,52.575  L287.991,170.667z" fill="#7dd49b"/><g><path d="M284.458,158.931H162.497c-3.725,0-6.745,3.02-6.745,6.745v9.98c0,3.725,3.02,6.745,6.745,6.745   h121.961c3.725,0,6.745-3.02,6.745-6.745v-9.98C291.203,161.951,288.183,158.931,284.458,158.931z" fill="#f3ce72"/><path d="M284.458,329.598H162.497c-3.725,0-6.745,3.02-6.745,6.745v9.98c0,3.725,3.02,6.745,6.745,6.745   h121.961c3.725,0,6.745-3.02,6.745-6.745v-9.98C291.203,332.618,288.183,329.598,284.458,329.598z" fill="#f3ce72"/></g><path d="M204.375,498.796l2.476-45.841c0.946-17.513,0.946-35.064,0-52.577  l-2.592-47.989c-2.253-1.092-3.81-3.394-3.81-6.066v-9.98c0-2.672,1.557-4.973,3.81-6.066l2.592-47.989  c0.946-17.513,0.946-35.064,0-52.577l-2.592-47.989c-2.253-1.092-3.81-3.394-3.81-6.066v-9.98c0-2.672,1.557-4.974,3.81-6.066  l2.592-47.989c0.946-17.513,0.946-35.064,0-52.577l-2.476-45.84C203.988,6.03,209.701,0,216.885,0h-44.698  c-7.185,0-12.898,6.03-12.51,13.204l2.476,45.841c0.946,17.513,0.946,35.063,0,52.576l-2.592,47.99  c-2.253,1.092-3.81,3.394-3.81,6.066v9.98c0,2.672,1.557,4.974,3.81,6.066l2.592,47.99c0.946,17.512,0.946,35.063,0,52.575  l-2.592,47.99c-2.253,1.092-3.81,3.394-3.81,6.066v9.98c0,2.672,1.557,4.974,3.81,6.066l2.592,47.99  c0.946,17.513,0.946,35.063,0,52.576l-2.476,45.841C159.29,505.97,165.003,512,172.188,512h44.698  C209.701,512,203.988,505.97,204.375,498.796z" opacity="0.08"/><path d="M126.849,206.234c25.348,48.5,33.073,97.38,35.336,118.4c0.435,4.041-4.309,6.521-7.379,3.857  c-15.965-13.858-51.687-48.106-77.035-96.606s-33.073-97.381-35.336-118.4c-0.435-4.041,4.309-6.521,7.379-3.856  C65.779,123.486,101.501,157.734,126.849,206.234z" fill="#7dd49b"/><path d="M126.849,206.234c25.348,48.5,33.073,97.38,35.336,118.4  c0.435,4.041-4.309,6.521-7.379,3.857c-15.965-13.858-51.687-48.106-77.035-96.606s-33.073-97.381-35.336-118.4  c-0.435-4.041,4.309-6.521,7.379-3.856C65.779,123.486,101.501,157.734,126.849,206.234z" opacity="0.2"/><path d="M162.185,324.634c-2.263-21.019-9.988-69.899-35.336-118.4  c-5.694-10.894-11.913-21.062-18.312-30.449c-0.225,18.85,0.982,39.911,4.875,61.763c4.884,27.416,13.302,52.209,21.971,72.583  c7.754,7.921,14.522,14.105,19.423,18.359C157.876,331.155,162.62,328.675,162.185,324.634z" opacity="0.05"/><path d="M177.808,208.159c3.947,54.582-8.424,102.498-14.715,122.681c-1.21,3.88-6.549,4.266-8.304,0.601  c-9.13-19.068-28.266-64.705-32.214-119.287c-3.947-54.582,8.424-102.498,14.715-122.681c1.21-3.88,6.549-4.266,8.304-0.601  C154.724,107.94,173.861,153.577,177.808,208.159z" fill="#7dd49b"/></g><g transform="matrix(0.13671875 0 0 0.13671875 140 140)" id="L1_2511"><path d="M252.67,492.808c88.946,0,153.393-28.516,161.051-127.355  c12.442-160.57-72.105-161.051-161.051-161.051S79.177,204.883,91.619,365.453C99.277,464.292,163.724,492.808,252.67,492.808z" fill="#e7eeef"/><path d="M357.905,303.801c0-46.649-47.468-84.466-106.022-84.466s-106.022,37.817-106.022,84.466  s32.728,84.466,106.022,84.466C325.177,388.266,357.905,350.45,357.905,303.801z" fill="#7dd49b"/><path d="M119.416,359.728c31.639-3.639,55.793,33.707,60.922,76.719  c1.36,11.401,0.616,20.674-1.686,28.205c5.48,5.422,9.505,12.382,11.337,20.315l0,0c0.157,0.679,0.271,1.355,0.363,2.029  c-54.108-11.966-91.299-44.166-99.409-112.348C98.416,366.397,108.123,361.026,119.416,359.728z" opacity="0.08"/><path d="M63.146,427.963c2.727,40.67,16.153,66.497,52.285,66.497c29.488,0,59.756-11.141,54.095-58.616  c-5.17-43.356-29.517-80.999-61.408-77.331C79.321,361.825,60.69,391.33,63.146,427.963z" fill="#e7eeef"/><path d="M115.323,447.271h23.212c11.633,0,22.418,4.394,30.597,11.757  c-5.357,28.099-29.783,35.431-53.7,35.431c-19.937,0-32.95-7.877-41.078-21.758C81.93,457.399,97.652,447.271,115.323,447.271z" opacity="0.05"/><path d="M97.303,512h60.281c14.306,0,24.891-13.31,21.671-27.249l0,0  c-4.421-19.137-21.464-32.691-41.104-32.691h-21.415c-19.641,0-36.683,13.554-41.104,32.691l0,0  C72.411,498.69,82.997,512,97.303,512z" id="SVGCleanerId_0" fill="#e7eeef"/><path d="M97.303,512h60.281c14.306,0,24.891-13.31,21.671-27.249l0,0   c-4.421-19.137-21.464-32.691-41.104-32.691h-21.415c-19.641,0-36.683,13.554-41.104,32.691l0,0   C72.411,498.69,82.997,512,97.303,512z" id="SVGCleanerId_0_1_" fill="#e7eeef"/><path d="M384.349,359.728c-31.639-3.639-55.793,33.707-60.922,76.719  c-1.36,11.401-0.615,20.674,1.686,28.205c-5.48,5.422-9.505,12.382-11.337,20.315l0,0c-0.157,0.679-0.271,1.355-0.363,2.029  c54.108-11.966,91.299-44.166,99.409-112.348C405.349,366.397,395.642,361.026,384.349,359.728z" opacity="0.08"/><path d="M440.619,427.963c-2.727,40.67-16.153,66.497-52.285,66.497c-29.488,0-59.756-11.141-54.095-58.616  c5.17-43.356,29.517-80.999,61.408-77.331C424.444,361.825,443.076,391.33,440.619,427.963z" fill="#e7eeef"/><path d="M388.442,447.271H365.23c-11.633,0-22.418,4.394-30.597,11.757  c5.358,28.099,29.783,35.431,53.7,35.431c19.937,0,32.95-7.877,41.078-21.758C421.835,457.399,406.113,447.271,388.442,447.271z" opacity="0.05"/><path d="M404.488,217.163c0-67.145-68.324-121.577-152.605-121.577s-150.68,54.432-150.68,121.577  s45.183,121.577,150.68,121.577S404.488,284.308,404.488,217.163z" fill="#e978a0"/><path d="M225.996,50.933L98.918,139.915c0,0-42.727-100.795,2.125-132.2S225.996,50.933,225.996,50.933z" fill="#e7eeef"/><path d="M122.78,38.76c-19.384,13.573-9.987,53.837,0.677,83.972l77.999-54.616  C176.786,47.788,142.164,25.187,122.78,38.76z" fill="#f0bdd5"/><path d="M277.769,50.933l127.079,88.981c0,0,42.727-100.795-2.125-132.2  C357.872-23.69,277.769,50.933,277.769,50.933z" fill="#e7eeef"/><path d="M380.985,38.76c19.384,13.573,9.987,53.837-0.677,83.972l-78-54.616  C326.979,47.788,361.601,25.187,380.985,38.76z" fill="#f0bdd5"/><path d="M413.722,172.315c0-71.208-72.458-128.934-161.839-128.934S90.044,101.107,90.044,172.315  s49.959,128.934,161.839,128.934S413.722,243.523,413.722,172.315z" fill="#e7eeef"/><path d="M294.987,270.72c-103.092,0-149.126-53.191-149.126-118.806  c0-47.518,35.021-88.513,85.617-107.515c-79.749,7.993-141.434,62.215-141.434,127.916c0,71.208,49.959,128.934,161.839,128.934  c65.674,0,110.001-19.896,135.422-50.728C364.131,263.274,333.552,270.72,294.987,270.72z" opacity="0.08"/><path d="M398.857,255.209c3.324-10.533,5.152-21.701,5.543-33.285  c6.271-15.271,9.322-32.028,9.322-49.609c0-14.4-2.966-28.249-8.433-41.18c-24.244,2.016-47.384,11.611-47.384,44.016  c0,14.059,9.201,25.456,20.55,25.456c0.087,0,0.173-0.009,0.26-0.011v91.113c0,18.726,15.18,33.906,33.906,33.906h2.159  C413.769,295.113,408.086,272.292,398.857,255.209z" opacity="0.05"/><g><path d="M176.863,180.513c-4.142,0-7.5-3.358-7.5-7.5v-12.795c0-4.142,3.358-7.5,7.5-7.5s7.5,3.358,7.5,7.5   v12.795C184.363,177.155,181.005,180.513,176.863,180.513z" fill="#485358"/><path d="M326.902,180.513c-4.142,0-7.5-3.358-7.5-7.5v-12.795c0-4.142,3.358-7.5,7.5-7.5s7.5,3.358,7.5,7.5   v12.795C334.402,177.155,331.044,180.513,326.902,180.513z" fill="#485358"/><path d="M274.268,182.804c0,12.189-10.098,22.021-22.385,21.584c-11.704-0.416-20.81-10.391-20.81-22.101   v-15.191c0-3.252,2.637-5.889,5.889-5.889h31.417c3.252,0,5.889,2.636,5.889,5.889V182.804z" fill="#485358"/></g><path d="M391.213,151.914v152.629h0.019c0.397,20.676,17.27,37.318,38.041,37.318  s37.644-16.642,38.041-37.318h0.019V151.914H391.213z" fill="#e7eeef"/><path d="M391.213,156.233v53.132c7.33-0.113,13.724-4.981,17.284-12.231  c0.67-1.365,2.562-1.365,3.232,0c3.603,7.336,10.104,12.242,17.544,12.242c7.439,0,13.941-4.906,17.544-12.242  c0.67-1.365,2.562-1.365,3.232,0c3.56,7.25,9.954,12.118,17.284,12.231v-53.132H391.213z" opacity="0.1"/><path d="M429.273,122.732c-27.842,0-58.869,6.946-58.869,44.47c0,14.059,9.2,25.456,20.55,25.456  c7.439,0,13.941-4.906,17.544-12.242c0.67-1.365,2.562-1.365,3.232,0c3.603,7.336,10.104,12.242,17.544,12.242  s13.941-4.906,17.544-12.242c0.67-1.365,2.562-1.365,3.232,0c3.603,7.336,10.104,12.242,17.544,12.242  c11.349,0,20.55-11.397,20.55-25.456C488.142,129.678,457.115,122.732,429.273,122.732z" fill="#e7eeef"/><path d="M288.702,483.539L288.702,483.539c-37.947,37.947-99.472,37.947-137.419,0l-63-62.999  c-37.947-37.947-37.947-99.472,0-137.419l0,0c37.947-37.947,99.472-37.947,137.419,0l62.999,62.999  C326.65,384.067,326.65,445.592,288.702,483.539z" fill="#f3ce72"/><path d="M232.11,483.066c-22.292,3.931-45.14-3.26-61.117-19.237l-63-63  c-27.018-27.018-27.018-70.98,0-97.997c10.114-10.115,22.868-16.767,36.882-19.238c22.293-3.931,45.141,3.261,61.118,19.237  l62.999,62.999c27.017,27.018,27.017,70.98,0,97.998C258.878,473.942,246.124,480.594,232.11,483.066z" opacity="0.1"/><g><path d="M149.882,397.478c-1.919,0-3.839-0.732-5.303-2.197c-2.929-2.929-2.929-7.678,0-10.607   l45.258-45.258c2.929-2.929,7.678-2.929,10.606,0c2.929,2.929,2.929,7.678,0,10.606l-45.258,45.258   C153.721,396.745,151.802,397.478,149.882,397.478z" fill="#485358"/><path d="M132.878,380.474c-1.919,0-3.839-0.732-5.303-2.197c-2.929-2.929-2.929-7.678,0-10.607   l45.258-45.258c2.929-2.929,7.678-2.929,10.606,0c2.929,2.929,2.929,7.678,0,10.606l-45.258,45.258   C136.717,379.741,134.798,380.474,132.878,380.474z" fill="#485358"/><path d="M122.677,356.661c-1.293,0-2.603-0.334-3.798-1.038c-3.57-2.102-4.76-6.699-2.659-10.268   l23.448-39.829c2.101-3.57,6.7-4.759,10.268-2.659c3.57,2.102,4.76,6.699,2.659,10.268l-23.448,39.829   C127.749,355.339,125.247,356.661,122.677,356.661z" fill="#485358"/><path d="M169.997,417.592c-1.919,0-3.839-0.732-5.303-2.197c-2.929-2.929-2.929-7.678,0-10.606   l45.258-45.258c2.929-2.929,7.678-2.929,10.606,0c2.929,2.929,2.929,7.678,0,10.606L175.3,415.395   C173.836,416.86,171.916,417.592,169.997,417.592z" fill="#485358"/><path d="M186.987,434.582c-1.919,0-3.839-0.732-5.303-2.197c-2.929-2.929-2.929-7.678,0-10.607   l45.258-45.258c2.929-2.929,7.678-2.929,10.606,0c2.929,2.929,2.929,7.678,0,10.606l-45.258,45.258   C190.826,433.85,188.907,434.582,186.987,434.582z" fill="#485358"/><path d="M192.626,394.963c-1.919,0-3.839-0.732-5.303-2.197l-20.115-20.115   c-2.929-2.929-2.929-7.678,0-10.607s7.678-2.929,10.606,0l20.115,20.115c2.929,2.929,2.929,7.678,0,10.606   C196.465,394.231,194.545,394.963,192.626,394.963z" fill="#485358"/><path d="M218.497,466.092c-1.919,0-3.839-0.732-5.303-2.197l-13.617-13.617   c-2.929-2.929-2.929-7.678,0-10.606l45.258-45.258c2.929-2.929,7.678-2.929,10.606,0l13.617,13.617   c2.929,2.929,2.929,7.678,0,10.607s-7.678,2.929-10.607,0l-8.313-8.314l-34.651,34.651l8.313,8.314   c2.929,2.929,2.929,7.678,0,10.606C222.336,465.36,220.416,466.092,218.497,466.092z" fill="#485358"/><path d="M241.126,443.463c-1.919,0-3.839-0.732-5.303-2.197l-31.51-31.51c-2.929-2.929-2.929-7.678,0-10.606   c2.929-2.929,7.678-2.929,10.606,0l31.51,31.51c2.929,2.929,2.929,7.678,0,10.606C244.965,442.731,243.045,443.463,241.126,443.463   z" fill="#485358"/><path d="M155.507,357.844c-1.919,0-3.839-0.732-5.303-2.197l-21.1-21.099c-2.929-2.929-2.929-7.678,0-10.606   c2.929-2.929,7.678-2.929,10.606,0l21.1,21.099c2.929,2.929,2.929,7.677,0,10.607C159.346,357.112,157.427,357.844,155.507,357.844   z" fill="#485358"/></g><path d="M406.462,512h-60.281c-14.306,0-24.892-13.31-21.671-27.249l0,0  c4.421-19.137,21.463-32.691,41.104-32.691h21.415c19.641,0,36.683,13.554,41.104,32.691l0,0  C431.354,498.69,420.768,512,406.462,512z" id="SVGCleanerId_1" fill="#e7eeef"/><path d="M406.462,512h-60.281c-14.306,0-24.892-13.31-21.671-27.249l0,0   c4.421-19.137,21.463-32.691,41.104-32.691h21.415c19.641,0,36.683,13.554,41.104,32.691l0,0   C431.354,498.69,420.768,512,406.462,512z" id="SVGCleanerId_1_1_" fill="#e7eeef"/><path d="M47.671,247.546c-19.687,19.687-36.715,46.538-10.181,73.072c9.941,9.941,24.506,11.495,32.531,3.469  c5.26-5.26,6.389-13.327,3.749-21.061c-0.491-1.439,0.847-2.776,2.285-2.285c7.735,2.64,15.801,1.511,21.062-3.749  c5.26-5.26,6.389-13.327,3.749-21.061c-0.491-1.439,0.847-2.776,2.285-2.285c7.735,2.64,15.801,1.511,21.062-3.749  c8.025-8.025,6.472-22.59-3.469-32.531C94.209,210.83,67.359,227.858,47.671,247.546z" fill="#e7eeef"/></g></defs><g fi:class="KUsePattern"><pattern id="pattern_L1_2507" width="350" height="350" patternUnits="userSpaceOnUse"><use xlink:href="#L1_2507" x="-350" y="-350"/><use xlink:href="#L1_2507" x="0" y="-350"/><use xlink:href="#L1_2507" x="350" y="-350"/><use xlink:href="#L1_2507" x="-350" y="0"/><use xlink:href="#L1_2507" x="0" y="0"/><use xlink:href="#L1_2507" x="350" y="0"/><use xlink:href="#L1_2507" x="-350" y="350"/><use xlink:href="#L1_2507" x="0" y="350"/><use xlink:href="#L1_2507" x="350" y="350"/></pattern><rect x="0" y="0" width="100%" height="100%" fill="url(#pattern_L1_2507)"/></g><g fi:class="KUsePattern"><pattern id="pattern_L1_2508" width="350" height="350" patternUnits="userSpaceOnUse"><use xlink:href="#L1_2508" x="-350" y="-350"/><use xlink:href="#L1_2508" x="0" y="-350"/><use xlink:href="#L1_2508" x="350" y="-350"/><use xlink:href="#L1_2508" x="-350" y="0"/><use xlink:href="#L1_2508" x="0" y="0"/><use xlink:href="#L1_2508" x="350" y="0"/><use xlink:href="#L1_2508" x="-350" y="350"/><use xlink:href="#L1_2508" x="0" y="350"/><use xlink:href="#L1_2508" x="350" y="350"/></pattern><rect x="0" y="0" width="100%" height="100%" fill="url(#pattern_L1_2508)"/></g><g fi:class="KUsePattern"><pattern id="pattern_L1_2509" width="350" height="350" patternUnits="userSpaceOnUse"><use xlink:href="#L1_2509" x="-350" y="-350"/><use xlink:href="#L1_2509" x="0" y="-350"/><use xlink:href="#L1_2509" x="350" y="-350"/><use xlink:href="#L1_2509" x="-350" y="0"/><use xlink:href="#L1_2509" x="0" y="0"/><use xlink:href="#L1_2509" x="350" y="0"/><use xlink:href="#L1_2509" x="-350" y="350"/><use xlink:href="#L1_2509" x="0" y="350"/><use xlink:href="#L1_2509" x="350" y="350"/></pattern><rect x="0" y="0" width="100%" height="100%" fill="url(#pattern_L1_2509)"/></g><g fi:class="KUsePattern"><pattern id="pattern_L1_2510" width="350" height="350" patternUnits="userSpaceOnUse"><use xlink:href="#L1_2510" x="-350" y="-350"/><use xlink:href="#L1_2510" x="0" y="-350"/><use xlink:href="#L1_2510" x="350" y="-350"/><use xlink:href="#L1_2510" x="-350" y="0"/><use xlink:href="#L1_2510" x="0" y="0"/><use xlink:href="#L1_2510" x="350" y="0"/><use xlink:href="#L1_2510" x="-350" y="350"/><use xlink:href="#L1_2510" x="0" y="350"/><use xlink:href="#L1_2510" x="350" y="350"/></pattern><rect x="0" y="0" width="100%" height="100%" fill="url(#pattern_L1_2510)"/></g><g fi:class="KUsePattern"><pattern id="pattern_L1_2511" width="350" height="350" patternUnits="userSpaceOnUse"><use xlink:href="#L1_2511" x="-350" y="-350"/><use xlink:href="#L1_2511" x="0" y="-350"/><use xlink:href="#L1_2511" x="350" y="-350"/><use xlink:href="#L1_2511" x="-350" y="0"/><use xlink:href="#L1_2511" x="0" y="0"/><use xlink:href="#L1_2511" x="350" y="0"/><use xlink:href="#L1_2511" x="-350" y="350"/><use xlink:href="#L1_2511" x="0" y="350"/><use xlink:href="#L1_2511" x="350" y="350"/></pattern><rect x="0" y="0" width="100%" height="100%" fill="url(#pattern_L1_2511)"/></g></svg>