<svg xmlns="http://www.w3.org/2000/svg" xmlns:xlink="http://www.w3.org/1999/xlink" xmlns:fi="http://pattern.flaticon.com/" x="0" y="0" width="700" height="350" viewBox="0 0 700 350"><rect x="0px" y="0px" width="100%" height="100%" opacity="1" fill="#edffe7"/><defs><g transform="matrix(0.1428571492433548 0 0 0.1428571492433548 237.5 150)" id="L1_1517"><rect x="75px" y="310px" width="200px" height="40px" id="XMLID_858_" fill="#00d7df"/><rect x="175px" y="310px" width="100px" height="40px" id="XMLID_859_" fill="#ccf8f3"/><circle cx="175" cy="170" r="130" id="XMLID_860_" fill="#ccf8f3"/><path d="M135,170c0,11.046-8.954,20-20,20l0,0c-11.046,0-20-8.954-20-20V20   c0-11.046,8.954-20,20-20l0,0c11.046,0,20,8.954,20,20V170z" id="XMLID_861_" fill="#006c70"/><path d="M175,300c-71.797,0-130-58.203-130-130S103.203,40,175,40" id="XMLID_862_" fill="#00d7df"/><circle cx="235" cy="90" r="10" id="XMLID_863_" fill="#003638"/><circle cx="175" cy="170" r="70" id="XMLID_864_" fill="#006c70"/><path d="M175,240c-38.66,0-70-31.34-70-70s31.34-70,70-70" id="XMLID_865_" fill="#003638"/><rect x="125px" y="270px" width="100px" height="60px" id="XMLID_866_" fill="#00d7df"/><rect x="175px" y="270px" width="50px" height="60px" id="XMLID_867_" fill="#ccf8f3"/></g><g transform="matrix(0.15625 0 0 0.15625 150 325)" id="L1_1518"><rect x="30px" y="140px" width="260px" height="180px" id="XMLID_1440_" fill="#ea348b"/><rect x="10px" y="90px" width="300px" height="70px" id="XMLID_1441_" fill="#af2768"/><rect x="30px" y="140px" width="130px" height="180px" id="XMLID_1442_" fill="#af2768"/><rect x="10px" y="90px" width="150px" height="70px" id="XMLID_1443_" fill="#751a46"/><rect x="120px" y="90px" width="80px" height="230px" id="XMLID_1444_" fill="#ffda44"/><rect x="120px" y="90px" width="40px" height="230px" id="XMLID_1445_" fill="#ff9811"/><g id="XMLID_1446_"><path d="M60,0c0,0-25,25-25,66.668c0,41.666,25,66.666,25,66.666    c58.333,0,100-66.666,100-66.666S118.333,0,60,0z" id="XMLID_1447_" fill="#ffda44"/><path d="M260,0c-58.333,0-100,66.668-100,66.668s41.667,66.666,100,66.666    c0,0,25-25,25-66.666C285,25,260,0,260,0z" id="XMLID_1448_" fill="#ffda44"/><circle cx="160" cy="66" r="33" id="XMLID_1449_" fill="#ff5023"/></g></g><g transform="matrix(0.14285919070243835 0 0 0.14285919070243835 62.5 150)" id="L1_1519"><path d="M187.316,68.113 217.316,87.23 217.316,21.47 209.497,16.495z" id="XMLID_42_" fill="#ffda44"/><circle cx="213" cy="18" r="18" id="XMLID_41_" fill="#ff9811"/><path d="M162.678,68.113 132.678,87.23 132.678,21.47 140.497,16.495z" id="XMLID_40_" fill="#ffda44"/><circle cx="136" cy="18" r="18" id="XMLID_39_" fill="#be720d"/><path d="M272.939,58.777c-25.373-16.125-45.096-6.904-56.606,2.717   c-12.065-7.296-26.209-11.498-41.336-11.498c-16.948,0-32.653,5.285-45.59,14.275c-11.828-8.157-29.872-13.77-52.353,0.518   c0,0,3.341,26.803,22.313,39.13c-2.818,8.176-4.37,16.943-4.37,26.077c0,44.183,35.817,80,80,80s80-35.817,80-80   c0-10.977-2.215-21.435-6.215-30.958C269.389,87.31,272.939,58.777,272.939,58.777z" id="XMLID_949_" fill="#ffda44"/><path d="M129.408,64.271c-11.828-8.157-29.872-13.77-52.353,0.518   c0,0,3.341,26.803,22.313,39.13c-2.818,8.176-4.37,16.943-4.37,26.077c0,44.183,35.817,80,80,80v-160   C158.049,49.996,142.344,55.28,129.408,64.271z" id="XMLID_950_" fill="#ff9811"/><path d="M258.776,262.562c-8.244-18.151-24.119-34.215-44.219-43.666l-19.56-48.901h-20h-20   l-19.56,48.9c-20.1,9.451-35.975,25.516-44.219,43.666c-13.09,13.516-21.449,27.974-17.834,42.434   c4.255,17.019,15.751,23.172,27.555,23.089c11.151,13.489,24.058,21.911,24.058,21.911s42.682,0,50,0s50,0,50,0   s12.907-8.422,24.058-21.911c11.805,0.083,23.3-6.07,27.555-23.089C280.225,290.535,271.866,276.077,258.776,262.562z" id="XMLID_951_" fill="#ffda44"/><path d="M154.997,169.995l-19.56,48.9c-20.1,9.451-35.975,25.516-44.219,43.666   c-13.09,13.516-21.449,27.974-17.834,42.434c4.255,17.019,15.751,23.172,27.555,23.089c11.151,13.489,24.058,21.911,24.058,21.911   s42.682,0,50,0c0,0,0-92.39,0-130c0-4.015,0-7.413,0-10v-40H154.997z" id="XMLID_952_" fill="#ff9811"/><ellipse cx="124px" cy="304px" rx="40px" ry="45px" id="XMLID_953_" fill="#be720d"/><circle cx="124" cy="317" r="17" id="XMLID_954_" fill="#ffda44"/><ellipse cx="224px" cy="304px" rx="40px" ry="45px" id="XMLID_955_" fill="#ff9811"/><circle cx="225" cy="317" r="17" id="XMLID_956_" fill="#ffda44"/><circle cx="134" cy="119" r="7" id="XMLID_957_" fill="#003638"/><circle cx="214" cy="119" r="7" id="XMLID_958_" fill="#003638"/><path d="M129.997,249.995c13.808,0,25-11.192,25-25c0-9.534-5.337-17.818-13.186-22.035    l-6.374,15.935c-10.207,4.799-19.317,11.31-26.899,18.927C112.905,245.113,120.881,249.995,129.997,249.995z" id="XMLID_960_" fill="#be720d"/><path d="M194.997,229.995c0,11.046,8.954,20,20,20c10.424,0,18.977-7.977,19.907-18.159    c-6.095-5.061-12.931-9.453-20.347-12.94l-3.409-8.522C201.945,212.169,194.997,220.266,194.997,229.995z" id="XMLID_962_" fill="#ff9811"/><ellipse cx="174px" cy="169px" rx="60px" ry="40px" id="XMLID_963_" fill="#ffe98f"/><path d="M174.997,209.995c-33.137,0-60-17.908-60-40s26.863-40,60-40" id="XMLID_964_" fill="#ffda44"/><circle cx="157" cy="169" r="7" id="XMLID_965_" fill="#ff9811"/><circle cx="192" cy="169" r="7" id="XMLID_966_" fill="#ff9811"/></g><g transform="matrix(0.18918919563293457 0 0 0.18918919563293457 315 315)" id="L1_1520"><rect x="40px" y="225px" width="295px" height="50px" id="XMLID_33_" fill="#af2768"/><rect x="184px" y="225px" width="150px" height="50px" id="XMLID_32_" fill="#ea348b"/><path d="M370,80c0-19.33-15.67-35-35-35s-35,15.67-35,35c0,13.961,8.176,26.01,20,31.627   V125H185H50v-13.373C61.824,106.01,70,93.961,70,80c0-19.33-15.67-35-35-35S0,60.67,0,80c0,13.961,8.176,26.01,20,31.627V325h30   v-30h135h135v30h30V111.627C361.824,106.01,370,93.961,370,80z M50,265V155h30v110H50z M110,265V155h30v110H110z M185,265h-15V155   h15h15v110H185z M230,265V155h30v110H230z M320,265h-30V155h30V265z" id="XMLID_869_" fill="#ccf8f3"/><path d="M185,265h-15V155h15v-30H50v-13.373C61.824,106.01,70,93.961,70,80   c0-19.33-15.67-35-35-35S0,60.67,0,80c0,13.961,8.176,26.01,20,31.627V325h30v-30h135V265z M80,265H50V155h30V265z M140,265h-30   V155h30V265z" id="XMLID_876_" fill="#00d7df"/></g></defs><g fi:class="KUsePattern"><pattern id="pattern_L1_1517" width="350" height="350" patternUnits="userSpaceOnUse"><use xlink:href="#L1_1517" x="-350" y="-350"/><use xlink:href="#L1_1517" x="0" y="-350"/><use xlink:href="#L1_1517" x="350" y="-350"/><use xlink:href="#L1_1517" x="-350" y="0"/><use xlink:href="#L1_1517" x="0" y="0"/><use xlink:href="#L1_1517" x="350" y="0"/><use xlink:href="#L1_1517" x="-350" y="350"/><use xlink:href="#L1_1517" x="0" y="350"/><use xlink:href="#L1_1517" x="350" y="350"/></pattern><rect x="0" y="0" width="100%" height="100%" fill="url(#pattern_L1_1517)"/></g><g fi:class="KUsePattern"><pattern id="pattern_L1_1518" width="350" height="350" patternUnits="userSpaceOnUse"><use xlink:href="#L1_1518" x="-350" y="-350"/><use xlink:href="#L1_1518" x="0" y="-350"/><use xlink:href="#L1_1518" x="350" y="-350"/><use xlink:href="#L1_1518" x="-350" y="0"/><use xlink:href="#L1_1518" x="0" y="0"/><use xlink:href="#L1_1518" x="350" y="0"/><use xlink:href="#L1_1518" x="-350" y="350"/><use xlink:href="#L1_1518" x="0" y="350"/><use xlink:href="#L1_1518" x="350" y="350"/></pattern><rect x="0" y="0" width="100%" height="100%" fill="url(#pattern_L1_1518)"/></g><g fi:class="KUsePattern"><pattern id="pattern_L1_1519" width="350" height="350" patternUnits="userSpaceOnUse"><use xlink:href="#L1_1519" x="-350" y="-350"/><use xlink:href="#L1_1519" x="0" y="-350"/><use xlink:href="#L1_1519" x="350" y="-350"/><use xlink:href="#L1_1519" x="-350" y="0"/><use xlink:href="#L1_1519" x="0" y="0"/><use xlink:href="#L1_1519" x="350" y="0"/><use xlink:href="#L1_1519" x="-350" y="350"/><use xlink:href="#L1_1519" x="0" y="350"/><use xlink:href="#L1_1519" x="350" y="350"/></pattern><rect x="0" y="0" width="100%" height="100%" fill="url(#pattern_L1_1519)"/></g><g fi:class="KUsePattern"><pattern id="pattern_L1_1520" width="350" height="350" patternUnits="userSpaceOnUse"><use xlink:href="#L1_1520" x="-350" y="-350"/><use xlink:href="#L1_1520" x="0" y="-350"/><use xlink:href="#L1_1520" x="350" y="-350"/><use xlink:href="#L1_1520" x="-350" y="0"/><use xlink:href="#L1_1520" x="0" y="0"/><use xlink:href="#L1_1520" x="350" y="0"/><use xlink:href="#L1_1520" x="-350" y="350"/><use xlink:href="#L1_1520" x="0" y="350"/><use xlink:href="#L1_1520" x="350" y="350"/></pattern><rect x="0" y="0" width="100%" height="100%" fill="url(#pattern_L1_1520)"/></g></svg>