<svg xmlns="http://www.w3.org/2000/svg" xmlns:xlink="http://www.w3.org/1999/xlink" xmlns:fi="http://pattern.flaticon.com/" x="0" y="0" width="700" height="350" viewBox="0 0 700 350"><rect x="0px" y="0px" width="100%" height="100%" opacity="1" fill="#fafbf5"/><defs><g transform="matrix(0.15625 0 0 0.15625 237.5 150)" id="L1_58"><path d="M300,159.355v-20C300,84.483,255.518,40,200.645,40h-81.29   C64.482,40,20,84.483,20,139.355v20H300z" id="XMLID_814_" fill="#ffad41"/><path d="M160,40h-40.645C64.482,40,20,84.483,20,139.355v20h140V40z" id="XMLID_815_" fill="#ff9811"/><circle cx="70" cy="110" r="10" id="XMLID_816_" fill="#804c09"/><circle cx="120" cy="80" r="10" id="XMLID_817_" fill="#804c09"/><circle cx="250" cy="110" r="10" id="XMLID_818_" fill="#bd720d"/><circle cx="200" cy="80" r="10" id="XMLID_819_" fill="#bd720d"/><circle cx="160" cy="110" r="10" id="XMLID_820_" fill="#bd720d"/><path d="M160,100c-5.523,0-10,4.477-10,10s4.477,10,10,10" id="XMLID_821_" fill="#804c09"/><path d="M270,170H50c-16.568,0-30,13.432-30,30s13.432,30,30,30h220   c16.568,0,30-13.432,30-30S286.568,170,270,170z" id="XMLID_822_" fill="#ff5023"/><path d="M160,170H50c-16.568,0-30,13.432-30,30s13.432,30,30,30h110V170z" id="XMLID_823_" fill="#bd3c1a"/><path d="M320,250c0,16.568-13.432,30-30,30H30c-16.568,0-30-13.432-30-30l0,0   c0-16.568,13.432-30,30-30h260C306.568,220,320,233.432,320,250L320,250z" id="XMLID_824_" fill="#ffad41"/><path d="M160,220H30c-16.568,0-30,13.432-30,30s13.432,30,30,30h130V220z" id="XMLID_825_" fill="#ff9811"/><path d="M60,180 160,170 260,180 160,250z" id="XMLID_826_" fill="#ffe98f"/><path d="M60,180 160,170 160,250z" id="XMLID_827_" fill="#ffda44"/><path d="M320,165c0,8.284-6.716,15-15,15H15c-8.284,0-15-6.716-15-15l0,0   c0-8.284,6.716-15,15-15h290C313.284,150,320,156.716,320,165L320,165z" id="XMLID_828_" fill="#91dc5a"/><path d="M160,150H15c-8.284,0-15,6.716-15,15s6.716,15,15,15h145V150z" id="XMLID_829_" fill="#64c37d"/></g><g transform="matrix(0.1944444477558136 0 0 0.1944444477558136 315 315)" id="L1_59"><path d="M230,35c-12.881,0-24.889,3.782-35,10.271V15c0-8.284-6.716-15-15-15   s-15,6.716-15,15v30.271C154.889,38.782,142.881,35,130,35c-8.284,0-15,6.716-15,15s6.716,15,15,15c19.299,0,35,15.701,35,35v23h30   v-23c0-19.299,15.701-35,35-35c8.284,0,15-6.716,15-15S238.284,35,230,35z" id="XMLID_879_" fill="#91dc5a"/><path d="M180,123c0,0,0-110.304,0-123c-8.284,0-15,6.716-15,15v30.271   C154.889,38.782,142.881,35,130,35c-8.284,0-15,6.716-15,15s6.716,15,15,15c19.299,0,35,15.701,35,35v23H180z" id="XMLID_880_" fill="#64c37d"/><path d="M240,200c0,110-60,160-60,160s-60-50-60-160v-60c0-33.137,26.863-60,60-60l0,0   c33.137,0,60,26.863,60,60V200z" id="XMLID_881_" fill="#ffad41"/><path d="M180,360c0,0-60-50-60-160v-60c0-33.137,26.863-60,60-60l0,0   C180,147,180,360,180,360z" id="XMLID_882_" fill="#ff9811"/><path d="M150,170h-30v20h30c5.523,0,10-4.477,10-10S155.523,170,150,170z" id="XMLID_883_" fill="#bd720d"/><path d="M210,160h30v-20h-30c-5.523,0-10,4.477-10,10S204.477,160,210,160z" id="XMLID_17_" fill="#ff9811"/><path d="M160,240c0-5.523-4.477-10-10-10h-28.446c0.735,6.961,1.714,13.624,2.89,20H150   C155.523,250,160,245.523,160,240z" id="XMLID_884_" fill="#bd720d"/><path d="M200,210c0,5.523,4.477,10,10,10h29.32c0.443-6.432,0.68-13.098,0.68-20h-30   C204.477,200,200,204.477,200,210z" id="XMLID_885_" fill="#ff9811"/></g><g transform="matrix(0.1388888955116272 0 0 0.1388888955116272 62.5 150)" id="L1_60"><g id="XMLID_1866_"><path d="M150,268.667V91.605C141.222,84.355,129.967,80,117.692,80    c-15.833,0-29.645,6.783-38.358,18.604c-16.564,22.474-40.965,91.972-46.503,111.98C30.986,217.254,30,224.279,30,231.539    c0,13.433,3.382,26.074,9.331,37.128H150z" id="XMLID_1867_" fill="#bd3c1a"/><path d="M320.669,268.667c5.949-11.054,9.331-23.695,9.331-37.128    c0-7.26-0.986-14.285-2.831-20.955c-5.538-20.009-29.938-89.507-46.503-111.98C271.952,86.783,258.141,80,242.308,80    c-12.274,0-23.529,4.355-32.308,11.605v177.061L320.669,268.667L320.669,268.667z" id="XMLID_1868_" fill="#ff5023"/><path d="M280.669,268.667c5.949-11.054,9.331-23.695,9.331-37.128    c0-7.26-0.986-14.285-2.831-20.955c-5.538-20.009-19.938-89.507-36.503-111.98C241.952,86.783,228.141,80,212.308,80    c-12.274,0-23.529,4.355-32.308,11.605C171.222,84.355,159.967,80,147.692,80c-15.833,0-29.645,6.783-38.358,18.604    c-16.564,22.474-30.965,91.972-36.503,111.98C70.986,217.254,70,224.279,70,231.539c0,13.433,3.382,26.074,9.331,37.128H280.669z" id="XMLID_1869_" fill="#ff734f"/><path d="M180,268.667V91.605C171.222,84.355,159.967,80,147.692,80    c-15.833,0-29.645,6.783-38.358,18.604c-16.564,22.474-30.965,91.972-36.503,111.98C70.986,217.254,70,224.279,70,231.539    c0,13.433,3.382,26.074,9.331,37.128H180z" id="XMLID_1870_" fill="#ff5023"/><path d="M229.236,268.667c0.492-2.816,0.764-5.709,0.764-8.667l-10-140    c0-22.092-17.908-40-40-40s-40,17.908-40,40l-10,140c0,2.958,0.271,5.851,0.764,8.667H229.236z" id="XMLID_1871_" fill="#ff5023"/><path d="M180,268.667V80c-22.092,0-40,17.908-40,40l-10,140    c0,2.958,0.271,5.851,0.764,8.667H180z" id="XMLID_1872_" fill="#bd3c1a"/></g><path d="M360,265c0,8.284-6.716,15-15,15H15c-8.284,0-15-6.716-15-15l0,0   c0-8.284,6.716-15,15-15h330C353.284,250,360,256.716,360,265L360,265z" id="XMLID_1873_" fill="#cdcdd0"/><path d="M180,250H15c-8.284,0-15,6.716-15,15s6.716,15,15,15h165V250z" id="XMLID_1874_" fill="#acabb1"/></g><g transform="matrix(0.1428571492433548 0 0 0.1428571492433548 150 325)" id="L1_61"><path d="M225,90c0,8.284-6.716,15-15,15H60c-8.284,0-15-6.716-15-15l0,0   c0-8.284,6.716-15,15-15h150C218.284,75,225,81.716,225,90L225,90z" id="XMLID_973_" fill="#acabb1"/><path d="M95,75H60c-8.284,0-15,6.716-15,15s6.716,15,15,15h35V75z" id="XMLID_974_" fill="#bd3c1a"/><path d="M215,90l-5-35c-19.33,0-35,15.67-35,35s15.67,35,35,35L215,90z" id="XMLID_975_" fill="#cdcdd0"/><path d="M265,225 205,225 205,55 235,55 265,145z" id="XMLID_976_" fill="#ffda44"/><path d="M257.94,260c4.546-10.759,7.06-22.586,7.06-35c0-49.706-40.294-90-90-90   s-90,40.294-90,90c0,12.414,2.514,24.241,7.06,35H257.94z" id="XMLID_977_" fill="#ffda44"/><path d="M175,260c0-22.923,0-45,0-125c-49.706,0-90,40.294-90,90   c0,12.414,2.514,24.241,7.06,35H175z" id="XMLID_978_" fill="#ffad41"/><path d="M223.719,260C230.81,250.147,235,238.066,235,225c0-33.137-26.863-60-60-60   s-60,26.863-60,60c0,13.066,4.189,25.147,11.281,35H223.719z" id="XMLID_979_" fill="#ffe98f"/><circle cx="175" cy="225" r="30" id="XMLID_980_" fill="#ffda44"/><path d="M175,255c-16.568,0-30-13.432-30-30s13.432-30,30-30" id="XMLID_981_" fill="#ffad41"/><circle cx="85" cy="225" r="40" id="XMLID_982_" fill="#bd3c1a"/><circle cx="265" cy="225" r="40" id="XMLID_983_" fill="#ff5023"/><path d="M335,225H15c-8.284,0-15,6.716-15,15s6.716,15,15,15h10c0,22.091,17.909,40,40,40   h220c22.091,0,40-17.909,40-40h10c8.284,0,15-6.716,15-15S343.284,225,335,225z" id="XMLID_984_" fill="#91dc5a"/><path d="M175,225H15c-8.284,0-15,6.716-15,15s6.716,15,15,15h10c0,22.091,17.909,40,40,40   h110V225z" id="XMLID_985_" fill="#64c37d"/><path d="M235,55v95c0,8.284,6.716,15,15,15s15-6.716,15-15V55H235z" id="XMLID_986_" fill="#ffe98f"/></g></defs><g fi:class="KUsePattern"><pattern id="pattern_L1_58" width="350" height="350" patternUnits="userSpaceOnUse"><use xlink:href="#L1_58" x="-350" y="-350"/><use xlink:href="#L1_58" x="0" y="-350"/><use xlink:href="#L1_58" x="350" y="-350"/><use xlink:href="#L1_58" x="-350" y="0"/><use xlink:href="#L1_58" x="0" y="0"/><use xlink:href="#L1_58" x="350" y="0"/><use xlink:href="#L1_58" x="-350" y="350"/><use xlink:href="#L1_58" x="0" y="350"/><use xlink:href="#L1_58" x="350" y="350"/></pattern><rect x="0" y="0" width="100%" height="100%" fill="url(#pattern_L1_58)"/></g><g fi:class="KUsePattern"><pattern id="pattern_L1_59" width="350" height="350" patternUnits="userSpaceOnUse"><use xlink:href="#L1_59" x="-350" y="-350"/><use xlink:href="#L1_59" x="0" y="-350"/><use xlink:href="#L1_59" x="350" y="-350"/><use xlink:href="#L1_59" x="-350" y="0"/><use xlink:href="#L1_59" x="0" y="0"/><use xlink:href="#L1_59" x="350" y="0"/><use xlink:href="#L1_59" x="-350" y="350"/><use xlink:href="#L1_59" x="0" y="350"/><use xlink:href="#L1_59" x="350" y="350"/></pattern><rect x="0" y="0" width="100%" height="100%" fill="url(#pattern_L1_59)"/></g><g fi:class="KUsePattern"><pattern id="pattern_L1_60" width="350" height="350" patternUnits="userSpaceOnUse"><use xlink:href="#L1_60" x="-350" y="-350"/><use xlink:href="#L1_60" x="0" y="-350"/><use xlink:href="#L1_60" x="350" y="-350"/><use xlink:href="#L1_60" x="-350" y="0"/><use xlink:href="#L1_60" x="0" y="0"/><use xlink:href="#L1_60" x="350" y="0"/><use xlink:href="#L1_60" x="-350" y="350"/><use xlink:href="#L1_60" x="0" y="350"/><use xlink:href="#L1_60" x="350" y="350"/></pattern><rect x="0" y="0" width="100%" height="100%" fill="url(#pattern_L1_60)"/></g><g fi:class="KUsePattern"><pattern id="pattern_L1_61" width="350" height="350" patternUnits="userSpaceOnUse"><use xlink:href="#L1_61" x="-350" y="-350"/><use xlink:href="#L1_61" x="0" y="-350"/><use xlink:href="#L1_61" x="350" y="-350"/><use xlink:href="#L1_61" x="-350" y="0"/><use xlink:href="#L1_61" x="0" y="0"/><use xlink:href="#L1_61" x="350" y="0"/><use xlink:href="#L1_61" x="-350" y="350"/><use xlink:href="#L1_61" x="0" y="350"/><use xlink:href="#L1_61" x="350" y="350"/></pattern><rect x="0" y="0" width="100%" height="100%" fill="url(#pattern_L1_61)"/></g></svg>