<svg xmlns="http://www.w3.org/2000/svg" xmlns:xlink="http://www.w3.org/1999/xlink" xmlns:fi="http://pattern.flaticon.com/" x="0" y="0" width="700" height="350" viewBox="0 0 700 350"><rect x="0px" y="0px" width="100%" height="100%" opacity="1" fill="#f9fffa"/><defs><g transform="matrix(0.09765625 0 0 0.09765625 150 325)" id="L1_2187"><path d="M182.649,299.832c-52.726-23.571-93.946-65.963-116.066-119.364  c-22.692-54.764-23-116.065-0.881-171.048c1.51-3.738,4.456-6.729,8.18-8.268c3.724-1.554,7.901-1.539,11.624,0.059  c54.529,23.219,97.054,67.047,119.745,121.826c22.002,53.107,22.941,111.947,2.639,165.671c-1.7,4.5-5.336,7.71-9.602,9.029  C194.026,301.25,187.932,302.202,182.649,299.832z" fill="#72ecff"/><path d="M305.868,293.222c-22.119-54.984-21.812-115.421,0.88-170.185  c22.692-54.78,65.216-98.607,119.745-121.827c3.709-1.568,7.886-1.598,11.624-0.059c3.724,1.539,6.67,4.529,8.18,8.268  c22.119,54.984,21.812,116.285-0.88,171.049c-22.692,54.779-65.216,97.743-119.745,120.962  C318.123,304.675,309.08,301.172,305.868,293.222z" fill="#00e2ff"/><path d="M88.19,35.673c-13.544,43.477-11.492,90.793,6.127,133.303  c17.561,42.407,49.033,76.796,89.329,97.977c13.5-43.448,11.419-90.047-6.127-132.425C159.899,92.005,128.5,56.84,88.19,35.673z" fill="#fedbab"/><path d="M423.811,35.673c-40.311,21.167-71.709,56.332-89.329,98.856  c-17.619,42.509-19.671,88.962-6.127,132.44c40.311-21.167,71.709-55.468,89.329-97.992  C435.303,126.467,437.355,79.15,423.811,35.673z" fill="#fec478"/><path d="M402.501,321.668c-9.607-7.505-15.912-20.714-17.413-36.024l-1.501-15.01  C378.785,203.988,322.644,151.752,256,151.752s-122.785,52.236-127.587,118.882c0,0.9-0.601,6.904-1.501,14.71  c-1.501,15.31-7.805,28.52-17.413,36.324c-27.919,22.515-39.627,58.54-30.622,93.964c6.606,25.218,25.218,47.132,49.835,58.24  c15.91,6.906,27.919,7.805,38.726,8.407c13.509,0.9,24.918,1.501,45.632,16.21c12.608,8.707,27.318,13.509,42.929,13.509  s30.321-4.802,42.929-13.509c20.714-14.71,32.423-15.61,45.932-16.21c10.807-0.902,23.115-1.501,38.726-8.707  c24.617-11.108,43.23-33.022,49.535-58.539c2.099-7.805,3.001-15.612,3.001-23.417C436.123,364.6,424.115,339.081,402.501,321.668z" fill="#bbfbfd"/><path d="M436.123,391.617c0,7.805-0.902,15.612-3.001,23.417c-6.305,25.516-24.918,47.431-49.535,58.539  c-15.612,7.207-27.919,7.805-38.726,8.707c-13.509,0.601-25.218,1.501-45.932,16.21C286.322,507.198,271.611,512,256,512V151.753  c66.645,0,122.785,52.236,127.587,118.882l1.501,15.01c1.501,15.309,7.805,28.519,17.413,36.024  C424.115,339.081,436.123,364.6,436.123,391.617z" fill="#72ecff"/><path d="M296.527,387.414l-25.516,25.819v83.756c0,8.407-6.604,15.01-15.01,15.01  c-8.407,0-15.01-6.604-15.01-15.01v-83.755l-25.516-25.819c-6.004-5.704-6.004-15.308,0-21.013c5.704-6.004,15.309-6.004,21.013,0  l19.514,19.212l19.514-19.212c5.704-6.004,15.309-6.004,21.013,0C302.532,372.105,302.532,381.71,296.527,387.414z" fill="#fe73b1"/><circle cx="195" cy="286" r="15" fill="#664b34"/><circle cx="316" cy="286" r="15" fill="#59422d"/><path d="M296.527,387.414l-25.516,25.819v83.756c0,8.407-6.604,15.01-15.01,15.01V385.612l19.514-19.212  c5.704-6.004,15.309-6.004,21.013,0C302.532,372.105,302.532,381.71,296.527,387.414z" fill="#fe52a2"/></g><g transform="matrix(0.09765625 0 0 0.09765625 62.5 150)" id="L1_2188"><path d="M377,511.946c-57.891,0-106-47.109-106-105v-90c0-8.291,7.709-15,16-15h90  c57.891,0,105,47.109,105,105S434.891,511.946,377,511.946z" fill="#60c244"/><path d="M135,511.946c-57.891,0-105-47.109-105-105s47.109-105,105-105h90c8.291,0,16,6.709,16,15v90  C241,464.837,192.891,511.946,135,511.946z" fill="#98cb51"/><path d="M380.6,29.346l-6.301,1.8C314.001,46.146,271,102.147,271,163.945v33.001c0,8.399-6.599,15-15,15  s-15-6.601-15-15v-33.001c0-61.798-43.001-117.8-103.299-132.8l-6.301-1.8c-8.101-1.8-12.9-9.899-10.8-17.999  c1.8-8.101,9.899-12.9,17.999-10.8l6.301,1.5c50.4,12.599,91,49.401,111.099,94.401c20.099-45,60.7-81.801,111.099-94.401l6.301-1.5  c8.101-2.1,16.199,2.699,17.999,10.8C393.5,19.447,388.7,27.546,380.6,29.346z" fill="#ffac46"/><path d="M377,331.946h-90c-8.291,0-16-6.709-16-15c0-124.072,101.928-225,226-225c8.291,0,15,6.709,15,15v90  C512,271.39,451.443,331.946,377,331.946z" fill="#98cb51"/><path d="M225,331.946h-90c-74.443,0-135-60.557-135-135v-90c0-8.291,6.709-15,15-15  c124.072,0,226,100.928,226,225C241,325.237,233.291,331.946,225,331.946z" fill="#c4d55f"/><path d="M135,451.946c-24.814,0-45-20.186-45-45s20.186-45,45-45s45,20.186,45,45  S159.814,451.946,135,451.946z" fill="#72ecff"/><path d="M377,451.946c-24.814,0-45-20.186-45-45s20.186-45,45-45s45,20.186,45,45  S401.814,451.946,377,451.946z" fill="#00e2ff"/><path d="M380.6,29.346l-6.301,1.8C314.001,46.146,271,102.147,271,163.945v33.001c0,8.399-6.599,15-15,15  V96.447c20.099-45,60.7-81.801,111.099-94.401l6.301-1.5c8.101-2.1,16.199,2.699,17.999,10.8  C393.5,19.447,388.7,27.546,380.6,29.346z" fill="#ff941d"/><path d="M256,181.946c-24.901,0-46,20.099-46,45v180c0,24.899,21.099,45,46,45s46-20.101,46-45v-180  C302,202.046,280.901,181.946,256,181.946z" fill="#896748"/><path d="M302,226.946v180c0,24.899-21.099,45-46,45v-270C280.901,181.946,302,202.046,302,226.946z" fill="#73553a"/></g><g transform="matrix(0.09765625 0 0 0.09765625 237.5 150)" id="L1_2189"><path d="M105,211L105,211C47.01,211,0,163.99,0,106l0,0C0,48.01,47.01,0,105,0l0,0c57.99,0,106,48.01,106,106  l0,0C211,163.99,162.99,211,105,211z" fill="#57555c"/><path d="M407,211L407,211c-57.99,0-106-47.01-106-105l0,0C301,48.01,349.01,0,407,0l0,0  c57.99,0,105,48.01,105,106l0,0C512,163.99,464.99,211,407,211z" fill="#3c3a41"/><path d="M472.099,186.099C426.2,108.699,352.599,61,281.8,61h-2.699c-7.5,0.3-15.3,0.3-23.101,0.3  c-7.2,0-14.7-0.3-21.899-0.3C163.299,59.5,87.9,107.8,41.4,186.099c-45.6,76.2-52.5,162.401-17.999,223.3  C48.9,455.6,110.799,510.5,254.5,512c0.599,0,1.199,0,1.5-0.3c0.3,0,0.3,0,0.601,0c0.899,0.3,1.5,0.3,2.399,0.3  c143.701-1.5,205.6-56.4,231.101-102.601C524.599,348.5,517.7,262.299,472.099,186.099z" fill="#e5e5e5"/><path d="M490.101,409.399C464.599,455.6,402.7,510.5,258.999,512c-0.899,0-1.5,0-2.399-0.3  c-0.3,0-0.3,0-0.601,0V61.3c7.8,0,15.601,0,23.101-0.3h2.699c70.8,0,144.401,47.699,190.3,125.099  C517.7,262.299,524.599,348.5,490.101,409.399z" fill="#d9d9d9"/><path d="M93.442,320.633c-30.082-30.052-23.798-83.257,10.605-117.66  c35.083-35.098,88.437-39.873,117.675-10.605c29.238,29.238,24.478,82.577-10.605,117.66  C174.063,347.082,121.015,348.237,93.442,320.633z" fill="#787780"/><path d="M300.883,310.027c-35.083-35.083-39.844-88.422-10.605-117.66s82.592-24.492,117.675,10.605  c34.416,34.416,40.676,87.62,10.605,117.66C390.846,348.345,337.78,346.952,300.883,310.027z" fill="#57555c"/><path d="M362,392c0,32.999-28.001,60-61,60c-17.999,0-33.9-8.101-45-20.7c-11.1,12.599-27.001,20.7-45,20.7  c-32.999,0-60-27.001-60-60c0-8.401,6.599-15,15-15s15,6.599,15,15c0,16.5,13.5,30,30,30s30-13.5,30-30c0-8.401,6.599-15,15-15  s15,6.599,15,15c0,16.5,13.5,30,30,30s31-13.5,31-30c0-8.401,6.599-15,15-15S362,383.599,362,392z" fill="#787780"/><g><path d="M362,392c0,32.999-28.001,60-61,60c-17.999,0-33.9-8.101-45-20.7V377c8.401,0,15,6.599,15,15   c0,16.5,13.5,30,30,30s31-13.5,31-30c0-8.401,6.599-15,15-15S362,383.599,362,392z" fill="#57555c"/><circle cx="158" cy="256" r="15" fill="#57555c"/></g><circle cx="354" cy="256" r="15" fill="#3c3a41"/><path d="M256,317c-24.901,0-45,20.099-45,45c0,24.899,20.099,45,45,45s45-20.101,45-45  C301,337.099,280.901,317,256,317z" fill="#57555c"/><path d="M301,362c0,24.899-20.099,45-45,45v-90C280.901,317,301,337.099,301,362z" fill="#3c3a41"/></g><g transform="matrix(0.13671875 0 0 0.13671875 315 315)" id="L1_2190"><path d="M134.405,182.007h-119.4c-8.291,0-15,6.709-15,15c0,41.352,41.37,74.998,90.998,74.998  c6.401,0,12.642-0.542,18.647-1.597l39.755-73.401C149.405,188.716,142.696,182.007,134.405,182.007z" fill="#a07854"/><path d="M496.995,182.007H375.997l24.755,88.401c6.006,1.055,12.246,1.597,18.647,1.597  c49.628,0,92.595-33.646,92.595-74.998C511.994,188.716,505.285,182.007,496.995,182.007z" fill="#896748"/><path d="M152.818,199.423c-3.486,0-6.943-1.318-9.712-4.102C92.511,144.728,84.793,64.755,123.522,6.691  c4.556-6.899,13.887-8.774,20.801-4.16c6.899,4.6,8.76,13.916,4.16,20.801c-30.819,46.215-24.682,110.265,14.604,149.551  c5.859,5.859,6.475,15.967,0.615,21.826C160.626,197.783,156.7,199.423,152.818,199.423z" fill="#73553a"/><path d="M357.116,198.808c-3.765,0-7.471-1.318-10.239-4.072c-5.874-5.83-6.519-14.678-0.703-20.566  c40.546-40.575,46.698-104.625,15.894-150.84c-4.6-6.899-2.739-16.201,4.16-20.801c6.87-4.614,16.187-2.739,20.801,4.16  c38.715,58.08,30.98,138.052-18.369,187.401C365.582,197.169,361.32,198.808,357.116,198.808z" fill="#59422d"/><path d="M391.898,362.902c-24.301,35.999-30.6,47.099-31.801,64.8C356.199,475.1,317.198,512,271,512h-31.198  c-46.2,0-85.499-36.9-89.099-84.298c-1.5-17.701-7.8-28.8-32.099-64.8c-24.299-36.298-33.299-79.797-24.299-119.096  c1.201-6,3.3-10.8,5.101-16.201l81.297-27.598h149.098l81.597,27.3c1.8,5.4,3.6,10.499,5.099,16.5  C425.196,283.105,416.495,326.605,391.898,362.902z" fill="#fedbab"/><path d="M411.396,227.307c-34.498-2.1-63.299,13.2-81.597,32.698c-19.501,20.7-29.999,48-29.999,76.498v15  c0,21-15,39-35.399,43.199c-2.401,0.3-4.801,0.601-7.202,0.601c-0.298,0-0.599,0.3-1.199,0.3c-0.3,0-0.3,0-0.601,0  c-0.3,0-0.599,0-0.599,0c-0.601,0-0.901-0.3-1.501-0.3c-2.098,0-4.499-0.3-6.899-0.601c-20.4-4.199-35.399-22.2-35.399-43.199v-15  c0-28.498-10.8-55.799-30.299-76.498c-18.3-19.799-47.099-34.798-81.297-32.4c3.6-11.1,8.399-21.599,14.399-29.699  c9-12.299,20.4-21.299,34.498-27.298c37.201-15.901,77.999-19.2,106.199-19.2h1.5c28.199,0,69.299,3.3,106.498,19.2  c14.101,6,25.5,15,34.5,27.298C402.997,206.006,407.496,216.207,411.396,227.307z" fill="#ffac46"/><path d="M391.898,362.902c-24.301,35.999-30.6,47.099-31.801,64.8C356.199,475.1,317.198,512,271,512h-15  V200.006h73.799l81.597,27.3c1.8,5.4,3.6,10.499,5.099,16.5C425.196,283.105,416.495,326.605,391.898,362.902z" fill="#fec478"/><path d="M411.396,227.307c-34.498-2.1-63.299,13.2-81.597,32.698c-19.501,20.7-29.999,48-29.999,76.498v15  c0,21-15,39-35.399,43.199c-2.401,0.3-4.801,0.601-7.202,0.601c-0.298,0-0.599,0.3-1.199,0.3V151.408  c28.199,0,69.299,3.3,106.498,19.2c14.101,6,25.5,15,34.5,27.298C402.997,206.006,407.496,216.207,411.396,227.307z" fill="#fe8821"/><circle cx="151" cy="287" r="15" fill="#57555c"/><circle cx="226" cy="437" r="15" fill="#896748"/><circle cx="286" cy="437" r="15" fill="#73553a"/><circle cx="359" cy="287" r="15" fill="#3c3a41"/></g></defs><g fi:class="KUsePattern"><pattern id="pattern_L1_2187" width="350" height="350" patternUnits="userSpaceOnUse"><use xlink:href="#L1_2187" x="-350" y="-350"/><use xlink:href="#L1_2187" x="0" y="-350"/><use xlink:href="#L1_2187" x="350" y="-350"/><use xlink:href="#L1_2187" x="-350" y="0"/><use xlink:href="#L1_2187" x="0" y="0"/><use xlink:href="#L1_2187" x="350" y="0"/><use xlink:href="#L1_2187" x="-350" y="350"/><use xlink:href="#L1_2187" x="0" y="350"/><use xlink:href="#L1_2187" x="350" y="350"/></pattern><rect x="0" y="0" width="100%" height="100%" fill="url(#pattern_L1_2187)"/></g><g fi:class="KUsePattern"><pattern id="pattern_L1_2188" width="350" height="350" patternUnits="userSpaceOnUse"><use xlink:href="#L1_2188" x="-350" y="-350"/><use xlink:href="#L1_2188" x="0" y="-350"/><use xlink:href="#L1_2188" x="350" y="-350"/><use xlink:href="#L1_2188" x="-350" y="0"/><use xlink:href="#L1_2188" x="0" y="0"/><use xlink:href="#L1_2188" x="350" y="0"/><use xlink:href="#L1_2188" x="-350" y="350"/><use xlink:href="#L1_2188" x="0" y="350"/><use xlink:href="#L1_2188" x="350" y="350"/></pattern><rect x="0" y="0" width="100%" height="100%" fill="url(#pattern_L1_2188)"/></g><g fi:class="KUsePattern"><pattern id="pattern_L1_2189" width="350" height="350" patternUnits="userSpaceOnUse"><use xlink:href="#L1_2189" x="-350" y="-350"/><use xlink:href="#L1_2189" x="0" y="-350"/><use xlink:href="#L1_2189" x="350" y="-350"/><use xlink:href="#L1_2189" x="-350" y="0"/><use xlink:href="#L1_2189" x="0" y="0"/><use xlink:href="#L1_2189" x="350" y="0"/><use xlink:href="#L1_2189" x="-350" y="350"/><use xlink:href="#L1_2189" x="0" y="350"/><use xlink:href="#L1_2189" x="350" y="350"/></pattern><rect x="0" y="0" width="100%" height="100%" fill="url(#pattern_L1_2189)"/></g><g fi:class="KUsePattern"><pattern id="pattern_L1_2190" width="350" height="350" patternUnits="userSpaceOnUse"><use xlink:href="#L1_2190" x="-350" y="-350"/><use xlink:href="#L1_2190" x="0" y="-350"/><use xlink:href="#L1_2190" x="350" y="-350"/><use xlink:href="#L1_2190" x="-350" y="0"/><use xlink:href="#L1_2190" x="0" y="0"/><use xlink:href="#L1_2190" x="350" y="0"/><use xlink:href="#L1_2190" x="-350" y="350"/><use xlink:href="#L1_2190" x="0" y="350"/><use xlink:href="#L1_2190" x="350" y="350"/></pattern><rect x="0" y="0" width="100%" height="100%" fill="url(#pattern_L1_2190)"/></g></svg>