<svg xmlns="http://www.w3.org/2000/svg" xmlns:xlink="http://www.w3.org/1999/xlink" xmlns:fi="http://pattern.flaticon.com/" x="0" y="0" width="700" height="350" viewBox="0 0 700 350"><rect x="0px" y="0px" width="100%" height="100%" opacity="1" fill="#f7ffeb"/><defs><g transform="matrix(0.09765625 0 0 0.09765625 150 325)" id="L1_2148"><path d="M166,30H71.164c-2.529-9.366-7.218-18.27-14.559-25.605c-5.859-5.859-15.352-5.859-21.211,0  s-5.859,15.352,0,21.211c10.693,10.693,10.693,28.096,0,38.789c-5.859,5.859-5.859,15.352,0,21.211C38.324,88.535,42.162,90,46,90  s7.676-1.465,10.605-4.395C63.946,78.27,68.635,69.366,71.164,60H166c8.291,0,15-6.709,15-15S174.291,30,166,30z" fill="#eb4f00"/><path d="M286,60v212h-90V90h-15c-24.901,0-45-20.099-45-45s20.099-45,45-45h45c5.099,0,10.201,0.601,15,2.1  C266.8,8.699,286,32.1,286,60z" fill="#32d736"/><path d="M286,60v212h-45V2.1C266.8,8.699,286,32.1,286,60z" fill="#10bb67"/><path d="M452,377c0,24.901-20.099,45-45,45H106c-24.901,0-45-20.099-45-45s20.099-45,45-45h301  C431.901,332,452,352.099,452,377z" fill="#32d736"/><path d="M512,416.3v5.7c0,49.799-40.201,90-90,90H45c-24.901,0-45-20.099-45-45s20.099-45,45-45h385.699  c14.101,0,27.9-3.3,40.201-9.6l19.501-9.6C500.3,398,512,405.2,512,416.3z" fill="#10bb67"/><path d="M512,416.3v5.7c0,49.799-40.201,90-90,90H241v-90h189.699c14.101,0,27.9-3.3,40.201-9.6l19.501-9.6  C500.3,398,512,405.2,512,416.3z" fill="#0ca656"/><g><path d="M452,377c0,24.901-20.099,45-45,45H241v-90h166C431.901,332,452,352.099,452,377z" fill="#10bb67"/><path d="M392,287c0,24.901-20.099,45-45,45H166c-24.901,0-45-20.099-45-45s20.099-45,45-45h181   C371.901,242,392,262.099,392,287z" fill="#10bb67"/></g><path d="M347,332H241v-90h106c24.901,0,45,20.099,45,45S371.901,332,347,332z" fill="#0ca656"/><path d="M181,0v30c0,8.291,6.709,15,15,15s15-6.709,15-15V0H181z" fill="#664b34"/></g><g transform="matrix(0.09765625 0 0 0.09765625 62.5 150)" id="L1_2149"><rect x="331px" y="390px" width="90px" height="122px" fill="#896748"/><rect x="376px" y="390px" width="45px" height="122px" fill="#73553a"/><path d="M510.5,411.599C507.8,416.7,502.7,420,497,420H256c-5.7,0-10.8-3.3-13.5-8.401  c-2.401-5.099-1.8-11.1,1.5-15.599l67.5-90h129.001l68.5,90C512.3,400.499,512.901,406.5,510.5,411.599z" fill="#32d736"/><g><path d="M510.5,411.599C507.8,416.7,502.7,420,497,420H376V306h64.501l68.5,90   C512.3,400.499,512.901,406.5,510.5,411.599z" fill="#10bb67"/><path d="M480.5,321.599C477.8,326.7,471.7,330,466,330H286c-5.7,0-10.8-3.3-13.5-8.401   c-2.401-5.099-1.8-11.1,1.5-15.599l67.5-90h69.001l68.5,90C482.3,310.499,482.901,316.5,480.5,321.599z" fill="#10bb67"/></g><path d="M448.599,216.599l-60-90c-2.999-4.2-7.8-6.299-12.599-6.299s-9.6,2.098-12.599,6.299l-60,90  C300.4,221.4,300.1,227.1,302.8,232.2c2.701,4.799,7.8,7.8,13.2,7.8h120c5.4,0,10.499-3.001,13.2-7.8  C451.901,227.1,451.601,221.4,448.599,216.599z" fill="#32d736"/><path d="M480.5,321.599C477.8,326.7,471.7,330,466,330h-90V216h34.501l68.5,90  C482.3,310.499,482.901,316.5,480.5,321.599z" fill="#0ca656"/><path d="M436,240h-60V120.3c4.799,0,9.6,2.098,12.599,6.299l60,90C451.6,221.4,451.9,227.1,449.2,232.2  C446.499,236.999,441.4,240,436,240z" fill="#10bb67"/><rect x="91px" y="390px" width="90px" height="122px" fill="#896748"/><rect x="136px" y="390px" width="45px" height="122px" fill="#73553a"/><path d="M269.5,411.599C266.8,416.7,261.7,420,256,420H16c-5.7,0-11.8-3.3-14.5-8.401  C-0.901,406.5-0.3,400.499,3,396l68.5-90h129.001l67.5,90C271.3,400.499,271.901,406.5,269.5,411.599z" fill="#32d736"/><g><path d="M269.5,411.599C266.8,416.7,261.7,420,256,420H136V306h64.501l67.5,90   C271.3,400.499,271.901,406.5,269.5,411.599z" fill="#10bb67"/><path d="M239.5,321.599C236.8,326.7,231.7,330,226,330H46c-5.7,0-10.8-3.3-13.5-8.401   c-2.401-5.099-1.8-11.1,1.5-15.599l67.5-90h69.001l67.5,90C241.3,310.499,241.901,316.5,239.5,321.599z" fill="#10bb67"/></g><path d="M208.599,216.599l-60-90c-2.999-4.2-7.8-6.299-12.599-6.299s-9.6,2.098-12.599,6.299l-60,90  C60.399,221.4,60.099,227.1,62.8,232.2c2.701,4.799,7.8,7.8,13.2,7.8h120c5.4,0,10.499-3.001,13.2-7.8  C211.901,227.1,211.601,221.4,208.599,216.599z" fill="#32d736"/><path d="M239.5,321.599C236.8,326.7,231.7,330,226,330h-90V216h34.501l67.5,90  C241.3,310.499,241.901,316.5,239.5,321.599z" fill="#0ca656"/><g><path d="M196,240h-60V120.3c4.799,0,9.6,2.098,12.599,6.299l60,90C211.6,221.4,211.9,227.1,209.2,232.2   C206.499,236.999,201.4,240,196,240z" fill="#10bb67"/><path d="M512,497c0,8.399-6.599,15-15,15H16c-8.401,0-16-6.601-16-15c0-8.401,7.599-15,16-15h481   C505.401,482,512,488.599,512,497z" fill="#10bb67"/></g><g><circle cx="376" cy="45" r="15" fill="#fcbf29"/><circle cx="436" cy="105" r="15" fill="#fcbf29"/><circle cx="497" cy="45" r="15" fill="#fcbf29"/></g><g><circle cx="106" cy="45" r="15" fill="#fedb41"/><circle cx="46" cy="105" r="15" fill="#fedb41"/></g><path d="M271,75c0-15.601,7.5-30.601,21.599-42.001c3.9-3.3,6-8.099,5.402-13.2  c-0.601-5.099-3.6-9.598-8.101-11.699C279.401,2.701,267.7,0,256,0c-41.4,0-75,33.6-75,75s33.6,75,75,75  c11.7,0,23.401-2.701,33.9-8.101c4.501-2.1,7.5-6.599,8.101-11.7c0.599-5.099-1.501-9.899-5.402-13.198  C278.5,105.601,271,90.601,271,75z" fill="#bbfbfd"/><path d="M289.9,141.899c-10.499,5.4-22.2,8.101-33.9,8.101V0c11.7,0,23.401,2.701,33.9,8.101  c4.501,2.1,7.5,6.599,8.101,11.699c0.599,5.101-1.501,9.901-5.402,13.2C278.5,44.399,271,59.399,271,75s7.5,30.601,21.599,42.001  c3.9,3.3,6,8.099,5.402,13.198C297.4,135.3,294.401,139.799,289.9,141.899z" fill="#72ecff"/><path d="M512,497c0,8.399-6.599,15-15,15H256v-30h241C505.401,482,512,488.599,512,497z" fill="#0ca656"/></g><g transform="matrix(0.09765625 0 0 0.09765625 237.5 150)" id="L1_2150"><path d="M105,199.633c-57.891,0-105-47.109-105-105c0-28.037,10.928-54.404,30.762-74.238  c5.625-5.625,15.586-5.625,21.211,0l127.266,127.28c5.859,5.859,5.859,15.352,0,21.211C159.434,188.705,133.066,199.633,105,199.633  z" fill="#ffac46"/><path d="M407,199.633c-28.052,0-54.419-10.913-74.238-30.747c-5.859-5.859-5.859-15.352,0-21.211  c0.454-0.454,0.938-0.879,1.436-1.274c0.396-0.498,0.82-0.981,1.274-1.436l124.57-124.57c5.859-5.859,15.352-5.859,21.211,0  C501.087,40.214,512,66.581,512,94.633C512,152.523,464.891,199.633,407,199.633z" fill="#fe8821"/><path d="M42.422,53.266C34.336,65.438,30,79.706,30,94.633c0,41.353,33.647,75,75,75  c14.941,0,29.209-4.336,41.367-12.407L42.422,53.266z" fill="#a07854"/><path d="M365.633,157.226c12.158,8.071,26.426,12.407,41.367,12.407c41.353,0,75-33.647,75-75  c0-14.941-4.336-29.209-12.407-41.367L365.633,157.226z" fill="#896748"/><path d="M382,470.799l-2.701,1.5C350.799,487.899,318.401,496,286,496h-58.2  c-32.701,0-64.799-8.101-93.6-23.701l-2.701-1.5c-75-41.1-106.5-134.399-71.4-212.699L94.9,180.7c8.101-17.701,18.9-33.3,31.5-47.1  h261c12.599,13.801,23.399,29.399,31.199,47.1l34.801,77.4C488.5,336.4,457.301,429.699,382,470.799z" fill="#fedbab"/><path d="M382,470.799l-2.701,1.5C350.799,487.899,318.401,496,286,496h-30V133.6h131.4  c12.599,13.801,23.399,29.399,31.199,47.1l34.801,77.4C488.5,336.4,457.301,429.699,382,470.799z" fill="#fec478"/><path d="M301,382.899V391c0,24.899-20.099,45-45,45s-45-20.101-45-45v-8.101c0-8.101,6.599-15,15-15h60  C294.401,367.899,301,374.799,301,382.899z" fill="#e5e5e5"/><path d="M301,382.899V391c0,24.899-20.099,45-45,45v-68.101h30C294.401,367.899,301,374.799,301,382.899z" fill="#d9d9d9"/><path d="M387.4,133.6l-51,33.6c-21.599,13.801-35.4,37.5-35.4,63.3V301c0,8.399-6.599,15-15,15h-60  c-8.401,0-15-6.601-15-15v-70.501c0-25.8-12.299-49.499-33.9-63.3l-50.7-33.6C159.101,97.899,205.901,76.3,256,76h0.901  C307.301,76,354.101,97.599,387.4,133.6z" fill="#ffac46"/><path d="M387.4,133.6l-51,33.6c-21.599,13.801-35.4,37.5-35.4,63.3V301c0,8.399-6.599,15-15,15h-30V76h0.901  C307.301,76,354.101,97.599,387.4,133.6z" fill="#fe8821"/><circle cx="166" cy="241" r="15" fill="#57555c"/><circle cx="346" cy="241" r="15" fill="#3c3a41"/><path d="M391,331c0,41.4-33.6,75-75,75c-24.6,0-46.199-12.001-60-30.601C242.199,393.999,220.6,406,196,406  c-41.4,0-75-33.6-75-75c0-8.401,6.599-15,15-15s15,6.599,15,15c0,24.899,20.099,45,45,45s45-20.101,45-45c0-8.401,6.599-15,15-15  s15,6.599,15,15c0,24.899,20.099,45,45,45s45-20.101,45-45c0-8.401,6.599-15,15-15S391,322.599,391,331z" fill="#a07854"/><path d="M256,256c-24.901,0-45,20.099-45,45c0,24.899,32.401,40.8,39,43.799c1.8,0.901,3.9,1.201,6,1.201  s4.2-0.3,6-1.201c6.599-2.999,39-18.9,39-43.799C301,276.099,280.901,256,256,256z" fill="#73553a"/><path d="M391,331c0,41.4-33.6,75-75,75c-24.6,0-46.199-12.001-60-30.601V316c8.401,0,15,6.599,15,15  c0,24.899,20.099,45,45,45s45-20.101,45-45c0-8.401,6.599-15,15-15S391,322.599,391,331z" fill="#896748"/><path d="M301,301c0,24.899-32.401,40.8-39,43.799c-1.8,0.901-3.9,1.201-6,1.201v-90  C280.901,256,301,276.099,301,301z" fill="#59422d"/></g><g transform="matrix(0.13671875 0 0 0.13671875 315 315)" id="L1_2151"><path d="M15,15.5h91c41.353,0,75,33.647,75,75l-12.757,18.605L15,105.5l-15-30v-45  C0,22.209,6.709,15.5,15,15.5z" fill="#8b8892"/><path d="M497,15.5h-91c-41.353,0-75,33.647-75,75l12.757,18.605L497,105.5l15-30v-45  C512,22.209,505.291,15.5,497,15.5z" fill="#787780"/><path d="M106,75.5c25.93,0,48.746,13.317,62.243,33.605l-19.801,28.878L109.003,195.5H75  c-41.353,0-75-33.647-75-75v-15v-30H106z" fill="#57555c"/><path d="M406,75.5c-25.93,0-48.746,13.317-62.243,33.605l19.801,28.878l39.439,57.517H437  c41.353,0,75-33.647,75-75v-15v-30H406z" fill="#3c3a41"/><path d="M451,361.5c0,13.5-2.401,26.4-7.5,38.699L423.701,421.5H89.2l-20.7-21.301  C63.401,387.9,61,375,61,361.5c0-27.001,10.8-54.401,30-73.9v-77.1c0-90.901,74.099-165,165-165s165,74.099,165,165v77.1  C440.2,307.099,451,334.499,451,361.5z" fill="#8b8892"/><path d="M451,361.5c0,13.5-2.401,26.4-7.5,38.699L423.701,421.5H256v-376c90.901,0,165,74.099,165,165v77.1  C440.2,307.099,451,334.499,451,361.5z" fill="#787780"/><path d="M414.101,346.5c-8.134,0-15,6.588-15,15v45H295.472v60h103.629c32.999,0,60-27.001,60-60v-15  C459.101,366.599,439.001,346.5,414.101,346.5z" fill="#fec478"/><path d="M216.528,406.5H121v-45c0-8.412-6.866-15-15-15c-24.901,0-45,20.099-45,45v15  c0,32.999,27.001,60,60,60h95.53L216.528,406.5z" fill="#fedbab"/><path d="M271,376.5h-30c-32.999,0-60,26.999-60,60c0,32.999,27.001,60,60,60h30c32.999,0,60-27.001,60-60  C331,403.499,303.999,376.5,271,376.5z" fill="#57555c"/><path d="M331,436.5c0,32.999-27.001,60-60,60h-15v-120h15C303.999,376.5,331,403.499,331,436.5z" fill="#3c3a41"/><circle cx="166" cy="240" r="15" fill="#57555c"/><circle cx="346" cy="240" r="15" fill="#3c3a41"/><circle cx="226" cy="436" r="15" fill="#8b8892"/><circle cx="286" cy="436" r="15" fill="#787780"/><g><path d="M301,270.5c0,8.399-6.599,15-15,15h-60c-8.401,0-15-6.601-15-15c0-8.401,6.599-15,15-15h60   C294.401,255.5,301,262.099,301,270.5z" fill="#57555c"/><path d="M286,331.5c0,8.399-6.599,15-15,15h-30c-8.401,0-15-6.601-15-15c0-8.401,6.599-15,15-15h30   C279.401,316.5,286,323.099,286,331.5z" fill="#57555c"/></g><g><path d="M271,346.5h-15v-30h15c8.401,0,15,6.599,15,15C286,339.899,279.401,346.5,271,346.5z" fill="#3c3a41"/><path d="M286,285.5h-30v-30h30c8.401,0,15,6.599,15,15C301,278.899,294.401,285.5,286,285.5z" fill="#3c3a41"/></g></g></defs><g fi:class="KUsePattern"><pattern id="pattern_L1_2148" width="350" height="350" patternUnits="userSpaceOnUse"><use xlink:href="#L1_2148" x="-350" y="-350"/><use xlink:href="#L1_2148" x="0" y="-350"/><use xlink:href="#L1_2148" x="350" y="-350"/><use xlink:href="#L1_2148" x="-350" y="0"/><use xlink:href="#L1_2148" x="0" y="0"/><use xlink:href="#L1_2148" x="350" y="0"/><use xlink:href="#L1_2148" x="-350" y="350"/><use xlink:href="#L1_2148" x="0" y="350"/><use xlink:href="#L1_2148" x="350" y="350"/></pattern><rect x="0" y="0" width="100%" height="100%" fill="url(#pattern_L1_2148)"/></g><g fi:class="KUsePattern"><pattern id="pattern_L1_2149" width="350" height="350" patternUnits="userSpaceOnUse"><use xlink:href="#L1_2149" x="-350" y="-350"/><use xlink:href="#L1_2149" x="0" y="-350"/><use xlink:href="#L1_2149" x="350" y="-350"/><use xlink:href="#L1_2149" x="-350" y="0"/><use xlink:href="#L1_2149" x="0" y="0"/><use xlink:href="#L1_2149" x="350" y="0"/><use xlink:href="#L1_2149" x="-350" y="350"/><use xlink:href="#L1_2149" x="0" y="350"/><use xlink:href="#L1_2149" x="350" y="350"/></pattern><rect x="0" y="0" width="100%" height="100%" fill="url(#pattern_L1_2149)"/></g><g fi:class="KUsePattern"><pattern id="pattern_L1_2150" width="350" height="350" patternUnits="userSpaceOnUse"><use xlink:href="#L1_2150" x="-350" y="-350"/><use xlink:href="#L1_2150" x="0" y="-350"/><use xlink:href="#L1_2150" x="350" y="-350"/><use xlink:href="#L1_2150" x="-350" y="0"/><use xlink:href="#L1_2150" x="0" y="0"/><use xlink:href="#L1_2150" x="350" y="0"/><use xlink:href="#L1_2150" x="-350" y="350"/><use xlink:href="#L1_2150" x="0" y="350"/><use xlink:href="#L1_2150" x="350" y="350"/></pattern><rect x="0" y="0" width="100%" height="100%" fill="url(#pattern_L1_2150)"/></g><g fi:class="KUsePattern"><pattern id="pattern_L1_2151" width="350" height="350" patternUnits="userSpaceOnUse"><use xlink:href="#L1_2151" x="-350" y="-350"/><use xlink:href="#L1_2151" x="0" y="-350"/><use xlink:href="#L1_2151" x="350" y="-350"/><use xlink:href="#L1_2151" x="-350" y="0"/><use xlink:href="#L1_2151" x="0" y="0"/><use xlink:href="#L1_2151" x="350" y="0"/><use xlink:href="#L1_2151" x="-350" y="350"/><use xlink:href="#L1_2151" x="0" y="350"/><use xlink:href="#L1_2151" x="350" y="350"/></pattern><rect x="0" y="0" width="100%" height="100%" fill="url(#pattern_L1_2151)"/></g></svg>