<svg xmlns="http://www.w3.org/2000/svg" xmlns:xlink="http://www.w3.org/1999/xlink" xmlns:fi="http://pattern.flaticon.com/" x="0" y="0" width="700" height="350" viewBox="0 0 700 350"><rect x="0px" y="0px" width="100%" height="100%" opacity="1" fill="#fdfff7"/><defs><g transform="matrix(0.09765625 0 0 0.09765625 62.5 150)" id="L1_2622"><path d="M435.775,0H103.542c-9.006,0-16.307,7.301-16.307,16.307v479.386c0,9.006,7.301,16.307,16.307,16.307  h332.233c9.006,0,16.307-7.301,16.307-16.307V16.307C452.082,7.301,444.781,0,435.775,0z" fill="#485358"/><path d="M131.394,439.401V72.599c0-15.707,12.733-28.44,28.44-28.44h219.648  c15.707,0,28.44,12.733,28.44,28.44V439.4c0,15.707-12.733,28.44-28.44,28.44H159.835  C144.128,467.841,131.394,455.108,131.394,439.401z" opacity="0.15"/><path d="M379.482,44.159H159.835c-15.707,0-28.44,12.733-28.44,28.44v52.807  h276.528V72.599C407.923,56.892,395.189,44.159,379.482,44.159z" opacity="0.2"/><path d="M193.388,256.686H87.235v101.436h106.152  c9.445,0,17.102-7.657,17.102-17.102v-67.232C210.489,264.343,202.833,256.686,193.388,256.686z" opacity="0.1"/><path d="M193.388,332.326H21.807c-9.445,0-17.102-7.657-17.102-17.102v-67.232  c0-9.445,7.657-17.102,17.102-17.102h171.581c9.445,0,17.102,7.657,17.102,17.102v67.232  C210.489,324.669,202.833,332.326,193.388,332.326z" fill="#485358"/><path d="M193.388,332.326H21.807c-9.445,0-17.102-7.657-17.102-17.102v-67.232  c0-9.445,7.657-17.102,17.102-17.102h171.581c9.445,0,17.102,7.657,17.102,17.102v67.232  C210.489,324.669,202.833,332.326,193.388,332.326z" opacity="0.35"/><g><path d="M102.123,309.384c-5.684,0-8.431-0.191-10.053-0.597c-1.73-0.433-3.249-1.467-4.285-2.918   c-1.236-1.731-2.93-4.103-2.815-23.905c0.049-8.473,0.428-19.373,1.956-23.191c0.608-1.522,1.699-2.803,3.104-3.645   c7.262-4.359,31.265-2.434,36.512-0.685c2.826,0.942,4.827,3.469,5.097,6.436c0.378,4.16,1.001,35.974-0.09,41.975   c-0.648,3.566-3.754,6.158-7.379,6.158c-0.952,0-3.187,0.053-5.773,0.114C111.228,309.295,105.995,309.384,102.123,309.384z    M100.75,298.615L100.75,298.615L100.75,298.615z M100.22,294.381c5.003,0.037,12.45-0.125,16.862-0.229   c0.14-7.271,0.046-19.024-0.143-26.237c-4.955-0.452-12.094-0.599-16.455-0.227C99.925,274.393,99.747,287.286,100.22,294.381z    M97.288,268.222L97.288,268.222L97.288,268.222z" fill="#f3ce72"/><path d="M149.435,309.387c-1.01,0-2.037-0.205-3.02-0.639c-3.597-1.585-5.329-5.653-4.068-9.304   c0.863-4.735,0.072-31.14-0.395-39.037c-0.245-4.135,2.909-7.684,7.044-7.93c4.131-0.24,7.685,2.909,7.929,7.045   c0.134,2.263,0.544,11.937,0.719,21.355c0.374,20.136-0.578,22.296-1.343,24.032C155.066,307.716,152.317,309.387,149.435,309.387z    M142.576,298.86c-0.001,0.003-0.003,0.006-0.003,0.009C142.574,298.866,142.575,298.863,142.576,298.86z" fill="#f3ce72"/><path d="M149.767,275.132c-3.225,0-6.204-2.096-7.18-5.343c-1.192-3.967,1.057-8.15,5.023-9.342   c2.435-0.732,13.999-2.523,17.037-2.718c4.132-0.271,7.7,2.871,7.964,7.004c0.266,4.134-2.871,7.7-7.004,7.965   c-2.43,0.156-12.125,1.73-13.763,2.14C151.151,275.037,150.453,275.132,149.767,275.132z" fill="#f3ce72"/><path d="M165.747,303.36c-0.302,0-0.606-0.019-0.914-0.056c-0.131-0.016-15.353-2.83-18.246-4.423   c-3.628-1.999-4.949-6.561-2.95-10.188c1.869-3.393,5.977-4.767,9.471-3.298c2.076,0.632,11.926,2.727,13.751,3.048   c3.997,0.603,6.814,4.281,6.324,8.32C172.721,300.568,169.485,303.36,165.747,303.36z M166.642,288.414   c0.062,0.008,0.124,0.016,0.186,0.024C166.745,288.426,166.682,288.419,166.642,288.414z M153.819,285.74   c0.002,0.001,0.004,0.002,0.006,0.003C153.823,285.742,153.821,285.741,153.819,285.74z" fill="#f3ce72"/><path d="M101.353,289.108H72.65c-4.142,0-7.5-3.357-7.5-7.5s3.358-7.5,7.5-7.5h28.703   c4.142,0,7.5,3.357,7.5,7.5S105.496,289.108,101.353,289.108z" fill="#f3ce72"/></g><path d="M292.179,300.689c-36.414,20.323-62.879,89.178-74.672,123.17c-1.848,5.327,4.017,10.027,8.813,7.061  c30.6-18.925,92.023-59.776,103.911-99.747L292.179,300.689z" fill="#c06376"/><path d="M226.239,400.126c-3.462,8.847-6.391,16.983-8.733,23.733  c-1.848,5.327,4.017,10.027,8.813,7.06c30.6-18.925,92.023-59.775,103.911-99.746l-18.314-14.672  C302.15,349.337,253.716,382.847,226.239,400.126z" opacity="0.1"/><path d="M468.174,83.706l35.413,28.37c4.263,3.416,4.951,9.641,1.535,13.904L340.403,331.591  c-3.416,4.263-9.641,4.951-13.904,1.535l-35.413-28.37c-4.263-3.416-4.951-9.641-1.535-13.904L454.27,85.241  C457.686,80.977,463.911,80.29,468.174,83.706z" fill="#f3ce72"/><rect x="296px" y="285px" width="65px" height="14px" transform="matrix(-0.7804 -0.6252 0.6252 -0.7804 402.629 728.2896)" fill="#485358"/><path d="M484.789,109.691L320.07,315.302c-3.415,4.263-9.641,4.951-13.904,1.535  l20.333,16.289c4.264,3.416,10.489,2.728,13.904-1.535l164.72-205.611c3.416-4.264,2.728-10.489-1.535-13.904l-20.333-16.289  C487.518,99.202,488.205,105.427,484.789,109.691z" opacity="0.08"/></g><g transform="matrix(0.13549078977926488 0.03908388204863732 -0.03908388204863732 0.13549078977926488 325.31976295640857 305.30881534750625)" id="L1_2623"><path d="M256.001,399.638c-80.013,0-132.76-39.372-162.92-72.401c-34.905-38.227-51.168-80.514-51.168-97.057  c0-4.143,3.357-7.5,7.5-7.5s7.5,3.357,7.5,7.5c0,11.892,14.267,50.826,47.245,86.942c28.125,30.8,77.299,67.516,151.843,67.516  s123.718-36.716,151.843-67.516c18.364-20.112,29.72-39.669,36.011-52.533c8.292-16.955,11.234-29.133,11.234-34.409  c0-4.143,3.357-7.5,7.5-7.5s7.5,3.357,7.5,7.5c0,16.543-16.263,58.83-51.168,97.057  C388.761,360.266,336.014,399.638,256.001,399.638z" fill="#485358"/><path d="M256.001,63.314c-92.387,0-211.133,115.148-252.63,158.572c-6.661,6.97-2.918,18.544,6.565,20.282  l0,0c162.687,29.823,329.441,29.823,492.128,0l0,0c9.483-1.738,13.226-13.312,6.565-20.282  C467.134,178.462,348.388,63.314,256.001,63.314z" fill="#c06376"/><path d="M3.371,221.886c-6.661,6.97-2.918,18.544,6.565,20.282l0,0  c31.442,5.764,63.037,10.401,94.724,13.936c27.767-83.648,99.924-159.427,151.341-192.79  C163.614,63.314,44.867,178.462,3.371,221.886z" opacity="0.1"/><path d="M508.63,221.886c6.661,6.97,2.918,18.544-6.565,20.282l0,0  c-31.442,5.764-63.037,10.401-94.724,13.936c-27.766-83.648-99.923-159.427-151.34-192.79  C348.388,63.314,467.134,178.462,508.63,221.886z" opacity="0.05"/><g><path d="M221.85,448.686c-4.059,0-7.396-3.24-7.494-7.32c-0.703-29.422,21.678-44.683,35.05-53.801   c0.809-0.552,1.589-1.083,2.331-1.597c3.408-2.355,8.078-1.503,10.435,1.905c2.354,3.407,1.502,8.079-1.905,10.435   c-0.767,0.53-1.573,1.08-2.41,1.65c-12.244,8.349-29.013,19.783-28.504,41.048c0.099,4.142-3.178,7.578-7.318,7.678   C221.972,448.685,221.911,448.686,221.85,448.686z" fill="#485358"/><path d="M290.152,448.686c-0.062,0-0.122-0.001-0.184-0.002c-4.141-0.1-7.417-3.536-7.318-7.678   c0.509-21.265-16.26-32.699-28.504-41.048c-0.837-0.57-1.643-1.12-2.41-1.65c-3.407-2.355-4.26-7.027-1.905-10.435   c2.355-3.406,7.026-4.26,10.434-1.905c0.742,0.514,1.522,1.045,2.331,1.597c13.372,9.118,35.753,24.379,35.05,53.801   C297.549,445.444,294.211,448.686,290.152,448.686z" fill="#485358"/></g><path d="M464.691,178.834c-81.182,23.393-142.04,25.459-206.689,25.459  c-65.446,0-127.022-2.131-209.717-26.349c-4.426,4.053-8.668,8.015-12.709,11.855c88.862,27.168,153.553,29.494,222.426,29.494  c68.092,0,132.084-2.259,219.401-28.566C473.365,186.88,469.123,182.904,464.691,178.834z" opacity="0.1"/><g><path d="M203.974,175.846c-4.143,0-7.5-3.357-7.5-7.5v-8.637c0-4.143,3.357-7.5,7.5-7.5s7.5,3.357,7.5,7.5   v8.637C211.474,172.488,208.116,175.846,203.974,175.846z" fill="#485358"/><path d="M308.028,175.846c-4.142,0-7.5-3.357-7.5-7.5v-8.637c0-4.143,3.358-7.5,7.5-7.5   c4.143,0,7.5,3.357,7.5,7.5v8.637C315.528,172.488,312.171,175.846,308.028,175.846z" fill="#485358"/><path d="M256.001,182.478c-7.426,0-14.486-3.216-19.371-8.822c-2.722-3.122-2.396-7.86,0.727-10.581   c3.122-2.721,7.86-2.395,10.581,0.728c2.036,2.336,4.975,3.676,8.063,3.676c3.088,0,6.026-1.34,8.063-3.676   c2.721-3.124,7.459-3.449,10.581-0.728c3.123,2.721,3.449,7.459,0.728,10.581C270.487,179.262,263.427,182.478,256.001,182.478z" fill="#485358"/></g></g><g transform="matrix(0.1171875 0 0 0.1171875 152 315)" id="L1_2625"><g><path d="M61.411,230.509L61.411,230.509c-31.357-4.082-53.468-32.812-49.385-64.169l2.582-19.834   c2.041-15.679,16.406-26.734,32.085-24.692l0,0c15.679,2.041,26.734,16.406,24.692,32.084L61.411,230.509z" fill="#f0bdd5"/><path d="M167.269,228.498L167.269,228.498c29.11,12.35,62.721-1.236,75.071-30.346l7.812-18.412   c6.175-14.555-0.618-31.36-15.173-37.535l0,0c-14.555-6.175-31.36,0.618-37.536,15.173L167.269,228.498z" fill="#f0bdd5"/><path d="M374.206,8.318L374.206,8.318c0-4.594-3.724-8.318-8.318-8.318H332.9   c-34.562,0-62.579,28.018-62.579,62.579v16.637c0,34.562,28.018,62.579,62.579,62.579h32.988c4.594,0,8.318-3.724,8.318-8.318l0,0   c0-34.562-28.018-62.579-62.579-62.579C346.188,70.898,374.206,42.88,374.206,8.318z" fill="#f0bdd5"/></g><g><path d="M283.237,47.727l-11.017-0.484   c-1.237,4.908-1.9,10.044-1.9,15.336v16.637c0,5.902,0.835,11.606,2.362,17.019c3.967-1.039,8.048-1.813,12.226-2.301   c11.689-1.365,20.503-11.268,20.503-23.036l0,0C305.412,58.485,295.638,48.272,283.237,47.727z" opacity="0.3" fill="#c06376"/><path d="M197.443,157.377l-30.174,71.121l0,0   c13.753,5.835,28.508,5.874,41.553,1.229v-47.983c0-15.313,4.545-29.658,12.4-41.7C211.053,140.971,201.71,147.32,197.443,157.377z   " opacity="0.3" fill="#c06376"/><path d="M61.819,128.632c-17.27,24.49-29.709,52.624-35.908,83.006   c8.846,10.018,21.206,17.01,35.5,18.871l9.974-76.611C72.668,144.046,68.777,134.715,61.819,128.632z" opacity="0.3" fill="#c06376"/></g><path d="M196.822,256v-74.257c0-44.859,33.596-82.606,78.152-87.809l0,0  c11.689-1.365,20.503-11.268,20.503-23.036l0,0c0-12.413-9.773-22.625-22.174-23.171l-21.248-0.934  C132.907,41.555,33.449,136.737,33.449,256l0,0c0,45.114,36.572,81.687,81.687,81.687C160.25,337.687,196.822,301.114,196.822,256z" fill="#e978a0"/><path d="M114.317,244.643c-25.15,0-49.25-26.621-79.596-11.786c-0.834,7.597-1.273,15.316-1.273,23.142l0,0  c0,45.114,36.573,81.687,81.687,81.687s81.687-36.572,81.687-81.687v-21.6C165.096,216.307,140.266,244.643,114.317,244.643z" fill="#c06376"/><path d="M273.645,47.751c-0.114-0.007-0.227-0.018-0.342-0.023l-21.248-0.934  C132.907,41.555,33.449,136.737,33.449,256l0,0c0,45.114,36.573,81.687,81.687,81.687c5.806,0,11.467-0.616,16.931-1.768  c-34.808-9.355-60.438-41.116-60.438-78.878l0,0C71.628,143.359,161.996,51.557,273.645,47.751z" opacity="0.1"/><g><path d="M67.345,293.62c-4.143,0-7.5-3.358-7.5-7.5v-7.797c0-4.142,3.357-7.5,7.5-7.5s7.5,3.358,7.5,7.5   v7.797C74.845,290.262,71.487,293.62,67.345,293.62z" fill="#485358"/><path d="M161.29,293.62c-4.142,0-7.5-3.358-7.5-7.5v-7.797c0-4.142,3.358-7.5,7.5-7.5   c4.143,0,7.5,3.358,7.5,7.5v7.797C168.79,290.262,165.433,293.62,161.29,293.62z" fill="#485358"/></g><path d="M98.135,262.793c0.72-18.436,1.859-37.285,4.969-56.25c3.102-18.919,8.298-38.064,17.109-55.84  c4.411-8.864,9.706-17.327,15.799-25.119c6.088-7.798,12.964-14.912,20.376-21.252c14.82-12.769,31.758-22.136,49.057-29.539  c4.311-1.845,9.301,0.154,11.146,4.465c1.753,4.095,0.036,8.804-3.836,10.846l-0.148,0.077c-15.48,8.11-29.987,17.784-41.844,29.774  c-11.93,11.902-21.172,25.9-27.332,41.259c-6.164,15.382-9.377,31.998-10.82,49.068c-1.449,17.092-1.181,34.641-0.476,52.511  c0.37,9.389-6.94,17.3-16.329,17.671s-17.3-6.94-17.671-16.329c-0.017-0.435-0.018-0.868-0.003-1.296L98.135,262.793z" fill="#f0bdd5"/><g><path d="M450.589,281.491L450.589,281.491c31.357,4.083,53.468,32.812,49.385,64.169l-2.582,19.834   c-2.041,15.679-16.406,26.734-32.085,24.693l0,0c-15.678-2.041-26.734-16.406-24.692-32.085L450.589,281.491z" fill="#88dedc"/><path d="M344.731,283.502L344.731,283.502c-29.11-12.35-62.721,1.236-75.071,30.346l-7.812,18.412   c-6.175,14.555,0.618,31.36,15.173,37.535l0,0c14.555,6.175,31.36-0.618,37.536-15.173L344.731,283.502z" fill="#88dedc"/><path d="M137.794,503.682L137.794,503.682c0,4.594,3.724,8.318,8.318,8.318H179.1   c34.562,0,62.579-28.018,62.579-62.579v-16.637c0-34.562-28.018-62.579-62.579-62.579h-32.988c-4.594,0-8.318,3.724-8.318,8.318   l0,0c0,34.562,28.018,62.579,62.579,62.579C165.812,441.102,137.794,469.12,137.794,503.682z" fill="#88dedc"/></g><g><path d="M228.762,464.273l11.017,0.484   c1.237-4.908,1.9-10.044,1.9-15.337v-16.637c0-5.902-0.835-11.606-2.362-17.019c-3.967,1.039-8.048,1.813-12.226,2.301   c-11.689,1.365-20.503,11.268-20.503,23.036l0,0C206.588,453.515,216.362,463.728,228.762,464.273z" opacity="0.3" fill="#51b4db"/><path d="M314.557,354.623l30.174-71.121l0,0   c-13.753-5.835-28.508-5.874-41.553-1.229v47.983c0,15.313-4.545,29.658-12.4,41.7C300.947,371.029,310.29,364.681,314.557,354.623   z" opacity="0.3" fill="#51b4db"/><path d="M450.181,383.368c17.27-24.49,29.709-52.624,35.908-83.006   c-8.846-10.018-21.206-17.01-35.5-18.871l-9.974,76.611C439.332,367.954,443.223,377.285,450.181,383.368z" opacity="0.3" fill="#51b4db"/><path d="M315.178,256v74.257c0,44.859-33.596,82.606-78.152,87.809l0,0   c-11.689,1.365-20.503,11.268-20.503,23.036l0,0c0,12.413,9.773,22.625,22.174,23.171l21.248,0.934   C379.093,470.445,478.551,375.263,478.551,256l0,0c0-45.114-36.572-81.687-81.687-81.687   C351.75,174.313,315.178,210.886,315.178,256z" fill="#51b4db"/></g><path d="M397.683,267.357c25.15,0,49.25,26.621,79.596,11.786c0.834-7.597,1.273-15.316,1.273-23.142l0,0  c0-45.114-36.573-81.687-81.687-81.687s-81.687,36.572-81.687,81.687v21.6C346.904,295.693,371.734,267.357,397.683,267.357z" fill="#4d94ae"/><path d="M396.865,174.313c-45.114,0-81.687,36.572-81.687,81.687v74.257  c0,44.859-33.596,82.607-78.152,87.809l0,0c-11.689,1.365-20.503,11.268-20.503,23.036l0,0c0,12.413,9.773,22.625,22.174,23.171  l6.743,0.296c-0.298-0.282-0.607-0.716-1.137-0.881c-12.823-3.997-17.636-28.747,4.46-28.747s106.849-27.273,101.947-125.322  C344.829,191.972,374.26,186.107,396.865,174.313z" opacity="0.1"/><g><path d="M444.655,241.177c-4.143,0-7.5-3.358-7.5-7.5v-7.797c0-4.142,3.357-7.5,7.5-7.5s7.5,3.358,7.5,7.5   v7.797C452.155,237.819,448.798,241.177,444.655,241.177z" fill="#485358"/><path d="M350.71,241.177c-4.143,0-7.5-3.358-7.5-7.5v-7.797c0-4.142,3.357-7.5,7.5-7.5s7.5,3.358,7.5,7.5   v7.797C358.21,237.819,354.853,241.177,350.71,241.177z" fill="#485358"/></g><path d="M413.865,249.207c-0.72,18.436-1.859,37.285-4.969,56.25c-3.102,18.919-8.298,38.064-17.109,55.84  c-4.411,8.864-9.706,17.327-15.799,25.119c-6.088,7.798-12.964,14.912-20.376,21.252c-14.82,12.769-31.758,22.136-49.057,29.539  c-4.311,1.845-9.301-0.154-11.146-4.465c-1.753-4.095-0.036-8.804,3.836-10.846l0.148-0.077c15.48-8.11,29.987-17.784,41.844-29.774  c11.93-11.902,21.172-25.9,27.332-41.259c6.164-15.382,9.377-31.998,10.82-49.068c1.449-17.092,1.181-34.641,0.476-52.511  c-0.37-9.389,6.941-17.3,16.329-17.671c9.389-0.371,17.3,6.94,17.671,16.329c0.017,0.435,0.018,0.868,0.003,1.296L413.865,249.207z" fill="#88dedc"/></g><g transform="matrix(0.1171875 0 0 0.1171875 155 298)" id="L1_2626"><path d="M113.84,219.54c7.323,39.796,18.512,127.469,169.253,63.999l-16.396-40.198  c0,0-99.965,71.488-129.055-12.916L113.84,219.54z" fill="#c06376"/><path d="M137.641,230.424L113.84,219.54c2.759,14.993,6.071,36.78,17.184,54.722  l4.367,0.307c14.21,0.999,28.407-0.506,41.98-4.342C160.893,266.591,146.199,255.256,137.641,230.424z" opacity="0.1"/><path d="M358.199,277.72c10.164,0.317,52.412-38.553,42.905-74.08c0,0,17.107-1.637,21.359,1.618  c0,40.909-1.467,76.755-50.126,108.923L358.199,277.72z" fill="#c06376"/><path d="M401.103,203.641c2.931,10.953,0.939,22.222-3.512,32.564l23.658,1.015  c1.104-10.305,1.213-20.95,1.213-31.961C418.21,202.004,401.103,203.641,401.103,203.641z" opacity="0.1"/><path d="M266.697,243.341c0,0-12.291,8.789-29.506,16.565  c8.274,12.849,14.689,23.248,16.888,28.198c0.851,1.914,1.619,3.787,2.32,5.623c8.374-2.837,17.26-6.217,26.694-10.189  L266.697,243.341z" opacity="0.2"/><path d="M379.096,263.423c-8.532,8.871-17.033,14.418-20.897,14.297l14.137,36.462  c7.794-5.152,14.371-10.4,19.931-15.746C389.517,287.723,385.35,275.862,379.096,263.423z" opacity="0.1"/><path d="M159.745,96.599c1.637,30.285,96.415,159.242,108.042,185.414  c12.661,28.499,16.37,62.592-26.192,82.236h138.296c0,0,19.801-74.577-50.717-143.238s-83.487-58.114-99.857-124.412L159.745,96.599  L159.745,96.599z" fill="#c06376"/><path d="M316.5,247.204c-17.514-18.772-68-63.204-91.855-96.04  c3.644-0.216,7.286-0.475,10.927-0.779l0,0c5.114-0.426,10.214-0.962,15.298-1.594c-9.154-11.822-15.089-26.017-21.552-52.192  h-69.573c1.637,30.285,96.415,159.242,108.042,185.414c12.661,28.499,16.37,62.592-26.192,82.236h116.603  C337.682,331.706,367.831,302.22,316.5,247.204z" opacity="0.1"/><g opacity="0.1"><path d="M305.566,326.918c-0.439,0-0.885-0.039-1.332-0.119c-4.077-0.731-6.79-4.628-6.059-8.706   c6.031-33.647-25.607-70.576-37.517-84.478c-1.467-1.712-2.626-3.065-3.518-4.171c-2.599-3.225-2.092-7.947,1.134-10.546   c3.227-2.6,7.946-2.091,10.546,1.134c0.75,0.931,1.898,2.271,3.23,3.824c13.176,15.38,48.177,56.235,40.889,96.884   C312.289,324.369,309.129,326.918,305.566,326.918z"/><path d="M346.788,350.754c-0.846,0-1.704-0.144-2.545-0.447c-3.896-1.405-5.916-5.704-4.51-9.6   c3.328-9.225,3.731-33.249-2.056-45.433c-1.777-3.742-0.185-8.215,3.557-9.992c3.743-1.779,8.216-0.184,9.992,3.557   c7.415,15.61,7.495,43.436,2.616,56.959C352.74,348.854,349.859,350.754,346.788,350.754z"/><path d="M238.17,180.394c-2.068,0-4.127-0.85-5.608-2.517c-14.893-16.755-29.049-52.594-31.054-65.631   c-0.629-4.094,2.179-7.923,6.273-8.553c4.094-0.626,7.924,2.18,8.553,6.273c1.679,10.92,14.721,43.638,27.438,57.946   c2.752,3.096,2.473,7.837-0.623,10.588C241.721,179.769,239.941,180.394,238.17,180.394z"/></g><path d="M104.333,27.697l-61.965,11.5c-13.898,2.579-24.862,13.295-27.759,27.13l0,0  c-3.794,18.119,7.236,36.044,25.12,40.823l37.599,10.047c51.543,13.774,105.076,18.551,158.243,14.123l0,0  c42.744-3.56,84.574-14.343,123.712-31.89l0,0c17.999-8.07,25.723-29.452,17.036-47.162l0,0  c-8.845-18.032-25.949-30.601-45.8-33.656L218.74,1.409c-25.659-3.949-51.909,0.453-74.876,12.558l0,0  C131.454,20.508,118.127,25.137,104.333,27.697z" fill="#7dd49b"/><path d="M218.74,1.409c-25.66-3.949-51.909,0.453-74.876,12.558l0,0  c-12.41,6.541-25.738,11.17-39.531,13.729l-61.965,11.5c-13.898,2.579-24.862,13.295-27.759,27.13  c-3.794,18.119,7.236,36.044,25.12,40.823l37.599,10.047c44.165,11.802,89.791,16.977,135.396,15.437  c-15.682-2.489-31.251-5.777-46.639-9.889l-37.286-9.964c-17.735-4.739-28.673-22.515-24.911-40.483l0,0  c2.873-13.719,13.746-24.346,27.528-26.904l61.449-11.404c13.678-2.539,26.894-7.129,39.201-13.615l0,0  c10.641-5.608,21.996-9.526,33.667-11.734L218.74,1.409z" opacity="0.1"/><path d="M353.615,170.915L353.615,170.915c-10.846,14.343-8.532,34.673,5.26,46.211l0,0  c4.081,3.414,9.174,5.389,14.49,5.617l56.101,2.408c21.434,0.92,42.637-4.74,60.762-16.219l0,0  c10.428-6.605,10.571-21.768,0.269-28.568l0,0c-13.144-8.675-27.112-16.029-41.703-21.957l0,0  c-20.535-8.343-43.048-10.559-64.816-6.38l0,0C371.869,154.351,361.052,161.08,353.615,170.915z" fill="#7dd49b"/><path d="M406.104,171.686c6.726-8.895,16.122-15.337,26.747-18.432  c-15.951-3.899-32.619-4.348-48.873-1.228l0,0c-12.109,2.324-22.926,9.054-30.363,18.888c-10.846,14.343-8.532,34.673,5.26,46.211  l0,0c4.081,3.415,9.174,5.389,14.49,5.617l49.036,2.104c-3.972-0.849-7.701-2.652-10.848-5.285  C397.264,207.607,394.867,186.545,406.104,171.686z" opacity="0.1"/><path d="M35.333,183.614L35.333,183.614c26.298-13.782,55.852-20.144,85.491-18.403l65.494,3.847  c8.98,0.527,17.52,4.064,24.243,10.04l0,0c20.645,18.351,16.934,51.604-7.248,64.952l0,0  c-20.723,11.439-44.311,16.642-67.923,14.983l-57.598-4.047c-17.295-1.215-33.821-7.621-47.418-18.378l0,0  C12.359,222.355,14.987,194.277,35.333,183.614z" fill="#7dd49b"/><path d="M98.649,240.274c-18.245-14.435-15.583-42.872,5.023-53.671l0,0  c20.476-10.731,42.904-17.001,65.819-18.534l-48.668-2.858c-29.639-1.741-59.193,4.621-85.491,18.403l0,0  c-20.346,10.663-22.974,38.74-4.959,52.993l0,0c13.597,10.758,30.123,17.163,47.418,18.378l57.598,4.047  c5.013,0.352,10.023,0.376,15.007,0.116l-3.723-0.262C129.157,257.657,112.42,251.17,98.649,240.274z" opacity="0.1"/><path d="M151.208,512h-28.162c-4.715,0-8.537-3.822-8.537-8.537V488.44h45.236v15.023  C159.745,508.178,155.923,512,151.208,512z" fill="#e1eaea"/><path d="M151.208,512h-28.162c-4.715,0-8.537-3.822-8.537-8.537V488.44h45.236  v15.023C159.745,508.178,155.923,512,151.208,512z" opacity="0.2"/><path d="M374.381,512h-28.163c-4.715,0-8.537-3.822-8.537-8.537V488.44h45.236v15.023  C382.918,508.178,379.096,512,374.381,512z" fill="#e1eaea"/><path d="M374.381,512h-28.163c-4.715,0-8.537-3.822-8.537-8.537V488.44h45.236  v15.023C382.918,508.178,379.096,512,374.381,512z" opacity="0.2"/><path d="M382.918,488.441H114.509c-12.769,0-24.257-7.758-29.026-19.603l-26.197-65.059h378.856  l-26.198,65.059C407.175,480.682,395.687,488.441,382.918,488.441z" fill="#e1eaea"/><path d="M438.141,403.779H59.285l26.197,65.059  c4.77,11.844,16.257,19.603,29.026,19.603h54.555c-12.769,0-24.257-7.759-29.026-19.603l-17.115-42.504h306.137L438.141,403.779z" opacity="0.1"/><path d="M455.786,403.779H41.641c-8.15,0-14.756-6.607-14.756-14.756v-10.016  c0-8.15,6.607-14.756,14.756-14.756h414.146c8.15,0,14.756,6.607,14.756,14.756v10.016  C470.543,397.172,463.936,403.779,455.786,403.779z" fill="#e1eaea"/><path d="M84.602,389.022v-10.016c0-8.15,6.607-14.756,14.756-14.756H41.641  c-8.15,0-14.756,6.607-14.756,14.756v10.016c0,8.15,6.607,14.756,14.756,14.756h57.718  C91.209,403.779,84.602,397.172,84.602,389.022z" opacity="0.2"/></g><g transform="matrix(0.1171875 0 0 0.1171875 231.99999919891354 147)" id="L1_2627"><path d="M113.84,219.54c7.323,39.796,18.512,127.469,169.253,63.999l-16.396-40.198  c0,0-99.965,71.488-129.055-12.916L113.84,219.54z" fill="#c06376"/><path d="M137.641,230.424L113.84,219.54c2.759,14.993,6.071,36.78,17.184,54.722  l4.367,0.307c14.21,0.999,28.407-0.506,41.98-4.342C160.893,266.591,146.199,255.256,137.641,230.424z" opacity="0.1"/><path d="M358.199,277.72c10.164,0.317,52.412-38.553,42.905-74.08c0,0,17.107-1.637,21.359,1.618  c0,40.909-1.467,76.755-50.126,108.923L358.199,277.72z" fill="#c06376"/><path d="M401.103,203.641c2.931,10.953,0.939,22.222-3.512,32.564l23.658,1.015  c1.104-10.305,1.213-20.95,1.213-31.961C418.21,202.004,401.103,203.641,401.103,203.641z" opacity="0.1"/><path d="M266.697,243.341c0,0-12.291,8.789-29.506,16.565  c8.274,12.849,14.689,23.248,16.888,28.198c0.851,1.914,1.619,3.787,2.32,5.623c8.374-2.837,17.26-6.217,26.694-10.189  L266.697,243.341z" opacity="0.2"/><path d="M379.096,263.423c-8.532,8.871-17.033,14.418-20.897,14.297l14.137,36.462  c7.794-5.152,14.371-10.4,19.931-15.746C389.517,287.723,385.35,275.862,379.096,263.423z" opacity="0.1"/><path d="M159.745,96.599c1.637,30.285,96.415,159.242,108.042,185.414  c12.661,28.499,16.37,62.592-26.192,82.236h138.296c0,0,19.801-74.577-50.717-143.238s-83.487-58.114-99.857-124.412L159.745,96.599  L159.745,96.599z" fill="#c06376"/><path d="M316.5,247.204c-17.514-18.772-68-63.204-91.855-96.04  c3.644-0.216,7.286-0.475,10.927-0.779l0,0c5.114-0.426,10.214-0.962,15.298-1.594c-9.154-11.822-15.089-26.017-21.552-52.192  h-69.573c1.637,30.285,96.415,159.242,108.042,185.414c12.661,28.499,16.37,62.592-26.192,82.236h116.603  C337.682,331.706,367.831,302.22,316.5,247.204z" opacity="0.1"/><g opacity="0.1"><path d="M305.566,326.918c-0.439,0-0.885-0.039-1.332-0.119c-4.077-0.731-6.79-4.628-6.059-8.706   c6.031-33.647-25.607-70.576-37.517-84.478c-1.467-1.712-2.626-3.065-3.518-4.171c-2.599-3.225-2.092-7.947,1.134-10.546   c3.227-2.6,7.946-2.091,10.546,1.134c0.75,0.931,1.898,2.271,3.23,3.824c13.176,15.38,48.177,56.235,40.889,96.884   C312.289,324.369,309.129,326.918,305.566,326.918z"/><path d="M346.788,350.754c-0.846,0-1.704-0.144-2.545-0.447c-3.896-1.405-5.916-5.704-4.51-9.6   c3.328-9.225,3.731-33.249-2.056-45.433c-1.777-3.742-0.185-8.215,3.557-9.992c3.743-1.779,8.216-0.184,9.992,3.557   c7.415,15.61,7.495,43.436,2.616,56.959C352.74,348.854,349.859,350.754,346.788,350.754z"/><path d="M238.17,180.394c-2.068,0-4.127-0.85-5.608-2.517c-14.893-16.755-29.049-52.594-31.054-65.631   c-0.629-4.094,2.179-7.923,6.273-8.553c4.094-0.626,7.924,2.18,8.553,6.273c1.679,10.92,14.721,43.638,27.438,57.946   c2.752,3.096,2.473,7.837-0.623,10.588C241.721,179.769,239.941,180.394,238.17,180.394z"/></g><path d="M104.333,27.697l-61.965,11.5c-13.898,2.579-24.862,13.295-27.759,27.13l0,0  c-3.794,18.119,7.236,36.044,25.12,40.823l37.599,10.047c51.543,13.774,105.076,18.551,158.243,14.123l0,0  c42.744-3.56,84.574-14.343,123.712-31.89l0,0c17.999-8.07,25.723-29.452,17.036-47.162l0,0  c-8.845-18.032-25.949-30.601-45.8-33.656L218.74,1.409c-25.659-3.949-51.909,0.453-74.876,12.558l0,0  C131.454,20.508,118.127,25.137,104.333,27.697z" fill="#7dd49b"/><path d="M218.74,1.409c-25.66-3.949-51.909,0.453-74.876,12.558l0,0  c-12.41,6.541-25.738,11.17-39.531,13.729l-61.965,11.5c-13.898,2.579-24.862,13.295-27.759,27.13  c-3.794,18.119,7.236,36.044,25.12,40.823l37.599,10.047c44.165,11.802,89.791,16.977,135.396,15.437  c-15.682-2.489-31.251-5.777-46.639-9.889l-37.286-9.964c-17.735-4.739-28.673-22.515-24.911-40.483l0,0  c2.873-13.719,13.746-24.346,27.528-26.904l61.449-11.404c13.678-2.539,26.894-7.129,39.201-13.615l0,0  c10.641-5.608,21.996-9.526,33.667-11.734L218.74,1.409z" opacity="0.1"/><path d="M353.615,170.915L353.615,170.915c-10.846,14.343-8.532,34.673,5.26,46.211l0,0  c4.081,3.414,9.174,5.389,14.49,5.617l56.101,2.408c21.434,0.92,42.637-4.74,60.762-16.219l0,0  c10.428-6.605,10.571-21.768,0.269-28.568l0,0c-13.144-8.675-27.112-16.029-41.703-21.957l0,0  c-20.535-8.343-43.048-10.559-64.816-6.38l0,0C371.869,154.351,361.052,161.08,353.615,170.915z" fill="#7dd49b"/><path d="M406.104,171.686c6.726-8.895,16.122-15.337,26.747-18.432  c-15.951-3.899-32.619-4.348-48.873-1.228l0,0c-12.109,2.324-22.926,9.054-30.363,18.888c-10.846,14.343-8.532,34.673,5.26,46.211  l0,0c4.081,3.415,9.174,5.389,14.49,5.617l49.036,2.104c-3.972-0.849-7.701-2.652-10.848-5.285  C397.264,207.607,394.867,186.545,406.104,171.686z" opacity="0.1"/><path d="M35.333,183.614L35.333,183.614c26.298-13.782,55.852-20.144,85.491-18.403l65.494,3.847  c8.98,0.527,17.52,4.064,24.243,10.04l0,0c20.645,18.351,16.934,51.604-7.248,64.952l0,0  c-20.723,11.439-44.311,16.642-67.923,14.983l-57.598-4.047c-17.295-1.215-33.821-7.621-47.418-18.378l0,0  C12.359,222.355,14.987,194.277,35.333,183.614z" fill="#7dd49b"/><path d="M98.649,240.274c-18.245-14.435-15.583-42.872,5.023-53.671l0,0  c20.476-10.731,42.904-17.001,65.819-18.534l-48.668-2.858c-29.639-1.741-59.193,4.621-85.491,18.403l0,0  c-20.346,10.663-22.974,38.74-4.959,52.993l0,0c13.597,10.758,30.123,17.163,47.418,18.378l57.598,4.047  c5.013,0.352,10.023,0.376,15.007,0.116l-3.723-0.262C129.157,257.657,112.42,251.17,98.649,240.274z" opacity="0.1"/><path d="M151.208,512h-28.162c-4.715,0-8.537-3.822-8.537-8.537V488.44h45.236v15.023  C159.745,508.178,155.923,512,151.208,512z" fill="#e1eaea"/><path d="M151.208,512h-28.162c-4.715,0-8.537-3.822-8.537-8.537V488.44h45.236  v15.023C159.745,508.178,155.923,512,151.208,512z" opacity="0.2"/><path d="M374.381,512h-28.163c-4.715,0-8.537-3.822-8.537-8.537V488.44h45.236v15.023  C382.918,508.178,379.096,512,374.381,512z" fill="#e1eaea"/><path d="M374.381,512h-28.163c-4.715,0-8.537-3.822-8.537-8.537V488.44h45.236  v15.023C382.918,508.178,379.096,512,374.381,512z" opacity="0.2"/><path d="M382.918,488.441H114.509c-12.769,0-24.257-7.758-29.026-19.603l-26.197-65.059h378.856  l-26.198,65.059C407.175,480.682,395.687,488.441,382.918,488.441z" fill="#e1eaea"/><path d="M438.141,403.779H59.285l26.197,65.059  c4.77,11.844,16.257,19.603,29.026,19.603h54.555c-12.769,0-24.257-7.759-29.026-19.603l-17.115-42.504h306.137L438.141,403.779z" opacity="0.1"/><path d="M455.786,403.779H41.641c-8.15,0-14.756-6.607-14.756-14.756v-10.016  c0-8.15,6.607-14.756,14.756-14.756h414.146c8.15,0,14.756,6.607,14.756,14.756v10.016  C470.543,397.172,463.936,403.779,455.786,403.779z" fill="#e1eaea"/><path d="M84.602,389.022v-10.016c0-8.15,6.607-14.756,14.756-14.756H41.641  c-8.15,0-14.756,6.607-14.756,14.756v10.016c0,8.15,6.607,14.756,14.756,14.756h57.718  C91.209,403.779,84.602,397.172,84.602,389.022z" opacity="0.2"/></g></defs><g fi:class="KUsePattern"><pattern id="pattern_L1_2622" width="350" height="350" patternUnits="userSpaceOnUse"><use xlink:href="#L1_2622" x="-350" y="-350"/><use xlink:href="#L1_2622" x="0" y="-350"/><use xlink:href="#L1_2622" x="350" y="-350"/><use xlink:href="#L1_2622" x="-350" y="0"/><use xlink:href="#L1_2622" x="0" y="0"/><use xlink:href="#L1_2622" x="350" y="0"/><use xlink:href="#L1_2622" x="-350" y="350"/><use xlink:href="#L1_2622" x="0" y="350"/><use xlink:href="#L1_2622" x="350" y="350"/></pattern><rect x="0" y="0" width="100%" height="100%" fill="url(#pattern_L1_2622)"/></g><g fi:class="KUsePattern"><pattern id="pattern_L1_2623" width="350" height="350" patternUnits="userSpaceOnUse"><use xlink:href="#L1_2623" x="-350" y="-350"/><use xlink:href="#L1_2623" x="0" y="-350"/><use xlink:href="#L1_2623" x="350" y="-350"/><use xlink:href="#L1_2623" x="-350" y="0"/><use xlink:href="#L1_2623" x="0" y="0"/><use xlink:href="#L1_2623" x="350" y="0"/><use xlink:href="#L1_2623" x="-350" y="350"/><use xlink:href="#L1_2623" x="0" y="350"/><use xlink:href="#L1_2623" x="350" y="350"/></pattern><rect x="0" y="0" width="100%" height="100%" fill="url(#pattern_L1_2623)"/></g><g fi:class="KUsePattern"><pattern id="pattern_L1_2625" width="350" height="350" patternUnits="userSpaceOnUse"><use xlink:href="#L1_2625" x="-350" y="-350"/><use xlink:href="#L1_2625" x="0" y="-350"/><use xlink:href="#L1_2625" x="350" y="-350"/><use xlink:href="#L1_2625" x="-350" y="0"/><use xlink:href="#L1_2625" x="0" y="0"/><use xlink:href="#L1_2625" x="350" y="0"/><use xlink:href="#L1_2625" x="-350" y="350"/><use xlink:href="#L1_2625" x="0" y="350"/><use xlink:href="#L1_2625" x="350" y="350"/></pattern><rect x="0" y="0" width="100%" height="100%" fill="url(#pattern_L1_2625)"/></g><g fi:class="KUsePattern"><pattern id="pattern_L1_2626" width="350" height="350" patternUnits="userSpaceOnUse"><use xlink:href="#L1_2626" x="-350" y="-350"/><use xlink:href="#L1_2626" x="0" y="-350"/><use xlink:href="#L1_2626" x="350" y="-350"/><use xlink:href="#L1_2626" x="-350" y="0"/><use xlink:href="#L1_2626" x="0" y="0"/><use xlink:href="#L1_2626" x="350" y="0"/><use xlink:href="#L1_2626" x="-350" y="350"/><use xlink:href="#L1_2626" x="0" y="350"/><use xlink:href="#L1_2626" x="350" y="350"/></pattern><rect x="0" y="0" width="100%" height="100%" fill="url(#pattern_L1_2626)"/></g><g fi:class="KUsePattern"><pattern id="pattern_L1_2627" width="350" height="350" patternUnits="userSpaceOnUse"><use xlink:href="#L1_2627" x="-350" y="-350"/><use xlink:href="#L1_2627" x="0" y="-350"/><use xlink:href="#L1_2627" x="350" y="-350"/><use xlink:href="#L1_2627" x="-350" y="0"/><use xlink:href="#L1_2627" x="0" y="0"/><use xlink:href="#L1_2627" x="350" y="0"/><use xlink:href="#L1_2627" x="-350" y="350"/><use xlink:href="#L1_2627" x="0" y="350"/><use xlink:href="#L1_2627" x="350" y="350"/></pattern><rect x="0" y="0" width="100%" height="100%" fill="url(#pattern_L1_2627)"/></g></svg>