<svg xmlns="http://www.w3.org/2000/svg" xmlns:xlink="http://www.w3.org/1999/xlink" xmlns:fi="http://pattern.flaticon.com/" x="0" y="0" width="700" height="350" viewBox="0 0 700 350"><rect x="0px" y="0px" width="100%" height="100%" opacity="1" fill="#ffffff"/><defs><g transform="matrix(0.13671875 0 0 0.13671875 315 315)" id="L1_195"><path d="M331.781,108c-6.633,0-12-3.582-12-8V68c0-4.418,5.367-8,12-8s12,3.582,12,8v32     C343.781,104.418,338.414,108,331.781,108z" fill="#7e5c62"/><path d="M179.781,108c-6.633,0-12-3.582-12-8V68c0-4.418,5.367-8,12-8s12,3.582,12,8v32     C191.781,104.418,186.414,108,179.781,108z" fill="#7e5c62"/><path d="M488,300H24c-4.422,0-8,3.582-8,8v136c0,22.055,17.945,40,40,40h400c22.055,0,40-17.945,40-40V308    C496,303.582,492.422,300,488,300z" fill="#996459"/><path d="M472,100H40c-22.055,0-40,17.945-40,40v139.207c0,16.086,9.664,30.598,24.625,36.973    C90.477,344.234,160.141,359.953,232,362.91h48c0.109,0,0.219-0.004,0.328-0.008c71.531-2.949,141.195-18.668,207.055-46.723    C502.336,309.805,512,295.293,512,279.207V140C512,117.945,494.055,100,472,100z" fill="#ba7958"/><path d="M352,276c0-17.645-14.352-32-32-32H192c-17.648,0-32,14.355-32,32v79.435    c23.716,3.897,47.72,6.477,72,7.476h48c0.109,0,0.219-0.004,0.328-0.008c24.136-0.995,48.036-3.568,71.672-7.455V276z" fill="#7e5c62"/><path d="M264,388h-16c-8.837,0-16-7.163-16-16v-32c0-8.837,7.163-16,16-16h16c8.837,0,16,7.163,16,16v32    C280,380.836,272.837,388,264,388z" fill="#ffcd00"/><path d="M344.008,71.746c-1.531,0-3.082-0.219-4.621-0.684C315.352,63.824,286.516,60,256,60    s-59.352,3.824-83.387,11.062c-8.465,2.563-17.383-2.25-19.934-10.707c-2.547-8.461,2.246-17.387,10.707-19.934    C190.375,32.297,222.403,28,256,28s65.625,4.297,92.613,12.422c8.461,2.547,13.254,11.473,10.707,19.934    C357.235,67.277,350.883,71.746,344.008,71.746z" fill="#996459"/><path d="M271.781,324h-32c-4.418,0-8,3.582-8,8v16c0,8.837,7.163,16,16,16h16c8.837,0,16-7.163,16-16v-16    C279.781,327.582,276.199,324,271.781,324z" fill="#ffe671"/></g><g transform="matrix(0.09765625 0 0 0.09765625 150 325)" id="L1_196"><path d="M407.999,16h-96v318.33c0,24.393,17.49,46.16,41.685,49.264    c29.272,3.755,54.315-19.048,54.315-47.594V16z" fill="#aeefff"/><path d="M359.781,16H312v318.33c0,24.394,17.49,46.16,41.685,49.264c2.058,0.264,4.088,0.365,6.097,0.374    L359.781,16L359.781,16z" fill="#4cd7ff"/><path d="M375.91,168c-15.936,0-15.936,8-31.871,8c-3.41,0-5.997-0.414-8.258-0.991V336    c0,13.255,10.745,24,24,24s24-10.745,24-24V168.904C381.597,168.382,379.134,168,375.91,168z" fill="#ff4f19"/><path d="M344.039,176c-3.41,0-5.997-0.414-8.258-0.991V336c0,13.255,10.745,24,24,24V172.093    C355.859,174.061,351.88,176,344.039,176z" fill="#e3001e"/><path d="M408.219,32h-96.438c-8.837,0-16-7.163-16-16l0,0c0-8.837,7.163-16,16-16h96.438    c8.837,0,16,7.163,16,16l0,0C424.219,24.837,417.056,32,408.219,32z" fill="#4bb9ec"/><path d="M199.999,16h-96v318.33c0,24.393,17.49,46.16,41.685,49.264    c29.272,3.755,54.315-19.048,54.315-47.594V16z" fill="#aeefff"/><path d="M151.781,16H104v318.33c0,24.394,17.49,46.16,41.685,49.264c2.058,0.264,4.088,0.365,6.097,0.374    V16H151.781z" fill="#4cd7ff"/><path d="M167.91,168c-15.936,0-15.936,8-31.871,8c-3.41,0-5.997-0.414-8.258-0.991V336    c0,13.255,10.745,24,24,24s24-10.745,24-24V168.904C173.597,168.382,171.134,168,167.91,168z" fill="#00e187"/><path d="M136.039,176c-3.41,0-5.997-0.414-8.258-0.991V336c0,13.255,10.745,24,24,24V172.093    C147.859,174.061,143.88,176,136.039,176z" fill="#00b9b9"/><path d="M255.999,488c-4.422,0-8-3.582-8-8V128c0-4.418,3.578-8,8-8s8,3.582,8,8v352     C263.999,484.418,260.421,488,255.999,488z" fill="#5c546a"/><path d="M415.999,128H96c-4.422,0-8-3.582-8-8s3.578-8,8-8h320c4.422,0,8,3.582,8,8     C423.999,124.418,420.421,128,415.999,128z" fill="#868491"/><path d="M200.219,32h-96.438c-8.837,0-16-7.163-16-16l0,0c0-8.837,7.163-16,16-16h96.438    c8.837,0,16,7.163,16,16l0,0C216.219,24.837,209.056,32,200.219,32z" fill="#4bb9ec"/><path d="M351.781,512H160.219c-4.418,0-8-3.582-8-8l0,0c0-17.673,14.327-32,32-32h143.562    c17.673,0,32,14.327,32,32l0,0C359.781,508.418,356.199,512,351.781,512z" fill="#868491"/></g><g transform="matrix(0.09765625 0 0 0.09765625 62.5 150)" id="L1_197"><path d="M432,8H80C66.766,8,56,18.766,56,32v456c0,13.234,10.766,24,24,24h352c13.234,0,24-10.766,24-24V32    C456,18.766,445.234,8,432,8z" fill="#ff4f19"/><path d="M95.781,8H80C66.766,8,56,18.766,56,32v456c0,13.234,10.766,24,24,24h15.781V8z" fill="#e3001e"/><path d="M400,0h-80c-4.418,0-8,3.582-8,8v119.996c0,2.883,1.547,5.543,4.055,6.961    c2.508,1.422,5.586,1.391,8.063-0.102L360,113.325l35.883,21.531c1.266,0.762,2.695,1.141,4.117,1.141    c1.359,0,2.719-0.344,3.945-1.039c2.508-1.418,4.055-4.078,4.055-6.961V8C408,3.582,404.418,0,400,0z" fill="#5d647f"/><path d="M96,480c-4.422,0-8-3.582-8-8V48c0-4.418,3.578-8,8-8s8,3.582,8,8v424     C104,476.418,100.422,480,96,480z" fill="#c10019"/><path d="M355.781,344h-0.572c-0.071-0.272-0.084-0.545-0.17-0.816L309.76,199.801    c5.679-0.948,10.021-5.85,10.021-11.801c0-6.629-5.375-12-12-12h-64c-6.625,0-12,5.371-12,12c0,5.951,4.343,10.853,10.021,11.801    l-45.279,143.383c-0.086,0.271-0.1,0.544-0.17,0.816h-0.572c-6.625,0-12,5.371-12,12s5.375,12,12,12h32c6.625,0,12-5.371,12-12    c0-5.951-4.342-10.853-10.021-11.801L238.665,316h74.231l8.905,28.199c-5.678,0.948-10.021,5.85-10.021,11.801    c0,6.629,5.375,12,12,12h32c6.625,0,12-5.371,12-12S362.406,344,355.781,344z M248.77,284l26.269-83.184    c0.086-0.271,0.1-0.544,0.17-0.816h1.144c0.071,0.272,0.084,0.545,0.17,0.816L302.792,284H248.77z" fill="#ffcd00"/></g><g transform="matrix(0.09765625 0 0 0.09765625 237.5 150)" id="L1_198"><path d="M377.078,458.898c-17.828,0-37.922-3.766-59.703-11.344     c-50.266-17.484-104.203-53.367-151.883-101.047S81.93,244.891,64.445,194.625C46.289,142.422,50.031,99.937,74.984,74.984     c24.945-24.945,67.43-28.703,119.641-10.539c50.266,17.484,104.203,53.367,151.883,101.047s83.562,101.617,101.047,151.883     c18.156,52.203,14.414,94.687-10.539,119.641l0,0l0,0C422.476,451.555,401.984,458.898,377.078,458.898z M134.906,69.055     c-20.539,0-37.141,5.773-48.609,17.242c-20.383,20.375-22.773,56.984-6.742,103.07c16.711,48.031,51.242,99.82,97.25,145.828     s97.797,80.539,145.828,97.25c46.094,16.023,82.687,13.633,103.07-6.742l0,0c20.383-20.375,22.773-56.984,6.742-103.07     c-16.711-48.031-51.242-99.82-97.25-145.828s-97.797-80.539-145.828-97.25C169.211,72.547,150.867,69.055,134.906,69.055z" fill="#ffcd00"/><path d="M134.922,458.898c-24.906,0-45.398-7.344-59.937-21.883     c-24.953-24.953-28.695-67.437-10.539-119.641c17.484-50.266,53.367-104.203,101.047-151.883S267.109,81.93,317.375,64.445     c52.211-18.164,94.695-14.406,119.641,10.539l0,0l0,0c24.953,24.953,28.695,67.437,10.539,119.641     c-17.484,50.266-53.367,104.203-101.047,151.883S244.891,430.07,194.625,447.555C172.844,455.133,152.75,458.898,134.922,458.898     z M377.094,69.055c-15.969,0-34.305,3.492-54.461,10.5c-48.031,16.711-99.82,51.242-145.828,97.25s-80.539,97.797-97.25,145.828     c-16.031,46.086-13.641,82.695,6.742,103.07c20.375,20.391,56.992,22.766,103.07,6.742c48.031-16.711,99.82-51.242,145.828-97.25     s80.539-97.797,97.25-145.828c16.031-46.086,13.641-82.695-6.742-103.07l0,0C414.234,74.828,397.633,69.055,377.094,69.055z" fill="#ff9100"/><path d="M256,512c-71.773,0-128-112.445-128-256S184.227,0,256,0s128,112.445,128,256S327.773,512,256,512     z M256,16c-60.711,0-112,109.906-112,240s51.289,240,112,240s112-109.906,112-240S316.711,16,256,16z" fill="#ff4f19"/><circle cx="255" cy="256" r="55" fill="#ff4f19"/><circle cx="269" cy="242" r="19" fill="#ff8c62"/><path d="M256,384C112.445,384,0,327.773,0,256s112.445-128,256-128s256,56.227,256,128     S399.555,384,256,384z M256,144c-130.094,0-240,51.289-240,112s109.906,112,240,112s240-51.289,240-112S386.094,144,256,144z" fill="#e3001e"/></g></defs><g fi:class="KUsePattern"><pattern id="pattern_L1_195" width="350" height="350" patternUnits="userSpaceOnUse"><use xlink:href="#L1_195" x="-350" y="-350"/><use xlink:href="#L1_195" x="0" y="-350"/><use xlink:href="#L1_195" x="350" y="-350"/><use xlink:href="#L1_195" x="-350" y="0"/><use xlink:href="#L1_195" x="0" y="0"/><use xlink:href="#L1_195" x="350" y="0"/><use xlink:href="#L1_195" x="-350" y="350"/><use xlink:href="#L1_195" x="0" y="350"/><use xlink:href="#L1_195" x="350" y="350"/></pattern><rect x="0" y="0" width="100%" height="100%" fill="url(#pattern_L1_195)"/></g><g fi:class="KUsePattern"><pattern id="pattern_L1_196" width="350" height="350" patternUnits="userSpaceOnUse"><use xlink:href="#L1_196" x="-350" y="-350"/><use xlink:href="#L1_196" x="0" y="-350"/><use xlink:href="#L1_196" x="350" y="-350"/><use xlink:href="#L1_196" x="-350" y="0"/><use xlink:href="#L1_196" x="0" y="0"/><use xlink:href="#L1_196" x="350" y="0"/><use xlink:href="#L1_196" x="-350" y="350"/><use xlink:href="#L1_196" x="0" y="350"/><use xlink:href="#L1_196" x="350" y="350"/></pattern><rect x="0" y="0" width="100%" height="100%" fill="url(#pattern_L1_196)"/></g><g fi:class="KUsePattern"><pattern id="pattern_L1_197" width="350" height="350" patternUnits="userSpaceOnUse"><use xlink:href="#L1_197" x="-350" y="-350"/><use xlink:href="#L1_197" x="0" y="-350"/><use xlink:href="#L1_197" x="350" y="-350"/><use xlink:href="#L1_197" x="-350" y="0"/><use xlink:href="#L1_197" x="0" y="0"/><use xlink:href="#L1_197" x="350" y="0"/><use xlink:href="#L1_197" x="-350" y="350"/><use xlink:href="#L1_197" x="0" y="350"/><use xlink:href="#L1_197" x="350" y="350"/></pattern><rect x="0" y="0" width="100%" height="100%" fill="url(#pattern_L1_197)"/></g><g fi:class="KUsePattern"><pattern id="pattern_L1_198" width="350" height="350" patternUnits="userSpaceOnUse"><use xlink:href="#L1_198" x="-350" y="-350"/><use xlink:href="#L1_198" x="0" y="-350"/><use xlink:href="#L1_198" x="350" y="-350"/><use xlink:href="#L1_198" x="-350" y="0"/><use xlink:href="#L1_198" x="0" y="0"/><use xlink:href="#L1_198" x="350" y="0"/><use xlink:href="#L1_198" x="-350" y="350"/><use xlink:href="#L1_198" x="0" y="350"/><use xlink:href="#L1_198" x="350" y="350"/></pattern><rect x="0" y="0" width="100%" height="100%" fill="url(#pattern_L1_198)"/></g></svg>