<svg xmlns="http://www.w3.org/2000/svg" xmlns:xlink="http://www.w3.org/1999/xlink" xmlns:fi="http://pattern.flaticon.com/" x="0" y="0" width="700" height="350" viewBox="0 0 700 350"><rect x="0px" y="0px" width="100%" height="100%" opacity="1" fill="#ffffff"/><defs><g transform="matrix(0.10638298094272614 0 0 0.10638298094272614 150 325)" id="L1_435"><path d="M402.5,402.5h-335c-16.57,0-30,13.43-30,30h395C432.5,415.93,419.07,402.5,402.5,402.5z" fill="#ff9a66"/><path d="M117.5,455h-20V118.5h-30V455h-20c-4.143,0-7.5,3.358-7.5,7.5s3.357,7.5,7.5,7.5h70   c4.143,0,7.5-3.358,7.5-7.5S121.643,455,117.5,455z" fill="#ffbc99"/><path d="M422.5,455h-20V118.5h-30V455h-20c-4.143,0-7.5,3.358-7.5,7.5s3.357,7.5,7.5,7.5h70   c4.143,0,7.5-3.358,7.5-7.5S426.643,455,422.5,455z" fill="#ffbc99"/><rect x="227px" y="118px" width="15px" height="50px" fill="#3f3736"/><path d="M301.102,257.097l-66.102-10l-66.102,10c0.001,0.002,0.002,44.246,0.002,75.403l66.1,10l66.1-10   C301.1,301.343,301.101,257.099,301.102,257.097z" fill="#0b7786"/><path d="M251.677,193.121v-17.943c0-9.211-7.467-16.678-16.677-16.678s-16.677,7.467-16.677,16.678v17.943   c-28.432,7.391-49.425,33.231-49.425,63.976h132.204C301.102,226.351,280.11,200.512,251.677,193.121z" fill="#19abbf"/><path d="M17.5,7.5h435c0,16.57-13.43,30-30,30h-375C30.93,37.5,17.5,24.07,17.5,7.5z" fill="#ffbc99"/><path d="M422.5,37.5 47.5,37.5 27.5,128.5 442.5,128.5z" fill="#ff382e"/><path d="M168.9,332.5c0,16.93,0,30,0,30h132.2c0,0,0-13.07,0-30H168.9z" fill="#19abbf"/><path d="M452.5,15h-435c-4.143,0-7.5-3.358-7.5-7.5S13.357,0,17.5,0h435c4.143,0,7.5,3.358,7.5,7.5   S456.643,15,452.5,15z" fill="#ffbc99"/><rect x="212px" y="247px" width="15px" height="95px" fill="#19abbf"/><rect x="242px" y="247px" width="15px" height="95px" fill="#19abbf"/><path d="M357.5,83.5c0,8.284,6.716,15,15,15s15-6.716,15-15H357.5z" fill="#de2f1b"/><path d="M312.5,82.5c8.284,0,15-6.716,15-15h-30C297.5,75.784,304.216,82.5,312.5,82.5z" fill="#de2f1b"/></g><g transform="matrix(0.10988938808441162 0 0 0.10988938808441162 237.5 150)" id="L1_436"><path d="M448.092,28.12 406.043,70.17 317.723,158.5 296.503,179.71 275.293,158.5 296.503,137.29    384.832,48.96 426.883,6.91z" fill="#ffbc99"/><rect x="142px" y="244px" width="105px" height="29px" transform="matrix(0.7071 -0.7071 0.7071 0.7071 -126.5779 214.104)" fill="#ffbc99"/><path d="M147.232,286.56 61.501,372.371 82.631,393.501 168.442,307.77z" fill="#ff382e"/><rect x="221px" y="180px" width="75px" height="29px" transform="matrix(0.7071 -0.7071 0.7071 0.7071 -62.5479 240.6261)" fill="#ff382e"/><path d="M377.922,0 384.832,48.96 296.503,137.29 289.592,88.33z" fill="#ff382e"/><path d="M455.003,77.08 366.672,165.41 317.723,158.5 406.043,70.17z" fill="#ff382e"/><rect x="264px" y="254px" width="63px" height="194px" fill="#ffe3a1"/><path d="M296.503,269.846c-4.143,0-7.5-3.358-7.5-7.5v-79.527l-19.017-19.017   c-2.929-2.929-2.929-7.678,0-10.606c2.931-2.929,7.679-2.929,10.607,0l21.213,21.213c1.406,1.407,2.196,3.314,2.196,5.303v82.633   C304.003,266.488,300.646,269.846,296.503,269.846z" fill="#655f5e"/><path d="M45.072,441.46l-7.01,7.01c-8.7,8.71-22.82,8.71-31.53,0s-8.71-22.83,0-31.53l7.01-7.01   L45.072,441.46z" fill="#655f5e"/><path d="M89.702,386.43c0.31,6.08-1.86,12.26-6.5,16.9l-38.13,38.13l-31.53-31.53l38.13-38.13   c4.64-4.64,10.82-6.81,16.9-6.5c5.32,0.27,10.56,2.43,14.63,6.5C87.272,375.87,89.433,381.11,89.702,386.43z" fill="#3f3736"/></g><g transform="matrix(0.15382282435894012 0 0 0.15382282435894012 315 315)" id="L1_437"><path d="M175.224,215.095c2.56-7.88-1.75-16.35-9.63-18.91c-7.88-2.56-16.34,1.76-18.9,9.63   c-2.56,7.88,1.75,16.35,9.63,18.91C164.204,227.285,172.664,222.965,175.224,215.095z M195.204,276.585   c-6.7-4.87-16.08-3.39-20.95,3.32c-4.87,6.7-3.38,16.08,3.32,20.95c6.7,4.87,16.08,3.38,20.95-3.32   C203.394,290.835,201.904,281.455,195.204,276.585z M227.534,177.085c8.28,0,15-6.71,15-15c0-8.28-6.72-15-15-15s-15,6.72-15,15   C212.534,170.375,219.254,177.085,227.534,177.085z M259.864,276.585c-6.7,4.87-8.19,14.25-3.32,20.95   c4.87,6.7,14.25,8.19,20.95,3.32c6.7-4.87,8.19-14.25,3.32-20.95C275.944,273.195,266.564,271.715,259.864,276.585z    M241.804,227.455c-1.95-6.02-7.61-10.37-14.27-10.37s-12.32,4.35-14.27,10.37c-0.47,1.46-0.73,3.01-0.73,4.63   c0,8.29,6.72,15,15,15s15-6.71,15-15C242.534,230.465,242.274,228.915,241.804,227.455z M279.844,215.095   c2.56,7.87,11.02,12.19,18.9,9.63s12.19-11.03,9.63-18.91c-2.56-7.87-11.02-12.19-18.9-9.63   C281.594,198.745,277.284,207.215,279.844,215.095z M454.764,212.905c4.2,39.91-35.69,61.43-81.81,66.43   c34.37,31.15,53.99,72.01,27.14,101.83c-12.61,14-29.29,22.13-46.64,24.24c-7.36,15.84-20.25,29.2-37.46,36.86   c-36.66,16.33-69.45-14.96-88.46-57.28c-19.01,42.32-51.8,73.61-88.46,57.28c-17.21-7.66-30.1-21.02-37.46-36.86   c-17.35-2.11-34.03-10.24-46.64-24.24c-26.85-29.82-7.23-70.68,27.14-101.83c-46.12-5-86.01-26.52-81.81-66.43   c1.97-18.74,10.69-35.12,23.48-47.02c-3.35-17.15-0.78-35.53,8.64-51.85c20.07-34.75,64.99-28.71,105.24-5.65   c-9.49-45.4-1.36-89.99,37.89-98.34c18.43-3.91,36.71-0.68,51.98,7.81c15.27-8.49,33.55-11.72,51.98-7.81   c39.25,8.35,47.38,52.94,37.89,98.34c40.25-23.06,85.17-29.1,105.24,5.65c9.42,16.32,11.99,34.7,8.64,51.85   C444.074,177.785,452.794,194.165,454.764,212.905z" fill="#ff8882"/><circle cx="297" cy="393" r="7" fill="#ff382e"/><circle cx="267" cy="363" r="7" fill="#ff382e"/><circle cx="402" cy="215" r="7" fill="#ff382e"/><path d="M289.292,219.905l-4.635-14.266l-49.623,16.124v-52.177h-15v52.177l-49.624-16.124l-4.635,14.266   l49.624,16.124l-30.669,42.212l12.135,8.816l30.669-42.211l30.669,42.211l12.135-8.816l-30.669-42.212L289.292,219.905z" fill="#ffffff"/><circle cx="227" cy="232" r="15" fill="#ffc743"/><circle cx="227" cy="162" r="15" fill="#ff382e"/><circle cx="160" cy="210" r="15" fill="#ff382e"/><circle cx="186" cy="288" r="15" fill="#ff382e"/><circle cx="268" cy="288" r="15" fill="#ff382e"/><circle cx="294" cy="210" r="15" fill="#ff382e"/></g><g transform="matrix(0.10810811072587967 0 0 0.10810811072587967 62.5 150)" id="L1_438"><path d="M334.057,0H191.172c-20.678,0-37.5,16.822-37.5,37.5v42.93h15V37.5c0-12.407,10.094-22.5,22.5-22.5   h142.886c28.948,0,52.5,23.551,52.5,52.5v129.328c0,12.407-10.094,22.5-22.5,22.5s-22.5-10.093-22.5-22.5V67.5   c0-20.678-16.822-37.5-37.501-37.5H191.172c-4.142,0-7.5,3.358-7.5,7.5s3.358,7.5,7.5,7.5h112.886c12.406,0,22.5,10.093,22.5,22.5   v129.328c0,20.678,16.822,37.5,37.5,37.5s37.5-16.822,37.5-37.5V67.5C401.557,30.28,371.277,0,334.057,0z" fill="#ffb8b4"/><path d="M226.581,70.43 125.762,70.43 60.943,120.43 60.943,462.5 291.4,462.5 291.4,120.43z" fill="#ff382e"/><rect x="120px" y="193px" width="110px" height="238px" fill="#ffffff"/><path d="M145.421,94.971c-21.125,0-38.25,17.125-38.25,38.25c0,21.125,17.125,38.25,38.25,38.25   c21.125,0,38.25-17.125,38.25-38.25C183.671,112.096,166.546,94.971,145.421,94.971z M145.421,156.471   c-12.841,0-23.25-10.409-23.25-23.25c0-12.841,10.409-23.25,23.25-23.25c12.841,0,23.25,10.409,23.25,23.25   C168.671,146.061,158.262,156.471,145.421,156.471z" fill="#ffb8b4"/><path d="M206.921,94.971c-21.125,0-38.25,17.125-38.25,38.25c0,21.125,17.125,38.25,38.25,38.25   c21.125,0,38.25-17.125,38.25-38.25C245.171,112.096,228.046,94.971,206.921,94.971z M206.921,156.471   c-12.841,0-23.25-10.409-23.25-23.25c0-12.841,10.409-23.25,23.25-23.25c12.841,0,23.25,10.409,23.25,23.25   C230.171,146.061,219.762,156.471,206.921,156.471z" fill="#ffb8b4"/><path d="M187.153,140.721h-21.964c-4.143,0-7.5-3.358-7.5-7.5s3.357-7.5,7.5-7.5h21.964   c4.143,0,7.5,3.358,7.5,7.5S191.296,140.721,187.153,140.721z" fill="#ff8882"/><path d="M199.388,342.994c0-2.061-0.848-4.03-2.345-5.447l-25.68-24.312l25.68-24.312   c1.497-1.417,2.345-3.386,2.345-5.447s-0.848-4.03-2.345-5.447l-25.68-24.306l25.68-24.306c3.009-2.847,3.139-7.594,0.292-10.603   c-2.85-3.009-7.597-3.139-10.603-0.291l-31.435,29.753c-1.497,1.417-2.345,3.386-2.345,5.447s0.848,4.03,2.345,5.447l25.68,24.306   l-25.68,24.308c-1.497,1.417-2.345,3.391-2.345,5.451s0.848,4.035,2.345,5.451l25.68,24.308l-25.68,24.306   c-1.497,1.417-2.345,3.386-2.345,5.447s0.848,4.03,2.345,5.447l31.435,29.753c3.006,2.848,7.753,2.718,10.603-0.291   c2.847-3.008,2.717-7.755-0.292-10.603l-25.68-24.306l25.68-24.306C198.541,347.024,199.388,345.054,199.388,342.994z" fill="#655f5e"/><path d="M364.057,254.328c-4.143,0-7.5-3.358-7.5-7.5v-30c0-4.142,3.357-7.5,7.5-7.5s7.5,3.358,7.5,7.5v30   C371.557,250.97,368.2,254.328,364.057,254.328z" fill="#ff8882"/><path d="M377.802,306.858c-3.328,0-6.368-2.232-7.251-5.603l-6.494-24.811l-6.494,24.811   c-1.05,4.007-5.15,6.406-9.155,5.356c-4.007-1.049-6.405-5.147-5.356-9.155l13.75-52.528c0.864-3.299,3.845-5.601,7.256-5.601   s6.392,2.301,7.256,5.601l13.75,52.528c1.049,4.007-1.35,8.106-5.356,9.155C379.07,306.779,378.431,306.858,377.802,306.858z" fill="#ff8882"/><path d="M374.057,254.328h-20c-4.143,0-7.5-3.358-7.5-7.5s3.357-7.5,7.5-7.5h20c4.143,0,7.5,3.358,7.5,7.5   S378.2,254.328,374.057,254.328z" fill="#ffb8b4"/></g></defs><g fi:class="KUsePattern"><pattern id="pattern_L1_435" width="350" height="350" patternUnits="userSpaceOnUse"><use xlink:href="#L1_435" x="-350" y="-350"/><use xlink:href="#L1_435" x="0" y="-350"/><use xlink:href="#L1_435" x="350" y="-350"/><use xlink:href="#L1_435" x="-350" y="0"/><use xlink:href="#L1_435" x="0" y="0"/><use xlink:href="#L1_435" x="350" y="0"/><use xlink:href="#L1_435" x="-350" y="350"/><use xlink:href="#L1_435" x="0" y="350"/><use xlink:href="#L1_435" x="350" y="350"/></pattern><rect x="0" y="0" width="100%" height="100%" fill="url(#pattern_L1_435)"/></g><g fi:class="KUsePattern"><pattern id="pattern_L1_436" width="350" height="350" patternUnits="userSpaceOnUse"><use xlink:href="#L1_436" x="-350" y="-350"/><use xlink:href="#L1_436" x="0" y="-350"/><use xlink:href="#L1_436" x="350" y="-350"/><use xlink:href="#L1_436" x="-350" y="0"/><use xlink:href="#L1_436" x="0" y="0"/><use xlink:href="#L1_436" x="350" y="0"/><use xlink:href="#L1_436" x="-350" y="350"/><use xlink:href="#L1_436" x="0" y="350"/><use xlink:href="#L1_436" x="350" y="350"/></pattern><rect x="0" y="0" width="100%" height="100%" fill="url(#pattern_L1_436)"/></g><g fi:class="KUsePattern"><pattern id="pattern_L1_437" width="350" height="350" patternUnits="userSpaceOnUse"><use xlink:href="#L1_437" x="-350" y="-350"/><use xlink:href="#L1_437" x="0" y="-350"/><use xlink:href="#L1_437" x="350" y="-350"/><use xlink:href="#L1_437" x="-350" y="0"/><use xlink:href="#L1_437" x="0" y="0"/><use xlink:href="#L1_437" x="350" y="0"/><use xlink:href="#L1_437" x="-350" y="350"/><use xlink:href="#L1_437" x="0" y="350"/><use xlink:href="#L1_437" x="350" y="350"/></pattern><rect x="0" y="0" width="100%" height="100%" fill="url(#pattern_L1_437)"/></g><g fi:class="KUsePattern"><pattern id="pattern_L1_438" width="350" height="350" patternUnits="userSpaceOnUse"><use xlink:href="#L1_438" x="-350" y="-350"/><use xlink:href="#L1_438" x="0" y="-350"/><use xlink:href="#L1_438" x="350" y="-350"/><use xlink:href="#L1_438" x="-350" y="0"/><use xlink:href="#L1_438" x="0" y="0"/><use xlink:href="#L1_438" x="350" y="0"/><use xlink:href="#L1_438" x="-350" y="350"/><use xlink:href="#L1_438" x="0" y="350"/><use xlink:href="#L1_438" x="350" y="350"/></pattern><rect x="0" y="0" width="100%" height="100%" fill="url(#pattern_L1_438)"/></g></svg>