<svg xmlns="http://www.w3.org/2000/svg" xmlns:xlink="http://www.w3.org/1999/xlink" xmlns:fi="http://pattern.flaticon.com/" x="0" y="0" width="700" height="350" viewBox="0 0 700 350"><rect x="0px" y="0px" width="100%" height="100%" opacity="1" fill="#ffffff"/><defs><g transform="matrix(0.1973593384027481 0 0 0.1973593384027481 305 305)" id="L1_783"><path d="M368.981,197.023l-140.97,210.96c58.39,0,116.83-22.07,161.38-66.62   c44.55-44.55,66.76-102.99,66.63-161.38C426.401,179.913,396.801,185.603,368.981,197.023z" fill="#ff8882"/><path d="M87.041,197.023c-27.82-11.42-57.42-17.11-87.04-17.04c-0.13,58.39,22.08,116.83,66.63,161.38   c44.55,44.55,102.99,66.62,161.37,66.61L87.041,197.023z" fill="#ff8882"/><path d="M351.411,110.083c-27.39,11.27-52.56,27.85-73.89,49.06l-49.51,248.84   c54-22.22,99.49-65.1,123.6-123.31c11.88-28.69,17.46-58.42,17.37-87.65C368.891,166.963,362.801,137.413,351.411,110.083z" fill="#ffb8b4"/><path d="M178.501,159.143c-21.33-21.21-46.5-37.79-73.89-49.06c-11.39,27.33-17.48,56.88-17.57,86.94   c-0.09,29.23,5.49,58.96,17.37,87.65c24.11,58.21,69.59,101.08,123.59,123.3L178.501,159.143z" fill="#ffb8b4"/><circle cx="228" cy="55" r="7" fill="#ff382e"/><circle cx="159" cy="62" r="7" fill="#ff382e"/><circle cx="296" cy="62" r="7" fill="#ff382e"/><path d="M277.521,159.143c11.27,26.96,17.49,56.56,17.49,87.62c0,63.01-25.62,120.03-67,161.22   c-41.38-41.2-67-98.22-67-161.22c0-31.06,6.22-60.66,17.49-87.62c11.59-27.76,28.53-52.72,49.51-73.61   C248.991,106.423,265.931,131.383,277.521,159.143z" fill="#ff8882"/></g><g transform="matrix(0.10441528260707855 0 0 0.10441528260707855 147.2455234117806 -17.754476588219404)" id="L1_784"><path d="M455,124.4 362.62,124.4 382.62,52.02z" fill="#ffd572"/><path d="M382.62,124.4 382.62,205.56 305.84,128.79 382.62,52.02z" fill="#ffe3a1"/><path d="M261.98,326.21 185.2,402.98 185.2,249.43 225.2,249.43z" fill="#ffe3a1"/><path d="M241.29,64.23l-80.64,120.65h-40C120.64,184.88,0,64.23,0,64.23H241.29z" fill="#ffe3a1"/><path d="M241.29,64.23L120.65,184.88l141.33,141.33l120.64-120.64C382.62,205.56,241.29,64.23,241.29,64.23z   " fill="#ffd572"/><circle cx="253" cy="247" r="7" fill="#ffb914"/><circle cx="273" cy="207" r="7" fill="#ffb914"/></g><g transform="matrix(0.09806704521179199 0 0 0.09806704521179199 -22.678003842011094 152.33029670268297)" id="L1_785"><path d="M299.558,265.752l-60.808,46.26v-69.916c-2.479-0.168-4.976-0.267-7.497-0.267   c-2.527,0-5.025,0.099-7.503,0.266v69.916l-60.81-46.261c-3.975,3.176-7.729,6.618-11.224,10.309l74.993,57.051h9.082l74.992-57.05   C307.287,272.37,303.534,268.929,299.558,265.752z" fill="#ffbc99"/><path d="M327.306,303.119c-23.376,20.173-50.76,31.831-81.395,34.653h-29.322   c-30.635-2.822-58.019-14.48-81.395-34.653l-9.801,11.356c25.884,22.336,56.226,35.211,90.183,38.266   c0.224,0.02,31.124,0.02,31.348,0c33.957-3.055,64.299-15.93,90.183-38.266L327.306,303.119z" fill="#d19884"/><path d="M380.23,54.218c-14.682-17.326-34.384-30.727-58.559-39.83C296.317,4.841,265.896,0,231.25,0   s-65.067,4.841-90.422,14.388c-24.175,9.104-43.877,22.504-58.559,39.83C55.898,85.34,46.342,128.126,54.632,177.951   c9.454,56.822,34.583,105.308,70.758,136.527l14.094-7.79c17.051-35.022,52.49-57.358,91.766-57.358   c39.285,0,74.726,22.34,91.766,57.366l14.083,7.772c36.183-31.215,61.315-79.698,70.769-136.518   C416.158,128.126,406.602,85.34,380.23,54.218z" fill="#19abbf"/><path d="M231.25,300.73c-8.284,0-15,6.716-15,15V447.5c0,8.284,6.716,15,15,15s15-6.716,15-15V315.73   C246.25,307.446,239.534,300.73,231.25,300.73z" fill="#ffbc99"/><circle cx="332" cy="102" r="7" fill="#0b7786"/><circle cx="152" cy="212" r="7" fill="#0b7786"/><circle cx="312" cy="72" r="7" fill="#0b7786"/></g><path d="M165,0C74.019,0,0,74.019,0,165s74.019,165,165,165c90.982,0,165-74.019,165-165S255.982,0,165,0z" transform="matrix(0.03030303120613098 0 0 0.03030303120613098 257.5 257.5)" id="L1_787" fill="#141cdd"/><g transform="matrix(0.16975811123847961 0 0 0.16975811123847961 136.38003129512072 127.38003129512072)" id="L1_790"><path d="M307.5,303.33 307.5,455 257.5,455 257.5,303.33 282.5,293.33z" fill="#87de66"/><path d="M307.5,151.66 307.5,303.33 257.5,303.33 257.5,151.66 282.5,141.66z" fill="#87de66"/><rect x="257px" y="151px" width="50px" height="151px" fill="#39ad49"/><path d="M197.5,303.33 197.5,455 147.5,455 147.5,303.33 172.5,293.33z" fill="#39ad49"/><rect x="257px" y="0px" width="50px" height="151px" fill="#87de66"/><path d="M197.5,151.66 197.5,303.33 147.5,303.33 147.5,151.66 172.5,141.66z" fill="#87de66"/><path d="M404.675,95.279c-18.653,18.653-42.968,28.098-67.175,28.284   c0.186-24.207,9.631-48.522,28.284-67.175s42.968-28.098,67.175-28.284C432.774,52.31,423.328,76.626,404.675,95.279z" fill="#39ad49"/><path d="M50.325,246.946c18.653,18.653,42.968,28.098,67.175,28.284   c-0.186-24.207-9.631-48.522-28.284-67.175s-42.968-28.098-67.175-28.284C22.226,203.977,31.672,228.293,50.325,246.946z" fill="#39ad49"/><rect x="147px" y="0px" width="50px" height="151px" fill="#39ad49"/></g></defs><g fi:class="KUsePattern"><pattern id="pattern_L1_783" width="350" height="350" patternUnits="userSpaceOnUse"><use xlink:href="#L1_783" x="-350" y="-350"/><use xlink:href="#L1_783" x="0" y="-350"/><use xlink:href="#L1_783" x="350" y="-350"/><use xlink:href="#L1_783" x="-350" y="0"/><use xlink:href="#L1_783" x="0" y="0"/><use xlink:href="#L1_783" x="350" y="0"/><use xlink:href="#L1_783" x="-350" y="350"/><use xlink:href="#L1_783" x="0" y="350"/><use xlink:href="#L1_783" x="350" y="350"/></pattern><rect x="0" y="0" width="100%" height="100%" fill="url(#pattern_L1_783)"/></g><g fi:class="KUsePattern"><pattern id="pattern_L1_784" width="350" height="350" patternUnits="userSpaceOnUse"><use xlink:href="#L1_784" x="-350" y="-350"/><use xlink:href="#L1_784" x="0" y="-350"/><use xlink:href="#L1_784" x="350" y="-350"/><use xlink:href="#L1_784" x="-350" y="0"/><use xlink:href="#L1_784" x="0" y="0"/><use xlink:href="#L1_784" x="350" y="0"/><use xlink:href="#L1_784" x="-350" y="350"/><use xlink:href="#L1_784" x="0" y="350"/><use xlink:href="#L1_784" x="350" y="350"/></pattern><rect x="0" y="0" width="100%" height="100%" fill="url(#pattern_L1_784)"/></g><g fi:class="KUsePattern"><pattern id="pattern_L1_785" width="350" height="350" patternUnits="userSpaceOnUse"><use xlink:href="#L1_785" x="-350" y="-350"/><use xlink:href="#L1_785" x="0" y="-350"/><use xlink:href="#L1_785" x="350" y="-350"/><use xlink:href="#L1_785" x="-350" y="0"/><use xlink:href="#L1_785" x="0" y="0"/><use xlink:href="#L1_785" x="350" y="0"/><use xlink:href="#L1_785" x="-350" y="350"/><use xlink:href="#L1_785" x="0" y="350"/><use xlink:href="#L1_785" x="350" y="350"/></pattern><rect x="0" y="0" width="100%" height="100%" fill="url(#pattern_L1_785)"/></g><g fi:class="KUsePattern"><pattern id="pattern_L1_787" width="350" height="350" patternUnits="userSpaceOnUse"><use xlink:href="#L1_787" x="-350" y="-350"/><use xlink:href="#L1_787" x="0" y="-350"/><use xlink:href="#L1_787" x="350" y="-350"/><use xlink:href="#L1_787" x="-350" y="0"/><use xlink:href="#L1_787" x="0" y="0"/><use xlink:href="#L1_787" x="350" y="0"/><use xlink:href="#L1_787" x="-350" y="350"/><use xlink:href="#L1_787" x="0" y="350"/><use xlink:href="#L1_787" x="350" y="350"/></pattern><rect x="0" y="0" width="100%" height="100%" fill="url(#pattern_L1_787)"/></g><g fi:class="KUsePattern"><pattern id="pattern_L1_790" width="350" height="350" patternUnits="userSpaceOnUse"><use xlink:href="#L1_790" x="-350" y="-350"/><use xlink:href="#L1_790" x="0" y="-350"/><use xlink:href="#L1_790" x="350" y="-350"/><use xlink:href="#L1_790" x="-350" y="0"/><use xlink:href="#L1_790" x="0" y="0"/><use xlink:href="#L1_790" x="350" y="0"/><use xlink:href="#L1_790" x="-350" y="350"/><use xlink:href="#L1_790" x="0" y="350"/><use xlink:href="#L1_790" x="350" y="350"/></pattern><rect x="0" y="0" width="100%" height="100%" fill="url(#pattern_L1_790)"/></g></svg>