<?xml version="1.0" encoding="iso-8859-1"?>
<!-- Generator: Adobe Illustrator 19.0.0, SVG Export Plug-In . SVG Version: 6.00 Build 0)  -->
<svg version="1.1" id="Capa_1" xmlns="http://www.w3.org/2000/svg" xmlns:xlink="http://www.w3.org/1999/xlink" x="0px" y="0px"
	 viewBox="0 0 512 512" style="enable-background:new 0 0 512 512;" xml:space="preserve">
<circle style="fill:#0F9390;" cx="256" cy="267" r="245"/>
<path style="fill:#D9EAFC;" d="M191.902,346.242c0-10,0.974-19.843,2.877-29.437l-26.325-39.088
	c-1.302-1.933-1.998-4.211-1.998-6.541V171.45h-53.868v99.727c0,2.331-0.695,4.608-1.997,6.541L39.952,382.609
	c16.689,31.124,39.907,58.218,67.824,79.463h139.162C213.369,434.616,191.902,392.891,191.902,346.242z"/>
<path style="fill:#AEC1ED;" d="M112.589,171.45v99.727c0,2.331-0.695,4.608-1.997,6.541l-70.64,104.891
	c2.898,5.405,6.006,10.679,9.288,15.831l81.195-120.722c1.301-1.933,1.997-4.211,1.997-6.541V171.45H112.589z"/>
<g>
	<path style="fill:#85A0DD;" d="M130.611,246.167H112.59v15h18.021c4.143,0,7.5-3.358,7.5-7.5S134.753,246.167,130.611,246.167z"/>
	<path style="fill:#85A0DD;" d="M130.611,215.667H112.59v15h18.021c4.143,0,7.5-3.358,7.5-7.5
		C138.111,219.025,134.753,215.667,130.611,215.667z"/>
	<path style="fill:#85A0DD;" d="M130.611,185.167H112.59v15h18.021c4.143,0,7.5-3.358,7.5-7.5
		C138.111,188.525,134.753,185.167,130.611,185.167z"/>
</g>
<path style="fill:#FF9518;" d="M192.446,358.935H84.132l-30.807,45.743c8.272,12.154,17.614,23.519,27.881,33.973h142.728
	C206.341,416.316,194.973,388.865,192.446,358.935z"/>
<path style="fill:#EF8318;" d="M103.974,358.935H84.132l-30.807,45.743c3.315,4.872,6.811,9.61,10.461,14.22L103.974,358.935z"/>
<path style="fill:#AEC1ED;" d="M177.492,167.45c0,2.75-2.25,5-5,5h-65.936c-2.75,0-5-2.25-5-5v-18.74c0-2.75,2.25-5,5-5h65.936
	c2.75,0,5,2.25,5,5V167.45z"/>
<path style="fill:#85A0DD;" d="M121.397,167.45v-18.74c0-2.75,2.25-5,5-5h-19.842c-2.75,0-5,2.25-5,5v18.74c0,2.75,2.25,5,5,5
	h19.842C123.647,172.45,121.397,170.2,121.397,167.45z"/>
<circle style="fill:#FFAF10;" cx="105.08" cy="75.6" r="23.366"/>
<circle style="fill:#FFD00D;" cx="152.42" cy="110.17" r="15.577"/>
<circle style="fill:#FF9518;" cx="144.87" cy="19.472" r="19.472"/>
<g>
	<path style="fill:#91E0E8;" d="M461.638,255.431c-19.289-25.468-46.68-44.483-77.125-53.541c-5.334-1.587-8.992-6.493-8.992-12.059
		V61.138h-68.045v128.693c0,5.566-3.658,10.471-8.994,12.059c-30.445,9.058-57.834,28.073-77.122,53.541
		c-19.925,26.31-30.457,57.711-30.457,90.811c0,83.039,67.557,150.596,150.595,150.596c83.039,0,150.596-67.557,150.596-150.596
		C492.093,313.142,481.561,281.74,461.638,255.431z"/>
	<path style="fill:#91E0E8;" d="M301.249,46.042v11.096c0,2.75,2.25,5,5,5h70.496c2.75,0,5-2.25,5-5V46.042H301.249z"/>
</g>
<path style="fill:#5DC1D8;" d="M321.091,57.138V46.042h-19.842v11.096c0,2.75,2.25,5,5,5h19.842
	C323.341,62.138,321.091,59.888,321.091,57.138z"/>
<circle style="fill:#FFFFFF;" cx="341.5" cy="346.24" r="124.95"/>
<path style="fill:#D9EAFC;" d="M236.386,346.242c0-65.671,50.661-119.506,115.033-124.563c-3.274-0.257-6.582-0.392-9.921-0.392
	c-69.01,0-124.954,55.944-124.954,124.955s55.944,124.955,124.954,124.955c3.34,0,6.647-0.134,9.921-0.392
	C287.047,465.748,236.386,411.913,236.386,346.242z"/>
<path style="fill:#52BBEF;" d="M464.836,326.2l-40.628,40.224c0.001,0.088,0.013,0.173,0.013,0.261
	c0,10.601-8.624,19.225-19.225,19.225s-19.225-8.624-19.225-19.225c0-0.121,0.016-0.238,0.018-0.358l-41.977-40.884
	c-3.083,2.105-6.805,3.34-10.811,3.34c-3.801,0-7.338-1.123-10.325-3.034l-43.543,43.216c0.918,2.242,1.434,4.691,1.434,7.26
	c0,10.601-8.624,19.225-19.225,19.225c-2.621,0-5.119-0.531-7.397-1.484l-18.496,18.357c22.071,35.348,61.303,58.876,106.046,58.876
	c69.012,0,124.955-55.944,124.955-124.955C466.452,339.418,465.891,332.727,464.836,326.2z"/>
<g>
	<path style="fill:#91E0E8;" d="M394.419,42.042c0,2.75-2.25,5-5,5h-95.844c-2.75,0-5-2.25-5-5V5c0-2.75,2.25-5,5-5h95.844
		c2.75,0,5,2.25,5,5V42.042z"/>
	<path style="fill:#91E0E8;" d="M308.417,42.042V5c0-2.75,2.25-5,5-5h-19.842c-2.75,0-5,2.25-5,5v37.042c0,2.75,2.25,5,5,5h19.842
		C310.667,47.042,308.417,44.792,308.417,42.042z"/>
</g>
<g>
	<path style="fill:#5DC1D8;" d="M325.497,84.5h-18.022v15h18.022c4.142,0,7.5-3.358,7.5-7.5S329.64,84.5,325.497,84.5z"/>
	<path style="fill:#5DC1D8;" d="M325.497,111.5h-18.022v15h18.022c4.142,0,7.5-3.358,7.5-7.5S329.64,111.5,325.497,111.5z"/>
	<path style="fill:#5DC1D8;" d="M325.497,138.5h-18.022v15h18.022c4.142,0,7.5-3.358,7.5-7.5S329.64,138.5,325.497,138.5z"/>
	<path style="fill:#5DC1D8;" d="M325.497,165.5h-18.022v15h18.022c4.142,0,7.5-3.358,7.5-7.5S329.64,165.5,325.497,165.5z"/>
</g>
<g>
	<path style="fill:#445EA0;" d="M314.12,313.1l-45.667,45.278c4.824,1.929,8.69,5.748,10.668,10.547l10.679-10.588V460.03
		c4.842,2.204,9.85,4.105,15,5.686V343.464l17.872-17.72C318.285,322.934,315.112,318.401,314.12,313.1z"/>
	<path style="fill:#445EA0;" d="M333.003,328.782c-2.564,0-5.009-0.514-7.248-1.43v142.86c4.916,0.618,9.922,0.945,15,0.975V327.136
		C338.381,328.187,335.762,328.782,333.003,328.782z"/>
	<path style="fill:#445EA0;" d="M261.344,395.448c-8.146,0-15.108-5.102-17.902-12.271l-15.465,15.333
		c2.193,4.756,4.677,9.349,7.428,13.759l18.44-18.283v41.298c4.658,4.586,9.672,8.811,15.001,12.626v-53.988
		C266.539,394.904,264.004,395.448,261.344,395.448z"/>
	<path style="fill:#445EA0;" d="M460.827,309.062l-43.408,42.976c4.093,3.476,6.712,8.627,6.79,14.386l9.41-9.316v73.551
		c5.641-6.151,10.672-12.869,15-20.058v-68.344l16.225-16.063C463.897,320.337,462.556,314.615,460.827,309.062z"/>
	<path style="fill:#445EA0;" d="M404.997,385.909c-2.597,0-5.072-0.523-7.334-1.461v73.437c5.221-2.632,10.23-5.62,15-8.931v-64.649
		C410.312,385.331,407.722,385.909,404.997,385.909z"/>
	<path style="fill:#445EA0;" d="M392.597,352.018l-40.613-39.556c-0.821,5.378-3.857,10.036-8.17,12.98l17.894,17.428v126.691
		c5.111-0.832,10.117-1.972,15-3.403V357.48l9.082,8.846C385.897,360.596,388.515,355.474,392.597,352.018z"/>
</g>
<circle style="fill:#FF9518;" cx="333" cy="309.56" r="20.225"/>
<path style="fill:#EF8318;" d="M332.621,309.558c0-7.561,4.157-14.143,10.303-17.613c-2.933-1.655-6.313-2.611-9.921-2.611
	c-11.17,0-20.225,9.055-20.225,20.225s9.055,20.225,20.225,20.225c3.608,0,6.988-0.956,9.921-2.611
	C336.778,323.701,332.621,317.119,332.621,309.558z"/>
<circle style="fill:#FF9518;" cx="261.34" cy="376.22" r="20.225"/>
<path style="fill:#EF8318;" d="M260.962,376.224c0-7.562,4.157-14.143,10.303-17.613c-2.933-1.656-6.313-2.611-9.921-2.611
	c-11.17,0-20.224,9.054-20.224,20.225c0,11.17,9.054,20.225,20.224,20.225c3.608,0,6.989-0.956,9.921-2.611
	C265.119,390.367,260.962,383.786,260.962,376.224z"/>
<circle style="fill:#FF9518;" cx="405" cy="366.69" r="20.225"/>
<path style="fill:#EF8318;" d="M404.615,366.685c0-7.562,4.157-14.143,10.303-17.613c-2.933-1.655-6.313-2.611-9.921-2.611
	c-11.17,0-20.225,9.055-20.225,20.225s9.055,20.225,20.225,20.225c3.608,0,6.988-0.956,9.921-2.611
	C408.772,380.828,404.615,374.246,404.615,366.685z"/>
<g>
</g>
<g>
</g>
<g>
</g>
<g>
</g>
<g>
</g>
<g>
</g>
<g>
</g>
<g>
</g>
<g>
</g>
<g>
</g>
<g>
</g>
<g>
</g>
<g>
</g>
<g>
</g>
<g>
</g>
</svg>
