<svg xmlns="http://www.w3.org/2000/svg" xmlns:xlink="http://www.w3.org/1999/xlink" xmlns:fi="http://pattern.flaticon.com/" x="0" y="0" width="700" height="350" viewBox="0 0 700 350"><rect x="0px" y="0px" width="100%" height="100%" opacity="1" fill="#ffffff"/><defs><path d="M165,0C74.019,0,0,74.019,0,165s74.019,165,165,165c90.982,0,165-74.019,165-165S255.982,0,165,0z" transform="matrix(0.03030303120613098 0 0 0.03030303120613098 257.5 257.5)" id="L1_1792" fill="#1d472a"/><g transform="matrix(0.17578125 0 0 0.17578125 305 305)" id="L1_1793"><path d="M502,308.806V491H10V308.806c0-5.529,4.477-10.011,10-10.011h11v-25.027c0-2.764,2.239-5.005,5-5.005  h20c2.761,0,5,2.241,5,5.005v25.027h30v-25.027c0-2.764,2.239-5.005,5-5.005h20c2.761,0,5,2.241,5,5.005v25.027h270v-25.027  c0-2.764,2.239-5.005,5-5.005h20c2.761,0,5,2.241,5,5.005v25.027h30v-25.027c0-2.764,2.239-5.005,5-5.005h20  c2.761,0,5,2.241,5,5.005v25.027h11C497.523,298.796,502,303.277,502,308.806z" fill="#f0c087"/><path d="M502,328.827V491H10V328.827h160V136.623h172v192.204H502z" fill="#d5945e"/><path d="M502,328.827V491h-29V328.827H502z M312,388.891h30V136.623h-30V388.891z" fill="#ce8855"/><path d="M376,128.614H136l30-52.055h180L376,128.614z" fill="#c83741"/><path d="M386.929,118.604c4.455,0,6.685,5.391,3.536,8.545l-20,20.021c-0.938,0.939-2.209,1.466-3.536,1.466  H323H189h-43.929c-1.326,0-2.598-0.527-3.536-1.466l-20-20.021c-3.15-3.153-0.919-8.545,3.536-8.545H159h194  C353,118.604,386.929,118.604,386.929,118.604z" fill="#963737"/><path d="M512,463.971v22.023c0,2.764-2.239,5.005-5,5.005H361H151H5c-2.761,0-5-2.241-5-5.005v-22.023  c0-2.764,2.239-5.005,5-5.005h146V243.737v-5.005v-25.027c0-2.764,2.239-5.005,5-5.005h20c2.761,0,5,2.241,5,5.005v25.027h30  v-25.027c0-2.764,2.239-5.005,5-5.005h20c2.761,0,5,2.241,5,5.005v25.027h30v-25.027c0-2.764,2.239-5.005,5-5.005h20  c2.761,0,5,2.241,5,5.005v25.027h30v-25.027c0-2.764,2.239-5.005,5-5.005h20c2.761,0,5,2.241,5,5.005v25.027v5.005v215.229h146  C509.761,458.966,512,461.207,512,463.971z" fill="#e6af78"/><g><path d="M347,80.563H165V48.529h182V80.563z" fill="#963737"/><path d="M180,28.508v40.043c0,4.147-3.358,7.508-7.5,7.508s-7.5-3.361-7.5-7.508V28.508   c0-4.147,3.358-7.508,7.5-7.508S180,24.361,180,28.508z M339.5,21c-4.142,0-7.5,3.361-7.5,7.508v40.043   c0,4.147,3.358,7.508,7.5,7.508s7.5-3.361,7.5-7.508V28.508C347,24.361,343.642,21,339.5,21z" fill="#963737"/></g><path d="M361,213.705v25.027v5.005v25.027H151v-25.027v-5.005v-25.027c0-2.764,2.239-5.005,5-5.005h20  c2.761,0,5,2.241,5,5.005v25.027h30v-25.027c0-2.764,2.239-5.005,5-5.005h20c2.761,0,5,2.241,5,5.005v25.027h30v-25.027  c0-2.764,2.239-5.005,5-5.005h20c2.761,0,5,2.241,5,5.005v25.027h30v-25.027c0-2.764,2.239-5.005,5-5.005h20  C358.761,208.7,361,210.941,361,213.705z" fill="#f0c087"/><g><path d="M211,323.822v30.032c0,2.764-2.239,5.005-5,5.005h-20c-2.761,0-5-2.241-5-5.005v-30.032   c0-8.293,6.716-15.016,15-15.016S211,315.529,211,323.822z M316,308.806c-8.284,0-15,6.723-15,15.016v30.032   c0,2.764,2.239,5.005,5,5.005h20c2.761,0,5-2.241,5-5.005v-30.032C331,315.529,324.284,308.806,316,308.806z M256,308.806   c-8.284,0-15,6.723-15,15.016v30.032c0,2.764,2.239,5.005,5,5.005h20c2.761,0,5-2.241,5-5.005v-30.032   C271,315.529,264.284,308.806,256,308.806z" fill="#c37a4f"/><path d="M417.5,398.902c0,4.146-3.358,7.508-7.5,7.508h-20c-4.142,0-7.5-3.361-7.5-7.508   s3.358-7.508,7.5-7.508h20C414.142,391.394,417.5,394.756,417.5,398.902z M477.5,358.859c0-4.147-3.358-7.508-7.5-7.508h-20   c-4.142,0-7.5,3.361-7.5,7.508c0,4.146,3.358,7.508,7.5,7.508h20C474.142,366.367,477.5,363.006,477.5,358.859z M110,381.383H90   c-4.142,0-7.5,3.361-7.5,7.508c0,4.146,3.358,7.508,7.5,7.508h20c4.142,0,7.5-3.361,7.5-7.508   C117.5,384.745,114.142,381.383,110,381.383z M37.5,358.859c0-4.147-3.358-7.508-7.5-7.508H10v15.016h20   C34.142,366.367,37.5,363.006,37.5,358.859z M60,411.415H40c-4.142,0-7.5,3.361-7.5,7.508s3.358,7.508,7.5,7.508h20   c4.142,0,7.5-3.361,7.5-7.508C67.5,414.777,64.142,411.415,60,411.415z M500,421.426h-20c-4.142,0-7.5,3.361-7.5,7.508   s3.358,7.508,7.5,7.508h20c0.694,0,1.362-0.102,2-0.278v-14.459C501.362,421.528,500.694,421.426,500,421.426z" fill="#c37a4f"/></g></g><g transform="matrix(0.05859375 0 0 0.05859375 335 160)" id="L1_1794"><path d="M508.226,261.327l-245.593,86.341c-4.293,1.509-8.973,1.509-13.267,0L3.774,261.327  C1.513,260.532,0,258.396,0,256l0,0C0,114.615,114.615,0,256,0l0,0c141.385,0,256,114.615,256,256l0,0  C512,258.396,510.487,260.532,508.226,261.327z" fill="#ff4b4b"/><path d="M512,256L512,256c0,2.397-1.513,4.532-3.774,5.327l-245.593,86.341  c-2.253,0.792-4.612,1.157-6.967,1.118v-24.908l173.02-60.827c37.431-13.159,59.034-52.694,49.18-91.128  c-0.122-0.476-0.245-0.941-0.37-1.393c-14.873-53.987-46.988-100.825-90.045-134.233C462.059,81.032,512,162.679,512,256z" fill="#d24a4a"/><path d="M263.5,360v120c0,4.142-3.358,7.5-7.5,7.5s-7.5-3.358-7.5-7.5V360c0-4.142,3.358-7.5,7.5-7.5  S263.5,355.858,263.5,360z" fill="#a1302b"/><path d="M283.205,500.541c0.556,2.281-0.554,4.629-2.654,5.679c-7.39,3.696-15.726,5.78-24.551,5.78  s-17.161-2.084-24.551-5.78c-2.1-1.05-3.21-3.399-2.654-5.679l14.744-60.449c1.296-5.315,5.696-9.467,11.138-10.024  c6.411-0.656,12.198,3.52,13.693,9.647L283.205,500.541z M256,390c19.33,0,35-15.67,35-35s-15.67-35-35-35s-35,15.67-35,35  S236.67,390,256,390z" fill="#ff4b4b"/><path d="M263.5,480v31.471c-2.454,0.336-4.954,0.529-7.5,0.529s-5.046-0.193-7.5-0.529V480  c0-4.142,3.358-7.5,7.5-7.5S263.5,475.858,263.5,480z M255.999,223.456c4.142,0,7.5-3.358,7.5-7.5V99.703c0-4.142-3.358-7.5-7.5-7.5  s-7.5,3.358-7.5,7.5v116.253C248.499,220.098,251.857,223.456,255.999,223.456z M195.5,228.892l-61.384-55.271  c-3.078-2.771-7.82-2.522-10.592,0.555c-2.771,3.078-2.523,7.82,0.555,10.592l61.384,55.271c1.434,1.291,3.228,1.926,5.016,1.926  c2.052,0,4.095-0.837,5.576-2.481C198.827,236.406,198.578,231.664,195.5,228.892z M167.386,131.908  c-2.072-3.587-6.659-4.817-10.245-2.745c-3.587,2.071-4.816,6.658-2.745,10.245l52.462,90.868c1.389,2.406,3.91,3.751,6.502,3.751  c1.272,0,2.562-0.324,3.743-1.006c3.587-2.071,4.816-6.658,2.745-10.245L167.386,131.908z M212.382,109.169  c-1.073-4.001-5.187-6.374-9.186-5.304c-4.001,1.072-6.375,5.185-5.304,9.186l28.891,107.823c0.898,3.351,3.928,5.561,7.24,5.561  c0.643,0,1.296-0.083,1.946-0.257c4.001-1.072,6.375-5.185,5.304-9.186L212.382,109.169z M309.098,102.758  c-3.995-1.069-8.113,1.302-9.186,5.304l-29.533,110.22c-1.072,4.001,1.303,8.113,5.304,9.186c0.65,0.174,1.303,0.257,1.946,0.257  c3.311,0,6.342-2.21,7.24-5.561l29.533-110.22C315.473,107.942,313.099,103.83,309.098,102.758z M388.856,174.605  c-2.773-3.079-7.514-3.327-10.592-0.555l-62.586,56.354c-3.078,2.772-3.327,7.514-0.555,10.592c1.481,1.645,3.524,2.481,5.576,2.481  c1.788,0,3.583-0.636,5.016-1.926l62.586-56.354C391.379,182.425,391.628,177.683,388.856,174.605z M354.951,129  c-3.587-2.072-8.174-0.842-10.245,2.745l-50.557,87.566c-2.071,3.587-0.842,8.174,2.745,10.245c1.181,0.682,2.471,1.006,3.743,1.006  c2.592,0,5.113-1.346,6.502-3.751l50.557-87.566C359.768,135.658,358.539,131.071,354.951,129z" fill="#c83741"/><path d="M194.196,328.272l-52.148-18.333c10.187-53.66,57.327-94.236,113.952-94.236l0,0  c56.625,0,103.765,40.575,113.952,94.236l-52.148,18.333C304.168,303.93,281.582,288,256,288l0,0  C230.418,288,207.832,303.93,194.196,328.272z" fill="#ffcf65"/><path d="M301.819,307.412l60.83-21.386c3.254,7.588,5.723,15.592,7.303,23.912l-52.148,18.333  C313.358,320.336,307.963,313.298,301.819,307.412z" fill="#ffb450"/><path d="M256,260L256,260c33.425,0,61.754,27.177,71.658,64.808l-65.025,22.86  c-4.293,1.509-8.973,1.509-13.266,0l-65.025-22.86C194.246,287.177,222.575,260,256,260z" fill="#d5945e"/><path d="M218.34,336.76l-33.999-11.953C194.246,287.177,222.575,260,256,260l0,0  c26.027,0,48.961,16.482,62.515,41.543L218.34,336.76z" fill="#e6af78"/></g><g transform="matrix(0.09765625 0 0 0.09765625 150 325)" id="L1_1795"><path d="M512,245.442v9.689c0,50.769-30.399,95.857-75.967,115.928  c-27.762,12.228-54.761,26.11-81.209,40.953l-93.919,52.706c-3.046,1.709-6.766,1.709-9.811,0l-93.919-52.706  c-26.448-14.842-53.447-28.725-81.209-40.953C30.399,350.988,0,305.9,0,255.131v-9.689c0-70.07,57.307-126.874,128-126.874l0,0  c70.692,0,128,56.803,128,126.874c0-70.07,57.307-126.874,128-126.874l0,0C454.693,118.568,512,175.372,512,245.442z" fill="#8ce16e"/><path d="M512,245.442v9.689c0,50.77-30.399,95.858-75.967,115.928c-27.762,12.228-54.761,26.11-81.209,40.952  l-93.919,52.707c-3.046,1.709-6.766,1.709-9.811,0l-20.403-11.45l94.502-53.033c27.171-15.248,54.908-29.51,83.429-42.073  c46.813-20.619,78.044-66.94,78.044-119.098v-9.954c0-37.626-16.091-71.521-41.816-95.313C484.84,155.255,512,197.204,512,245.442z" fill="#7dc86e"/><path d="M70.645,427.213l1.737-9.822c15.345-86.754,98.27-144.681,185.235-129.394l0.119,0.021  c5.437,0.956,9.068,6.129,8.109,11.553l0,0c-15.345,86.754-98.27,144.68-185.235,129.394L70.645,427.213z" fill="#7db764"/><path d="M246.154,299.57L246.154,299.57c-0.959-5.424,2.671-10.597,8.109-11.553l0.119-0.021  c86.965-15.286,169.89,42.64,185.235,129.394l1.737,9.822l-9.965,1.752C344.425,444.251,261.5,386.325,246.154,299.57z" fill="#74a45f"/><path d="M256,315.154l-23.804-23.73c-62.541-62.345-62.541-163.476,0-225.821l16.736-16.684  c3.905-3.892,10.232-3.892,14.137,0l16.736,16.684c62.541,62.345,62.541,163.476,0,225.821L256,315.154z" fill="#ffa5a5"/><path d="M395.73,84.813l23.442-4.12c5.438-0.956,10.624,2.666,11.583,8.091l4.112,23.25  c15.359,86.83-42.761,169.636-129.802,184.936l-33.288,5.851l-5.85-33.071C250.569,182.919,308.689,100.113,395.73,84.813z" fill="#ff8787"/><path d="M305.109,296.962l-33.332,5.859l-5.877-33.228c-2.204-12.461-2.885-24.837-2.19-36.944l2.068,11.688  l33.332-5.859c74.523-13.099,127.833-75.649,131.976-147.828l3.81,21.539C450.239,198.94,392.132,281.665,305.109,296.962z" fill="#ff6969"/><path d="M240.223,302.821l-33.288-5.851c-87.041-15.3-145.161-98.106-129.802-184.936l4.112-23.25  c0.96-5.425,6.145-9.047,11.583-8.091l23.442,4.12c87.041,15.3,145.161,98.106,129.802,184.936L240.223,302.821z" fill="#ff8787"/><path d="M299.077,215.145v99.561h-86.154v-99.561c0-22.091,17.909-40,40-40h6.154  C281.168,175.145,299.077,193.054,299.077,215.145z" fill="#ffcf65"/><path d="M44.692,207.352h117.231c55.228,0,100,44.771,100,100v18.09H134.692c-55.228,0-100-44.771-100-100  v-8.09C34.692,211.829,39.169,207.352,44.692,207.352z" fill="#ff6969"/><path d="M477.308,217.352v8.09c0,55.228-44.771,100-100,100H250.077v-18.09c0-55.228,44.771-100,100-100  h117.231C472.831,207.352,477.308,211.829,477.308,217.352z" fill="#d24a4a"/><path d="M337.974,325.442h-87.898v-18.404c0-55.055,44.771-99.687,100-99.687h77.898  c5.523,0,10,4.463,10,9.969v8.435C437.974,280.811,393.203,325.442,337.974,325.442z" fill="#ff4b4b"/></g><g transform="matrix(0.13671875 0 0 0.13671875 140 140)" id="L1_1796"><path d="M230,160h272c5.523,0,10,4.477,10,10v160c0,66.274-53.726,120-120,120h-52  c-66.274,0-120-53.726-120-120V170C220,164.477,224.477,160,230,160z" fill="#e6c8a0"/><path d="M512,170v160c0,66.274-53.726,120-120,120h-43.333c66.274,0,120-53.726,120-120V160H502  C507.523,160,512,164.477,512,170z" fill="#d2b48c"/><g><path d="M466,250c0,11.046-8.954,20-20,20s-20-8.954-20-20c0-11.046,8.954-20,20-20S466,238.954,466,250z    M366,230c-11.046,0-20,8.954-20,20c0,11.046,8.954,20,20,20s20-8.954,20-20C386,238.954,377.046,230,366,230z M286,230   c-11.046,0-20,8.954-20,20c0,11.046,8.954,20,20,20s20-8.954,20-20C306,238.954,297.046,230,286,230z" fill="#b4826e"/><path d="M512,192.5v15H220v-15H512z M220,307.5h292v-15H220V307.5z" fill="#b4826e"/></g><path d="M220.86,512c-50.371,0-94.076-22.51-116-55.5c21.924-32.99,65.629-55.5,116-55.5  s94.076,22.51,116,55.5C314.936,489.49,271.231,512,220.86,512z" fill="#7dc86e"/><path d="M202.056,391.353c-35.618,35.618-82.438,50.605-121.269,42.78  c-7.825-38.831,7.162-85.651,42.78-121.269s82.438-50.605,121.269-42.78C252.661,308.914,237.674,355.735,202.056,391.353z" fill="#8ce16e"/><g><path d="M187.803,339.026L67.246,459.583c-1.464,1.464-3.384,2.197-5.303,2.197s-3.839-0.732-5.303-2.197   c-2.929-2.929-2.929-7.678,0-10.606L177.197,328.42c2.929-2.929,7.678-2.929,10.606,0   C190.732,331.349,190.732,336.098,187.803,339.026z" fill="#7db764"/><path d="M261.861,456.5c0,4.142-3.358,7.5-7.5,7.5H87.208c-25.649,0-50.549-7.425-72.01-21.471   l-11.804-7.726c-3.466-2.269-4.437-6.917-2.168-10.383c2.268-3.466,6.917-4.437,10.383-2.168l11.804,7.726   C42.424,442.422,64.484,449,87.208,449h167.153C258.503,449,261.861,452.358,261.861,456.5z" fill="#7db764"/></g><path d="M397.5,57.5c0,14.9-5.803,28.908-16.338,39.445l-1.718,1.717  c-7.702,7.702-11.944,17.944-11.944,28.837v10c0,4.142-3.357,7.5-7.5,7.5s-7.5-3.358-7.5-7.5v-10c0-14.9,5.803-28.908,16.338-39.445  l1.718-1.717C378.258,78.635,382.5,68.394,382.5,57.5s-4.242-21.136-11.945-28.839l-15.857-15.858  c-2.93-2.929-2.93-7.677-0.001-10.606c2.93-2.929,7.679-2.93,10.606,0l15.858,15.858C391.697,28.591,397.5,42.6,397.5,57.5z M420,40  c-4.143,0-7.5,3.358-7.5,7.5v20c0,10.894-4.242,21.136-11.944,28.838l-1.718,1.717C388.303,108.591,382.5,122.6,382.5,137.5  c0,4.142,3.357,7.5,7.5,7.5s7.5-3.358,7.5-7.5c0-10.894,4.242-21.136,11.944-28.838l1.718-1.717  C421.697,96.408,427.5,82.4,427.5,67.5v-20C427.5,43.358,424.143,40,420,40z" fill="#dcdbde"/></g></defs><g fi:class="KUsePattern"><pattern id="pattern_L1_1792" width="350" height="350" patternUnits="userSpaceOnUse"><use xlink:href="#L1_1792" x="-350" y="-350"/><use xlink:href="#L1_1792" x="0" y="-350"/><use xlink:href="#L1_1792" x="350" y="-350"/><use xlink:href="#L1_1792" x="-350" y="0"/><use xlink:href="#L1_1792" x="0" y="0"/><use xlink:href="#L1_1792" x="350" y="0"/><use xlink:href="#L1_1792" x="-350" y="350"/><use xlink:href="#L1_1792" x="0" y="350"/><use xlink:href="#L1_1792" x="350" y="350"/></pattern><rect x="0" y="0" width="100%" height="100%" fill="url(#pattern_L1_1792)"/></g><g fi:class="KUsePattern"><pattern id="pattern_L1_1793" width="350" height="350" patternUnits="userSpaceOnUse"><use xlink:href="#L1_1793" x="-350" y="-350"/><use xlink:href="#L1_1793" x="0" y="-350"/><use xlink:href="#L1_1793" x="350" y="-350"/><use xlink:href="#L1_1793" x="-350" y="0"/><use xlink:href="#L1_1793" x="0" y="0"/><use xlink:href="#L1_1793" x="350" y="0"/><use xlink:href="#L1_1793" x="-350" y="350"/><use xlink:href="#L1_1793" x="0" y="350"/><use xlink:href="#L1_1793" x="350" y="350"/></pattern><rect x="0" y="0" width="100%" height="100%" fill="url(#pattern_L1_1793)"/></g><g fi:class="KUsePattern"><pattern id="pattern_L1_1794" width="350" height="350" patternUnits="userSpaceOnUse"><use xlink:href="#L1_1794" x="-350" y="-350"/><use xlink:href="#L1_1794" x="0" y="-350"/><use xlink:href="#L1_1794" x="350" y="-350"/><use xlink:href="#L1_1794" x="-350" y="0"/><use xlink:href="#L1_1794" x="0" y="0"/><use xlink:href="#L1_1794" x="350" y="0"/><use xlink:href="#L1_1794" x="-350" y="350"/><use xlink:href="#L1_1794" x="0" y="350"/><use xlink:href="#L1_1794" x="350" y="350"/></pattern><rect x="0" y="0" width="100%" height="100%" fill="url(#pattern_L1_1794)"/></g><g fi:class="KUsePattern"><pattern id="pattern_L1_1795" width="350" height="350" patternUnits="userSpaceOnUse"><use xlink:href="#L1_1795" x="-350" y="-350"/><use xlink:href="#L1_1795" x="0" y="-350"/><use xlink:href="#L1_1795" x="350" y="-350"/><use xlink:href="#L1_1795" x="-350" y="0"/><use xlink:href="#L1_1795" x="0" y="0"/><use xlink:href="#L1_1795" x="350" y="0"/><use xlink:href="#L1_1795" x="-350" y="350"/><use xlink:href="#L1_1795" x="0" y="350"/><use xlink:href="#L1_1795" x="350" y="350"/></pattern><rect x="0" y="0" width="100%" height="100%" fill="url(#pattern_L1_1795)"/></g><g fi:class="KUsePattern"><pattern id="pattern_L1_1796" width="350" height="350" patternUnits="userSpaceOnUse"><use xlink:href="#L1_1796" x="-350" y="-350"/><use xlink:href="#L1_1796" x="0" y="-350"/><use xlink:href="#L1_1796" x="350" y="-350"/><use xlink:href="#L1_1796" x="-350" y="0"/><use xlink:href="#L1_1796" x="0" y="0"/><use xlink:href="#L1_1796" x="350" y="0"/><use xlink:href="#L1_1796" x="-350" y="350"/><use xlink:href="#L1_1796" x="0" y="350"/><use xlink:href="#L1_1796" x="350" y="350"/></pattern><rect x="0" y="0" width="100%" height="100%" fill="url(#pattern_L1_1796)"/></g></svg>