<svg xmlns="http://www.w3.org/2000/svg" xmlns:xlink="http://www.w3.org/1999/xlink" xmlns:fi="http://pattern.flaticon.com/" x="0" y="0" width="700" height="350" viewBox="0 0 700 350"><rect x="0px" y="0px" width="100%" height="100%" opacity="1" fill="#f3f9ff"/><defs><g transform="matrix(0.1367187649011612 0 0 0.1367187649011612 140 140)" id="L1_2136"><path d="M 486.464844 199.59375 L 17.855469 199.59375 C 8.269531 199.59375 0.5 207.363281 0.5 216.949219 L 0.5 494.644531 C 0.5 504.230469 8.269531 512 17.855469 512 L 486.464844 512 C 496.050781 512 503.824219 504.230469 503.824219 494.644531 L 503.824219 216.949219 C 503.824219 207.363281 496.050781 199.59375 486.464844 199.59375 Z M 399.6875 303.730469 L 399.6875 338.441406 L 364.976562 338.441406 L 364.976562 303.730469 Z M 234.804688 373.152344 L 234.804688 407.863281 L 200.09375 407.863281 L 200.09375 373.152344 Z M 95.957031 407.863281 L 61.246094 407.863281 L 61.246094 373.152344 L 95.957031 373.152344 Z M 104.636719 303.730469 L 139.347656 303.730469 L 139.347656 338.441406 L 104.636719 338.441406 Z M 165.382812 477.289062 L 130.671875 477.289062 L 130.671875 442.574219 L 165.382812 442.574219 Z M 165.382812 407.863281 L 130.671875 407.863281 L 130.671875 373.152344 L 165.382812 373.152344 Z M 304.230469 477.289062 L 200.09375 477.289062 L 200.09375 442.574219 L 304.230469 442.574219 Z M 304.230469 407.863281 L 269.515625 407.863281 L 269.515625 373.152344 L 304.230469 373.152344 Z M 373.652344 477.289062 L 338.941406 477.289062 L 338.941406 442.574219 L 373.652344 442.574219 Z M 373.652344 407.863281 L 338.941406 407.863281 L 338.941406 373.152344 L 373.652344 373.152344 Z M 469.109375 338.441406 L 469.109375 407.863281 L 399.6875 407.863281 L 399.6875 373.152344 L 434.398438 373.152344 L 434.398438 338.441406 Z M 469.109375 338.441406 " fill="#e0e0e2" fill-opacity="1" stroke="none"/><path d="M 130.671875 373.152344 L 165.382812 373.152344 L 165.382812 407.863281 L 130.671875 407.863281 Z M 130.671875 373.152344 " fill="#acabb1" fill-opacity="1" stroke="none"/><path d="M 61.246094 373.152344 L 95.957031 373.152344 L 95.957031 407.863281 L 61.246094 407.863281 Z M 61.246094 373.152344 " fill="#acabb1" fill-opacity="1" stroke="none"/><path d="M 200.09375 373.152344 L 234.804688 373.152344 L 234.804688 407.863281 L 200.09375 407.863281 Z M 200.09375 373.152344 " fill="#acabb1" fill-opacity="1" stroke="none"/><path d="M 269.515625 373.152344 L 304.230469 373.152344 L 304.230469 407.863281 L 269.515625 407.863281 Z M 269.515625 373.152344 " fill="#acabb1" fill-opacity="1" stroke="none"/><path d="M 338.941406 373.152344 L 373.652344 373.152344 L 373.652344 407.863281 L 338.941406 407.863281 Z M 338.941406 373.152344 " fill="#acabb1" fill-opacity="1" stroke="none"/><path d="M 104.636719 303.730469 L 139.347656 303.730469 L 139.347656 338.441406 L 104.636719 338.441406 Z M 104.636719 303.730469 " fill="#acabb1" fill-opacity="1" stroke="none"/><path d="M 364.976562 303.730469 L 399.6875 303.730469 L 399.6875 338.441406 L 364.976562 338.441406 Z M 364.976562 303.730469 " fill="#acabb1" fill-opacity="1" stroke="none"/><path d="M 434.398438 373.152344 L 399.6875 373.152344 L 399.6875 407.863281 L 469.109375 407.863281 L 469.109375 338.441406 L 434.398438 338.441406 Z M 434.398438 373.152344 " fill="#acabb1" fill-opacity="1" stroke="none"/><path d="M 130.671875 442.574219 L 165.382812 442.574219 L 165.382812 477.289062 L 130.671875 477.289062 Z M 130.671875 442.574219 " fill="#acabb1" fill-opacity="1" stroke="none"/><path d="M 338.941406 442.574219 L 373.652344 442.574219 L 373.652344 477.289062 L 338.941406 477.289062 Z M 338.941406 442.574219 " fill="#acabb1" fill-opacity="1" stroke="none"/><path d="M 200.09375 442.574219 L 304.230469 442.574219 L 304.230469 477.289062 L 200.09375 477.289062 Z M 200.09375 442.574219 " fill="#acabb1" fill-opacity="1" stroke="none"/><path d="M 174.058594 303.730469 L 191.414062 303.730469 L 191.414062 338.441406 L 174.058594 338.441406 Z M 174.058594 303.730469 " fill="#57a4ff" fill-opacity="1" stroke="none"/><path d="M 208.773438 303.730469 L 226.128906 303.730469 L 226.128906 338.441406 L 208.773438 338.441406 Z M 208.773438 303.730469 " fill="#57a4ff" fill-opacity="1" stroke="none"/><path d="M 243.484375 303.730469 L 260.839844 303.730469 L 260.839844 338.441406 L 243.484375 338.441406 Z M 243.484375 303.730469 " fill="#57a4ff" fill-opacity="1" stroke="none"/><path d="M 278.195312 303.730469 L 295.550781 303.730469 L 295.550781 338.441406 L 278.195312 338.441406 Z M 278.195312 303.730469 " fill="#57a4ff" fill-opacity="1" stroke="none"/><path d="M 312.90625 303.730469 L 330.261719 303.730469 L 330.261719 338.441406 L 312.90625 338.441406 Z M 312.90625 303.730469 " fill="#57a4ff" fill-opacity="1" stroke="none"/><path d="M 78.601562 242.984375 L 425.71875 242.984375 L 425.71875 260.339844 L 78.601562 260.339844 Z M 78.601562 242.984375 " fill="#21409a" fill-opacity="1" stroke="none"/><path d="M 260.839844 199.59375 L 243.484375 199.59375 L 243.484375 147.527344 C 243.453125 123.574219 224.046875 104.164062 200.09375 104.136719 L 156.703125 104.136719 C 123.171875 104.097656 95.996094 76.921875 95.957031 43.390625 L 95.957031 0 L 113.3125 0 L 113.3125 43.390625 C 113.34375 67.34375 132.753906 86.75 156.703125 86.78125 L 200.09375 86.78125 C 233.628906 86.820312 260.800781 113.992188 260.839844 147.527344 Z M 260.839844 199.59375 " fill="#21409a" fill-opacity="1" stroke="none"/></g><g transform="matrix(0.09765608608722687 0 0 0.09765608608722687 150 325)" id="L1_2139"><path d="M 35.308594 335.449219 L 476.691406 335.449219 L 476.691406 35.308594 L 35.308594 35.308594 Z M 35.308594 335.449219 " fill="#2488ff" fill-opacity="1" stroke="none"/><path d="M 494.34375 406.070312 L 17.65625 406.070312 C 7.90625 406.070312 0 413.972656 0 423.722656 L 0 494.34375 C 0 504.097656 7.90625 512 17.65625 512 L 494.34375 512 C 504.097656 512 512 504.097656 512 494.34375 L 512 423.722656 C 512 413.972656 504.097656 406.070312 494.34375 406.070312 Z M 61.792969 485.515625 C 47.167969 485.515625 35.308594 473.660156 35.308594 459.035156 C 35.308594 444.40625 47.167969 432.550781 61.792969 432.550781 C 76.417969 432.550781 88.277344 444.40625 88.277344 459.035156 C 88.277344 473.660156 76.417969 485.515625 61.792969 485.515625 Z M 61.792969 485.515625 " fill="#d8d7da" fill-opacity="1" stroke="none"/><path d="M 88.277344 459.035156 C 88.277344 473.660156 76.417969 485.515625 61.792969 485.515625 C 47.167969 485.515625 35.308594 473.660156 35.308594 459.035156 C 35.308594 444.410156 47.167969 432.550781 61.792969 432.550781 C 76.417969 432.550781 88.277344 444.410156 88.277344 459.035156 Z M 88.277344 459.035156 " fill="#2488ff" fill-opacity="1" stroke="none"/><path d="M 494.34375 0 L 17.65625 0 C 7.90625 0 0 7.90625 0 17.65625 L 0 353.105469 C 0 362.855469 7.90625 370.757812 17.65625 370.757812 L 494.34375 370.757812 C 504.097656 370.757812 512 362.855469 512 353.101562 L 512 17.65625 C 512 7.90625 504.097656 0 494.34375 0 Z M 476.691406 335.449219 L 35.308594 335.449219 L 35.308594 35.308594 L 476.691406 35.308594 Z M 476.691406 335.449219 " fill="#e0e0e2" fill-opacity="1" stroke="none"/><path d="M 476.691406 467.863281 L 123.585938 467.863281 C 118.710938 467.863281 114.757812 463.910156 114.757812 459.035156 C 114.757812 454.160156 118.710938 450.207031 123.585938 450.207031 L 476.691406 450.207031 C 481.566406 450.207031 485.515625 454.160156 485.515625 459.035156 C 485.515625 463.910156 481.566406 467.863281 476.691406 467.863281 Z M 476.691406 467.863281 " fill="#2488ff" fill-opacity="1" stroke="none"/><path d="M 88.277344 70.621094 L 105.929688 70.621094 L 105.929688 105.929688 L 88.277344 105.929688 Z M 88.277344 70.621094 " fill="#21409a" fill-opacity="1" stroke="none"/><path d="M 141.242188 70.621094 L 158.898438 70.621094 L 158.898438 105.929688 L 141.242188 105.929688 Z M 141.242188 70.621094 " fill="#21409a" fill-opacity="1" stroke="none"/><path d="M 194.207031 70.621094 L 211.863281 70.621094 L 211.863281 105.929688 L 194.207031 105.929688 Z M 194.207031 70.621094 " fill="#21409a" fill-opacity="1" stroke="none"/><path d="M 247.171875 70.621094 L 264.828125 70.621094 L 264.828125 105.929688 L 247.171875 105.929688 Z M 247.171875 70.621094 " fill="#21409a" fill-opacity="1" stroke="none"/><path d="M 300.136719 70.621094 L 317.792969 70.621094 L 317.792969 105.929688 L 300.136719 105.929688 Z M 300.136719 70.621094 " fill="#21409a" fill-opacity="1" stroke="none"/><path d="M 353.101562 70.621094 L 370.757812 70.621094 L 370.757812 105.929688 L 353.101562 105.929688 Z M 353.101562 70.621094 " fill="#21409a" fill-opacity="1" stroke="none"/><path d="M 406.070312 70.621094 L 423.722656 70.621094 L 423.722656 105.929688 L 406.070312 105.929688 Z M 406.070312 70.621094 " fill="#21409a" fill-opacity="1" stroke="none"/></g><path d="M165,0C74.019,0,0,74.019,0,165s74.019,165,165,165c90.982,0,165-74.019,165-165S255.982,0,165,0z" transform="matrix(0.03030303120613098 0 0 0.03030303120613098 257.5 257.5)" id="L1_2138" fill="#e47aec"/><g transform="matrix(0.05859365314245224 0 0 0.05859365314245224 335 160)" id="L1_2141"><path d="M 256 0 C 114.613281 0 0 114.613281 0 256 C 0 397.386719 114.613281 512 256 512 C 397.386719 512 512 397.386719 512 256 C 512 114.613281 397.386719 0 256 0 Z M 64.875 366.34375 C 125.910156 471.777344 260.769531 507.914062 366.34375 447.125 C 260.769531 507.914062 125.910156 471.777344 64.875 366.34375 Z M 167.722656 256 C 167.722656 207.246094 207.246094 167.726562 256 167.726562 C 304.753906 167.726562 344.273438 207.246094 344.273438 256 C 344.273438 304.753906 304.753906 344.277344 256 344.277344 C 207.246094 344.277344 167.722656 304.753906 167.722656 256 Z M 145.65625 64.875 C 251.230469 4.085938 386.089844 40.222656 447.125 145.65625 C 386.089844 40.222656 251.230469 4.085938 145.65625 64.875 Z M 145.65625 64.875 " fill="#ffdaaa" fill-opacity="1" stroke="none"/><path d="M 344.277344 256 C 344.277344 207.246094 304.753906 167.726562 256 167.726562 C 207.246094 167.726562 167.726562 207.246094 167.726562 256 C 167.726562 304.753906 207.246094 344.277344 256 344.277344 C 304.753906 344.277344 344.277344 304.753906 344.277344 256 Z M 229.519531 256 C 229.519531 241.375 241.375 229.519531 256 229.519531 C 270.625 229.519531 282.484375 241.375 282.484375 256 C 282.484375 270.625 270.625 282.484375 256 282.484375 C 241.375 282.484375 229.519531 270.625 229.519531 256 Z M 229.519531 256 " fill="#57a4ff" fill-opacity="1" stroke="none"/><path d="M 282.484375 256 C 282.484375 270.625 270.625 282.484375 256 282.484375 C 241.375 282.484375 229.519531 270.625 229.519531 256 C 229.519531 241.375 241.375 229.519531 256 229.519531 C 270.625 229.519531 282.484375 241.375 282.484375 256 Z M 282.484375 256 " fill="#e0e0e2" fill-opacity="1" stroke="none"/><path d="M 256.378906 485.515625 C 174.253906 485.625 98.316406 441.867188 57.230469 370.757812 C 54.820312 366.519531 56.300781 361.132812 60.539062 358.722656 C 64.738281 356.335938 70.074219 357.765625 72.519531 361.929688 C 131.113281 463.144531 260.578125 497.835938 361.929688 439.480469 C 366.136719 437.015625 371.546875 438.425781 374.011719 442.632812 C 376.476562 446.835938 375.066406 452.246094 370.859375 454.710938 C 370.828125 454.730469 370.792969 454.75 370.757812 454.773438 C 336.003906 474.910156 296.546875 485.515625 256.378906 485.515625 Z M 256.378906 485.515625 " fill="#ffe4c1" fill-opacity="1" stroke="none"/><path d="M 447.136719 154.484375 C 443.976562 154.484375 441.0625 152.804688 439.480469 150.070312 C 380.886719 48.855469 251.421875 14.164062 150.070312 72.519531 C 145.832031 74.929688 140.441406 73.445312 138.03125 69.207031 C 135.644531 65.007812 137.074219 59.671875 141.242188 57.230469 C 251.042969 -5.992188 391.292969 31.589844 454.773438 141.242188 C 457.210938 145.464844 455.761719 150.863281 451.539062 153.300781 C 450.199219 154.074219 448.683594 154.480469 447.136719 154.484375 Z M 447.136719 154.484375 " fill="#ffe4c1" fill-opacity="1" stroke="none"/></g><g transform="matrix(0.11974454671144485 0 0 0.11974454671144485 305 305)" id="L1_2142"><path d="M 181.398438 233.601562 L 181.398438 389.101562 L 129.601562 389.101562 L 129.601562 518.699219 L 285.101562 518.699219 L 285.101562 466.898438 L 388.800781 466.898438 L 388.800781 518.699219 L 751.601562 518.699219 L 751.601562 104 L 129.601562 104 L 129.601562 233.601562 Z M 479.5 259.5 L 518.398438 259.5 L 518.398438 181.699219 L 673.800781 181.699219 L 673.800781 337.199219 L 518.199219 337.199219 L 518.199219 259.398438 L 479.5 259.398438 Z M 401.699219 363.101562 Z M 401.699219 311.300781 Z M 375.800781 181.699219 C 383 181.699219 388.800781 187.5 388.800781 194.699219 C 388.800781 201.898438 383 207.699219 375.800781 207.699219 C 368.601562 207.699219 362.800781 201.898438 362.800781 194.699219 C 362.800781 187.5 368.601562 181.699219 375.800781 181.699219 Z M 298.101562 181.699219 C 305.300781 181.699219 311.101562 187.5 311.101562 194.699219 C 311.101562 201.898438 305.300781 207.699219 298.101562 207.699219 C 290.898438 207.699219 285.101562 201.898438 285.101562 194.699219 C 285.101562 187.5 290.898438 181.699219 298.101562 181.699219 Z M 427.601562 259.5 Z M 375.800781 311.300781 Z M 375.800781 363.101562 Z M 375.800781 363.101562 " fill="#dcf4ca" fill-opacity="1" stroke="none"/><path d="M 77.800781 622.300781 L 129.601562 622.300781 L 129.601562 26.199219 C 129.601562 11.898438 118 0.300781 103.699219 0.300781 L 0 0.300781 L 0 52.101562 L 77.800781 52.101562 Z M 77.800781 622.300781 " fill="#787680" fill-opacity="1" stroke="none"/><path d="M 518.300781 337.199219 L 673.800781 337.199219 L 673.800781 181.699219 L 518.300781 181.699219 Z M 570.199219 233.601562 L 622 233.601562 L 622 285.398438 L 570.199219 285.398438 Z M 570.199219 233.601562 " fill="#4e901e" fill-opacity="1" stroke="none"/><path d="M 570.199219 233.601562 L 622 233.601562 L 622 285.398438 L 570.199219 285.398438 Z M 570.199219 233.601562 " fill="#ffaf46" fill-opacity="1" stroke="none"/><path d="M 311.101562 194.699219 C 311.101562 201.878906 305.28125 207.699219 298.101562 207.699219 C 290.921875 207.699219 285.101562 201.878906 285.101562 194.699219 C 285.101562 187.519531 290.921875 181.699219 298.101562 181.699219 C 305.28125 181.699219 311.101562 187.519531 311.101562 194.699219 Z M 311.101562 194.699219 " fill="#e0e0e2" fill-opacity="1" stroke="none"/><path d="M 388.800781 194.699219 C 388.800781 201.878906 382.980469 207.699219 375.800781 207.699219 C 368.621094 207.699219 362.800781 201.878906 362.800781 194.699219 C 362.800781 187.519531 368.621094 181.699219 375.800781 181.699219 C 382.980469 181.699219 388.800781 187.519531 388.800781 194.699219 Z M 388.800781 194.699219 " fill="#e0e0e2" fill-opacity="1" stroke="none"/><path d="M 427.601562 453.800781 L 453.5 453.800781 L 453.5 518.601562 L 427.601562 518.601562 Z M 427.601562 453.800781 " fill="#ff9811" fill-opacity="1" stroke="none"/><path d="M 479.5 453.800781 L 505.398438 453.800781 L 505.398438 518.601562 L 479.5 518.601562 Z M 479.5 453.800781 " fill="#ff9811" fill-opacity="1" stroke="none"/><path d="M 544.300781 142.800781 L 570.199219 142.800781 L 570.199219 181.699219 L 544.300781 181.699219 Z M 544.300781 142.800781 " fill="#6d6e71" fill-opacity="1" stroke="none"/><path d="M 583.101562 142.800781 L 609 142.800781 L 609 181.699219 L 583.101562 181.699219 Z M 583.101562 142.800781 " fill="#6d6e71" fill-opacity="1" stroke="none"/><path d="M 622 142.800781 L 647.898438 142.800781 L 647.898438 181.699219 L 622 181.699219 Z M 622 142.800781 " fill="#6d6e71" fill-opacity="1" stroke="none"/><path d="M 544.300781 337.199219 L 570.199219 337.199219 L 570.199219 376.101562 L 544.300781 376.101562 Z M 544.300781 337.199219 " fill="#6d6e71" fill-opacity="1" stroke="none"/><path d="M 583.101562 337.199219 L 609 337.199219 L 609 376.101562 L 583.101562 376.101562 Z M 583.101562 337.199219 " fill="#6d6e71" fill-opacity="1" stroke="none"/><path d="M 622 337.199219 L 647.898438 337.199219 L 647.898438 376.101562 L 622 376.101562 Z M 622 337.199219 " fill="#6d6e71" fill-opacity="1" stroke="none"/><path d="M 531.300781 453.800781 L 557.199219 453.800781 L 557.199219 518.601562 L 531.300781 518.601562 Z M 531.300781 453.800781 " fill="#ff9811" fill-opacity="1" stroke="none"/><path d="M 583.101562 453.800781 L 609 453.800781 L 609 518.601562 L 583.101562 518.601562 Z M 583.101562 453.800781 " fill="#ff9811" fill-opacity="1" stroke="none"/><path d="M 635 453.800781 L 660.898438 453.800781 L 660.898438 518.601562 L 635 518.601562 Z M 635 453.800781 " fill="#ff9811" fill-opacity="1" stroke="none"/><path d="M 686.800781 453.800781 L 712.699219 453.800781 L 712.699219 518.601562 L 686.800781 518.601562 Z M 686.800781 453.800781 " fill="#ff9811" fill-opacity="1" stroke="none"/><path d="M 673.800781 207.601562 L 712.699219 207.601562 L 712.699219 233.5 L 673.800781 233.5 Z M 673.800781 207.601562 " fill="#6d6e71" fill-opacity="1" stroke="none"/><path d="M 673.800781 246.5 L 712.699219 246.5 L 712.699219 272.398438 L 673.800781 272.398438 Z M 673.800781 246.5 " fill="#6d6e71" fill-opacity="1" stroke="none"/><path d="M 673.800781 285.398438 L 712.699219 285.398438 L 712.699219 311.300781 L 673.800781 311.300781 Z M 673.800781 285.398438 " fill="#6d6e71" fill-opacity="1" stroke="none"/><path d="M 479.5 207.601562 L 518.398438 207.601562 L 518.398438 233.5 L 479.5 233.5 Z M 479.5 207.601562 " fill="#6d6e71" fill-opacity="1" stroke="none"/><path d="M 479.5 246.5 L 518.398438 246.5 L 518.398438 272.398438 L 479.5 272.398438 Z M 479.5 246.5 " fill="#6d6e71" fill-opacity="1" stroke="none"/><path d="M 479.5 285.398438 L 518.398438 285.398438 L 518.398438 311.300781 L 479.5 311.300781 Z M 479.5 285.398438 " fill="#6d6e71" fill-opacity="1" stroke="none"/><path d="M 298.101562 220.601562 C 283.800781 220.601562 272.199219 209 272.199219 194.699219 C 272.199219 180.398438 283.800781 168.800781 298.101562 168.800781 C 312.398438 168.800781 324 180.398438 324 194.699219 C 324 209 312.398438 220.601562 298.101562 220.601562 Z M 298.101562 194.699219 Z M 298.101562 194.699219 " fill="#00a14b" fill-opacity="1" stroke="none"/><path d="M 272.101562 246.5 L 427.601562 246.5 L 427.601562 272.398438 L 272.101562 272.398438 Z M 272.101562 246.5 " fill="#808285" fill-opacity="1" stroke="none"/><path d="M 272.101562 298.300781 L 375.800781 298.300781 L 375.800781 324.199219 L 272.101562 324.199219 Z M 272.101562 298.300781 " fill="#808285" fill-opacity="1" stroke="none"/><path d="M 272.101562 350.199219 L 375.800781 350.199219 L 375.800781 376.101562 L 272.101562 376.101562 Z M 272.101562 350.199219 " fill="#808285" fill-opacity="1" stroke="none"/><path d="M 375.800781 220.601562 C 361.5 220.601562 349.898438 209 349.898438 194.699219 C 349.898438 180.398438 361.5 168.800781 375.800781 168.800781 C 390.101562 168.800781 401.699219 180.398438 401.699219 194.699219 C 401.699219 209 390.101562 220.601562 375.800781 220.601562 Z M 375.800781 194.699219 Z M 375.800781 194.699219 " fill="#00a14b" fill-opacity="1" stroke="none"/><path d="M 401.699219 298.300781 L 427.601562 298.300781 L 427.601562 324.199219 L 401.699219 324.199219 Z M 401.699219 298.300781 " fill="#808285" fill-opacity="1" stroke="none"/><path d="M 401.699219 350.199219 L 427.601562 350.199219 L 427.601562 376.101562 L 401.699219 376.101562 Z M 401.699219 350.199219 " fill="#808285" fill-opacity="1" stroke="none"/></g></defs><g fi:class="KUsePattern"><pattern id="pattern_L1_2136" width="350" height="350" patternUnits="userSpaceOnUse"><use xlink:href="#L1_2136" x="-350" y="-350"/><use xlink:href="#L1_2136" x="0" y="-350"/><use xlink:href="#L1_2136" x="350" y="-350"/><use xlink:href="#L1_2136" x="-350" y="0"/><use xlink:href="#L1_2136" x="0" y="0"/><use xlink:href="#L1_2136" x="350" y="0"/><use xlink:href="#L1_2136" x="-350" y="350"/><use xlink:href="#L1_2136" x="0" y="350"/><use xlink:href="#L1_2136" x="350" y="350"/></pattern><rect x="0" y="0" width="100%" height="100%" fill="url(#pattern_L1_2136)"/></g><g fi:class="KUsePattern"><pattern id="pattern_L1_2139" width="350" height="350" patternUnits="userSpaceOnUse"><use xlink:href="#L1_2139" x="-350" y="-350"/><use xlink:href="#L1_2139" x="0" y="-350"/><use xlink:href="#L1_2139" x="350" y="-350"/><use xlink:href="#L1_2139" x="-350" y="0"/><use xlink:href="#L1_2139" x="0" y="0"/><use xlink:href="#L1_2139" x="350" y="0"/><use xlink:href="#L1_2139" x="-350" y="350"/><use xlink:href="#L1_2139" x="0" y="350"/><use xlink:href="#L1_2139" x="350" y="350"/></pattern><rect x="0" y="0" width="100%" height="100%" fill="url(#pattern_L1_2139)"/></g><g fi:class="KUsePattern"><pattern id="pattern_L1_2138" width="350" height="350" patternUnits="userSpaceOnUse"><use xlink:href="#L1_2138" x="-350" y="-350"/><use xlink:href="#L1_2138" x="0" y="-350"/><use xlink:href="#L1_2138" x="350" y="-350"/><use xlink:href="#L1_2138" x="-350" y="0"/><use xlink:href="#L1_2138" x="0" y="0"/><use xlink:href="#L1_2138" x="350" y="0"/><use xlink:href="#L1_2138" x="-350" y="350"/><use xlink:href="#L1_2138" x="0" y="350"/><use xlink:href="#L1_2138" x="350" y="350"/></pattern><rect x="0" y="0" width="100%" height="100%" fill="url(#pattern_L1_2138)"/></g><g fi:class="KUsePattern"><pattern id="pattern_L1_2141" width="350" height="350" patternUnits="userSpaceOnUse"><use xlink:href="#L1_2141" x="-350" y="-350"/><use xlink:href="#L1_2141" x="0" y="-350"/><use xlink:href="#L1_2141" x="350" y="-350"/><use xlink:href="#L1_2141" x="-350" y="0"/><use xlink:href="#L1_2141" x="0" y="0"/><use xlink:href="#L1_2141" x="350" y="0"/><use xlink:href="#L1_2141" x="-350" y="350"/><use xlink:href="#L1_2141" x="0" y="350"/><use xlink:href="#L1_2141" x="350" y="350"/></pattern><rect x="0" y="0" width="100%" height="100%" fill="url(#pattern_L1_2141)"/></g><g fi:class="KUsePattern"><pattern id="pattern_L1_2142" width="350" height="350" patternUnits="userSpaceOnUse"><use xlink:href="#L1_2142" x="-350" y="-350"/><use xlink:href="#L1_2142" x="0" y="-350"/><use xlink:href="#L1_2142" x="350" y="-350"/><use xlink:href="#L1_2142" x="-350" y="0"/><use xlink:href="#L1_2142" x="0" y="0"/><use xlink:href="#L1_2142" x="350" y="0"/><use xlink:href="#L1_2142" x="-350" y="350"/><use xlink:href="#L1_2142" x="0" y="350"/><use xlink:href="#L1_2142" x="350" y="350"/></pattern><rect x="0" y="0" width="100%" height="100%" fill="url(#pattern_L1_2142)"/></g></svg>