<svg xmlns="http://www.w3.org/2000/svg" xmlns:xlink="http://www.w3.org/1999/xlink" xmlns:fi="http://pattern.flaticon.com/" x="0" y="0" width="700" height="350" viewBox="0 0 700 350"><rect x="0px" y="0px" width="100%" height="100%" opacity="1" fill="#ffffff"/><defs><g transform="matrix(0.14112818241119385 0 0 0.14112818241119385 315 315)" id="L1_1394"><path d="M455.375,337.681l-112.117-43.445l-7.336-51.367c-0.516-3.609-3.414-6.414-7.039-6.82l-62.164-6.906   l20.867-62.609c0.672-2.016,0.516-4.211-0.43-6.109l-21.805-43.609l16.77-22.647c-58.588,24.927-105.228,72.476-128.965,131.679   l0.032,0.032l0,0l44.468,44.468c0.257,0.257,0.363,0.588,0.578,0.869c0.341,0.445,0.672,0.87,0.914,1.375   c0.222,0.467,0.34,0.94,0.467,1.434c0.131,0.498,0.259,0.975,0.292,1.496c0.034,0.55-0.048,1.074-0.127,1.62   c-0.051,0.355,0.018,0.704-0.083,1.058l-15.964,55.875l21.964,25.625c2.883,3.352,2.492,8.398-0.867,11.273   c-1.508,1.297-3.359,1.93-5.203,1.93c-2.25,0-4.492-0.945-6.07-2.797l-44.961-52.453c-2.883-3.352-2.492-8.398,0.867-11.273   s8.406-2.492,11.273,0.867l10.513,12.265l11.766-41.181l-35.796-35.796l-0.031-0.031C139.925,265.404,136,289.792,136,315.099   c0,68.614,28.84,130.454,75.002,174.194C92.291,474.985,0.247,374.082,0.011,251.568C0.185,154.532,58.238,70.82,141.419,33.193   C58.109,70.875,0,154.78,0,252.001c0,132.336,107.664,240,240,240c-3.925,0-7.825-0.109-11.705-0.297l11.416-34.234   c1.398-4.188,5.883-6.469,10.117-5.055c4.188,1.398,6.453,5.922,5.055,10.117l-9.764,29.28c-1.711,0.037-3.401,0.189-5.119,0.189   c95.226,0,181.508-56.383,219.812-143.641c0.875-2,0.898-4.273,0.063-6.289C459.031,340.056,457.414,338.47,455.375,337.681z    M417.848,412.91l-41.108-12.333l-37.162,18.581c-1.148,0.57-2.367,0.844-3.57,0.844c-2.938,0-5.758-1.617-7.164-4.422   c-1.977-3.953-0.375-8.758,3.578-10.734l21.955-10.978l-20.674-6.202c-4.234-1.273-6.633-5.734-5.367-9.961   c1.266-4.234,5.719-6.617,9.961-5.367l90.772,27.232C425.48,404.164,421.741,408.61,417.848,412.91z" fill="#b68052"/><path d="M364.117,194.861l120-72c2.031-1.219,3.422-3.273,3.789-5.617s-0.328-4.727-1.883-6.508   L444.64,63.441l-79.578,130.853L364.117,194.861z" fill="#b68052"/><path d="M495.031,216.181c-1.25-2.297-3.547-3.844-6.148-4.133l-72-8l51.117,5.68l-47.999,16.149   c0,0-8.735,10.62-17.626,20.257l58.046,29.023c1.148,0.57,2.367,0.844,3.57,0.844c2.938,0,5.758-1.617,7.164-4.422l24-48   C496.328,221.236,496.281,218.478,495.031,216.181z" fill="#b68052"/><path d="M342.643,117.26l-8.136,11.39l40-56c1.727-2.406,1.977-5.578,0.648-8.227l-16-32l-18.49,55.578   L342.643,117.26z" fill="#b68052"/><path d="M333.656,166.345c-3.125-3.125-8.188-3.125-11.313,0l-16,16c-3.125,3.125-3.125,8.187,0,11.312   c1.563,1.563,3.609,2.344,5.656,2.344s4.094-0.781,5.656-2.344l16-16C336.781,174.533,336.781,169.47,333.656,166.345z" fill="#825a38"/><path d="M336,228.001h16c4.422,0,8-3.578,8-8s-3.578-8-8-8h-16c-4.422,0-8,3.578-8,8   S331.578,228.001,336,228.001z" fill="#825a38"/><path d="M421.469,299.587c0.844,0.281,1.695,0.414,2.531,0.414c3.352,0,6.469-2.117,7.586-5.469   c1.398-4.195-0.867-8.727-5.055-10.117l-24-8c-4.234-1.406-8.719,0.867-10.117,5.055c-1.398,4.195,0.867,8.727,5.055,10.117   L421.469,299.587z" fill="#825a38"/><path d="M461.469,164.416l-24,8c-4.188,1.391-6.453,5.922-5.055,10.117c1.117,3.352,4.234,5.469,7.586,5.469   c0.836,0,1.688-0.133,2.531-0.414l24-8c4.188-1.391,6.453-5.922,5.055-10.117C470.187,165.283,465.695,163.001,461.469,164.416z" fill="#825a38"/><path d="M392,36.002c2.047,0,4.094-0.781,5.656-2.344l16-16c3.125-3.125,3.125-8.188,0-11.313   s-8.188-3.125-11.313,0l-16,16c-3.125,3.125-3.125,8.188,0,11.313C387.906,35.22,389.953,36.002,392,36.002z" fill="#825a38"/><path d="M469.656,310.345c-3.125-3.125-8.188-3.125-11.313,0s-3.125,8.188,0,11.313l8,8   c1.563,1.563,3.609,2.344,5.656,2.344s4.094-0.781,5.656-2.344c3.125-3.125,3.125-8.188,0-11.313L469.656,310.345z" fill="#825a38"/><path d="M179.633,116.001c1.672,0,3.352-0.523,4.789-1.602l32-24c1.648-1.234,2.758-3.055,3.094-5.086l8-48   c0.727-4.352-2.219-8.477-6.578-9.203c-4.383-0.781-8.484,2.219-9.203,6.578l-7.477,44.836l-29.43,22.078   c-3.539,2.648-4.258,7.664-1.602,11.195C174.797,114.9,177.195,116.001,179.633,116.001z" fill="#825a38"/><path d="M129.008,213.009c-3.125,3.125-3.125,8.188,0,11.313l18.179,18.179l0.031,0.031   c1.79-5.646,3.784-11.197,5.971-16.654l-0.032-0.032l-12.836-12.836C137.195,209.884,132.133,209.884,129.008,213.009z" fill="#825a38"/><path d="M87.594,297.494c-0.329-0.996-0.856-1.922-1.554-2.727c-0.703-0.815-1.552-1.471-2.5-1.941   l-15.961-7.98c-3.961-1.969-8.75-0.375-10.734,3.578c-1.977,3.953-0.375,8.758,3.578,10.734l13.041,6.52l6.952,20.854   c1.117,3.352,4.234,5.469,7.586,5.469c0.836,0,1.688-0.133,2.531-0.414c4.188-1.391,6.453-5.922,5.055-10.117L87.594,297.494z" fill="#825a38"/><path d="M57.308,96.622l33.036,33.036c1.563,1.563,3.609,2.344,5.656,2.344s4.094-0.781,5.656-2.344   c3.125-3.125,3.125-8.187,0-11.312L68.091,84.78C64.368,88.607,60.772,92.555,57.308,96.622z" fill="#825a38"/><path d="M183.013,278.327l-11.766,41.181l-10.513-12.265c-2.867-3.359-7.914-3.742-11.273-0.867   s-3.75,7.922-0.867,11.273l44.961,52.453c1.578,1.852,3.82,2.797,6.07,2.797c1.844,0,3.695-0.633,5.203-1.93   c3.359-2.875,3.75-7.922,0.867-11.273l-21.964-25.625l15.964-55.875c0.101-0.354,0.032-0.703,0.083-1.058   c0.079-0.546,0.161-1.07,0.127-1.62c-0.032-0.521-0.161-0.998-0.292-1.496c-0.127-0.493-0.245-0.967-0.467-1.434   c-0.241-0.505-0.572-0.931-0.914-1.375c-0.214-0.281-0.321-0.612-0.578-0.869l-44.468-44.468l0,0   c-2.188,5.457-4.182,11.008-5.971,16.654L183.013,278.327z" fill="#9d693c"/><path d="M254.883,462.533c1.398-4.195-0.867-8.719-5.055-10.117c-4.234-1.414-8.719,0.867-10.117,5.055   l-11.416,34.234c3.88,0.188,7.78,0.297,11.705,0.297c1.717,0,3.408-0.152,5.119-0.189L254.883,462.533z" fill="#9d693c"/><path d="M328.336,377.704c-1.266,4.227,1.133,8.688,5.367,9.961l20.674,6.202l-21.955,10.978   c-3.953,1.977-5.555,6.781-3.578,10.734c1.406,2.805,4.227,4.422,7.164,4.422c1.203,0,2.422-0.273,3.57-0.844l37.162-18.581   l41.108,12.333c3.893-4.3,7.632-8.745,11.221-13.34l-90.772-27.232C334.054,371.087,329.601,373.47,328.336,377.704z" fill="#9d693c"/><path d="M320,92.001v32c0,3.477,2.25,6.555,5.555,7.617c0.805,0.258,1.633,0.383,2.445,0.383   c2.531,0,4.977-1.211,6.508-3.352l8.136-11.39l-1.977-29.258l18.49-55.578c-1.398-2.789-4.313-4.469-7.391-4.422   c-3.117,0.094-5.891,1.984-7.117,4.852l-24,56C320.219,89.845,320,90.916,320,92.001z" fill="#9d693c"/><path d="M352,156.001v32c0,2.883,1.547,5.539,4.055,6.961c1.227,0.695,2.586,1.039,3.945,1.039   c1.422,0,2.852-0.383,4.117-1.141l0.945-0.567L444.64,63.441l0,0l-14.617-16.705c-1.68-1.914-4.203-2.977-6.688-2.703   c-2.539,0.211-4.82,1.609-6.148,3.773l-64,104C352.414,153.072,352,154.517,352,156.001z" fill="#9d693c"/><path d="M468,209.728l-51.117-5.68c-1.523-0.156-3.07,0.109-4.461,0.797l-32,16   c-2.711,1.359-4.422,4.125-4.422,7.156s1.711,5.797,4.422,7.156l21.954,10.977c0,0,0,0,0,0   c8.891-9.638,17.626-20.257,17.626-20.257L468,209.728z" fill="#9d693c"/><path d="M0.011,251.568c0.236,122.514,92.279,223.417,210.991,237.725   C164.84,445.553,136,383.712,136,315.099c0-25.307,3.925-49.695,11.187-72.598l-18.179-18.179c-3.125-3.125-3.125-8.188,0-11.313   s8.188-3.125,11.313,0l12.836,12.836c23.737-59.203,70.377-106.752,128.965-131.679c0,0,0,0,0,0l41.596-56.173   c1.508-2.039,1.961-4.672,1.219-7.102c-0.742-2.422-2.594-4.352-4.984-5.203C294.226,16.611,267.328,12.002,240,12.002   c-2.067,0-4.127,0.026-6.182,0.078c-0.677,0.017-1.348,0.054-2.023,0.077c-1.375,0.046-2.75,0.087-4.119,0.157   c-0.879,0.045-1.751,0.113-2.628,0.167c-1.159,0.072-2.321,0.133-3.476,0.221c-0.947,0.072-1.887,0.169-2.83,0.252   c-1.077,0.095-2.157,0.179-3.23,0.288c-1.042,0.106-2.077,0.237-3.115,0.357c-0.967,0.111-1.938,0.21-2.902,0.333   c-1.132,0.144-2.256,0.314-3.384,0.474c-0.862,0.122-1.728,0.231-2.587,0.363c-1.227,0.188-2.445,0.402-3.666,0.608   c-0.751,0.127-1.507,0.241-2.256,0.375c-1.243,0.223-2.477,0.471-3.714,0.713c-0.72,0.141-1.444,0.268-2.161,0.415   c-1.264,0.259-2.519,0.544-3.776,0.823c-0.681,0.151-1.367,0.29-2.046,0.447c-1.305,0.302-2.599,0.629-3.895,0.952   c-0.624,0.155-1.252,0.298-1.874,0.458c-1.431,0.369-2.852,0.763-4.272,1.158c-0.478,0.133-0.96,0.254-1.437,0.39   c-1.493,0.425-2.975,0.874-4.456,1.327c-0.399,0.122-0.802,0.234-1.2,0.358c-1.506,0.469-3,0.963-4.493,1.46   c-0.367,0.122-0.738,0.235-1.104,0.359c-1.539,0.522-3.068,1.067-4.593,1.619c-0.313,0.113-0.63,0.218-0.943,0.333   c-1.626,0.596-3.241,1.215-4.851,1.845c-0.206,0.081-0.414,0.155-0.619,0.236c-1.674,0.661-3.336,1.344-4.992,2.041   c-0.138,0.058-0.278,0.112-0.416,0.17c-1.713,0.725-3.414,1.472-5.106,2.235c-0.078,0.035-0.157,0.068-0.235,0.103   C58.238,70.82,0.185,154.532,0.011,251.568z M174.828,101.603l29.43-22.078l7.477-44.836c0.719-4.359,4.82-7.359,9.203-6.578   c4.359,0.727,7.305,4.852,6.578,9.203l-8,48c-0.336,2.031-1.445,3.852-3.094,5.086l-32,24c-1.438,1.078-3.117,1.602-4.789,1.602   c-2.438,0-4.836-1.102-6.406-3.203C170.57,109.267,171.289,104.251,174.828,101.603z M90.531,331.587   c-0.844,0.281-1.695,0.414-2.531,0.414c-3.352,0-6.469-2.117-7.586-5.469l-6.952-20.854l-13.041-6.52   c-3.953-1.977-5.555-6.781-3.578-10.734c1.984-3.953,6.773-5.547,10.734-3.578l15.961,7.98c0.949,0.47,1.798,1.126,2.5,1.941   c0.698,0.805,1.225,1.731,1.554,2.727l7.992,23.977C96.984,325.665,94.719,330.197,90.531,331.587z M101.656,129.658   c-1.563,1.563-3.609,2.344-5.656,2.344s-4.094-0.781-5.656-2.344L57.308,96.622c3.464-4.067,7.06-8.015,10.783-11.842   l33.565,33.565C104.781,121.47,104.781,126.533,101.656,129.658z" fill="#9d693c"/></g><g transform="matrix(0.09765625 0 0 0.09765625 237.5 150)" id="L1_1395"><path d="M88,352.497L86.98,344H16c-4.418,0-8,3.582-8,8v40h80V352.497z" fill="#b6b8be"/><rect x="8px" y="392px" width="80px" height="16px" fill="#888693"/><path d="M424,392h80v-40c0-4.418-3.582-8-8-8h-70.98l-1.02,8.498V392z" fill="#b6b8be"/><path d="M424,96v256.497l1.02-8.498l22.926-191.047C447.984,152.637,448,152.32,448,152V96   c0-4.418-3.578-8-8-8h-24C420.422,88,424,91.582,424,96z" fill="#888693"/><path d="M88,96c0-4.418,3.578-8,8-8H72c-4.422,0-8,3.582-8,8v56c0,0.32,0.016,0.637,0.055,0.953L86.98,344   l1.02,8.498V96z" fill="#888693"/><path d="M328,360h64c4.418,0,8,3.582,8,8v40h24v-16v-39.502V96c0-4.418-3.578-8-8-8h-88v232V360z M372,128   c4.822,0,9.36,1.22,13.321,3.366l1.023-1.023c3.125-3.125,8.188-3.125,11.313,0s3.125,8.188,0,11.313l-1.023,1.023   C398.78,146.64,400,151.178,400,156c0,15.464-12.536,28-28,28c-15.464,0-28-12.536-28-28C344,140.536,356.536,128,372,128z" fill="#e3e6e9"/><path d="M88,96v256.497V392v16h24v-40c0-4.418,3.582-8,8-8h64v-40V88H96C91.578,88,88,91.582,88,96z    M112,104h24h8h8h8c4.418,0,8,3.582,8,8v96c0,4.418-3.582,8-8,8h-8h-8h-8h-8h-8h-8c-4.418,0-8-3.582-8-8v-48v-48   C104,107.582,107.582,104,112,104z" fill="#e3e6e9"/><path d="M216,320v-40V152c0-4.418,3.582-8,8-8h64c4.418,0,8,3.582,8,8v128v40h32V88H184v232H216z" fill="#888693"/><path d="M280,280h-48h-16v40v88h16v-56v-15v-33c0-4.418,3.582-8,8-8h32c4.418,0,8,3.582,8,8v33v15v56h16v-88   v-40H280z" fill="#b6b8be"/><path d="M232,168c0-4.418,3.582-8,8-8h32c4.418,0,8,3.582,8,8v112h16V152c0-4.418-3.582-8-8-8h-64   c-4.418,0-8,3.582-8,8v128h16V168z" fill="#e3e6e9"/><rect x="144px" y="104px" width="8px" height="112px" fill="#ffffff"/><rect x="112px" y="160px" width="8px" height="56px" fill="#ffffff"/><path d="M128,160v56h8v-64C136,156.418,132.418,160,128,160z" fill="#ffffff"/><path d="M168,208v-96c0-4.418-3.582-8-8-8v112C164.418,216,168,212.418,168,208z" fill="#ffffff"/><path d="M372,184c15.464,0,28-12.536,28-28c0-4.822-1.22-9.36-3.366-13.321l-14.977,14.977   C380.094,159.219,378.047,160,376,160s-4.094-0.781-5.656-2.344c-3.125-3.125-3.125-8.188,0-11.313l14.977-14.977   C381.359,129.22,376.822,128,372,128c-15.464,0-28,12.536-28,28C344,171.464,356.536,184,372,184z" fill="#2980d3"/><path d="M370.344,157.656c1.563,1.563,3.609,2.344,5.656,2.344s4.094-0.781,5.656-2.344l14.977-14.977   l1.023-1.023c3.125-3.125,3.125-8.188,0-11.313s-8.188-3.125-11.313,0l-1.023,1.023l-14.977,14.977   C367.219,149.469,367.219,154.531,370.344,157.656z" fill="#ff4f19"/><path d="M104,160h8h8h8c4.418,0,8-3.582,8-8v-48h-24c-4.418,0-8,3.582-8,8V160z" fill="#5c546a"/><path d="M104,160v48c0,4.418,3.582,8,8,8v-56H104z" fill="#ff4f19"/><rect x="120px" y="160px" width="8px" height="56px" fill="#ff4f19"/><path d="M136,216 144,216 144,104 136,104 136,152z" fill="#ff4f19"/><rect x="152px" y="104px" width="8px" height="112px" fill="#ff4f19"/><path d="M112,368v40h72v-48h-64C115.582,360,112,363.582,112,368z" fill="#b6b8be"/><path d="M392,360h-64v48h72v-40C400,363.582,396.418,360,392,360z" fill="#b6b8be"/><path d="M504,408h-80h-24h-72v-48v-40h-32v88h-16v-56v-15c0-0.552-0.448-1-1-1h-46c-0.552,0-1,0.448-1,1v15   v56h-16v-88h-32v40v48h-72H88H8c-4.422,0-8,3.582-8,8s3.578,8,8,8h496c4.422,0,8-3.582,8-8S508.422,408,504,408z" fill="#5c546a"/><rect x="424px" y="392px" width="80px" height="16px" fill="#888693"/><path d="M280,168c0-4.418-3.582-8-8-8h-32c-4.418,0-8,3.582-8,8v112h48V168z" fill="#a9e4ff"/><path d="M272,296h-32c-4.418,0-8,3.582-8,8v33c0-0.552,0.448-1,1-1h46c0.552,0,1,0.448,1,1v-33   C280,299.582,276.418,296,272,296z" fill="#a9e4ff"/></g><g transform="matrix(0.09765625 0 0 0.09765625 150 325)" id="L1_1396"><path d="M72,72H24c-4.418,0-8,3.582-8,8v56h56V72z" fill="#5c546a"/><path d="M16,152v56c0,4.418,3.582,8,8,8h48v-64H16z" fill="#5c546a"/><path d="M144,136V80c0-4.418-3.582-8-8-8H88v64H144z" fill="#5c546a"/><path d="M88,216h48c4.418,0,8-3.582,8-8v-56H88V216z" fill="#5c546a"/><path d="M16,344v56c0,4.418,3.582,8,8,8h48v-64H16z" fill="#5c546a"/><path d="M88,408h48c4.418,0,8-3.582,8-8v-56H88V408z" fill="#5c546a"/><path d="M72,264H24c-4.418,0-8,3.582-8,8v56h56V264z" fill="#5c546a"/><path d="M144,328v-56c0-4.418-3.582-8-8-8H88v64H144z" fill="#5c546a"/><path d="M72,264 72,328 16,328 16,344 72,344 72,408 88,408 88,344 144,344 144,328 88,328 88,264    88,248 72,248z" fill="#888693"/><path d="M88,216 88,152 144,152 144,136 88,136 88,72 72,72 72,136 16,136 16,152 72,152 72,216    72,232 88,232z" fill="#888693"/><path d="M88,232H72H16c-4.422,0-8,3.582-8,8s3.578,8,8,8h56h16h88v-16H88z" fill="#5c546a"/><path d="M368,152v56c0,4.418,3.582,8,8,8h48v-64H368z" fill="#5c546a"/><path d="M440,216h48c4.418,0,8-3.582,8-8v-56h-56V216z" fill="#5c546a"/><path d="M424,72h-48c-4.418,0-8,3.582-8,8v56h56V72z" fill="#5c546a"/><path d="M496,136V80c0-4.418-3.582-8-8-8h-48v64H496z" fill="#5c546a"/><path d="M496,328v-56c0-4.418-3.582-8-8-8h-48v64H496z" fill="#5c546a"/><path d="M440,408h48c4.418,0,8-3.582,8-8v-56h-56V408z" fill="#5c546a"/><path d="M368,344v56c0,4.418,3.582,8,8,8h48v-64H368z" fill="#5c546a"/><path d="M424,264h-48c-4.418,0-8,3.582-8,8v56h56V264z" fill="#5c546a"/><path d="M424,264 424,328 368,328 368,344 424,344 424,408 440,408 440,344 496,344 496,328 440,328    440,264 440,248 424,248z" fill="#888693"/><path d="M440,216 440,152 496,152 496,136 440,136 440,72 424,72 424,136 368,136 368,152 424,152    424,216 424,232 440,232z" fill="#888693"/><path d="M496,232h-56h-16h-87.995l-0.003,16H424h16h56c4.422,0,8-3.582,8-8S500.422,232,496,232z" fill="#5c546a"/><path d="M176,376c-4.422,0-8,3.582-8,8s3.578,8,8,8h16v-16H176z" fill="#888693"/><path d="M336,392c4.422,0,8-3.582,8-8s-3.578-8-8-8h-16v16H336z" fill="#888693"/><path d="M288,272h-16h-16v88c13.255,0,24,10.745,24,24s-10.745,24-24,24v88h64V392v-16V272h-16H288z" fill="#d5d9de"/><path d="M256,408c-13.255,0-24-10.745-24-24s10.745-24,24-24v-88h-16h-16h-16h-16v104v16v104h64V408z" fill="#b6b8be"/><path d="M192,232h-8h-8v16v8c0,8.824,7.18,16,16,16V232z" fill="#888693"/><rect x="240px" y="232px" width="16px" height="40px" fill="#888693"/><path d="M224,216v-64h-56v44.703c0,8.25,2.813,13.016,8,19.32V216H224z" fill="#888693"/><path d="M256,0h-72c-8.82,0-16,7.176-16,16v120h88V0z" fill="#888693"/><rect x="240px" y="152px" width="16px" height="64px" fill="#888693"/><rect x="208px" y="232px" width="16px" height="40px" fill="#888693"/><path d="M336.008,216c5.109-6.262,7.992-11.18,7.992-19.301V152h-56v64h48v16h-8h-8v40   c8.82,0,16-7.176,16-16l0.002-8l0.003-16L336.008,216z" fill="#b6b8be"/><rect x="256px" y="152px" width="16px" height="64px" fill="#b6b8be"/><rect x="288px" y="232px" width="16px" height="40px" fill="#b6b8be"/><rect x="256px" y="232px" width="16px" height="40px" fill="#b6b8be"/><path d="M344,136V16c0-8.824-7.18-16-16-16h-72v136H344z" fill="#b6b8be"/><path d="M256,512h72c4.422,0,8-3.582,8-8s-3.578-8-8-8h-8h-64V512z" fill="#888693"/><path d="M208,232 224,232 224,272 240,272 240,232 256,232 256,216 240,216 240,152 256,152 256,136    168,136 168,152 224,152 224,216 176,216 176,216.023 176,232 184,232 192,232 192,272 208,272z" fill="#5c546a"/><circle cx="256" cy="384" r="24" fill="#888693"/><path d="M192,496h-8c-4.422,0-8,3.582-8,8s3.578,8,8,8h72v-16H192z" fill="#5c546a"/><path d="M320,232 328,232 336,232 336,216 288,216 288,152 344,152 344,136 256,136 256,152 272,152    272,216 256,216 256,232 272,232 272,272 288,272 288,232 304,232 304,272 320,272z" fill="#888693"/></g><g transform="matrix(0.09900853037834167 0 0 0.09900853037834167 62.5 150)" id="L1_1397"><path d="M392.001,84.32 347.315,129.006 392.001,173.693z" fill="none"/><path d="M291.317,73.007 336.002,117.694 380.689,73.007z" fill="none"/><path d="M380.689,73.007l-44.686,44.686l5.657,5.658l0,0l5.655,5.655l44.686-44.686v89.374l16,16V68.32   l21.654-21.654c-4.942-2.365-8.947-6.371-11.312-11.313l-21.654,21.654H275.317l16,16H380.689z" fill="#ff9300"/><path d="M208.004,209.007c13.086,0,24.703,6.285,32,16l76-76L187.529,20.533   c3.867-5.296,7.929-10.482,12.417-15.405C145.584,64.744,136.66,153.781,177.712,222.9   C185.048,214.397,195.893,209.007,208.004,209.007z" fill="#d5d9de"/><path d="M429.655,46.666c3.134,1.5,6.643,2.341,10.348,2.341c13.255,0,24-10.745,24-24s-10.745-24-24-24   s-24,10.745-24,24c0,3.705,0.841,7.213,2.34,10.346C420.708,40.295,424.713,44.301,429.655,46.666z" fill="#ffcf00"/><path d="M247.983,248.204c0.005,0.268,0.02,0.534,0.02,0.803c0,22.092-17.909,40-40,40s-40-17.908-40-40   c0-0.278,0.015-0.552,0.021-0.829l-30.753,176.829h141.46l-22.646-130.214L247.983,248.204z" fill="#888693"/><path d="M120.002,425.007c-8.82,0-16,7.176-16,16v24h208v-24c0-8.824-7.18-16-16-16h-17.27h-141.46H120.002z   " fill="#b6b8be"/><path d="M80.002,465.007c-13.234,0-24,10.766-24,24h304c0-13.234-10.766-24-24-24h-24h-208H80.002z" fill="#888693"/><path d="M48.002,489.007c-4.422,0-8,3.582-8,8s3.578,8,8,8h320c4.422,0,8-3.582,8-8s-3.578-8-8-8h-8h-304   H48.002z" fill="#5c546a"/><path d="M208.004,289.007c22.091,0,40-17.908,40-40c0-0.269-0.015-0.535-0.02-0.803l8.102,46.589   c25.517,12.37,52.864,18.472,80.064,18.472c44.633-0.004,88.836-16.383,123.734-48.207c-3.52,3.21-7.198,6.15-10.898,9.044   c-1.482,1.146-2.95,2.32-4.455,3.425l-0.004,0.003L316.004,149.007l25.656-25.656l-5.657-5.658l-44.686-44.686l-16-16   L223.033,4.722c-3.094-3.098-7.438-4.852-11.789-4.715c-4.375,0.105-8.383,1.926-11.297,5.121   c-4.489,4.922-8.551,10.109-12.417,15.405l128.474,128.474l-76,76c-7.298-9.715-18.914-16-32-16   c-12.111,0-22.956,5.39-30.291,13.893c-5.876,6.812-9.491,15.623-9.688,25.278c-0.006,0.277-0.021,0.551-0.021,0.829   C168.004,271.099,185.912,289.007,208.004,289.007z M224.004,249.007c0,8.837-7.163,16-16,16s-16-7.163-16-16   c0-8.836,7.163-16,16-16S224.004,240.171,224.004,249.007z" fill="#b6b8be"/><circle cx="208" cy="249" r="16" fill="#5c546a"/><path d="M347.315,129.006l-5.655-5.655l0,0l-25.656,25.656l128.523,128.524l0.004-0.003   c1.504-1.105,2.972-2.279,4.455-3.425c3.7-2.895,7.378-5.834,10.898-9.044c3.203-2.918,5.023-6.938,5.117-11.313   c0.102-4.383-1.617-8.672-4.711-11.762l-52.289-52.29l-16-16L347.315,129.006z" fill="#888693"/></g></defs><g fi:class="KUsePattern"><pattern id="pattern_L1_1394" width="350" height="350" patternUnits="userSpaceOnUse"><use xlink:href="#L1_1394" x="-350" y="-350"/><use xlink:href="#L1_1394" x="0" y="-350"/><use xlink:href="#L1_1394" x="350" y="-350"/><use xlink:href="#L1_1394" x="-350" y="0"/><use xlink:href="#L1_1394" x="0" y="0"/><use xlink:href="#L1_1394" x="350" y="0"/><use xlink:href="#L1_1394" x="-350" y="350"/><use xlink:href="#L1_1394" x="0" y="350"/><use xlink:href="#L1_1394" x="350" y="350"/></pattern><rect x="0" y="0" width="100%" height="100%" fill="url(#pattern_L1_1394)"/></g><g fi:class="KUsePattern"><pattern id="pattern_L1_1395" width="350" height="350" patternUnits="userSpaceOnUse"><use xlink:href="#L1_1395" x="-350" y="-350"/><use xlink:href="#L1_1395" x="0" y="-350"/><use xlink:href="#L1_1395" x="350" y="-350"/><use xlink:href="#L1_1395" x="-350" y="0"/><use xlink:href="#L1_1395" x="0" y="0"/><use xlink:href="#L1_1395" x="350" y="0"/><use xlink:href="#L1_1395" x="-350" y="350"/><use xlink:href="#L1_1395" x="0" y="350"/><use xlink:href="#L1_1395" x="350" y="350"/></pattern><rect x="0" y="0" width="100%" height="100%" fill="url(#pattern_L1_1395)"/></g><g fi:class="KUsePattern"><pattern id="pattern_L1_1396" width="350" height="350" patternUnits="userSpaceOnUse"><use xlink:href="#L1_1396" x="-350" y="-350"/><use xlink:href="#L1_1396" x="0" y="-350"/><use xlink:href="#L1_1396" x="350" y="-350"/><use xlink:href="#L1_1396" x="-350" y="0"/><use xlink:href="#L1_1396" x="0" y="0"/><use xlink:href="#L1_1396" x="350" y="0"/><use xlink:href="#L1_1396" x="-350" y="350"/><use xlink:href="#L1_1396" x="0" y="350"/><use xlink:href="#L1_1396" x="350" y="350"/></pattern><rect x="0" y="0" width="100%" height="100%" fill="url(#pattern_L1_1396)"/></g><g fi:class="KUsePattern"><pattern id="pattern_L1_1397" width="350" height="350" patternUnits="userSpaceOnUse"><use xlink:href="#L1_1397" x="-350" y="-350"/><use xlink:href="#L1_1397" x="0" y="-350"/><use xlink:href="#L1_1397" x="350" y="-350"/><use xlink:href="#L1_1397" x="-350" y="0"/><use xlink:href="#L1_1397" x="0" y="0"/><use xlink:href="#L1_1397" x="350" y="0"/><use xlink:href="#L1_1397" x="-350" y="350"/><use xlink:href="#L1_1397" x="0" y="350"/><use xlink:href="#L1_1397" x="350" y="350"/></pattern><rect x="0" y="0" width="100%" height="100%" fill="url(#pattern_L1_1397)"/></g></svg>