<svg xmlns="http://www.w3.org/2000/svg" xmlns:xlink="http://www.w3.org/1999/xlink" xmlns:fi="http://pattern.flaticon.com/" x="0" y="0" width="700" height="350" viewBox="0 0 700 350"><rect x="0px" y="0px" width="100%" height="100%" opacity="1" fill="#fbfff4"/><defs><g transform="matrix(0.09765625 0 0 0.09765625 150 325)" id="L1_2467"><g><path d="M242,377v120c0,8.399-7.599,15-16,15s-15-6.601-15-15V377c0-8.401,6.599-15,15-15   S242,368.599,242,377z" fill="#b00652"/><path d="M302,437c0,8.399-6.599,15-15,15H136c-6.599,0-12.299-4.2-14.099-10.201   c-2.1-6.299,0-12.9,5.099-16.8l80.099-60c5.7-4.499,13.5-3.9,18.9,0.601c0.601,0.899,1.5,1.5,2.1,2.401   c4.499,6.299,3.6,15-2.1,20.099c-0.3,0.3-0.601,0.601-0.901,0.899L181,422h106C295.401,422,302,428.599,302,437z" fill="#b00652"/></g><path d="M242,377v120c0,8.399-7.599,15-16,15V362C234.401,362,242,368.599,242,377z" fill="#9f0547"/><path d="M226,388.1v-22.5c0.601,0.899,1.5,1.5,2.1,2.401C232.599,374.299,231.7,383,226,388.1z" fill="#e61e14"/><path d="M302,437c0,8.399-6.599,15-15,15h-61v-30h61C295.401,422,302,428.599,302,437z" fill="#9f0547"/><path d="M437,60h-75V0h45c24.853,0,45,20.147,45,45l0,0C452,53.284,445.284,60,437,60z" fill="#57555c"/><path d="M326.639,302v-2.402L307.713,242h32.183c11.396,0,21.035-5.771,26.426-15.82  c5.405-10.107,4.863-21.343-1.465-30.82l-59.941-64.413c-22.485-23.804-27.334-60.282-12.041-89.271C306.6,15.996,333.113,0,362,0  c16.538,0,30,13.462,30,30s-13.462,30-30,30c-9.829,0-14.487,6.738-16.04,9.624s-4.556,10.503,0.967,18.691l58.682,64.051  c25.913,27.422,31.494,68.276,13.857,101.66C403.646,283.587,373.147,302,339.896,302H326.639z" fill="#fd0f7f"/><path d="M512,437c0,8.399-6.599,15-15,15c-24.901,0-45,20.099-45,45c0,8.399-6.599,15-15,15s-15-6.601-15-15  c0-24.901-20.099-45-45-45c-8.401,0-15-6.601-15-15c0-8.401,6.599-15,15-15c17.1,0,32.401,6,45,15.599V407c0-8.401,6.599-15,15-15  s15,6.599,15,15v30.599C464.599,428,479.9,422,497,422C505.401,422,512,428.599,512,437z" fill="#32d736"/><path d="M512,437c0,8.399-6.599,15-15,15c-24.901,0-45,20.099-45,45c0,8.399-6.599,15-15,15V392  c8.401,0,15,6.599,15,15v30.599C464.599,428,479.9,422,497,422C505.401,422,512,428.599,512,437z" fill="#10bb67"/><path d="M512,497c0,8.399-6.599,15-15,15H15c-8.401,0-15-6.601-15-15c0-8.401,6.599-15,15-15h482  C505.401,482,512,488.599,512,497z" fill="#73553a"/><path d="M321.501,242L226,307.099l-125.799,86.1c-16.8,2.701-32.401,11.1-44.101,24  c-3.9,4.801-10.499,6.301-16.5,4.2s-9.6-7.8-9.6-14.099V347c0-90.901,75.099-165,166-165h30C267.4,182,304.401,205.699,321.501,242z  " fill="#feb1d4"/><path d="M321.501,242L226,307.099V182C267.4,182,304.401,205.699,321.501,242z" fill="#ff91c2"/><path d="M332,292.7c-2.999,53.099-50.501,96.599-106,99c-1.8,0.3-3.3,0.3-5.099,0.3H112.2  c-3.9,0-8.101,0.599-11.999,1.199c-12.601-28.2-13.801-58.5-2.401-86.1C114,267.499,153.1,242,196,242h125.501  c4.499,9.3,7.798,19.499,9.3,30C331.7,278.899,332.3,285.799,332,292.7z" fill="#fe52a2"/><path d="M332,292.7c-2.999,53.099-50.501,96.599-106,99V242h95.501c4.499,9.3,7.798,19.499,9.3,30  C331.7,278.899,332.3,285.799,332,292.7z" fill="#fe318f"/><path d="M362,60L362,60c-16.569,0-30-13.431-30-30l0,0c0-16.569,13.431-30,30-30l0,0  c16.569,0,30,13.431,30,30l0,0C392,46.569,378.569,60,362,60z" fill="#ff91c2"/><path d="M512,497c0,8.399-6.599,15-15,15H226v-30h271C505.401,482,512,488.599,512,497z" fill="#59422d"/></g><g transform="matrix(0.09765605628490448 0 0 0.09765605628490448 62.5 150)" id="L1_2469"><path d="M420.998,201.003v67.499c0,13.499-3.6,26.699-10.499,38.098L369.4,378.8  c-3.9,6.599-6.301,14.099-6.301,21.899l-0.901,37.799c-0.899,40.498-34.499,73.499-74.999,73.499H224.8  c-40.5,0-74.1-33.001-74.999-73.499l-0.901-37.5c0-7.8-2.1-15.3-6-21.899l-41.399-72.5c-6.899-11.4-10.499-24.6-10.499-37.799  v-67.797l44.999-44.999h239.997L420.998,201.003z" fill="#e5e5e5"/><path d="M420.998,201.003v67.499c0,13.499-3.6,26.699-10.499,38.098L369.4,378.8  c-3.9,6.599-6.301,14.099-6.301,21.899l-0.901,37.799c-0.899,40.498-34.499,73.499-74.999,73.499H256V156.002h119.998  L420.998,201.003z" fill="#d9d9d9"/><g><path d="M300.999,406.999c0,24.899-20.099,44.999-44.999,44.999s-44.999-20.101-44.999-44.999   c0-8.401,6.599-15,15-15c8.401,0,15,6.599,15,15c0,8.399,6.599,15,15,15c8.401,0,15-6.601,15-15c0-8.401,6.599-15,15-15   S300.999,398.598,300.999,406.999z" fill="#787780"/><circle cx="195" cy="284" r="15" fill="#787780"/></g><circle cx="315" cy="284" r="15" fill="#57555c"/><path d="M271,436.998v59.999c0,8.399-6.599,15-15,15c-8.401,0-15-6.601-15-15v-59.999c0-8.401,6.599-15,15-15  C264.401,421.999,271,428.598,271,436.998z" fill="#787780"/><path d="M158.238,151.789l-40.429-38.231c-5.2-6.445-14.604-7.515-21.094-2.344L5.627,183.283  c-3.837,3.076-5.917,7.822-5.595,12.729c0.337,4.893,3.047,9.331,7.251,11.851c18.457,11.074,39.729,16.362,59.769,16.362  c37.191,0,73.505-18.252,95.478-51.649C167.071,165.647,165.152,156.345,158.238,151.789z" fill="#d9d9d9"/><path d="M506.372,183.284l-91.086-72.069c-6.475-5.156-15.894-4.072-21.094,2.344l-40.429,38.231  c-6.914,4.556-8.833,13.857-4.292,20.786c21.973,33.398,58.285,51.649,95.478,51.649c20.024,0,41.326-5.303,59.769-16.362  c4.204-2.52,6.914-6.958,7.251-11.851C512.29,191.106,510.21,186.36,506.372,183.284z" fill="#c8c6cd"/><path d="M353.199,60.603c-9.3-16.5-26.1-27.9-45.299-30.298c-10.499-18.301-30.3-30.3-51.898-30.3  c-21.599,0-41.399,11.999-51.898,30.3c-19.2,2.399-36,13.799-45.299,30.298c-35.4-5.099-67.799,23.701-67.799,59.4  s32.401,64.199,67.799,59.398c9.3,16.5,26.1,27.9,45.299,30.3c10.499,18.3,30.3,30.3,51.898,30.3  c21.599,0,41.399-12.001,51.898-30.3c19.2-2.401,36-13.801,45.299-30.3c35.4,5.099,67.799-23.699,67.799-59.398  S388.298,55.504,353.199,60.603z" fill="#fedbab"/><path d="M300.999,406.999c0,24.899-20.099,44.999-44.999,44.999v-30c8.401,0,15-6.601,15-15  c0-8.401,6.599-15,15-15S300.999,398.598,300.999,406.999z" fill="#57555c"/><path d="M420.998,120.003c0,35.7-32.401,64.498-67.799,59.398c-9.3,16.5-26.1,27.9-45.299,30.3  C297.401,228,277.6,240,256.001,240V0.003c21.599,0,41.399,11.999,51.898,30.3c19.2,2.399,36,13.799,45.299,30.298  C388.298,55.504,420.998,84.303,420.998,120.003z" fill="#fec478"/><path d="M271,436.998v59.999c0,8.399-6.599,15-15,15v-89.999C264.401,421.999,271,428.598,271,436.998z" fill="#57555c"/></g><g transform="matrix(0.10802160203456879 0 0 0.10802160203456879 233.34641074864146 152.33959597091246)" id="L1_2471"><path d="M422.718,59.538l12.828-2.984c6.266-1.192,10.74-6.562,11.635-12.828  c0.598-6.266-2.686-12.529-8.354-15.215c-99.94-47.137-158.214-22.076-182.975-3.58c-24.762-18.497-82.737-43.557-182.679,3.58  c-5.668,2.686-9.248,8.95-8.352,15.215c0.598,6.266,5.37,11.635,11.337,12.828l13.127,2.984  C47.516,82.508-2.304,136.009,0.083,256.237c0,6.264,3.878,11.634,9.844,13.722c5.668,2.088,12.233,0.598,16.111-4.177  c3.282-3.58,7.458-7.458,11.634-10.441c-5.666,42.661-5.27,133.453,71.401,196.998c3.878,3.282,9.248,4.476,14.319,2.686  c4.772-1.792,8.651-5.967,9.547-11.04l1.79-7.16c17.603,28.043,51.61,59.368,118.14,73.39c0.894,0.298,2.086,0.298,2.982,0.298  s2.088,0,2.982-0.298c66.529-14.023,101.83-45.646,119.433-73.39l1.492,7.16c1.192,5.073,4.774,9.248,9.846,11.04  c4.772,1.79,10.142,0.596,14.319-2.686c76.373-63.544,75.775-154.336,70.109-196.998c4.176,2.982,8.352,6.564,11.634,10.441  c4.177,4.774,10.741,6.266,16.408,4.177c5.668-2.088,9.547-7.458,9.846-13.722C514.306,136.01,464.187,82.508,422.718,59.538z" fill="#ff6200"/><path d="M511.918,256.237c-0.298,6.264-4.177,11.634-9.846,13.722c-5.666,2.088-12.231,0.598-16.408-4.177  c-3.282-3.876-7.458-7.458-11.634-10.441c5.666,42.661,6.264,133.453-70.109,196.998c-4.177,3.282-9.547,4.476-14.319,2.686  c-5.071-1.792-8.653-5.967-9.846-11.04l-1.492-7.16c-17.603,27.745-52.904,59.368-119.433,73.39  c-0.894,0.298-2.086,0.298-2.982,0.298V24.93c24.762-18.497,83.035-43.557,182.975,3.58c5.668,2.686,8.951,8.95,8.354,15.215  c-0.896,6.266-5.37,11.635-11.635,12.828l-12.828,2.984C464.187,82.508,514.306,136.01,511.918,256.237z" fill="#eb4f00"/><path d="M331.428,352.896c0,38.783-32.617,70.704-71.699,70.704h-7.757  c-39.081,0-70.704-31.921-70.704-70.704l14.917-29.833h120.327L331.428,352.896z" fill="#fe8821"/><path d="M331.428,352.896c0,38.783-32.617,70.704-71.699,70.704h-3.878V323.063h60.661L331.428,352.896z" fill="#e4741b"/><path d="M381.846,262.8l-20.585,31.025v29.237c0,16.408-8.95,31.623-23.567,39.38  c-14.62,7.755-32.221,6.861-45.944-2.088l-20.982-13.425l-14.917-27.745l-14.917,27.745l-19.987,13.425  c-7.458,4.772-16.111,7.458-24.762,7.458c-7.16,0-14.618-1.79-21.182-5.37c-14.618-7.757-23.567-22.972-23.567-39.38v-29.237  L130.852,262.8c-25.656-38.185-28.641-87.411-8.056-128.581c9.547-19.093,26.851-33.413,47.436-38.783  c20.883-5.37,42.96-1.79,60.56,10.142c7.757,5.073,16.409,7.757,25.061,7.757c8.651,0,18.299-2.684,26.055-7.757  c17.6-11.932,39.677-15.512,60.56-10.142c20.585,5.37,37.889,19.689,47.436,38.783c2.684,5.37,5.071,11.038,6.861,16.707  c0,0,0,0,0,0.298C409.591,188.814,403.923,229.686,381.846,262.8z" fill="#ffac46"/><path d="M381.846,262.8l-20.585,31.025v29.237c0,16.408-8.95,31.623-23.567,39.38  c-14.62,7.755-32.221,6.861-45.944-2.088l-20.982-13.425l-14.917-27.745V113.336c8.651,0,18.299-2.684,26.055-7.757  c17.6-11.932,39.677-15.512,60.56-10.142c20.585,5.37,37.889,19.689,47.436,38.783c2.684,5.37,5.071,11.038,6.861,16.707  c0,0,0,0,0,0.298C409.591,188.814,403.923,229.686,381.846,262.8z" fill="#ff941d"/><circle cx="316" cy="169" r="14" fill="#3c3a41"/><circle cx="196" cy="169" r="14" fill="#57555c"/><g><path d="M270.768,289.352v57.578l-14.917-9.846l-14.917,9.846v-57.578c0-8.354,6.562-14.917,14.917-14.917   S270.768,280.997,270.768,289.352z" fill="#73553a"/><path d="M255.851,214.769c-24.762,0-44.75,19.987-44.75,44.75c0,1.79,0.298,3.878,1.192,5.668   c0.598,1.79,1.79,3.282,3.283,4.772l29.833,29.833c2.684,2.984,6.562,4.476,10.441,4.476c3.878,0,7.757-1.492,10.441-4.476   l30.828-29.833c1.493-1.492,2.686-2.982,3.283-4.772c0.894-1.79,1.192-3.878,1.192-5.668   C301.595,234.756,280.614,214.769,255.851,214.769z" fill="#73553a"/></g><g><path d="M270.768,289.352v57.578l-14.917-9.846v-62.648C264.206,274.435,270.768,280.997,270.768,289.352z" fill="#59422d"/><path d="M301.595,259.519c0,1.79-0.298,3.878-1.192,5.668c-0.598,1.79-1.79,3.282-3.283,4.772   l-30.827,29.833c-2.684,2.984-6.562,4.476-10.441,4.476v-89.499C280.614,214.769,301.595,234.756,301.595,259.519z" fill="#59422d"/></g></g><g transform="matrix(0.1171877309679985 0 0 0.1171877309679985 320 315.00000082969837)" id="L1_2472"><path d="M151.02,31.045c-41.392,0-74.985,33.593-74.985,74.985s33.593,74.985,74.985,74.985  s74.985-33.593,74.985-74.985S192.412,31.045,151.02,31.045z" fill="#fedb41"/><path d="M226.005,106.03c0,41.392-33.593,74.985-74.985,74.985V31.045  C192.412,31.045,226.005,64.638,226.005,106.03z" fill="#fcbf29"/><path d="M298.591,457.859L188.814,287.193c-8.399-12.897-23.096-19.196-37.792-19.196  c-14.696,0-29.393,6.3-37.792,19.196L2.451,457.859c-3,4.5-3.3,10.497-0.601,15.297c2.7,4.798,7.798,7.798,13.197,7.798h270.945  c5.399,0,10.497-3,13.197-7.798C301.891,468.356,301.591,462.358,298.591,457.859z" fill="#c4d55f"/><path d="M510.148,473.156c-2.7,4.798-7.798,7.798-13.197,7.798H151.02l16.797-187.162l26.395-41.392  l63.587,32.992l14.997-28.795l13.197-0.599l12.596-0.601l19.196,30.595l60.889-32.394l130.873,204.259  C512.549,462.659,512.849,468.356,510.148,473.156z" fill="#10bb67"/><path d="M510.148,473.156c-2.7,4.798-7.798,7.798-13.197,7.798H285.993V256l12.596-0.601l19.196,30.595  l60.889-32.394l130.873,204.259C512.549,462.659,512.849,468.356,510.148,473.156z" fill="#0b8878"/><path d="M299.191,473.156c-2.7,4.798-7.798,7.798-13.197,7.798H151.02V267.996  c14.697,0,29.393,6.3,37.792,19.196L298.59,457.858C301.591,462.358,301.891,468.356,299.191,473.156z" fill="#98cb51"/><path d="M378.676,253.6l-46.492,69.286c-2.398,4.8-7.199,7.798-12.596,8.099  c-5.098,0.3-10.497-2.401-13.197-6.9l-20.396-30.292l-13.798,29.093c-2.398,4.8-7.199,7.798-12.596,8.099c-0.3,0-0.3,0-0.601,0  c-5.099,0-9.897-2.7-12.897-7.199l-51.889-71.386l53.688-84.583c8.399-13.197,23.096-19.497,38.093-19.497s29.694,6.3,38.093,19.497  L378.676,253.6z" fill="#e5e5e5"/><path d="M378.676,253.6l-46.492,69.286c-2.398,4.8-7.199,7.798-12.596,8.099  c-5.098,0.3-10.497-2.401-13.197-6.9l-20.396-30.292V148.321c14.997,0,29.694,6.3,38.093,19.497L378.676,253.6z" fill="#d9d9d9"/></g></defs><g fi:class="KUsePattern"><pattern id="pattern_L1_2467" width="350" height="350" patternUnits="userSpaceOnUse"><use xlink:href="#L1_2467" x="-350" y="-350"/><use xlink:href="#L1_2467" x="0" y="-350"/><use xlink:href="#L1_2467" x="350" y="-350"/><use xlink:href="#L1_2467" x="-350" y="0"/><use xlink:href="#L1_2467" x="0" y="0"/><use xlink:href="#L1_2467" x="350" y="0"/><use xlink:href="#L1_2467" x="-350" y="350"/><use xlink:href="#L1_2467" x="0" y="350"/><use xlink:href="#L1_2467" x="350" y="350"/></pattern><rect x="0" y="0" width="100%" height="100%" fill="url(#pattern_L1_2467)"/></g><g fi:class="KUsePattern"><pattern id="pattern_L1_2469" width="350" height="350" patternUnits="userSpaceOnUse"><use xlink:href="#L1_2469" x="-350" y="-350"/><use xlink:href="#L1_2469" x="0" y="-350"/><use xlink:href="#L1_2469" x="350" y="-350"/><use xlink:href="#L1_2469" x="-350" y="0"/><use xlink:href="#L1_2469" x="0" y="0"/><use xlink:href="#L1_2469" x="350" y="0"/><use xlink:href="#L1_2469" x="-350" y="350"/><use xlink:href="#L1_2469" x="0" y="350"/><use xlink:href="#L1_2469" x="350" y="350"/></pattern><rect x="0" y="0" width="100%" height="100%" fill="url(#pattern_L1_2469)"/></g><g fi:class="KUsePattern"><pattern id="pattern_L1_2471" width="350" height="350" patternUnits="userSpaceOnUse"><use xlink:href="#L1_2471" x="-350" y="-350"/><use xlink:href="#L1_2471" x="0" y="-350"/><use xlink:href="#L1_2471" x="350" y="-350"/><use xlink:href="#L1_2471" x="-350" y="0"/><use xlink:href="#L1_2471" x="0" y="0"/><use xlink:href="#L1_2471" x="350" y="0"/><use xlink:href="#L1_2471" x="-350" y="350"/><use xlink:href="#L1_2471" x="0" y="350"/><use xlink:href="#L1_2471" x="350" y="350"/></pattern><rect x="0" y="0" width="100%" height="100%" fill="url(#pattern_L1_2471)"/></g><g fi:class="KUsePattern"><pattern id="pattern_L1_2472" width="350" height="350" patternUnits="userSpaceOnUse"><use xlink:href="#L1_2472" x="-350" y="-350"/><use xlink:href="#L1_2472" x="0" y="-350"/><use xlink:href="#L1_2472" x="350" y="-350"/><use xlink:href="#L1_2472" x="-350" y="0"/><use xlink:href="#L1_2472" x="0" y="0"/><use xlink:href="#L1_2472" x="350" y="0"/><use xlink:href="#L1_2472" x="-350" y="350"/><use xlink:href="#L1_2472" x="0" y="350"/><use xlink:href="#L1_2472" x="350" y="350"/></pattern><rect x="0" y="0" width="100%" height="100%" fill="url(#pattern_L1_2472)"/></g></svg>