<svg xmlns="http://www.w3.org/2000/svg" xmlns:xlink="http://www.w3.org/1999/xlink" xmlns:fi="http://pattern.flaticon.com/" x="0" y="0" width="700" height="350" viewBox="0 0 700 350"><rect x="0px" y="0px" width="100%" height="100%" opacity="1" fill="#ffffff"/><defs><g transform="matrix(0.13671875 0 0 0.13671875 315 315)" id="L1_1934"><path d="M 300.136719 300.136719 L 300.136719 256 L 26.484375 256 L 26.484375 26.484375 L 397.242188 26.484375 L 397.242188 194.207031 L 423.722656 194.207031 L 423.722656 17.65625 C 423.695312 7.917969 415.808594 0.0273438 406.070312 0 L 17.65625 0 C 7.917969 0.0273438 0.0273438 7.917969 0 17.65625 L 0 282.484375 C 0.0273438 292.222656 7.917969 300.109375 17.65625 300.136719 Z M 300.136719 300.136719 " fill="#acabb1" fill-opacity="1" stroke="none"/><path d="M 26.484375 26.484375 L 26.484375 256 L 300.136719 256 L 300.136719 211.863281 C 300.167969 202.121094 308.054688 194.234375 317.792969 194.207031 L 397.242188 194.207031 L 397.242188 26.484375 Z M 68.476562 139.097656 L 105.929688 176.550781 L 105.929688 123.585938 C 105.929688 94.335938 129.644531 70.621094 158.898438 70.621094 C 129.644531 70.621094 105.929688 94.332031 105.929688 123.585938 L 105.929688 176.550781 L 143.386719 139.097656 L 105.929688 176.550781 Z M 282.484375 158.898438 C 282.484375 188.148438 258.769531 211.863281 229.515625 211.863281 C 258.769531 211.863281 282.484375 188.148438 282.484375 158.898438 Z M 282.484375 105.929688 L 245.027344 143.386719 L 282.484375 105.929688 L 319.9375 143.386719 Z M 282.484375 105.929688 " fill="#ebe5dd" fill-opacity="1" stroke="none"/><path d="M 167.722656 300.136719 L 256 300.136719 L 256 388.414062 L 167.722656 388.414062 Z M 167.722656 300.136719 " fill="#898890" fill-opacity="1" stroke="none"/><path d="M 494.34375 194.207031 L 317.792969 194.207031 C 308.054688 194.234375 300.167969 202.125 300.136719 211.863281 L 300.136719 441.378906 L 512 441.378906 L 512 211.863281 C 511.972656 202.121094 504.082031 194.234375 494.34375 194.207031 Z M 406.070312 379.585938 C 371.941406 379.585938 344.277344 351.921875 344.277344 317.792969 C 344.277344 283.664062 371.941406 256 406.070312 256 C 440.195312 256 467.859375 283.664062 467.859375 317.792969 C 467.859375 351.921875 440.195312 379.585938 406.070312 379.585938 Z M 406.070312 379.585938 " fill="#d9ccbc" fill-opacity="1" stroke="none"/><path d="M 300.136719 494.34375 C 300.167969 504.082031 308.054688 511.972656 317.792969 512 L 494.34375 512 C 504.082031 511.972656 511.972656 504.082031 512 494.34375 L 512 441.378906 L 300.136719 441.378906 Z M 300.136719 494.34375 " fill="#acabb1" fill-opacity="1" stroke="none"/><path d="M 406.070312 256 C 371.941406 256 344.277344 283.664062 344.277344 317.792969 C 344.277344 351.917969 371.941406 379.585938 406.070312 379.585938 C 440.195312 379.585938 467.859375 351.917969 467.859375 317.792969 C 467.859375 283.664062 440.195312 256 406.070312 256 Z M 397.242188 344.277344 L 372.277344 319.3125 L 397.242188 344.277344 L 447.179688 294.335938 Z M 397.242188 344.277344 " fill="#7ed63e" fill-opacity="1" stroke="none"/><path d="M 114.757812 379.585938 L 300.136719 379.585938 L 300.136719 397.242188 L 114.757812 397.242188 Z M 114.757812 379.585938 " fill="#57565c" fill-opacity="1" stroke="none"/><path d="M 370.757812 467.863281 L 388.414062 467.863281 L 388.414062 485.515625 L 370.757812 485.515625 Z M 370.757812 467.863281 " fill="#ebe5dd" fill-opacity="1" stroke="none"/><path d="M 397.242188 467.863281 L 414.898438 467.863281 L 414.898438 485.515625 L 397.242188 485.515625 Z M 397.242188 467.863281 " fill="#ebe5dd" fill-opacity="1" stroke="none"/><path d="M 423.722656 467.863281 L 441.378906 467.863281 L 441.378906 485.515625 L 423.722656 485.515625 Z M 423.722656 467.863281 " fill="#ebe5dd" fill-opacity="1" stroke="none"/><path d="M 397.242188 356.757812 L 366.027344 325.550781 L 378.507812 313.070312 L 397.242188 331.792969 L 440.9375 288.097656 L 453.417969 300.578125 Z M 397.242188 356.757812 " fill="#f1f2f2" fill-opacity="1" stroke="none"/><path d="M 114.757812 176.550781 L 97.101562 176.550781 L 97.101562 123.585938 C 97.140625 89.472656 124.785156 61.832031 158.894531 61.792969 L 264.828125 61.792969 L 264.828125 79.449219 L 158.898438 79.449219 C 134.53125 79.476562 114.789062 99.222656 114.757812 123.585938 Z M 114.757812 176.550781 " fill="#006df0" fill-opacity="1" stroke="none"/><path d="M 229.515625 220.6875 L 123.585938 220.6875 L 123.585938 203.035156 L 229.515625 203.035156 C 253.882812 203.003906 273.625 183.261719 273.65625 158.894531 L 273.65625 114.757812 L 291.3125 114.757812 L 291.3125 158.894531 C 291.269531 193.007812 263.628906 220.652344 229.515625 220.6875 Z M 229.515625 220.6875 " fill="#006df0" fill-opacity="1" stroke="none"/><path d="M 313.699219 149.617188 L 282.484375 118.414062 L 251.269531 149.617188 L 238.785156 137.136719 L 282.484375 93.449219 L 326.179688 137.136719 Z M 313.699219 149.617188 " fill="#006df0" fill-opacity="1" stroke="none"/><path d="M 105.929688 189.035156 L 62.234375 145.347656 L 74.714844 132.863281 L 105.929688 164.070312 L 137.144531 132.863281 L 149.628906 145.347656 Z M 105.929688 189.035156 " fill="#006df0" fill-opacity="1" stroke="none"/></g><g transform="matrix(0.06376737356185913 0 0 0.06376737356185913 62.5 150)" id="L1_1936"><path d="M 491.75 704.300781 L 465.148438 730.898438 L 305.75 730.898438 L 279.148438 704.300781 L 0.0507812 704.300781 L 0.0507812 730.898438 C 0.0507812 760.300781 23.851562 784.101562 53.25 784.101562 L 717.648438 784.101562 C 747.050781 784.101562 770.851562 760.300781 770.851562 730.898438 L 770.851562 704.300781 Z M 491.75 704.300781 " fill="#808285" fill-opacity="1" stroke="none"/><path d="M 305.75 730.800781 L 465.25 730.800781 L 491.851562 704.199219 L 744.351562 704.199219 L 744.351562 279.101562 L 26.75 279.101562 L 26.75 704.300781 L 279.25 704.300781 Z M 66.550781 318.898438 L 704.351562 318.898438 Z M 717.648438 491.699219 Z M 651.25 372.101562 Z M 651.25 558.101562 L 651.25 611.300781 L 119.648438 611.300781 L 119.648438 558.101562 Z M 119.648438 531.5 Z M 172.851562 531.5 Z M 225.949219 531.5 Z M 279.148438 531.5 Z M 332.25 531.5 Z M 385.449219 531.5 Z M 438.648438 531.5 Z M 491.75 531.5 Z M 544.949219 531.5 Z M 598.050781 531.5 Z M 79.851562 491.699219 Z M 66.550781 531.5 L 66.550781 664.398438 L 704.351562 664.398438 L 66.550781 664.398438 Z M 66.550781 531.5 " fill="#ebe5dd" fill-opacity="1" stroke="none"/><path d="M 119.648438 558.101562 L 651.148438 558.101562 L 651.148438 611.300781 L 119.648438 611.300781 Z M 119.648438 558.101562 " fill="#ffd422" fill-opacity="1" stroke="none"/><path d="M 79.851562 451.800781 L 53.25 451.800781 L 53.25 305.601562 L 717.648438 305.601562 L 717.648438 451 L 691.050781 451 L 691.050781 332.199219 L 79.851562 332.199219 Z M 79.851562 451.800781 " fill="#d9ccbc" fill-opacity="1" stroke="none"/><path d="M 717.648438 677.699219 L 53.25 677.699219 L 53.25 531.5 L 79.851562 531.5 L 79.851562 651.101562 L 691.050781 651.101562 L 691.050781 531.5 L 717.648438 531.5 Z M 717.648438 677.699219 " fill="#d9ccbc" fill-opacity="1" stroke="none"/><path d="M 691.050781 478.398438 L 717.648438 478.398438 L 717.648438 505 L 691.050781 505 Z M 691.050781 478.398438 " fill="#c0ab91" fill-opacity="1" stroke="none"/><path d="M 53.25 478.398438 L 79.851562 478.398438 L 79.851562 505 L 53.25 505 Z M 53.25 478.398438 " fill="#c0ab91" fill-opacity="1" stroke="none"/><path d="M 598.050781 252.5 C 590.75 252.5 584.75 246.601562 584.75 239.199219 L 584.75 210.601562 L 538.550781 202.898438 C 533.25 202 528.949219 198 527.75 192.800781 C 524.148438 177.199219 518.050781 162.199219 509.550781 148.699219 C 506.648438 144.101562 506.851562 138.300781 509.949219 133.898438 L 537.148438 95.898438 L 515.449219 74.199219 L 477.449219 101.398438 C 473.050781 104.5 467.25 104.699219 462.648438 101.800781 C 449.050781 93.300781 434.148438 87.101562 418.550781 83.601562 C 413.25 82.398438 409.25 78.199219 408.351562 72.800781 L 400.648438 26.601562 L 370.050781 26.601562 L 362.449219 72.800781 C 361.550781 78.101562 357.550781 82.398438 352.25 83.601562 C 336.648438 87.199219 321.648438 93.300781 308.148438 101.800781 C 303.550781 104.699219 297.75 104.5 293.351562 101.398438 L 255.351562 74.199219 L 233.648438 95.898438 L 260.851562 133.898438 C 263.949219 138.300781 264.148438 144.101562 261.25 148.699219 C 252.75 162.300781 246.550781 177.199219 243.050781 192.800781 C 241.851562 198 237.550781 202.101562 232.25 202.898438 L 186.050781 210.699219 L 186.050781 239.300781 C 186.050781 246.601562 180.148438 252.601562 172.75 252.601562 C 165.449219 252.601562 159.449219 246.699219 159.449219 239.300781 L 159.449219 199.300781 C 159.449219 192.800781 164.148438 187.300781 170.550781 186.199219 L 219.25 178 C 222.75 165.5 227.75 153.5 234.050781 142.101562 L 205.449219 102.101562 C 201.648438 96.800781 202.25 89.601562 206.851562 85 L 244.449219 47.398438 C 249.050781 42.800781 256.25 42.199219 261.550781 46 L 301.648438 74.699219 C 312.949219 68.398438 325.050781 63.398438 337.550781 59.800781 L 345.648438 11.101562 C 346.75 4.699219 352.25 0 358.75 0 L 411.949219 0 C 418.449219 0 423.949219 4.699219 425.050781 11.101562 L 433.25 59.800781 C 445.75 63.300781 457.75 68.300781 469.148438 74.601562 L 509.25 45.898438 C 514.550781 42.101562 521.75 42.699219 526.351562 47.300781 L 563.949219 84.898438 C 568.550781 89.5 569.148438 96.699219 565.351562 102 L 536.648438 142.199219 C 542.949219 153.5 547.949219 165.601562 551.550781 178.101562 L 600.25 186.199219 C 606.648438 187.300781 611.351562 192.800781 611.351562 199.300781 L 611.351562 239.199219 C 611.351562 246.5 605.351562 252.5 598.050781 252.5 Z M 598.050781 252.5 " fill="#006df0" fill-opacity="1" stroke="none"/><path d="M 478.449219 239.199219 C 471.148438 239.199219 465.148438 233.300781 465.148438 225.898438 C 465.148438 181.898438 429.449219 146.199219 385.449219 146.199219 C 341.449219 146.199219 305.75 181.898438 305.75 225.898438 C 305.75 233.199219 299.851562 239.199219 292.449219 239.199219 C 285.148438 239.199219 279.148438 233.300781 279.148438 225.898438 C 279.148438 167.199219 326.75 119.601562 385.449219 119.601562 C 444.148438 119.601562 491.75 167.199219 491.75 225.898438 C 491.75 233.199219 485.851562 239.199219 478.449219 239.199219 Z M 478.449219 239.199219 " fill="#006df0" fill-opacity="1" stroke="none"/><path d="M 425.351562 239.199219 C 418.050781 239.199219 412.050781 233.300781 412.050781 225.898438 C 412.050781 211.199219 400.148438 199.300781 385.449219 199.300781 C 370.75 199.300781 358.851562 211.199219 358.851562 225.898438 C 358.851562 233.199219 352.949219 239.199219 345.550781 239.199219 C 338.25 239.199219 332.25 233.300781 332.25 225.898438 C 332.25 196.5 356.050781 172.699219 385.449219 172.699219 C 414.851562 172.699219 438.648438 196.5 438.648438 225.898438 C 438.648438 233.199219 432.648438 239.199219 425.351562 239.199219 Z M 425.351562 239.199219 " fill="#006df0" fill-opacity="1" stroke="none"/><path d="M 664.550781 624.5 L 106.351562 624.5 L 106.351562 544.800781 L 664.449219 544.800781 L 664.449219 624.5 Z M 132.949219 598 L 637.851562 598 L 637.851562 571.398438 L 132.949219 571.398438 Z M 132.949219 598 " fill="#c0ab91" fill-opacity="1" stroke="none"/><path d="M 106.351562 478.398438 L 132.949219 478.398438 L 132.949219 531.601562 L 106.351562 531.601562 Z M 106.351562 478.398438 " fill="#ffd422" fill-opacity="1" stroke="none"/><path d="M 159.550781 451.800781 L 186.148438 451.800781 L 186.148438 531.5 L 159.550781 531.5 Z M 159.550781 451.800781 " fill="#ffd422" fill-opacity="1" stroke="none"/><path d="M 212.75 425.199219 L 239.351562 425.199219 L 239.351562 531.5 L 212.75 531.5 Z M 212.75 425.199219 " fill="#ffd422" fill-opacity="1" stroke="none"/><path d="M 265.851562 478.398438 L 292.449219 478.398438 L 292.449219 531.601562 L 265.851562 531.601562 Z M 265.851562 478.398438 " fill="#ffd422" fill-opacity="1" stroke="none"/><path d="M 319.050781 425.199219 L 345.648438 425.199219 L 345.648438 531.5 L 319.050781 531.5 Z M 319.050781 425.199219 " fill="#ffd422" fill-opacity="1" stroke="none"/><path d="M 637.949219 372.101562 L 664.550781 372.101562 L 664.550781 531.601562 L 637.949219 531.601562 Z M 637.949219 372.101562 " fill="#ffd422" fill-opacity="1" stroke="none"/><path d="M 584.75 398.601562 L 611.351562 398.601562 L 611.351562 531.5 L 584.75 531.5 Z M 584.75 398.601562 " fill="#ffd422" fill-opacity="1" stroke="none"/><path d="M 531.648438 451.800781 L 558.25 451.800781 L 558.25 531.5 L 531.648438 531.5 Z M 531.648438 451.800781 " fill="#ffd422" fill-opacity="1" stroke="none"/><path d="M 478.449219 425.199219 L 505.050781 425.199219 L 505.050781 531.5 L 478.449219 531.5 Z M 478.449219 425.199219 " fill="#ffd422" fill-opacity="1" stroke="none"/><path d="M 425.351562 398.601562 L 451.949219 398.601562 L 451.949219 531.5 L 425.351562 531.5 Z M 425.351562 398.601562 " fill="#ffd422" fill-opacity="1" stroke="none"/><path d="M 372.148438 451.800781 L 398.75 451.800781 L 398.75 531.5 L 372.148438 531.5 Z M 372.148438 451.800781 " fill="#ffd422" fill-opacity="1" stroke="none"/></g><g transform="matrix(0.10593220591545105 0 0 0.10593220591545105 237.5 150)" id="L1_1938"><path d="M 48 176 L 48 408 L 224 472 L 224 240 Z M 48 176 " fill="#ffde55" fill-opacity="1" stroke="none"/><path d="M 400 176 L 400 408 L 224 472 L 224 240 Z M 400 176 " fill="#ffe477" fill-opacity="1" stroke="none"/><path d="M 224 200 L 257.945312 166.054688 L 224 200 L 190.054688 166.054688 L 224 200 L 224 112 L 48 176 L 224 240 L 400 176 L 224 112 Z M 224 200 " fill="#ebbf00" fill-opacity="1" stroke="none"/><path d="M 0 216 L 176 280 L 224 240 L 48 176 Z M 0 216 " fill="#ffcd00" fill-opacity="1" stroke="none"/><path d="M 272 280 L 448 216 L 400 176 L 224 240 Z M 272 280 " fill="#ffcd00" fill-opacity="1" stroke="none"/><path d="M 272 72 L 224 112 L 400 176 L 448 136 Z M 272 72 " fill="#ffcd00" fill-opacity="1" stroke="none"/><path d="M 176 72 L 0 136 L 48 176 L 224 112 Z M 176 72 " fill="#ffcd00" fill-opacity="1" stroke="none"/><path d="M 216 72 L 232 72 L 232 200 L 216 200 Z M 216 72 " fill="#006df0" fill-opacity="1" stroke="none"/><path d="M 224 211.3125 L 184.398438 171.71875 L 195.710938 160.40625 L 224 188.6875 L 252.289062 160.40625 L 263.601562 171.71875 Z M 224 211.3125 " fill="#006df0" fill-opacity="1" stroke="none"/><path d="M 248 440 C 243.582031 440.128906 239.894531 436.648438 239.769531 432.230469 C 239.640625 427.8125 243.117188 424.128906 247.535156 424 C 255.40625 422.640625 317.886719 398.617188 373.023438 376.550781 C 377.128906 374.910156 381.789062 376.902344 383.433594 381.007812 C 385.074219 385.113281 383.082031 389.773438 378.976562 391.414062 C 323.574219 413.601562 255.886719 440 248 440 Z M 248 440 " fill="#ffd422" fill-opacity="1" stroke="none"/><path d="M 216 0 L 232 0 L 232 16 L 216 16 Z M 216 0 " fill="#006df0" fill-opacity="1" stroke="none"/><path d="M 216 24 L 232 24 L 232 40 L 216 40 Z M 216 24 " fill="#006df0" fill-opacity="1" stroke="none"/><path d="M 216 48 L 232 48 L 232 64 L 216 64 Z M 216 48 " fill="#006df0" fill-opacity="1" stroke="none"/></g><g transform="matrix(0.09765632450580597 0 0 0.09765632450580597 150 325)" id="L1_1939"><path d="M 114.875 441.738281 L 53.101562 441.738281 C 48.226562 441.738281 44.277344 437.789062 44.277344 432.914062 C 44.277344 428.039062 48.226562 424.089844 53.101562 424.089844 L 114.875 424.089844 C 129.496094 424.089844 141.351562 412.234375 141.351562 397.613281 L 141.351562 265.238281 C 141.351562 260.367188 145.300781 256.414062 150.175781 256.414062 C 155.050781 256.414062 159 260.367188 159 265.238281 L 159 397.613281 C 158.972656 421.972656 139.234375 441.710938 114.875 441.738281 Z M 114.875 441.738281 " fill="#e6e7e8" fill-opacity="1" stroke="none"/><path d="M 256.074219 477.039062 C 251.199219 477.039062 247.25 473.085938 247.25 468.214844 L 247.25 265.238281 C 247.25 260.367188 251.199219 256.414062 256.074219 256.414062 C 260.949219 256.414062 264.898438 260.367188 264.898438 265.238281 L 264.898438 468.214844 C 264.898438 473.085938 260.949219 477.039062 256.074219 477.039062 Z M 256.074219 477.039062 " fill="#e6e7e8" fill-opacity="1" stroke="none"/><path d="M 459.050781 441.738281 L 397.273438 441.738281 C 372.917969 441.710938 353.179688 421.972656 353.148438 397.613281 L 353.148438 265.238281 C 353.148438 260.367188 357.101562 256.414062 361.976562 256.414062 C 366.847656 256.414062 370.800781 260.367188 370.800781 265.238281 L 370.800781 397.613281 C 370.800781 412.234375 382.652344 424.089844 397.273438 424.089844 L 459.050781 424.089844 C 463.921875 424.089844 467.875 428.039062 467.875 432.914062 C 467.875 437.789062 463.921875 441.738281 459.050781 441.738281 Z M 459.050781 441.738281 " fill="#e6e7e8" fill-opacity="1" stroke="none"/><path d="M 512 194.640625 C 511.972656 162.3125 490.03125 134.117188 458.695312 126.160156 C 455.242188 89.941406 424.828125 62.285156 388.449219 62.265625 C 374.84375 62.230469 361.527344 66.191406 350.148438 73.648438 C 336.921875 21.695312 284.082031 -9.703125 232.125 3.523438 C 197.671875 12.292969 170.773438 39.195312 162 73.648438 C 150.621094 66.1875 137.304688 62.230469 123.699219 62.265625 C 87.320312 62.28125 56.910156 89.941406 53.453125 126.15625 C 15.632812 135.636719 -7.34375 173.980469 2.132812 211.800781 C 10.019531 243.261719 38.320312 265.300781 70.75 265.238281 L 441.398438 265.238281 C 480.390625 265.238281 512 233.628906 512 194.640625 Z M 512 194.640625 " fill="#57a4ff" fill-opacity="1" stroke="none"/><path d="M 256.074219 512.339844 C 270.695312 512.339844 282.550781 500.484375 282.550781 485.863281 C 282.550781 471.242188 270.695312 459.390625 256.074219 459.390625 C 241.453125 459.390625 229.601562 471.242188 229.601562 485.863281 C 229.601562 500.484375 241.453125 512.339844 256.074219 512.339844 Z M 256.074219 512.339844 " fill="#9bc9ff" fill-opacity="1" stroke="none"/><path d="M 485.523438 459.390625 C 500.144531 459.390625 512 447.535156 512 432.914062 C 512 418.292969 500.144531 406.441406 485.523438 406.441406 C 470.902344 406.441406 459.050781 418.292969 459.050781 432.914062 C 459.050781 447.535156 470.902344 459.390625 485.523438 459.390625 Z M 485.523438 459.390625 " fill="#9bc9ff" fill-opacity="1" stroke="none"/><path d="M 26.625 406.4375 C 12.003906 406.4375 0.152344 418.292969 0.152344 432.914062 C 0.152344 447.535156 12.003906 459.386719 26.625 459.386719 C 41.246094 459.386719 53.101562 447.535156 53.101562 432.914062 C 53.101562 418.292969 41.246094 406.4375 26.625 406.4375 Z M 26.625 406.4375 " fill="#9bc9ff" fill-opacity="1" stroke="none"/><path d="M 247.25 229.941406 L 264.902344 229.941406 L 264.902344 247.589844 L 247.25 247.589844 Z M 247.25 229.941406 " fill="#006df0" fill-opacity="1" stroke="none"/><path d="M 282.550781 229.941406 L 300.199219 229.941406 L 300.199219 247.589844 L 282.550781 247.589844 Z M 282.550781 229.941406 " fill="#006df0" fill-opacity="1" stroke="none"/><path d="M 317.851562 229.941406 L 335.5 229.941406 L 335.5 247.589844 L 317.851562 247.589844 Z M 317.851562 229.941406 " fill="#006df0" fill-opacity="1" stroke="none"/><path d="M 353.148438 229.941406 L 370.800781 229.941406 L 370.800781 247.589844 L 353.148438 247.589844 Z M 353.148438 229.941406 " fill="#006df0" fill-opacity="1" stroke="none"/><path d="M 388.449219 229.941406 L 406.101562 229.941406 L 406.101562 247.589844 L 388.449219 247.589844 Z M 388.449219 229.941406 " fill="#006df0" fill-opacity="1" stroke="none"/><path d="M 423.75 229.941406 L 441.398438 229.941406 L 441.398438 247.589844 L 423.75 247.589844 Z M 423.75 229.941406 " fill="#006df0" fill-opacity="1" stroke="none"/><path d="M 211.949219 229.941406 L 229.601562 229.941406 L 229.601562 247.589844 L 211.949219 247.589844 Z M 211.949219 229.941406 " fill="#006df0" fill-opacity="1" stroke="none"/><path d="M 176.648438 229.941406 L 194.300781 229.941406 L 194.300781 247.589844 L 176.648438 247.589844 Z M 176.648438 229.941406 " fill="#006df0" fill-opacity="1" stroke="none"/><path d="M 141.351562 229.941406 L 159 229.941406 L 159 247.589844 L 141.351562 247.589844 Z M 141.351562 229.941406 " fill="#006df0" fill-opacity="1" stroke="none"/><path d="M 106.050781 229.941406 L 123.699219 229.941406 L 123.699219 247.589844 L 106.050781 247.589844 Z M 106.050781 229.941406 " fill="#006df0" fill-opacity="1" stroke="none"/><path d="M 70.75 229.941406 L 88.402344 229.941406 L 88.402344 247.589844 L 70.75 247.589844 Z M 70.75 229.941406 " fill="#006df0" fill-opacity="1" stroke="none"/><path d="M 247.25 477.039062 L 264.902344 477.039062 L 264.902344 494.6875 L 247.25 494.6875 Z M 247.25 477.039062 " fill="#006df0" fill-opacity="1" stroke="none"/><path d="M 476.699219 424.089844 L 494.351562 424.089844 L 494.351562 441.738281 L 476.699219 441.738281 Z M 476.699219 424.089844 " fill="#006df0" fill-opacity="1" stroke="none"/><path d="M 273.726562 282.890625 L 291.375 282.890625 L 291.375 300.539062 L 273.726562 300.539062 Z M 273.726562 282.890625 " fill="#006df0" fill-opacity="1" stroke="none"/><path d="M 273.726562 318.1875 L 291.375 318.1875 L 291.375 335.839844 L 273.726562 335.839844 Z M 273.726562 318.1875 " fill="#006df0" fill-opacity="1" stroke="none"/><path d="M 273.726562 353.488281 L 291.375 353.488281 L 291.375 371.140625 L 273.726562 371.140625 Z M 273.726562 353.488281 " fill="#006df0" fill-opacity="1" stroke="none"/><path d="M 273.726562 388.789062 L 291.375 388.789062 L 291.375 406.441406 L 273.726562 406.441406 Z M 273.726562 388.789062 " fill="#006df0" fill-opacity="1" stroke="none"/><path d="M 379.625 282.890625 L 397.273438 282.890625 L 397.273438 300.539062 L 379.625 300.539062 Z M 379.625 282.890625 " fill="#006df0" fill-opacity="1" stroke="none"/><path d="M 379.625 318.1875 L 397.273438 318.1875 L 397.273438 335.839844 L 379.625 335.839844 Z M 379.625 318.1875 " fill="#006df0" fill-opacity="1" stroke="none"/><path d="M 379.625 353.488281 L 397.273438 353.488281 L 397.273438 371.140625 L 379.625 371.140625 Z M 379.625 353.488281 " fill="#006df0" fill-opacity="1" stroke="none"/><path d="M 379.625 388.789062 L 397.273438 388.789062 L 397.273438 406.441406 L 379.625 406.441406 Z M 379.625 388.789062 " fill="#006df0" fill-opacity="1" stroke="none"/><path d="M 17.800781 424.089844 L 35.453125 424.089844 L 35.453125 441.738281 L 17.800781 441.738281 Z M 17.800781 424.089844 " fill="#006df0" fill-opacity="1" stroke="none"/><path d="M 114.875 282.890625 L 132.527344 282.890625 L 132.527344 300.539062 L 114.875 300.539062 Z M 114.875 282.890625 " fill="#006df0" fill-opacity="1" stroke="none"/><path d="M 114.875 318.1875 L 132.527344 318.1875 L 132.527344 335.839844 L 114.875 335.839844 Z M 114.875 318.1875 " fill="#006df0" fill-opacity="1" stroke="none"/><path d="M 114.875 353.488281 L 132.527344 353.488281 L 132.527344 371.140625 L 114.875 371.140625 Z M 114.875 353.488281 " fill="#006df0" fill-opacity="1" stroke="none"/><path d="M 114.875 388.789062 L 132.527344 388.789062 L 132.527344 406.441406 L 114.875 406.441406 Z M 114.875 388.789062 " fill="#006df0" fill-opacity="1" stroke="none"/><path d="M 273.726562 424.089844 L 291.375 424.089844 L 291.375 441.738281 L 273.726562 441.738281 Z M 273.726562 424.089844 " fill="#006df0" fill-opacity="1" stroke="none"/></g></defs><g fi:class="KUsePattern"><pattern id="pattern_L1_1934" width="350" height="350" patternUnits="userSpaceOnUse"><use xlink:href="#L1_1934" x="-350" y="-350"/><use xlink:href="#L1_1934" x="0" y="-350"/><use xlink:href="#L1_1934" x="350" y="-350"/><use xlink:href="#L1_1934" x="-350" y="0"/><use xlink:href="#L1_1934" x="0" y="0"/><use xlink:href="#L1_1934" x="350" y="0"/><use xlink:href="#L1_1934" x="-350" y="350"/><use xlink:href="#L1_1934" x="0" y="350"/><use xlink:href="#L1_1934" x="350" y="350"/></pattern><rect x="0" y="0" width="100%" height="100%" fill="url(#pattern_L1_1934)"/></g><g fi:class="KUsePattern"><pattern id="pattern_L1_1936" width="350" height="350" patternUnits="userSpaceOnUse"><use xlink:href="#L1_1936" x="-350" y="-350"/><use xlink:href="#L1_1936" x="0" y="-350"/><use xlink:href="#L1_1936" x="350" y="-350"/><use xlink:href="#L1_1936" x="-350" y="0"/><use xlink:href="#L1_1936" x="0" y="0"/><use xlink:href="#L1_1936" x="350" y="0"/><use xlink:href="#L1_1936" x="-350" y="350"/><use xlink:href="#L1_1936" x="0" y="350"/><use xlink:href="#L1_1936" x="350" y="350"/></pattern><rect x="0" y="0" width="100%" height="100%" fill="url(#pattern_L1_1936)"/></g><g fi:class="KUsePattern"><pattern id="pattern_L1_1938" width="350" height="350" patternUnits="userSpaceOnUse"><use xlink:href="#L1_1938" x="-350" y="-350"/><use xlink:href="#L1_1938" x="0" y="-350"/><use xlink:href="#L1_1938" x="350" y="-350"/><use xlink:href="#L1_1938" x="-350" y="0"/><use xlink:href="#L1_1938" x="0" y="0"/><use xlink:href="#L1_1938" x="350" y="0"/><use xlink:href="#L1_1938" x="-350" y="350"/><use xlink:href="#L1_1938" x="0" y="350"/><use xlink:href="#L1_1938" x="350" y="350"/></pattern><rect x="0" y="0" width="100%" height="100%" fill="url(#pattern_L1_1938)"/></g><g fi:class="KUsePattern"><pattern id="pattern_L1_1939" width="350" height="350" patternUnits="userSpaceOnUse"><use xlink:href="#L1_1939" x="-350" y="-350"/><use xlink:href="#L1_1939" x="0" y="-350"/><use xlink:href="#L1_1939" x="350" y="-350"/><use xlink:href="#L1_1939" x="-350" y="0"/><use xlink:href="#L1_1939" x="0" y="0"/><use xlink:href="#L1_1939" x="350" y="0"/><use xlink:href="#L1_1939" x="-350" y="350"/><use xlink:href="#L1_1939" x="0" y="350"/><use xlink:href="#L1_1939" x="350" y="350"/></pattern><rect x="0" y="0" width="100%" height="100%" fill="url(#pattern_L1_1939)"/></g></svg>