<svg xmlns="http://www.w3.org/2000/svg" xmlns:xlink="http://www.w3.org/1999/xlink" xmlns:fi="http://pattern.flaticon.com/" x="0" y="0" width="700" height="350" viewBox="0 0 700 350"><rect x="0px" y="0px" width="100%" height="100%" opacity="1" fill="#ffffff"/><defs><g transform="matrix(0.1794871836900711 0 0 0.1794871836900711 315 315)" id="L1_62"><path d="M368.4,195c30-20,20-60,20-60c-60,0-80,60-80,60s20,60,80,60   C388.4,255,398.4,215,368.4,195z" id="XMLID_860_" fill="#91dc5a"/><path d="M110,115c0,0,20-50,110-40v60L110,115z" id="XMLID_861_" fill="#64c37d"/><path d="M110,275c0,0,20,50,110,40v-60L110,275z" id="XMLID_862_" fill="#64c37d"/><path d="M330,195c0,0-60,90-160,90C40,285,0,195,0,195s40-90,170-90   C270,105,330,195,330,195z" id="XMLID_863_" fill="#c2fb3b"/><path d="M190,106.226c-6.477-0.789-13.141-1.226-20-1.226C40,105,0,195,0,195s40,90,170,90   c6.859,0,13.523-0.437,20-1.226V106.226z" id="XMLID_864_" fill="#91dc5a"/><circle cx="90" cy="195" r="30" id="XMLID_865_" fill="#fff6d2"/><circle cx="90" cy="195" r="15" id="XMLID_866_"/><path d="M240,195c0,27.614-22.386,50-50,50v-50C190,195,216.192,195,240,195z" id="XMLID_15_" fill="#64c37d"/></g><g transform="matrix(0.15151239931583405 0 0 0.15151239931583405 62.5 150)" id="L1_63"><path d="M0,200.003c27.502,0,27.502,20,55.003,20s27.501-20,55.003-20   c27.499,0,27.499,20,54.998,20c27.497,0,27.497-20,54.996-20c27.502,0,27.502,20,55.003,20s27.501-20,55.003-20v-90   c-27.502,0-27.502,20-55.003,20c-27.502,0-27.502-20-55.003-20c-27.498,0-27.498,20-54.996,20c-27.499,0-27.499-20-54.998-20   c-27.502,0-27.502,20-55.003,20c-27.502,0-27.502-20-55.003-20V200.003z" id="XMLID_1502_" fill="#fff6d2"/><path d="M165.004,130.003c-27.499,0-27.499-20-54.998-20c-27.502,0-27.502,20-55.003,20   c-27.502,0-27.502-20-55.003-20v90c27.502,0,27.502,20,55.003,20s27.501-20,55.003-20c27.499,0,27.499,20,54.998,20   C165.004,214.003,165.004,148.003,165.004,130.003z" id="XMLID_1503_" fill="#ffe98f"/><path d="M0,140.003c27.502,0,27.502,20,55.003,20s27.501-20,55.003-20   c27.499,0,27.499,20,54.998,20c27.497,0,27.497-20,54.996-20c27.502,0,27.502,20,55.003,20s27.501-20,55.003-20v-30   c-27.502,0-27.502,20-55.003,20c-27.502,0-27.502-20-55.003-20c-27.498,0-27.498,20-54.996,20c-27.499,0-27.499-20-54.998-20   c-27.502,0-27.502,20-55.003,20c-27.502,0-27.502-20-55.003-20V140.003z" id="XMLID_1504_" fill="#ff734f"/><path d="M165.004,130.003c-27.499,0-27.499-20-54.998-20c-27.502,0-27.502,20-55.003,20   c-27.502,0-27.502-20-55.003-20v30c27.502,0,27.502,20,55.003,20s27.501-20,55.003-20c27.499,0,27.499,20,54.998,20   C165.004,154.003,165.004,148.003,165.004,130.003z" id="XMLID_1505_" fill="#ff5023"/><path d="M0,200.003c27.502,0,27.502,20,55.003,20s27.501-20,55.003-20   c27.499,0,27.499,20,54.998,20c27.497,0,27.497-20,54.996-20c27.502,0,27.502,20,55.003,20s27.501-20,55.003-20v-30   c-27.502,0-27.502,20-55.003,20c-27.502,0-27.502-20-55.003-20c-27.498,0-27.498,20-54.996,20c-27.499,0-27.499-20-54.998-20   c-27.502,0-27.502,20-55.003,20c-27.502,0-27.502-20-55.003-20V200.003z" id="XMLID_1506_" fill="#ff734f"/><path d="M165.004,190.003c-27.499,0-27.499-20-54.998-20c-27.502,0-27.502,20-55.003,20   c-27.502,0-27.502-20-55.003-20v30c27.502,0,27.502,20,55.003,20s27.501-20,55.003-20c27.499,0,27.499,20,54.998,20   C165.004,214.003,165.004,208.003,165.004,190.003z" id="XMLID_1507_" fill="#ff5023"/></g><g transform="matrix(0.1785714328289032 0 0 0.1785714328289032 237.5 150)" id="L1_64"><path d="M155,65c0,8.284-6.716,15-15,15l0,0c-8.284,0-15-6.716-15-15V15   c0-8.284,6.716-15,15-15l0,0c8.284,0,15,6.716,15,15V65z" id="XMLID_1114_" fill="#804c09"/><path d="M192.039,50.115C180.716,32.71,162.256,20,140,20S99.284,32.71,87.961,50.115   C76,68.5,45,129.667,45,185c0,52.467,42.533,95,95,95s95-42.533,95-95C235,129.667,204,68.5,192.039,50.115z" id="XMLID_1115_" fill="#91dc5a"/><path d="M140,20c-22.256,0-40.716,12.71-52.039,30.115C76,68.5,45,129.667,45,185   c0,52.467,42.533,95,95,95C140,243,140,56.5,140,20z" id="XMLID_1116_" fill="#64c37d"/><circle cx="140" cy="185" r="55" id="XMLID_1117_" fill="#bd720d"/><path d="M140,240c-30.375,0-55-24.624-55-55s24.625-55,55-55" id="XMLID_1118_" fill="#804c09"/></g><g transform="matrix(0.1666666716337204 0 0 0.1666666716337204 150 -25)" id="L1_65"><path d="M238.292,161.583c-35.567,17.784-55.474,36.416-66.304,59.652   c2.924-34.693,10.15-64.327,28.012-76.235h-50h-50c17.861,11.908,25.088,41.542,28.012,76.235   c-10.83-23.236-30.736-41.868-66.304-59.652l-13.416,26.833C101.081,214.811,110,238.179,110,295h80   c0-56.821,8.919-80.189,61.708-106.583L238.292,161.583z" id="XMLID_893_" fill="#91dc5a"/><path d="M150,145h-50c17.861,11.908,25.088,41.542,28.012,76.235   c-10.83-23.236-30.736-41.868-66.304-59.652l-13.416,26.833C101.081,214.811,110,238.179,110,295h40V145z" id="XMLID_894_" fill="#64c37d"/><path d="M276.742,122.761C278.841,117.24,280,111.257,280,105c0-27.614-22.386-50-50-50   c-1.931,0-3.832,0.121-5.706,0.333C212.507,25.844,183.696,5,150,5c-33.697,0-62.508,20.844-74.294,50.333   C73.832,55.121,71.931,55,70,55c-27.614,0-50,22.386-50,50c0,6.257,1.159,12.24,3.258,17.761C9.283,131.627,0,147.225,0,165   c0,27.614,22.386,50,50,50c18.949,0,35.436-10.544,43.917-26.083c11.731-6.403,20.603-17.373,24.252-30.516   C127.926,162.638,138.685,165,150,165c11.314,0,22.074-2.362,31.831-6.6c3.649,13.144,12.52,24.114,24.252,30.517   C214.564,204.456,231.051,215,250,215c27.614,0,50-22.386,50-50C300,147.225,290.717,131.627,276.742,122.761z" id="XMLID_895_" fill="#c2fb3b"/><path d="M150,5c-33.697,0-62.508,20.844-74.294,50.333C73.832,55.121,71.931,55,70,55   c-27.614,0-50,22.386-50,50c0,6.257,1.159,12.24,3.258,17.761C9.283,131.627,0,147.225,0,165c0,27.614,22.386,50,50,50   c18.949,0,35.436-10.544,43.917-26.083c11.731-6.403,20.603-17.373,24.252-30.516C127.926,162.638,138.685,165,150,165   C150,127.5,150,54,150,5z" id="XMLID_896_" fill="#91dc5a"/></g></defs><g fi:class="KUsePattern"><pattern id="pattern_L1_62" width="350" height="350" patternUnits="userSpaceOnUse"><use xlink:href="#L1_62" x="-350" y="-350"/><use xlink:href="#L1_62" x="0" y="-350"/><use xlink:href="#L1_62" x="350" y="-350"/><use xlink:href="#L1_62" x="-350" y="0"/><use xlink:href="#L1_62" x="0" y="0"/><use xlink:href="#L1_62" x="350" y="0"/><use xlink:href="#L1_62" x="-350" y="350"/><use xlink:href="#L1_62" x="0" y="350"/><use xlink:href="#L1_62" x="350" y="350"/></pattern><rect x="0" y="0" width="100%" height="100%" fill="url(#pattern_L1_62)"/></g><g fi:class="KUsePattern"><pattern id="pattern_L1_63" width="350" height="350" patternUnits="userSpaceOnUse"><use xlink:href="#L1_63" x="-350" y="-350"/><use xlink:href="#L1_63" x="0" y="-350"/><use xlink:href="#L1_63" x="350" y="-350"/><use xlink:href="#L1_63" x="-350" y="0"/><use xlink:href="#L1_63" x="0" y="0"/><use xlink:href="#L1_63" x="350" y="0"/><use xlink:href="#L1_63" x="-350" y="350"/><use xlink:href="#L1_63" x="0" y="350"/><use xlink:href="#L1_63" x="350" y="350"/></pattern><rect x="0" y="0" width="100%" height="100%" fill="url(#pattern_L1_63)"/></g><g fi:class="KUsePattern"><pattern id="pattern_L1_64" width="350" height="350" patternUnits="userSpaceOnUse"><use xlink:href="#L1_64" x="-350" y="-350"/><use xlink:href="#L1_64" x="0" y="-350"/><use xlink:href="#L1_64" x="350" y="-350"/><use xlink:href="#L1_64" x="-350" y="0"/><use xlink:href="#L1_64" x="0" y="0"/><use xlink:href="#L1_64" x="350" y="0"/><use xlink:href="#L1_64" x="-350" y="350"/><use xlink:href="#L1_64" x="0" y="350"/><use xlink:href="#L1_64" x="350" y="350"/></pattern><rect x="0" y="0" width="100%" height="100%" fill="url(#pattern_L1_64)"/></g><g fi:class="KUsePattern"><pattern id="pattern_L1_65" width="350" height="350" patternUnits="userSpaceOnUse"><use xlink:href="#L1_65" x="-350" y="-350"/><use xlink:href="#L1_65" x="0" y="-350"/><use xlink:href="#L1_65" x="350" y="-350"/><use xlink:href="#L1_65" x="-350" y="0"/><use xlink:href="#L1_65" x="0" y="0"/><use xlink:href="#L1_65" x="350" y="0"/><use xlink:href="#L1_65" x="-350" y="350"/><use xlink:href="#L1_65" x="0" y="350"/><use xlink:href="#L1_65" x="350" y="350"/></pattern><rect x="0" y="0" width="100%" height="100%" fill="url(#pattern_L1_65)"/></g></svg>