<svg xmlns="http://www.w3.org/2000/svg" xmlns:xlink="http://www.w3.org/1999/xlink" xmlns:fi="http://pattern.flaticon.com/" x="0" y="0" width="700" height="350" viewBox="0 0 700 350"><rect x="0px" y="0px" width="100%" height="100%" opacity="1" fill="#ffffff"/><defs><g transform="matrix(0.1785714328289032 0 0 0.1785714328289032 62.5 150)" id="L1_160"><path d="M155,65c0,8.284-6.716,15-15,15l0,0c-8.284,0-15-6.716-15-15V15   c0-8.284,6.716-15,15-15l0,0c8.284,0,15,6.716,15,15V65z" id="XMLID_1114_" fill="#804c09"/><path d="M192.039,50.115C180.716,32.71,162.256,20,140,20S99.284,32.71,87.961,50.115   C76,68.5,45,129.667,45,185c0,52.467,42.533,95,95,95s95-42.533,95-95C235,129.667,204,68.5,192.039,50.115z" id="XMLID_1115_" fill="#91dc5a"/><path d="M140,20c-22.256,0-40.716,12.71-52.039,30.115C76,68.5,45,129.667,45,185   c0,52.467,42.533,95,95,95C140,243,140,56.5,140,20z" id="XMLID_1116_" fill="#64c37d"/><circle cx="140" cy="185" r="55" id="XMLID_1117_" fill="#bd720d"/><path d="M140,240c-30.375,0-55-24.624-55-55s24.625-55,55-55" id="XMLID_1118_" fill="#804c09"/></g><g transform="matrix(0.1388888955116272 0 0 0.1388888955116272 150 325)" id="L1_161"><path d="M230,35c-12.881,0-24.889,3.782-35,10.271V15c0-8.284-6.716-15-15-15   s-15,6.716-15,15v30.271C154.889,38.782,142.881,35,130,35c-8.284,0-15,6.716-15,15s6.716,15,15,15c19.299,0,35,15.701,35,35v23h30   v-23c0-19.299,15.701-35,35-35c8.284,0,15-6.716,15-15S238.284,35,230,35z" id="XMLID_879_" fill="#91dc5a"/><path d="M180,123c0,0,0-110.304,0-123c-8.284,0-15,6.716-15,15v30.271   C154.889,38.782,142.881,35,130,35c-8.284,0-15,6.716-15,15s6.716,15,15,15c19.299,0,35,15.701,35,35v23H180z" id="XMLID_880_" fill="#64c37d"/><path d="M240,200c0,110-60,160-60,160s-60-50-60-160v-60c0-33.137,26.863-60,60-60l0,0   c33.137,0,60,26.863,60,60V200z" id="XMLID_881_" fill="#ffad41"/><path d="M180,360c0,0-60-50-60-160v-60c0-33.137,26.863-60,60-60l0,0   C180,147,180,360,180,360z" id="XMLID_882_" fill="#ff9811"/><path d="M150,170h-30v20h30c5.523,0,10-4.477,10-10S155.523,170,150,170z" id="XMLID_883_" fill="#bd720d"/><path d="M210,160h30v-20h-30c-5.523,0-10,4.477-10,10S204.477,160,210,160z" id="XMLID_17_" fill="#ff9811"/><path d="M160,240c0-5.523-4.477-10-10-10h-28.446c0.735,6.961,1.714,13.624,2.89,20H150   C155.523,250,160,245.523,160,240z" id="XMLID_884_" fill="#bd720d"/><path d="M200,210c0,5.523,4.477,10,10,10h29.32c0.443-6.432,0.68-13.098,0.68-20h-30   C204.477,200,200,204.477,200,210z" id="XMLID_885_" fill="#ff9811"/></g><g transform="matrix(0.24137930572032928 0 0 0.24137930572032928 315 315)" id="L1_162"><path d="M65,80.581 166.695,15 166.695,125z" id="XMLID_25_" fill="#ffad41"/><path d="M248.717,156.564C252.624,152.154,255,146.355,255,140c0-13.807-11.193-25-25-25   c-1.943,0-3.832,0.229-5.648,0.648c0.42-1.814,0.648-3.705,0.648-5.648c0-13.807-11.193-25-25-25c-3.621,0-7.059,0.775-10.165,2.16   C188.425,74.691,177.847,65,165,65c-8.179,0-15.439,3.928-20,10c-4.561-6.072-11.821-10-20-10c-12.847,0-23.425,9.691-24.835,22.16   C97.059,85.775,93.621,85,90,85c-13.807,0-25,11.193-25,25c0,1.943,0.229,3.834,0.648,5.648C63.832,115.229,61.943,115,60,115   c-13.807,0-25,11.193-25,25c0,6.355,2.376,12.154,6.283,16.564c-4.654,1.732-8.646,4.816-11.518,8.77H145h115.234   C257.363,161.381,253.371,158.297,248.717,156.564z" id="XMLID_1357_" fill="#bd720d"/><path d="M29.766,165.334H145V75c-4.561-6.072-11.821-10-20-10   c-12.847,0-23.425,9.691-24.835,22.16C97.059,85.775,93.621,85,90,85c-13.807,0-25,11.193-25,25c0,1.943,0.229,3.834,0.648,5.648   C63.832,115.229,61.943,115,60,115c-13.807,0-25,11.193-25,25c0,6.355,2.376,12.154,6.283,16.564   C36.629,158.297,32.637,161.381,29.766,165.334z" id="XMLID_1358_" fill="#804c09"/><path d="M196.214,25 281.066,109.853 175,131.066z" id="XMLID_22_" fill="#ffe98f"/><circle cx="185" cy="125" r="30" id="XMLID_1359_" fill="#bd720d"/><path d="M103.786,25 18.934,109.853 125,131.066z" id="XMLID_20_" fill="#ffda44"/><circle cx="115" cy="125" r="30" id="XMLID_1360_" fill="#804c09"/><path d="M275,155H15c-8.284,0-15,6.716-15,15s6.716,15,15,15h10    c0,35.264,26.079,64.424,60,69.277V275h120v-20.723c33.921-4.854,60-34.014,60-69.277h10c8.284,0,15-6.716,15-15    S283.284,155,275,155z" id="XMLID_1362_" fill="#91dc5a"/><path d="M15,155c-8.284,0-15,6.716-15,15s6.716,15,15,15h10    c0,35.264,26.079,64.424,60,69.277V275h60V155H15z" id="XMLID_1364_" fill="#64c37d"/></g><g transform="matrix(0.13598227500915527 0 0 0.13598227500915527 237.5 150)" id="L1_163"><path d="M338.181,183.181H29.514L0,212.695c101.536,101.537,266.159,101.536,367.695,0   C358.625,203.625,348.647,193.647,338.181,183.181z" id="XMLID_898_" fill="#ffad41"/><path d="M183.848,288.848c-66.54,0-133.08-25.384-183.848-76.152L183.848,28.848   C183.848,28.848,183.848,194.848,183.848,288.848z" id="XMLID_23_" fill="#ff9811"/><path d="M316.077,161.077H51.619l-23.335,23.335   c39.813,39.812,94.813,64.436,155.564,64.436s115.751-24.624,155.563-64.436C331.849,176.849,316.077,161.077,316.077,161.077z" id="XMLID_899_" fill="#ff5023"/><path d="M183.848,161.077H51.619l-23.335,23.335   c39.813,39.812,94.813,64.436,155.564,64.436C183.848,248.848,183.848,161.077,183.848,161.077z" id="XMLID_900_" fill="#bd3c1a"/><path d="M183.848,28.848L51.619,161.077c16.58,16.58,44.01,18.524,66.011,27.647   c21.223,8.8,41.813,27.124,66.218,27.124s44.996-18.324,66.218-27.124c22.001-9.123,49.431-11.067,66.011-27.647   C253.44,98.44,183.848,28.848,183.848,28.848z" id="XMLID_901_" fill="#ffe98f"/><path d="M51.619,161.077c3.616,3.616,7.75,6.536,12.229,8.986v98.785   c0,11.046,8.955,20,20,20s20-8.954,20-20v-50c0-11.046,8.955-20,20-20s20,8.954,20,20v100c0,11.046,8.955,20,20,20s20-8.954,20-20   v-290L51.619,161.077z" id="XMLID_902_" fill="#ffda44"/><circle cx="128" cy="143" r="25" id="XMLID_903_" fill="#bd3c1a"/><circle cx="238" cy="143" r="25" id="XMLID_904_" fill="#ff5023"/><circle cx="183" cy="93" r="25" id="XMLID_905_" fill="#ff5023"/><path d="M183.848,118.848c-13.807,0-25-11.193-25-25s11.193-25,25-25" id="XMLID_906_" fill="#bd3c1a"/></g></defs><g fi:class="KUsePattern"><pattern id="pattern_L1_160" width="350" height="350" patternUnits="userSpaceOnUse"><use xlink:href="#L1_160" x="-350" y="-350"/><use xlink:href="#L1_160" x="0" y="-350"/><use xlink:href="#L1_160" x="350" y="-350"/><use xlink:href="#L1_160" x="-350" y="0"/><use xlink:href="#L1_160" x="0" y="0"/><use xlink:href="#L1_160" x="350" y="0"/><use xlink:href="#L1_160" x="-350" y="350"/><use xlink:href="#L1_160" x="0" y="350"/><use xlink:href="#L1_160" x="350" y="350"/></pattern><rect x="0" y="0" width="100%" height="100%" fill="url(#pattern_L1_160)"/></g><g fi:class="KUsePattern"><pattern id="pattern_L1_161" width="350" height="350" patternUnits="userSpaceOnUse"><use xlink:href="#L1_161" x="-350" y="-350"/><use xlink:href="#L1_161" x="0" y="-350"/><use xlink:href="#L1_161" x="350" y="-350"/><use xlink:href="#L1_161" x="-350" y="0"/><use xlink:href="#L1_161" x="0" y="0"/><use xlink:href="#L1_161" x="350" y="0"/><use xlink:href="#L1_161" x="-350" y="350"/><use xlink:href="#L1_161" x="0" y="350"/><use xlink:href="#L1_161" x="350" y="350"/></pattern><rect x="0" y="0" width="100%" height="100%" fill="url(#pattern_L1_161)"/></g><g fi:class="KUsePattern"><pattern id="pattern_L1_162" width="350" height="350" patternUnits="userSpaceOnUse"><use xlink:href="#L1_162" x="-350" y="-350"/><use xlink:href="#L1_162" x="0" y="-350"/><use xlink:href="#L1_162" x="350" y="-350"/><use xlink:href="#L1_162" x="-350" y="0"/><use xlink:href="#L1_162" x="0" y="0"/><use xlink:href="#L1_162" x="350" y="0"/><use xlink:href="#L1_162" x="-350" y="350"/><use xlink:href="#L1_162" x="0" y="350"/><use xlink:href="#L1_162" x="350" y="350"/></pattern><rect x="0" y="0" width="100%" height="100%" fill="url(#pattern_L1_162)"/></g><g fi:class="KUsePattern"><pattern id="pattern_L1_163" width="350" height="350" patternUnits="userSpaceOnUse"><use xlink:href="#L1_163" x="-350" y="-350"/><use xlink:href="#L1_163" x="0" y="-350"/><use xlink:href="#L1_163" x="350" y="-350"/><use xlink:href="#L1_163" x="-350" y="0"/><use xlink:href="#L1_163" x="0" y="0"/><use xlink:href="#L1_163" x="350" y="0"/><use xlink:href="#L1_163" x="-350" y="350"/><use xlink:href="#L1_163" x="0" y="350"/><use xlink:href="#L1_163" x="350" y="350"/></pattern><rect x="0" y="0" width="100%" height="100%" fill="url(#pattern_L1_163)"/></g></svg>