<svg xmlns="http://www.w3.org/2000/svg" xmlns:xlink="http://www.w3.org/1999/xlink" xmlns:fi="http://pattern.flaticon.com/" x="0" y="0" width="700" height="350" viewBox="0 0 700 350"><rect x="0px" y="0px" width="100%" height="100%" opacity="1" fill="#e4ecea"/><defs><g transform="matrix(0.06772084660126741 0.015391101389244871 -0.015391101389244871 0.06772084660126741 68.60358522572223 154.72334131442886)" id="L1_52"><path d="M448,112h-16c-30.875,0-56-25.121-56-56c0-22.055-17.945-40-40-40h-56c-39.703,0-72,32.301-72,72     c0,4.418-3.578,8-8,8s-8-3.582-8-8c0-48.523,39.477-88,88-88h56c30.875,0,56,25.121,56,56c0,22.055,17.945,40,40,40h16     c4.422,0,8,3.582,8,8S452.422,112,448,112z" fill="#5c546a"/><path d="M256,80H144c-48.523,0-88,39.477-88,88v200c0,79.402,64.602,144,144,144s144-64.598,144-144V168    C344,119.477,304.523,80,256,80z" fill="#868491"/><path d="M256,80h-56.219v431.989c0.074,0,0.145,0.011,0.219,0.011c79.398,0,144-64.598,144-144V168    C344,119.477,304.523,80,256,80z" fill="#b4b6bc"/><path d="M304,94.339C290.181,85.303,273.708,80,256,80H144c-17.708,0-34.181,5.303-48,14.339V232    c0,30.879,25.125,56,56,56h96c30.875,0,56-25.121,56-56V94.339z" fill="#5c546a"/><path d="M199.781,80v208H248c30.875,0,56-25.121,56-56V94.339C290.181,85.303,273.708,80,256,80H199.781z" fill="#868491"/><path d="M200,224L200,224c-8.837,0-16-7.163-16-16v-48c0-8.837,7.163-16,16-16l0,0c8.837,0,16,7.163,16,16    v48C216,216.836,208.837,224,200,224z" fill="#b4b6bc"/><path d="M200,144c-0.075,0-0.145,0.021-0.219,0.022v79.956c0.075,0.001,0.144,0.022,0.219,0.022    c8.836,0,16-7.164,16-16v-48C216,151.163,208.837,144,200,144z" fill="#ffffff"/></g><g transform="matrix(0.11657101141080373 -0.07144674898430393 0.07144674898430393 0.11657101141080373 -48.13254666114756 -11.551811181183947)" id="L1_53"><path d="M280.041,376c-18.068,0-62.013,0-80.082,0c-4.418,0-7.959,3.582-7.959,8l0,0c0,49,48,104,48,104    s48-55,48-104l0,0C288,379.582,284.46,376,280.041,376z" fill="#b4b6bc"/><path d="M200,280h80c4.418,0,8-3.582,8-8V56c0-4.418-3.582-8-8-8h-40h-40c-4.418,0-8,3.582-8,8v216    C192,276.418,195.582,280,200,280z" fill="#b4b6bc"/><path d="M272,48V16c0-8.837-7.163-16-16-16h-32c-8.837,0-16,7.163-16,16v32H272z" fill="#009bca"/><path d="M272,344c8.837,0,16,7.163,16,16s-7.163,16-16,16h-64c-8.837,0-16-7.163-16-16s7.163-16,16-16H272z    " fill="#009bca"/><path d="M272,344h-32.219v32H272c8.836,0,16-7.164,16-16C288,351.163,280.837,344,272,344z" fill="#4bb9ec"/><path d="M272,312c8.837,0,16,7.163,16,16s-7.163,16-16,16h-64c-8.837,0-16-7.163-16-16s7.163-16,16-16H272z    " fill="#009bca"/><path d="M272,312h-32.219v32H272c8.836,0,16-7.164,16-16C288,319.163,280.837,312,272,312z" fill="#4bb9ec"/><path d="M272,280c8.837,0,16,7.163,16,16s-7.163,16-16,16h-64c-8.837,0-16-7.163-16-16s7.163-16,16-16H272z    " fill="#009bca"/><path d="M272,280h-32.219v32H272c8.836,0,16-7.164,16-16C288,287.163,280.837,280,272,280z" fill="#4bb9ec"/><path d="M239.781,376c-15.43,0-30.83,0-39.822,0c-4.418,0-7.959,3.582-7.959,8l0,0    c0,47.754,45.463,101.057,47.781,103.744V376z" fill="#868491"/><path d="M239.781,48H200c-4.418,0-8,3.582-8,8v216c0,4.418,3.582,8,8,8h39.781V48z" fill="#868491"/><path d="M320,248c-4.422,0-8-3.582-8-8V96c0-4.41-3.586-8-8-8H192c-4.422,0-8-3.582-8-8s3.578-8,8-8h112     c13.234,0,24,10.766,24,24v144C328,244.418,324.422,248,320,248z" fill="#5c546a"/><path d="M256,0h-16.219v48H272V16C272,7.163,264.837,0,256,0z" fill="#4bb9ec"/><path d="M232,504c0,4.418,3.578,8,8,8s8-3.582,8-8v-25.914h-16V504z" fill="#5c546a"/></g><g transform="matrix(0.1411290317773819 0 0 0.1411290317773819 227 140.9999998277233)" id="L1_55"><path d="M472,116.07H24c-13.234,0-24,10.766-24,24v264c0,13.234,10.766,24,24,24h448    c13.234,0,24-10.766,24-24v-264C496,126.836,485.234,116.07,472,116.07z" fill="#ff4f19"/><rect x="224px" y="388px" width="48px" height="40px" fill="#e3001e"/><path d="M464.219,364.07v24c0,4.418-3.582,8-8,8h-416c-4.418,0-8-3.582-8-8v-24l47.781-24l192,8l160-8    L464.219,364.07z" fill="#e6be8a"/><path d="M43.443,375.116c65.739-27.139,140.084-25.487,204.776,4.954v-288    C181.394,60.625,104.27,59.9,36.97,89.894c-2.896,1.291-4.751,4.222-4.751,7.393v270.515    C32.219,373.581,38.102,377.321,43.443,375.116z" fill="#ffebb7"/><path d="M248.219,380.07c64.692-30.442,139.037-32.093,204.776-4.954    c5.341,2.205,11.224-1.535,11.224-7.314V97.287c0-3.171-1.855-6.102-4.751-7.393c-67.3-29.994-144.425-29.269-211.249,2.176    V380.07z" fill="#ffd788"/><path d="M280.219,327.824c-3.406,0-6.563-2.188-7.633-5.605c-1.32-4.215,1.023-8.707,5.234-10.031     c8.094-2.543,16.422-4.715,24.758-6.461c4.313-0.906,8.563,1.855,9.469,6.188c0.906,4.324-1.859,8.563-6.188,9.469     c-7.828,1.641-15.648,3.684-23.242,6.07C281.82,327.703,281.008,327.824,280.219,327.824z" fill="#868491"/><path d="M432.219,327.824c-0.789,0-1.602-0.121-2.398-0.371c-30.187-9.48-61.477-13.031-92.969-10.523     c-4.469,0.32-8.258-2.941-8.609-7.344c-0.344-4.406,2.938-8.258,7.344-8.609c33.609-2.641,66.891,1.117,99.031,11.211     c4.211,1.324,6.555,5.816,5.234,10.031C438.781,325.637,435.625,327.824,432.219,327.824z" fill="#868491"/><path d="M432.219,295.73c-0.789,0-1.602-0.121-2.398-0.371c-48.156-15.125-99.047-15.125-147.203,0     c-4.234,1.324-8.719-1.023-10.031-5.234c-1.32-4.215,1.023-8.707,5.234-10.031c51.297-16.109,105.5-16.109,156.797,0     c4.211,1.324,6.555,5.816,5.234,10.031C438.781,293.543,435.625,295.73,432.219,295.73z" fill="#868491"/><path d="M280.219,263.824c-3.406,0-6.563-2.188-7.633-5.605c-1.32-4.215,1.023-8.707,5.234-10.031     c29.445-9.242,60-13.176,90.781-11.73c4.406,0.211,7.82,3.957,7.609,8.371c-0.203,4.422-3.891,7.797-8.375,7.613     c-28.883-1.363-57.578,2.332-85.219,11.012C281.82,263.703,281.008,263.824,280.219,263.824z" fill="#868491"/><path d="M432.219,263.824c-0.789,0-1.602-0.121-2.398-0.371c-10.109-3.176-20.539-5.723-31-7.566     c-4.352-0.77-7.258-4.918-6.484-9.27c0.766-4.348,4.922-7.258,9.266-6.488c11.141,1.965,22.242,4.676,33.016,8.059     c4.211,1.324,6.555,5.816,5.234,10.031C438.781,261.637,435.625,263.824,432.219,263.824z" fill="#868491"/><path d="M432.219,231.73c-0.789,0-1.602-0.121-2.398-0.371c-48.156-15.125-99.047-15.125-147.203,0     c-4.234,1.316-8.719-1.027-10.031-5.234c-1.32-4.215,1.023-8.707,5.234-10.031c51.297-16.109,105.5-16.109,156.797,0     c4.211,1.324,6.555,5.816,5.234,10.031C438.781,229.543,435.625,231.73,432.219,231.73z" fill="#868491"/><path d="M280.219,199.731c-3.406,0-6.563-2.188-7.633-5.605c-1.32-4.215,1.023-8.707,5.234-10.031     c16.094-5.055,32.75-8.562,49.523-10.422c4.453-0.535,8.352,2.684,8.836,7.066c0.484,4.391-2.68,8.348-7.07,8.832     c-15.742,1.75-31.391,5.043-46.492,9.789C281.82,199.609,281.008,199.731,280.219,199.731z" fill="#868491"/><path d="M432.219,199.731c-0.789,0-1.602-0.121-2.398-0.371c-22.586-7.098-46.039-10.887-69.719-11.258     c-4.422-0.07-7.945-3.707-7.875-8.125c0.07-4.414,3.93-8.133,8.125-7.875c25.219,0.398,50.211,4.434,74.266,11.992     c4.211,1.324,6.555,5.816,5.234,10.031C438.773,197.543,435.625,199.731,432.219,199.731z" fill="#868491"/><path d="M280.219,167.824c-3.406,0-6.563-2.188-7.633-5.605c-1.32-4.215,1.023-8.707,5.234-10.031     c34.859-10.949,70.937-14.465,107.281-10.422c4.391,0.484,7.555,4.441,7.07,8.832c-0.484,4.387-4.359,7.637-8.836,7.066     c-34.094-3.781-67.992-0.496-100.719,9.789C281.82,167.703,281.008,167.824,280.219,167.824z" fill="#868491"/><path d="M432.219,167.824c-0.789,0-1.602-0.121-2.398-0.371c-5.078-1.598-10.289-3.047-15.5-4.316     c-4.289-1.047-6.922-5.375-5.875-9.668s5.344-6.918,9.672-5.879c5.539,1.352,11.086,2.898,16.5,4.598     c4.211,1.324,6.555,5.816,5.234,10.031C438.781,165.637,435.625,167.824,432.219,167.824z" fill="#868491"/><path d="M280.219,135.731c-3.406,0-6.563-2.191-7.633-5.609c-1.32-4.219,1.023-8.707,5.242-10.027     c5.5-1.727,11.047-3.27,16.492-4.594c4.266-1.051,8.617,1.59,9.664,5.883c1.047,4.293-1.594,8.621-5.883,9.664     c-5.109,1.242-10.32,2.691-15.492,4.312C281.812,135.609,281.008,135.731,280.219,135.731z" fill="#868491"/><path d="M432.219,135.731c-0.789,0-1.602-0.121-2.398-0.371c-32.734-10.285-66.617-13.566-100.719-9.789     c-4.422,0.539-8.352-2.684-8.836-7.066c-0.484-4.391,2.68-8.348,7.07-8.832c36.328-4.043,72.414-0.527,107.281,10.422     c4.211,1.324,6.555,5.816,5.234,10.031C438.781,133.543,435.625,135.731,432.219,135.731z" fill="#868491"/><path d="M64.219,327.824c-3.406,0-6.562-2.188-7.633-5.605c-1.32-4.215,1.023-8.707,5.234-10.031     c8.094-2.543,16.422-4.715,24.758-6.461c4.32-0.906,8.563,1.855,9.469,6.188c0.906,4.324-1.859,8.563-6.188,9.469     c-7.828,1.641-15.648,3.684-23.242,6.07C65.82,327.703,65.008,327.824,64.219,327.824z" fill="#b4b6bc"/><path d="M216.219,327.824c-0.789,0-1.602-0.121-2.398-0.371c-30.18-9.48-61.477-13.031-92.969-10.523     c-4.531,0.32-8.258-2.941-8.609-7.344c-0.344-4.406,2.938-8.258,7.344-8.609c33.609-2.641,66.883,1.117,99.031,11.211     c4.211,1.324,6.555,5.816,5.234,10.031C222.781,325.637,219.625,327.824,216.219,327.824z" fill="#b4b6bc"/><path d="M216.219,295.73c-0.789,0-1.602-0.121-2.398-0.371c-48.156-15.125-99.047-15.125-147.203,0     c-4.25,1.324-8.719-1.023-10.031-5.234c-1.32-4.215,1.023-8.707,5.234-10.031c51.297-16.109,105.5-16.109,156.797,0     c4.211,1.324,6.555,5.816,5.234,10.031C222.781,293.543,219.625,295.73,216.219,295.73z" fill="#b4b6bc"/><path d="M64.219,263.824c-3.406,0-6.562-2.188-7.633-5.605c-1.32-4.215,1.023-8.707,5.234-10.031     c29.445-9.242,60.023-13.176,90.781-11.73c4.406,0.211,7.82,3.957,7.609,8.371c-0.211,4.422-3.938,7.797-8.375,7.613     c-28.891-1.363-57.578,2.332-85.219,11.012C65.82,263.703,65.008,263.824,64.219,263.824z" fill="#b4b6bc"/><path d="M216.219,263.824c-0.789,0-1.602-0.121-2.398-0.371c-10.109-3.176-20.539-5.723-31-7.566     c-4.352-0.77-7.258-4.918-6.484-9.27c0.758-4.348,4.93-7.258,9.266-6.488c11.141,1.965,22.242,4.676,33.016,8.059     c4.211,1.324,6.555,5.816,5.234,10.031C222.781,261.637,219.625,263.824,216.219,263.824z" fill="#b4b6bc"/><path d="M64.219,231.73c-3.406,0-6.562-2.188-7.633-5.605c-1.32-4.215,1.023-8.707,5.234-10.031     c45.477-14.277,94-15.867,140.289-4.594c4.297,1.047,6.93,5.375,5.883,9.668c-1.047,4.289-5.398,6.902-9.664,5.879     c-43.469-10.598-89.016-9.094-131.711,4.313C65.82,231.609,65.008,231.73,64.219,231.73z" fill="#b4b6bc"/><path d="M64.219,199.731c-3.406,0-6.562-2.188-7.633-5.605c-1.32-4.215,1.023-8.707,5.234-10.031     c16.094-5.055,32.75-8.562,49.523-10.422c4.414-0.535,8.352,2.684,8.836,7.066c0.484,4.391-2.68,8.348-7.07,8.832     c-15.742,1.75-31.391,5.043-46.492,9.789C65.82,199.609,65.008,199.731,64.219,199.731z" fill="#b4b6bc"/><path d="M200.227,195.273c-0.625,0-1.266-0.074-1.898-0.227c-17.734-4.32-35.984-6.66-54.227-6.945     c-4.422-0.07-7.945-3.707-7.875-8.125c0.07-4.414,3.523-8.133,8.125-7.875c19.437,0.309,38.867,2.797,57.758,7.398     c4.297,1.047,6.93,5.375,5.883,9.668C207.101,192.824,203.828,195.273,200.227,195.273z" fill="#b4b6bc"/><path d="M64.219,167.824c-3.406,0-6.562-2.188-7.633-5.605c-1.32-4.215,1.023-8.707,5.234-10.031     c34.867-10.949,70.945-14.465,107.281-10.422c4.391,0.484,7.555,4.441,7.07,8.832c-0.484,4.387-4.391,7.637-8.836,7.066     c-34.094-3.781-67.992-0.496-100.719,9.789C65.82,167.703,65.008,167.824,64.219,167.824z" fill="#b4b6bc"/><path d="M64.219,135.731c-3.406,0-6.562-2.191-7.633-5.609c-1.32-4.219,1.023-8.707,5.242-10.027     c5.5-1.727,11.047-3.27,16.492-4.594c4.258-1.051,8.617,1.59,9.664,5.883c1.047,4.293-1.594,8.621-5.883,9.664     c-5.109,1.242-10.32,2.691-15.492,4.312C65.812,135.609,65.008,135.731,64.219,135.731z" fill="#b4b6bc"/><path d="M200.227,131.27c-0.625,0-1.266-0.074-1.898-0.227c-27.961-6.809-56.633-8.641-85.227-5.473     c-4.391,0.539-8.352-2.676-8.836-7.066c-0.484-4.391,2.68-8.348,7.07-8.832c30.445-3.391,61-1.422,90.773,5.824     c4.297,1.047,6.93,5.375,5.883,9.668C207.101,128.82,203.828,131.27,200.227,131.27z" fill="#b4b6bc"/><path d="M200.219,216.064c0.001,3.194,3.561,5.1,6.219,3.328l17.781-11.854L242,219.392    c2.658,1.772,6.219-0.133,6.219-3.328V92.734c0-3.16-1.843-6.077-4.731-7.361c-12.457-5.54-25.259-9.983-38.262-13.418    c-2.537-0.67-5.03,1.292-5.029,3.916L200.219,216.064z" fill="#5d647f"/></g><g transform="matrix(0.09959660470485687 0 0 0.09959660470485687 149.51603803038597 324.5204973097541)" id="L1_56"><path d="M159.805,191.603l192.336,192.336l143.246-143.246c21.828-21.836,21.828-57.367,0-79.195    L382.246,48.357c-21.82-21.82-57.359-21.836-79.195,0L159.805,191.603z" fill="#4bb9ec"/><path d="M16.371,335.037c-21.828,21.836-21.828,57.367,0,79.195l63.195,63.195    c1.5,1.5,3.531,2.344,5.656,2.344h167.773c2.125,0,4.156-0.844,5.656-2.344l93.489-93.489L159.805,191.603L16.371,335.037z" fill="#ff4f19"/><path d="M463.973,479.771h-24c-4.422,0-8-3.578-8-8s3.578-8,8-8h24c4.422,0,8,3.578,8,8     S468.394,479.771,463.973,479.771z" fill="#e3001e"/><path d="M335.98,447.771c-2.938,0-5.758-1.617-7.164-4.422c-1.977-3.953-0.375-8.758,3.578-10.734l16-8     c3.953-1.969,8.75-0.375,10.734,3.578c1.977,3.953,0.375,8.758-3.578,10.734l-16,8     C338.402,447.498,337.183,447.771,335.98,447.771z" fill="#ff4f19"/><path d="M391.973,447.771h-8c-4.422,0-8-3.578-8-8s3.578-8,8-8h8c4.422,0,8,3.578,8,8     S396.394,447.771,391.973,447.771z" fill="#ff4f19"/><path d="M367.973,415.771c-2.047,0-4.094-0.781-5.656-2.344c-3.125-3.125-3.125-8.188,0-11.313l8-8     c3.125-3.125,8.188-3.125,11.313,0s3.125,8.187,0,11.312l-8,8C372.066,414.99,370.019,415.771,367.973,415.771z" fill="#ff4f19"/><path d="M407.996,423.771c-2.164,0-4.242-0.883-5.688-2.32c-1.516-1.523-2.312-3.602-2.312-5.68     s0.797-4.164,2.234-5.602c3.125-3.039,8.398-3.039,11.359-0.078c1.523,1.516,2.406,3.602,2.406,5.68s-0.883,4.156-2.406,5.68     C412.152,422.889,410.074,423.771,407.996,423.771z" fill="#ff4f19"/><path d="M407.996,383.771c-2.164,0-4.242-0.883-5.688-2.32c-1.516-1.523-2.312-3.602-2.312-5.68     s0.797-4.164,2.234-5.602c3.125-3.039,8.398-3.039,11.359-0.078c1.523,1.516,2.406,3.602,2.406,5.68s-0.883,4.156-2.406,5.68     C412.152,382.889,410.074,383.771,407.996,383.771z" fill="#ff4f19"/><path d="M407.973,463.771H65.91l13.656,13.656c1.5,1.5,3.531,2.344,5.656,2.344h322.75c4.422,0,8-3.578,8-8    S412.394,463.771,407.973,463.771z" fill="#e3001e"/></g></defs><g fi:class="KUsePattern"><pattern id="pattern_L1_52" width="350" height="350" patternUnits="userSpaceOnUse"><use xlink:href="#L1_52" x="-350" y="-350"/><use xlink:href="#L1_52" x="0" y="-350"/><use xlink:href="#L1_52" x="350" y="-350"/><use xlink:href="#L1_52" x="-350" y="0"/><use xlink:href="#L1_52" x="0" y="0"/><use xlink:href="#L1_52" x="350" y="0"/><use xlink:href="#L1_52" x="-350" y="350"/><use xlink:href="#L1_52" x="0" y="350"/><use xlink:href="#L1_52" x="350" y="350"/></pattern><rect x="0" y="0" width="100%" height="100%" fill="url(#pattern_L1_52)"/></g><g fi:class="KUsePattern"><pattern id="pattern_L1_53" width="350" height="350" patternUnits="userSpaceOnUse"><use xlink:href="#L1_53" x="-350" y="-350"/><use xlink:href="#L1_53" x="0" y="-350"/><use xlink:href="#L1_53" x="350" y="-350"/><use xlink:href="#L1_53" x="-350" y="0"/><use xlink:href="#L1_53" x="0" y="0"/><use xlink:href="#L1_53" x="350" y="0"/><use xlink:href="#L1_53" x="-350" y="350"/><use xlink:href="#L1_53" x="0" y="350"/><use xlink:href="#L1_53" x="350" y="350"/></pattern><rect x="0" y="0" width="100%" height="100%" fill="url(#pattern_L1_53)"/></g><g fi:class="KUsePattern"><pattern id="pattern_L1_55" width="350" height="350" patternUnits="userSpaceOnUse"><use xlink:href="#L1_55" x="-350" y="-350"/><use xlink:href="#L1_55" x="0" y="-350"/><use xlink:href="#L1_55" x="350" y="-350"/><use xlink:href="#L1_55" x="-350" y="0"/><use xlink:href="#L1_55" x="0" y="0"/><use xlink:href="#L1_55" x="350" y="0"/><use xlink:href="#L1_55" x="-350" y="350"/><use xlink:href="#L1_55" x="0" y="350"/><use xlink:href="#L1_55" x="350" y="350"/></pattern><rect x="0" y="0" width="100%" height="100%" fill="url(#pattern_L1_55)"/></g><g fi:class="KUsePattern"><pattern id="pattern_L1_56" width="350" height="350" patternUnits="userSpaceOnUse"><use xlink:href="#L1_56" x="-350" y="-350"/><use xlink:href="#L1_56" x="0" y="-350"/><use xlink:href="#L1_56" x="350" y="-350"/><use xlink:href="#L1_56" x="-350" y="0"/><use xlink:href="#L1_56" x="0" y="0"/><use xlink:href="#L1_56" x="350" y="0"/><use xlink:href="#L1_56" x="-350" y="350"/><use xlink:href="#L1_56" x="0" y="350"/><use xlink:href="#L1_56" x="350" y="350"/></pattern><rect x="0" y="0" width="100%" height="100%" fill="url(#pattern_L1_56)"/></g></svg>