<svg xmlns="http://www.w3.org/2000/svg" xmlns:xlink="http://www.w3.org/1999/xlink" xmlns:fi="http://pattern.flaticon.com/" x="0" y="0" width="700" height="350" viewBox="0 0 700 350"><rect x="0px" y="0px" width="100%" height="100%" opacity="1" fill="#ffffff"/><defs><g transform="matrix(0.09765472263097763 0 0 0.09765472263097763 150 325)" id="L1_396"><path d="M280.01,464.008h-48c-4.422,0-8,3.578-8,8v8c0,17.648,14.352,32,32,32s32-14.352,32-32v-8    C288.01,467.586,284.432,464.008,280.01,464.008z" fill="#f5685d"/><path d="M256.002,464.008H232.01c-4.422,0-8,3.578-8,8v8c0,17.646,14.347,31.995,31.992,31.999    L256.002,464.008L256.002,464.008z" fill="#5c546a"/><path d="M381.983,49.895c-37.391-35.141-86.367-52.742-137.734-49.52    C150.639,6.2,75.014,84.286,72.092,178.149c-2.156,69.547,34.375,133.578,95.344,167.117c15.156,8.344,24.57,24.367,24.57,41.828    v60.914c0,17.648,14.352,32,32,32h64c17.648,0,32-14.352,32-32v-60.914c0-17.445,9.484-33.508,24.766-41.93    c58.742-32.406,95.234-94.156,95.234-161.156C440.006,133.43,418.858,84.547,381.983,49.895z" fill="#ffcd00"/><circle cx="256" cy="184" r="128" fill="#ffe671"/><path d="M283.986,232.008c-10.633,0-16.07-6.203-20.031-10.727c-3.492-3.984-4.883-5.273-8-5.273     c-3.102,0-4.484,1.289-7.961,5.266c-3.734,4.273-9.383,10.734-20.016,10.734c-10.625,0-16.273-6.461-20.008-10.734     c-3.477-3.977-4.859-5.266-7.961-5.266c-4.422,0-8-3.578-8-8s3.578-8,8-8c10.625,0,16.273,6.461,20.008,10.734     c3.477,3.977,4.859,5.266,7.961,5.266s4.492-1.289,7.969-5.266c3.734-4.273,9.383-10.734,20.008-10.734     c10.633,0,16.07,6.203,20.031,10.727c3.492,3.984,4.883,5.273,8,5.273c3.109,0,4.5-1.289,7.992-5.266     c3.742-4.273,9.391-10.734,20.031-10.734c4.422,0,8,3.578,8,8s-3.578,8-8,8c-3.117,0-4.508,1.289-8,5.273     C300.267,225.555,294.619,232.008,283.986,232.008z" fill="#ffffff"/><path d="M232.002,384.008c-3.68,0-6.992-2.555-7.813-6.297l-40-184c-0.938-4.32,1.805-8.578,6.117-9.523     c4.344-0.953,8.578,1.805,9.523,6.117l40,184c0.938,4.32-1.805,8.578-6.117,9.523     C233.135,383.954,232.564,384.008,232.002,384.008z" fill="#5c546a"/><path d="M280.017,384.008c-0.563,0-1.133-0.055-1.711-0.18c-4.313-0.945-7.055-5.203-6.117-9.523l40-184     c0.945-4.313,5.164-7.063,9.523-6.117c4.313,0.945,7.055,5.203,6.117,9.523l-40,184     C287.01,381.454,283.697,384.008,280.017,384.008z" fill="#5c546a"/><path d="M190.633,376.008c0.851,3.593,1.374,7.293,1.374,11.086v60.914c0,17.648,14.352,32,32,32h64    c17.648,0,32-14.352,32-32v-60.914c0-3.79,0.527-7.491,1.384-11.086H190.633z" fill="#b4b6bc"/><path d="M256.002,376.008h-65.369c0.851,3.593,1.374,7.293,1.374,11.086v60.914c0,17.648,14.352,32,32,32    h31.995V376.008z" fill="#f5685d"/><rect x="256px" y="400px" width="64px" height="16px" fill="#f5685d"/><rect x="256px" y="432px" width="64px" height="16px" fill="#f5685d"/><rect x="192px" y="400px" width="64px" height="16px" fill="#5c546a"/><rect x="192px" y="432px" width="64px" height="16px" fill="#5c546a"/></g><g transform="matrix(0.13670994341373444 0 0 0.13670994341373444 315 315)" id="L1_397"><path d="M256.017,160.002c-4.422,0-8-3.582-8-8c0-50.566-7.742-117.113-29.562-138.254     c-3.18-3.074-3.258-8.141-0.18-11.312c3.063-3.184,8.148-3.25,11.305-0.18c31.953,30.953,34.437,122.441,34.437,149.746     C264.017,156.42,260.439,160.002,256.017,160.002z" fill="#7e5c62"/><path d="M368.407,128.092c-28.422-4.332-50.734,2.18-70.406,7.918c-14.07,4.109-27.359,7.992-41.984,7.992    s-27.914-3.883-41.984-7.992c-19.68-5.742-42-12.238-70.406-7.918C96.142,135.334,39.54,162.92,39.54,253.213    c0,85.32,28.312,202.008,108.109,250.078c21.016,12.656,45.125,8.938,70.656,5.023c12.375-1.906,25.172-3.875,37.711-3.875    s25.336,1.969,37.711,3.875c12.25,1.883,24.18,3.719,35.594,3.719c12.367,0,24.141-2.156,35.063-8.742    c79.797-48.07,108.109-164.758,108.109-250.078C472.493,162.92,415.892,135.334,368.407,128.092z" fill="#ff4f19"/><path d="M256.02,144.002h-0.003c-14.625,0-27.914-3.883-41.984-7.992c-19.68-5.742-42-12.238-70.406-7.918    C96.142,135.334,39.54,162.92,39.54,253.213c0,85.32,28.312,202.008,108.109,250.078c21.016,12.656,45.125,8.938,70.656,5.023    c12.375-1.906,25.172-3.875,37.711-3.875h0.003V144.002H256.02z" fill="#e3001e"/><path d="M367.73,21.908c0.946-7.382,0.837-14.378-0.021-20.999c-6.62-0.858-13.617-0.967-20.999-0.021    c-47.93,6.139-91.762,49.971-97.901,97.901c-0.945,7.382-0.837,14.378,0.022,20.998c6.62,0.858,13.617,0.966,20.998,0.021    C317.759,113.669,361.591,69.837,367.73,21.908z" fill="#60dc4d"/><circle cx="383" cy="216" r="40" fill="#ff8c62"/><path d="M367.065,0.866c-6.434-0.785-13.205-0.893-20.354,0.022c-47.93,6.139-91.762,49.97-97.901,97.901    c-0.916,7.149-0.807,13.919-0.022,20.354L367.065,0.866z" fill="#00c37a"/></g><g transform="matrix(0.09765625 0 0 0.09765625 237.5 150)" id="L1_399"><path d="M488,72H24C10.766,72,0,82.766,0,96v320c0,13.234,10.766,24,24,24h464c13.234,0,24-10.766,24-24     V96C512,82.766,501.234,72,488,72z" fill="#ffebb7"/><path d="M40.023,160c-2.164,0-4.242-0.883-5.687-2.32c-1.516-1.52-2.313-3.52-2.313-5.68     c0-2.082,0.797-4.16,2.313-5.68c2.961-2.961,8.32-2.961,11.367,0c1.438,1.52,2.32,3.598,2.32,5.68c0,2.078-0.883,4.16-2.32,5.68     C44.18,159.117,42.102,160,40.023,160z" fill="#00c37a"/><path d="M40,336c-4.422,0-8-3.582-8-8V183.996c0-4.418,3.578-8,8-8s8,3.582,8,8V328     C48,332.418,44.422,336,40,336z" fill="#60dc4d"/><path d="M472,336c-4.422,0-8-3.582-8-8V183.996c0-4.418,3.578-8,8-8s8,3.582,8,8V328     C480,332.418,476.422,336,472,336z" fill="#60dc4d"/><path d="M400,408H112c-4.422,0-8-3.582-8-8s3.578-8,8-8h288c4.422,0,8,3.582,8,8S404.422,408,400,408z" fill="#60dc4d"/><path d="M400,120H112c-4.422,0-8-3.582-8-8s3.578-8,8-8h288c4.422,0,8,3.582,8,8S404.422,120,400,120z" fill="#60dc4d"/><path d="M80.023,120c-2.164,0-4.164-0.883-5.687-2.32c-1.516-1.52-2.313-3.602-2.313-5.68     c0-2.082,0.797-4.16,2.313-5.68c3.047-2.961,8.32-2.961,11.281,0c1.523,1.52,2.406,3.598,2.406,5.68     c0,2.078-0.883,4.16-2.32,5.68C84.18,119.117,82.102,120,80.023,120z" fill="#00c37a"/><path d="M64,144c-2.047,0-4.094-0.781-5.656-2.344l-24-24c-3.125-3.125-3.125-8.188,0-11.313     s8.187-3.125,11.312,0l24,24c3.125,3.125,3.125,8.188,0,11.313C68.094,143.219,66.047,144,64,144z" fill="#00a077"/><path d="M432.023,120c-2.164,0-4.242-0.883-5.688-2.32c-1.516-1.52-2.313-3.602-2.313-5.68     c0-2.082,0.797-4.16,2.313-5.68c2.961-2.961,8.32-2.961,11.281,0c1.523,1.52,2.406,3.598,2.406,5.68     c0,2.078-0.883,4.16-2.32,5.68C436.18,119.117,434.101,120,432.023,120z" fill="#00c37a"/><path d="M472.023,160c-2.164,0-4.242-0.883-5.688-2.32c-1.516-1.52-2.313-3.602-2.313-5.68     c0-2.082,0.797-4.16,2.313-5.68c2.961-2.961,8.406-2.961,11.281,0c1.523,1.52,2.406,3.598,2.406,5.68     c0,2.078-0.883,4.16-2.406,5.68C476.18,159.117,474.101,160,472.023,160z" fill="#00c37a"/><path d="M448,144c-2.047,0-4.094-0.781-5.656-2.344c-3.125-3.125-3.125-8.188,0-11.313l24-24     c3.125-3.125,8.188-3.125,11.313,0s3.125,8.188,0,11.313l-24,24C452.094,143.219,450.047,144,448,144z" fill="#00a077"/><path d="M472.023,368c-2.086,0-4.164-0.883-5.688-2.32c-1.516-1.52-2.313-3.602-2.313-5.68     c0-2.082,0.797-4.16,2.313-5.68c2.961-2.961,8.32-2.961,11.281,0c1.523,1.52,2.406,3.598,2.406,5.68     c0,2.078-0.883,4.16-2.406,5.68C476.18,367.117,474.101,368,472.023,368z" fill="#00c37a"/><path d="M432.023,408c-2.164,0-4.242-0.883-5.688-2.32c-1.516-1.52-2.313-3.52-2.313-5.68     s0.797-4.16,2.313-5.68c2.961-2.961,8.32-2.961,11.281,0c1.523,1.52,2.406,3.598,2.406,5.68c0,2.078-0.883,4.16-2.406,5.68     C436.18,407.117,434.101,408,432.023,408z" fill="#00c37a"/><path d="M472,408c-2.047,0-4.094-0.781-5.656-2.344l-24-24c-3.125-3.125-3.125-8.188,0-11.313     s8.188-3.125,11.313,0l24,24c3.125,3.125,3.125,8.187,0,11.312C476.094,407.219,474.047,408,472,408z" fill="#00a077"/><path d="M80.023,408c-2.086,0-4.164-0.883-5.687-2.32c-1.516-1.52-2.313-3.602-2.313-5.68     c0-2.082,0.797-4.16,2.313-5.68c2.961-2.961,8.32-2.961,11.367,0c1.438,1.52,2.32,3.598,2.32,5.68c0,2.078-0.883,4.16-2.32,5.68     C84.18,407.117,82.102,408,80.023,408z" fill="#00c37a"/><path d="M40.023,368c-2.164,0-4.242-0.883-5.687-2.32c-1.516-1.52-2.313-3.52-2.313-5.68     c0-2.082,0.797-4.16,2.313-5.68c2.961-2.961,8.32-2.961,11.367,0c1.438,1.52,2.32,3.598,2.32,5.68c0,2.078-0.883,4.16-2.32,5.68     C44.18,367.117,42.102,368,40.023,368z" fill="#00c37a"/><path d="M40,408c-2.047,0-4.094-0.781-5.656-2.344c-3.125-3.125-3.125-8.187,0-11.312l24-24     c3.125-3.125,8.187-3.125,11.312,0s3.125,8.188,0,11.313l-24,24C44.094,407.219,42.047,408,40,408z" fill="#00a077"/><path d="M320,168H192c-4.422,0-8-3.582-8-8s3.578-8,8-8h128c4.422,0,8,3.582,8,8S324.422,168,320,168z" fill="#00a077"/><path d="M400,200H112c-4.422,0-8-3.582-8-8s3.578-8,8-8h288c4.422,0,8,3.582,8,8S404.422,200,400,200z" fill="#00a077"/><path d="M288,256H112c-4.422,0-8-3.582-8-8s3.578-8,8-8h176c4.422,0,8,3.582,8,8S292.422,256,288,256z" fill="#c9a07c"/><path d="M240,352H112c-4.422,0-8-3.582-8-8s3.578-8,8-8h128c4.422,0,8,3.582,8,8S244.422,352,240,352z" fill="#c9a07c"/><path d="M272,320H112c-4.422,0-8-3.582-8-8s3.578-8,8-8h160c4.422,0,8,3.582,8,8S276.422,320,272,320z" fill="#c9a07c"/><path d="M208,288h-96c-4.422,0-8-3.582-8-8s3.578-8,8-8h96c4.422,0,8,3.582,8,8S212.422,288,208,288z" fill="#c9a07c"/><path d="M256,288h-16c-4.422,0-8-3.582-8-8s3.578-8,8-8h16c4.422,0,8,3.582,8,8S260.422,288,256,288z" fill="#c9a07c"/><path d="M401.702,302.451l18.383,44.381c1.364,3.292-1.934,6.59-5.226,5.226l-11.983-4.964l-4.964,11.983    c-1.364,3.292-6.027,3.292-7.391,0L371.021,312" fill="#e3001e"/><path d="M349.064,301.757l-18.671,45.075c-1.364,3.292,1.934,6.59,5.226,5.226l11.983-4.964l4.964,11.983    c1.364,3.292,6.027,3.292,7.391,0l19.5-47.078" fill="#ff4f19"/><circle cx="375" cy="272" r="40" fill="#ffcd00"/><path d="M375.781,256c-8.82,0-16,7.176-16,16s7.18,16,16,16s16-7.176,16-16S384.601,256,375.781,256z" fill="#ffe671"/></g><g transform="matrix(0.11713739484548569 0 0 0.11713739484548569 66 141.999999485236)" id="L1_400"><ellipse cx="256px" cy="268px" rx="255px" ry="232px" fill="#7e5c62"/><path d="M302.719,351.445l-40.219-56c-1.508-2.094-3.922-3.336-6.5-3.336c-0.008,0-0.016,0-0.023,0    c-2.578,0.008-5,1.258-6.5,3.367l-39.781,56c-1.781,2.508-1.969,5.828-0.469,8.516l40,72c1.406,2.539,4.086,4.117,6.992,4.117    s5.586-1.578,6.992-4.117l40-72C304.719,357.289,304.523,353.961,302.719,351.445z" fill="#ffcd00"/><path d="M249.476,295.477l-39.781,56c-1.781,2.508-1.969,5.828-0.469,8.516l40,72    c1.37,2.474,3.954,4.009,6.773,4.088V292.109c-0.008,0-0.016,0-0.023,0C253.398,292.117,250.976,293.367,249.476,295.477z" fill="#ff9100"/><path d="M376.004,157.221c-53.829-7.459-101.497,23.404-119.894,69.182    c-18.398-45.779-66.066-76.642-119.896-69.182c-49.922,6.919-89.733,48.001-95.284,98.093    c-7.489,67.585,45.219,124.795,111.289,124.795c41.549,0,77.757-22.652,97.077-56.259c2.989-5.2,10.639-5.2,13.628,0    c19.32,33.607,55.527,56.259,97.076,56.259c66.07,0,118.779-57.211,111.289-124.796    C465.737,205.221,425.926,164.139,376.004,157.221z" fill="#e6be94"/><circle cx="360" cy="268" r="72" fill="#996459"/><circle cx="152" cy="268" r="72" fill="#996459"/><path d="M400,76.109h40c30.875,0,56-25.125,56-56c0-4.422,3.578-8,8-8s8,3.578,8,8v96    c0,39.703-32.297,72-72,72h-96c-44.109,0-80,35.891-80,80c0,4.422-3.578,8-8,8s-8-3.578-8-8v-40    C248,144.297,316.187,76.109,400,76.109z" fill="#996459"/><path d="M112.219,76.109h-40c-30.875,0-56-25.125-56-56c0-4.422-3.578-8-8-8s-8,3.578-8,8v96    c0,39.703,32.297,72,72,72h96c44.109,0,80,35.891,80,80c0,4.422,3.578,8,8,8s8-3.578,8-8v-40    C264.219,144.297,196.031,76.109,112.219,76.109z" fill="#996459"/><g><circle cx="152" cy="268" r="48" fill="#ffcd00"/><circle cx="152" cy="268" r="24" fill="#5c546a"/><circle cx="168" cy="252" r="16" fill="#ffffff"/></g><g><circle cx="360" cy="268" r="48" fill="#ffcd00"/><circle cx="360" cy="268" r="24" fill="#5c546a"/><circle cx="375" cy="252" r="16" fill="#ffffff"/></g><path d="M504.219,12.109c-4.422,0-8,3.578-8,8c0,30.875-25.125,56-56,56h-40    c-67.028,0-123.954,43.663-144.109,103.999C235.954,119.772,179.028,76.109,112,76.109H72c-30.875,0-56-25.125-56-56    c0-4.422-3.578-8-8-8s-8,3.578-8,8v48c0,30.928,25.072,56,56,56h56c54.303,0,101.859,28.707,128.675,71.684    c3.288,5.27,9.202,8.316,15.413,8.316h0.043c6.211,0,12.125-3.046,15.413-8.316c26.816-42.977,74.372-71.684,128.675-71.684h56    c30.928,0,56-25.072,56-56v-48C512.219,15.687,508.64,12.109,504.219,12.109z" fill="#e6be94"/></g></defs><g fi:class="KUsePattern"><pattern id="pattern_L1_396" width="350" height="350" patternUnits="userSpaceOnUse"><use xlink:href="#L1_396" x="-350" y="-350"/><use xlink:href="#L1_396" x="0" y="-350"/><use xlink:href="#L1_396" x="350" y="-350"/><use xlink:href="#L1_396" x="-350" y="0"/><use xlink:href="#L1_396" x="0" y="0"/><use xlink:href="#L1_396" x="350" y="0"/><use xlink:href="#L1_396" x="-350" y="350"/><use xlink:href="#L1_396" x="0" y="350"/><use xlink:href="#L1_396" x="350" y="350"/></pattern><rect x="0" y="0" width="100%" height="100%" fill="url(#pattern_L1_396)"/></g><g fi:class="KUsePattern"><pattern id="pattern_L1_397" width="350" height="350" patternUnits="userSpaceOnUse"><use xlink:href="#L1_397" x="-350" y="-350"/><use xlink:href="#L1_397" x="0" y="-350"/><use xlink:href="#L1_397" x="350" y="-350"/><use xlink:href="#L1_397" x="-350" y="0"/><use xlink:href="#L1_397" x="0" y="0"/><use xlink:href="#L1_397" x="350" y="0"/><use xlink:href="#L1_397" x="-350" y="350"/><use xlink:href="#L1_397" x="0" y="350"/><use xlink:href="#L1_397" x="350" y="350"/></pattern><rect x="0" y="0" width="100%" height="100%" fill="url(#pattern_L1_397)"/></g><g fi:class="KUsePattern"><pattern id="pattern_L1_399" width="350" height="350" patternUnits="userSpaceOnUse"><use xlink:href="#L1_399" x="-350" y="-350"/><use xlink:href="#L1_399" x="0" y="-350"/><use xlink:href="#L1_399" x="350" y="-350"/><use xlink:href="#L1_399" x="-350" y="0"/><use xlink:href="#L1_399" x="0" y="0"/><use xlink:href="#L1_399" x="350" y="0"/><use xlink:href="#L1_399" x="-350" y="350"/><use xlink:href="#L1_399" x="0" y="350"/><use xlink:href="#L1_399" x="350" y="350"/></pattern><rect x="0" y="0" width="100%" height="100%" fill="url(#pattern_L1_399)"/></g><g fi:class="KUsePattern"><pattern id="pattern_L1_400" width="350" height="350" patternUnits="userSpaceOnUse"><use xlink:href="#L1_400" x="-350" y="-350"/><use xlink:href="#L1_400" x="0" y="-350"/><use xlink:href="#L1_400" x="350" y="-350"/><use xlink:href="#L1_400" x="-350" y="0"/><use xlink:href="#L1_400" x="0" y="0"/><use xlink:href="#L1_400" x="350" y="0"/><use xlink:href="#L1_400" x="-350" y="350"/><use xlink:href="#L1_400" x="0" y="350"/><use xlink:href="#L1_400" x="350" y="350"/></pattern><rect x="0" y="0" width="100%" height="100%" fill="url(#pattern_L1_400)"/></g></svg>