<svg xmlns="http://www.w3.org/2000/svg" xmlns:xlink="http://www.w3.org/1999/xlink" xmlns:fi="http://pattern.flaticon.com/" x="0" y="0" width="700" height="350" viewBox="0 0 700 350"><rect x="0px" y="0px" width="100%" height="100%" opacity="1" fill="#ffffff"/><defs><g transform="matrix(0.10775861889123917 0 0 0.10775861889123917 150 325)" id="L1_1318"><path d="M253.456,242.967c-4.499-56.846-12.521-118.363-26.799-150.003l-8.927-7.351   c-4.458-2.363-8.708-1.988-11.186,0.149l-0.448,0.544c14.789,35.071,18.338,100.11,18.052,157.994   C228.808,241.579,234.203,240,240,240C244.808,240,249.365,241.067,253.456,242.967z" fill="#82574a"/><path d="M248.506,352.773c3.419-0.272,6.875-0.476,10.366-0.604c-0.387-17.155-1.297-46.614-3.375-80.169   h-31.763c-0.886,36.007-2.912,66.24-3.949,80.024c1.402-0.015,2.807-0.024,4.216-0.024   C232.312,352,240.491,352.266,248.506,352.773z" fill="#82574a"/><path d="M224,352c8.15,0,16.127,0.324,23.991,0.816c0.172-0.014,0.343-0.029,0.515-0.042   C240.491,352.266,232.312,352,224,352z" fill="#ffb996"/><path d="M247.991,352.816c0.171,0.011,0.344,0.019,0.515,0.03c-50.671,4.041-93.02,23.531-112.892,50.204   c3.134,2.26,5.701,4.951,11.811,4.951c10.547,0,10.547-8,21.093-8c10.535,0,10.535,8,21.07,8c10.547,0,10.547-8,21.094-8   c10.541,0,10.541,8,21.083,8c10.551,0,10.551-8,21.103-8c10.545,0,10.545,8,21.09,8c10.55,0,10.55-8,21.1-8   c10.555,0,10.555,8,21.109,8c10.532,0,10.532-8,21.064-8c10.546,0,10.546,8,21.092,8c10.558,0,10.558-8,21.116-8   c10.56,0,10.56,8,21.119,8c1.136,0,2.144-0.097,3.062-0.262C383.236,375.198,330.208,352,268,352c-3.066,0-6.109,0.058-9.128,0.169   c-3.491,0.128-6.947,0.332-10.366,0.604C248.334,352.787,248.163,352.802,247.991,352.816z" fill="#ffdeb4"/><path d="M63.151,408c10.539,0,10.539-8,21.077-8c10.537,0,10.537,8,21.073,8c10.527,0,10.527-8,21.055-8   c4.424,0,6.989,1.412,9.258,3.049c19.872-26.673,62.221-46.163,112.892-50.204c-0.171-0.011-0.344-0.019-0.515-0.03   C240.127,352.324,232.15,352,224,352c-1.409,0-2.814,0.009-4.216,0.024c-6.494,0.069-12.904,0.298-19.212,0.679   c-49.854,3.013-93.381,15.513-122.107,33.519c-0.737,0.462-1.463,0.927-2.18,1.396c-5.019,3.282-9.553,6.738-13.556,10.346   c-1.715,1.546-3.332,3.12-4.848,4.72c-0.966,1.019-1.887,2.05-2.769,3.089C57.11,407.033,59.495,408,63.151,408z" fill="#ffc986"/><path d="M217.73,85.613l8.927,7.351l120.49,99.227c0-23.734-5.693-42.443-14.747-57.191H296   c0-10.902,8.447-19.811,19.151-20.59c-29.43-26.421-71.501-32.496-91.93-33.852L360,67.322   c-53.376-53.376-112.382-16.079-136.727,3.919c29.394-49.392,67.874-63.081,67.874-63.081   c-42.961-11.96-65.044,9.097-75.292,33.012c-8.947-22.403-30.605-43.302-76.709-40.997c0,0,35.202,17.468,63.141,69.772   c-25.258-20.246-82.906-54.861-135.141-2.625l135.911,13.153c-107.66,6.221-103.911,135.7-103.911,135.7l106.95-129.868   l0.448-0.544C209.022,83.625,213.272,83.25,217.73,85.613z" fill="#8ce696"/><path d="M296,135h36.4h46.267c0-17.121-13.879-31-31-31c-9.749,0-18.339,4.59-24.022,11.626   c-2.189-0.79-4.517-1.293-6.978-1.293c-0.512,0-1.014,0.04-1.516,0.077C304.447,115.189,296,124.098,296,135z" fill="#cceffc"/><path d="M189,168c-8.491,0-15.973,3.998-20.922,10.126C166.171,177.438,164.143,177,162,177   c-9.941,0-18,8.058-18,18h72C216,180.088,203.912,168,189,168z" fill="#cceffc"/><path d="M272,272c0-12.865-7.596-23.95-18.544-29.033c-4.092-1.9-8.648-2.967-13.456-2.967   c-5.797,0-11.192,1.579-15.85,4.301c-3.428,2.003-6.459,4.622-8.946,7.701c-2.26-0.815-4.663-1.335-7.203-1.335   c-7.009,0-13.209,3.395-17.098,8.614c4.248,3.579,7.862,7.883,10.661,12.719h22.171h31.763H272z" fill="#9edcf1"/><path d="M325.72,295.418c-2.683-0.968-5.537-1.585-8.554-1.585c-13.991,0-25.333,11.342-25.333,25.333   h101.333c0-20.987-17.013-38-38-38C343.217,281.167,332.687,286.793,325.72,295.418z" fill="#9edcf1"/><path d="M190.902,259.281C182.551,252.246,171.774,248,160,248c-15.095,0-28.396,7.107-37.195,18.002   C119.415,264.779,115.811,264,112,264c-17.673,0-32,14.326-32,32h128c0-8.746-2.351-16.938-6.438-24   C198.764,267.163,195.15,262.86,190.902,259.281z" fill="#cceffc"/><path d="M442.842,408c-10.579,0-10.579-8-21.158-8c-9.426,0-10.446,6.367-18.063,7.738   c-0.918,0.165-1.926,0.262-3.062,0.262c-10.559,0-10.559-8-21.119-8c-10.558,0-10.558,8-21.116,8c-10.546,0-10.546-8-21.092-8   c-10.532,0-10.532,8-21.064,8c-10.555,0-10.555-8-21.109-8c-10.55,0-10.55,8-21.1,8c-10.545,0-10.545-8-21.09-8   c-10.551,0-10.551,8-21.103,8c-10.541,0-10.541-8-21.083-8c-10.547,0-10.547,8-21.094,8c-10.535,0-10.535-8-21.07-8   c-10.547,0-10.547,8-21.093,8c-6.11,0-8.678-2.691-11.811-4.951c-2.269-1.637-4.834-3.049-9.258-3.049c-10.527,0-10.527,8-21.055,8   c-10.537,0-10.537-8-21.073-8c-10.539,0-10.539,8-21.077,8c-3.656,0-6.041-0.967-8.039-2.228C51.36,403.405,48.974,400,42.108,400   c-10.517,0-10.517,8-21.033,8c-10.538,0-10.538-8-21.075-8v24c10.538,0,10.538,8,21.075,8c10.517,0,10.517-8,21.033-8   c10.521,0,10.521,8,21.043,8c10.539,0,10.539-8,21.077-8c10.537,0,10.537,8,21.073,8c10.527,0,10.527-8,21.055-8   c10.535,0,10.535,8,21.069,8c10.546,0,10.546-8,21.093-8c10.535,0,10.535,8,21.069,8c10.547,0,10.547-8,21.095-8   c10.541,0,10.541,8,21.083,8c10.551,0,10.551-8,21.103-8c10.545,0,10.545,8,21.089,8c10.55,0,10.55-8,21.101-8   c10.555,0,10.555,8,21.109,8c10.532,0,10.532-8,21.064-8c10.546,0,10.546,8,21.092,8c10.558,0,10.558-8,21.116-8   c10.56,0,10.56,8,21.119,8c10.563,0,10.563-8,21.125-8c10.579,0,10.579,8,21.159,8c10.579,0,10.579-8,21.158-8v-24   C453.421,400,453.421,408,442.842,408z" fill="#95dcec"/><path d="M421.683,424c-10.562,0-10.562,8-21.125,8c-10.56,0-10.56-8-21.119-8c-10.558,0-10.558,8-21.116,8   c-10.546,0-10.546-8-21.092-8c-10.532,0-10.532,8-21.064,8c-10.554,0-10.554-8-21.109-8c-10.55,0-10.55,8-21.101,8   c-10.544,0-10.544-8-21.089-8c-10.551,0-10.551,8-21.103,8c-10.542,0-10.542-8-21.083-8c-10.547,0-10.547,8-21.095,8   c-10.535,0-10.535-8-21.069-8c-10.547,0-10.547,8-21.093,8c-10.535,0-10.535-8-21.069-8c-10.527,0-10.527,8-21.055,8   c-10.537,0-10.537-8-21.073-8c-10.539,0-10.539,8-21.077,8c-10.521,0-10.521-8-21.043-8c-10.517,0-10.517,8-21.033,8   c-10.538,0-10.538-8-21.075-8v8c0,1.104,0.056,2.196,0.165,3.272c0.247,2.427,0.773,4.769,1.531,7.004   c0.141,0.415,0.289,0.826,0.446,1.234c0.207,0.536,0.428,1.065,0.663,1.587c0.319,0.71,0.656,1.41,1.024,2.091   c0.076,0.14,0.157,0.276,0.234,0.415c0.798,1.425,1.702,2.781,2.701,4.061c0.304,0.39,0.617,0.772,0.938,1.147   c1.151,1.343,2.408,2.591,3.764,3.727c0.613,0.513,1.247,1.001,1.898,1.468c0.773,0.555,1.57,1.077,2.393,1.563   c0.471,0.278,0.95,0.543,1.436,0.798c0.724,0.379,1.461,0.735,2.216,1.058c0.212,0.091,0.428,0.175,0.643,0.261   c3.21,1.293,6.674,2.089,10.302,2.273C30.899,463.986,31.448,464,32,464h400c1.105,0,2.196-0.056,3.272-0.165   c2.901-0.295,5.684-0.985,8.304-2.002c0.56-0.218,1.112-0.45,1.657-0.698c0.455-0.207,0.904-0.424,1.348-0.652   c2.983-1.53,5.699-3.507,8.047-5.855c0.418-0.418,0.821-0.851,1.215-1.291c0.833-0.93,1.609-1.912,2.33-2.936   c0.634-0.9,1.224-1.833,1.764-2.799c0.733-1.31,1.375-2.677,1.921-4.093c0.157-0.407,0.305-0.819,0.446-1.234   c0.758-2.236,1.284-4.578,1.531-7.004c0.109-1.076,0.165-2.167,0.165-3.272v-8c-10.579,0-10.579,8-21.158,8   C432.262,432,432.262,424,421.683,424z" fill="#82c8dc"/></g><g transform="matrix(0.10775861889123917 0 0 0.10775861889123917 62.5 150)" id="L1_1319"><path d="M448,64H232v336h216c8.837,0,16-7.163,16-16V80C464,71.163,456.837,64,448,64z M296,136   c0-4.418,3.582-8,8-8h88c4.418,0,8,3.582,8,8l0,0c0,4.418-3.582,8-8,8h-88C299.582,144,296,140.418,296,136L296,136z M288,160h120   c4.418,0,8,3.582,8,8s-3.582,8-8,8H288c-4.418,0-8-3.582-8-8S283.582,160,288,160z M424,320H272c-4.418,0-8-3.582-8-8s3.582-8,8-8   h152c4.418,0,8,3.582,8,8S428.418,320,424,320z M424,288H272c-4.418,0-8-3.582-8-8s3.582-8,8-8h152c4.418,0,8,3.582,8,8   S428.418,288,424,288z M424,256H272c-4.418,0-8-3.582-8-8s3.582-8,8-8h152c4.418,0,8,3.582,8,8S428.418,256,424,256z M424,224H272   c-4.418,0-8-3.582-8-8s3.582-8,8-8h152c4.418,0,8,3.582,8,8S428.418,224,424,224z" fill="#ffebe1"/><path d="M0.325,387.225c1.279,6.249,6.201,11.172,12.45,12.45C6.526,398.396,1.604,393.474,0.325,387.225z" fill="#ffebe1"/><path d="M16,64c-1.105,0-2.183,0.112-3.225,0.325c-0.711,0.146-1.398,0.355-2.071,0.591   c-4.654,1.635-8.32,5.348-9.879,10.037c-0.113,0.339-0.207,0.685-0.297,1.033C0.195,77.271,0,78.611,0,80v304   c0,1.105,0.112,2.183,0.325,3.225c1.279,6.249,6.201,11.172,12.45,12.45C13.817,399.888,14.895,400,16,400h216V64H16z M116,294.545   c-31.862-14.979-67.2-51.692-67.2-82.238c0-22.061,17.637-39.944,39.393-39.944c10.855,0,20.682,4.454,27.807,11.655   c7.125-7.201,16.952-11.655,27.807-11.655c21.756,0,39.393,17.884,39.393,39.944C183.2,242.853,147.862,279.567,116,294.545z" fill="#e86464"/><path d="M304,144h88c4.418,0,8-3.582,8-8l0,0c0-4.418-3.582-8-8-8h-88c-4.418,0-8,3.582-8,8l0,0   C296,140.418,299.582,144,304,144z" fill="#e86464"/><path d="M288,176h120c4.418,0,8-3.582,8-8s-3.582-8-8-8H288c-4.418,0-8,3.582-8,8S283.582,176,288,176z" fill="#e86464"/><path d="M424,208H272c-4.418,0-8,3.582-8,8s3.582,8,8,8h152c4.418,0,8-3.582,8-8S428.418,208,424,208z" fill="#d2555d"/><path d="M424,304H272c-4.418,0-8,3.582-8,8s3.582,8,8,8h152c4.418,0,8-3.582,8-8S428.418,304,424,304z" fill="#d2555d"/><path d="M424,240H272c-4.418,0-8,3.582-8,8s3.582,8,8,8h152c4.418,0,8-3.582,8-8S428.418,240,424,240z" fill="#d2555d"/><path d="M424,272H272c-4.418,0-8,3.582-8,8s3.582,8,8,8h152c4.418,0,8-3.582,8-8S428.418,272,424,272z" fill="#d2555d"/><path d="M143.807,172.364c-10.855,0-20.682,4.454-27.807,11.655c-7.125-7.201-16.952-11.655-27.807-11.655   c-21.756,0-39.393,17.884-39.393,39.944c0,30.546,35.339,67.259,67.2,82.238c31.862-14.979,67.2-51.692,67.2-82.238   C183.2,190.247,165.563,172.364,143.807,172.364z" fill="#ffd76e"/></g><g transform="matrix(0.15217390656471252 0 0 0.15217390656471252 315 315)" id="L1_1320"><path d="M306.443,271.769l16.293-4.889c4.351-1.305,4.351-4.458,0-5.764l-16.101-4.831   c0.212,1.486,0.328,3.001,0.328,4.541C306.963,264.338,306.793,268.006,306.443,271.769z" fill="#6e4141"/><path d="M143.221,302.107c4.116,9.995,10.683,18.891,18.779,26.446v0   C153.904,320.998,147.337,312.102,143.221,302.107z" fill="#ffe6d2"/><path d="M188.427,307.271c-6.189,0.33-12.218-0.039-17.771-0.78c10.56,21.151,32.127,36.911,55.343,44.489   v-49.316C213.655,307.363,200.26,308.277,188.427,307.271z" fill="#ffe6d2"/><path d="M170,335.222L170,335.222c13.872,10.338,30.751,17.254,47.336,19.745   C200.751,352.476,183.872,345.56,170,335.222z" fill="#ffe6d2"/><path d="M290,322.645v-0.078c-10.252,16.235-25.632,28.962-47.333,32.388c0.04,0.006,0.08,0.014,0.12,0.02   c-2.837,0.454-5.748,0.799-8.787,0.946v0.01C260.359,354.895,278.435,340.99,290,322.645z" fill="#ffe6d2"/><path d="M226,355.848L226,355.848c-2.868-0.16-5.76-0.445-8.664-0.881   C220.24,355.403,223.132,355.688,226,355.848z" fill="#ffe6d2"/><path d="M290,300.875V260c0-9.528-0.353-18.884-1.019-27.992c-4.156-2.03-8.815-3.172-13.736-3.172   c2.345,0,4.615,0.298,6.815,0.789c-14.258,2.446-23.753,13.891-25.844,30.935c-0.843,6.869-3.468,14.138-7.542,20.765   c2.966,4.337,5.037,7.744,6.245,9.826c0.856,1.475,1.284,3.153,1.284,4.908v0.034c0,5.474-4.263,9.727-9.155,9.082   c-3.571-0.471-8.027-1.157-13.049-2.132v50.205c0.028,0.007,0.056,0.014,0.084,0.021C241.868,327.169,263.227,306.974,290,300.875z    M281.584,248.138c3.504,0,6.345,2.841,6.345,6.345s-2.841,6.345-6.345,6.345c-3.504,0-6.345-2.841-6.345-6.345   S278.08,248.138,281.584,248.138z" fill="#ffe6d2"/><path d="M306.963,260.827c0-1.541-0.116-3.056-0.328-4.541c-1.012-7.091-4.356-13.464-9.228-18.282   C297.791,245.188,298,252.523,298,260v39.489c0.926-0.109,1.856-0.206,2.792-0.281c-0.836,2.574-1.769,5.129-2.792,7.651v0.063   c4.684-11.544,7.389-23.791,8.443-35.153C306.793,268.006,306.963,264.338,306.963,260.827z" fill="#ffe6d2"/><circle cx="281" cy="254" r="6" fill="#6e4141"/><path d="M143.221,302.107c4.116,9.995,10.683,18.891,18.779,26.445v-23.598   c-11.865-2.505-20.003-6.059-20.003-6.059C142.377,299.979,142.786,301.049,143.221,302.107z" fill="#ffd7b4"/><path d="M226,355.848v-4.868c-23.216-7.578-44.783-23.338-55.343-44.489   c-0.007-0.014-0.015-0.028-0.022-0.042c-0.213-0.029-0.423-0.06-0.635-0.09v28.863c13.872,10.338,30.751,17.254,47.336,19.745   C220.24,355.403,223.132,355.688,226,355.848z" fill="#ffd7b4"/><path d="M242.667,354.955c21.702-3.426,37.081-16.154,47.333-32.388v-21.692   c-26.773,6.099-48.132,26.294-55.916,52.395c-0.028-0.007-0.056-0.014-0.084-0.021v2.672c3.039-0.147,5.95-0.492,8.787-0.946   C242.747,354.969,242.707,354.961,242.667,354.955z" fill="#ffd7b4"/><path d="M217.617,299.186c-0.394,0.224-0.788,0.449-1.185,0.662c-0.15,0.081-0.302,0.157-0.452,0.236   c-0.438,0.23-0.877,0.457-1.318,0.674c-0.139,0.069-0.279,0.135-0.418,0.202c-0.486,0.235-0.974,0.464-1.464,0.683   c-0.075,0.034-0.15,0.068-0.226,0.101c-7.992,3.542-16.402,5.101-24.53,5.494c0.133,0.012,0.27,0.019,0.404,0.031   c11.833,1.006,25.227,0.092,37.573-5.607v-0.33C223.294,300.702,220.488,299.988,217.617,299.186z" fill="#ffd7b4"/><path d="M243.527,260.294c-0.109,0.891-0.248,1.79-0.417,2.692c-0.481,2.581-1.209,5.198-2.15,7.798   c3.036,3.893,5.602,7.453,7.715,10.541c4.074-6.627,6.699-13.896,7.542-20.765c2.091-17.044,11.585-28.489,25.844-30.935   c-2.2-0.491-4.47-0.789-6.815-0.789C257.725,228.837,245.894,241,243.527,260.294z" fill="#ffd7b4"/><path d="M176.259,280.759c12.706,8.824,27.758,14.628,41.357,18.427c2.871,0.802,5.677,1.516,8.383,2.148   v-47.858c-13.096-13.714-30.643-28.719-53.012-41.134C171.053,227.43,170,243.46,170,260v5.869   c5.867,3.246,14.723,6.515,16.738,8.552C187.527,275.219,174.847,279.778,176.259,280.759z" fill="#ebc3a5"/><path d="M162.036,255.381c0.181-16.478,1.323-32.27,3.301-47.08c-7.306-3.674-15.078-7.057-23.339-10.025   C141.997,198.276,150.016,227.392,162.036,255.381z" fill="#ebc3a5"/><path d="M256.204,296.094v-0.034c0-1.755-0.429-3.433-1.284-4.908c-1.208-2.082-3.279-5.489-6.245-9.826   c-2.112-3.088-4.679-6.648-7.715-10.541c-2.094-2.686-4.416-5.531-6.96-8.487v40.746c5.022,0.975,9.478,1.662,13.049,2.132   C251.942,305.821,256.204,301.569,256.204,296.094z" fill="#ebc3a5"/><path d="M74,260c0-65.298,40.373-121.273,97.433-144.49C132.521,143.211,106,197.574,106,260v168h8V260   c0-73.963,38.516-135.939,89.964-151.893c-18.366,17.88-32.499,54.308-38.627,100.194c-1.978,14.81-3.12,30.602-3.301,47.08   C162.019,256.917,162,258.452,162,260v44.955v23.598v0V428h8v-92.778v0V306.36v-40.49V260c0-16.54,1.053-32.57,2.988-47.658   c7.55-58.852,28.546-103.357,53.012-107.797v148.931v47.858v0.33v49.316v4.868l0,0V428h8v-72.069v-0.01v-2.672v-50.205v-40.746   V104.545c27.125,4.923,49.981,59.094,54.981,127.463C289.647,241.116,290,250.472,290,260v40.875v21.692v0.078V428h8V306.922   v-0.063v-7.37V260c0-7.477-0.209-14.812-0.593-21.997c-3.187-59.68-19.195-108.306-41.371-129.897   C307.484,124.061,346,186.037,346,260v168h8V260c0-62.426-26.521-116.789-65.433-144.49C345.627,138.727,386,194.702,386,260v168h8   V260c0-85.599-65.947-155.988-149.689-163.275c22.76-14.767,43.533-39.854,43.533-61.342C287.844,15.875,271.969,0,252.461,0   c-8.148,0-15.891,2.742-22.156,7.789C224.047,2.742,216.313,0,208.156,0c-19.516,0-35.391,15.875-35.391,35.383   c0,21.469,20.748,46.538,43.493,61.313C132.25,103.714,66,174.208,66,260v168h8V260z M180.766,35.383   C180.766,20.281,193.055,8,208.156,8c7.297,0,14.156,2.836,19.32,7.992l2.828,2.813l2.82-2.813C238.305,10.836,245.164,8,252.461,8   c15.102,0,27.383,12.281,27.383,27.383c0,21.445-25.766,48.484-49.539,60.188C206.531,83.859,180.766,56.828,180.766,35.383z" fill="#ffd796"/><path d="M398,460H214c-8.837,0-16-7.163-16-16c0-8.835,7.161-15.998,15.996-16H170h-8h-48h-8H74h-8h-4   c-8.837,0-16,7.163-16,16s7.163,16,16,16L398,460c8.836,0,16-7.163,16-16v0C414,452.836,406.837,460,398,460z" fill="#6b3c41"/><path d="M354,428h-8h-48h-8h-56h-8h-12c-0.001,0-0.002,0-0.004,0c-8.835,0.002-15.996,7.164-15.996,16   c0,8.837,7.163,16,16,16h184c8.836,0,16-7.164,16-16v0c0-8.837-7.163-16-16-16h-4h-8H354z" fill="#7d5050"/></g><g transform="matrix(0.10775861889123917 0 0 0.10775861889123917 237.5 150)" id="L1_1321"><path d="M48,208c-4.418,0-8,3.582-8,8s3.582,8,8,8h50.112c-0.932-5.235-1.557-10.576-1.871-16H48z" fill="#c88c73"/><path d="M416,224c4.418,0,8-3.582,8-8s-3.582-8-8-8h-48.24c-0.315,5.424-0.939,10.765-1.871,16H416z" fill="#c88c73"/><path d="M359.083,248.509c-17.105,1.906-32.6,9.216-44.724,20.193l20.393,20.393   C345.077,277.199,353.362,263.488,359.083,248.509z" fill="#9edcf1"/><path d="M175.897,323.923c-0.959-19.018-8.594-36.305-20.599-49.564l-20.622,20.622   C146.424,307.017,160.379,316.887,175.897,323.923z" fill="#9edcf1"/><path d="M329.324,294.981l-20.622-20.622c-12.006,13.259-19.64,30.546-20.599,49.564   C303.621,316.887,317.576,307.017,329.324,294.981z" fill="#9edcf1"/><path d="M184,289.654V96c0-13.255,10.745-24,24-24h48c13.255,0,24,10.745,24,24v193.654   c14.348-32.801,46.51-56.091,84.183-57.572c0.645-2.666,1.22-5.358,1.705-8.083c0.932-5.235,1.557-10.576,1.871-16   c0.154-2.648,0.24-5.313,0.24-8V56H96v144c0,2.686,0.087,5.352,0.24,8c0.315,5.424,0.939,10.765,1.871,16   c0.485,2.724,1.06,5.417,1.705,8.083C137.49,233.563,169.652,256.854,184,289.654z M296,96c0-4.418,3.582-8,8-8h40   c4.418,0,8,3.582,8,8v72c0,17.673-14.327,32-32,32h-16c-4.418,0-8-3.582-8-8V96z M144,200c-17.673,0-32-14.327-32-32V96   c0-4.418,3.582-8,8-8h40c4.418,0,8,3.582,8,8v96c0,4.418-3.582,8-8,8H144z" fill="#9edcf1"/><path d="M149.641,268.703c-12.124-10.978-27.619-18.287-44.724-20.193   c5.721,14.979,14.006,28.69,24.33,40.587L149.641,268.703z" fill="#9edcf1"/><path d="M256,72h-48c-13.255,0-24,10.745-24,24v193.654c4.124,9.428,6.776,19.639,7.664,30.346h80.672   c0.887-10.706,3.54-20.918,7.664-30.346V96C280,82.745,269.255,72,256,72z M264,192c0,4.418-3.582,8-8,8h-48c-4.418,0-8-3.582-8-8   V96c0-4.418,3.582-8,8-8h48c4.418,0,8,3.582,8,8V192z" fill="#82c8dc"/><path d="M256,88h-48c-4.418,0-8,3.582-8,8v96c0,4.418,3.582,8,8,8h48c4.418,0,8-3.582,8-8V96   C264,91.582,260.418,88,256,88z" fill="#6e8caa"/><path d="M304,200h16c17.673,0,32-14.327,32-32V96c0-4.418-3.582-8-8-8h-40c-4.418,0-8,3.582-8,8v96   C296,196.418,299.582,200,304,200z" fill="#6e8caa"/><path d="M168,192V96c0-4.418-3.582-8-8-8h-40c-4.418,0-8,3.582-8,8v72c0,17.673,14.327,32,32,32h16   C164.418,200,168,196.418,168,192z" fill="#6e8caa"/><path d="M376,48c0-4.418-3.582-8-8-8H96c-4.418,0-8,3.582-8,8s3.582,8,8,8h272C372.418,56,376,52.418,376,48   z" fill="#c88c73"/><path d="M96,352c-1.364,0-2.699-0.12-4-0.338v56.237c1.325,0.066,2.659,0.102,4,0.102s2.675-0.036,4-0.102   v-56.237C98.699,351.88,97.364,352,96,352z" fill="#823c41"/><path d="M96,304c1.364,0,2.699,0.12,4,0.338v-56.237c-1.325-0.066-2.659-0.102-4-0.102s-2.675,0.036-4,0.102   v56.237C93.301,304.12,94.636,304,96,304z" fill="#823c41"/><path d="M72,328c0-1.364,0.12-2.698,0.338-4H16.102c-0.066,1.325-0.102,2.659-0.102,4s0.036,2.675,0.102,4   h56.237C72.12,330.698,72,329.364,72,328z" fill="#823c41"/><path d="M120,328c0,1.364-0.12,2.698-0.338,4h56.237c0.066-1.325,0.102-2.659,0.102-4s-0.036-2.675-0.102-4   h-56.237C119.88,325.302,120,326.636,120,328z" fill="#823c41"/><path d="M109.901,308.442c2.187,1.557,4.1,3.47,5.657,5.657l19.118-19.118l20.622-20.622   c-1.791-1.978-3.679-3.866-5.657-5.657l-20.393,20.393L109.901,308.442z" fill="#823c41"/><path d="M76.442,341.901l-39.739,39.74c1.791,1.978,3.679,3.866,5.657,5.657l39.739-39.739   C79.912,346.001,77.999,344.088,76.442,341.901z" fill="#823c41"/><path d="M82.099,308.442l-39.739-39.739c-1.978,1.791-3.866,3.679-5.657,5.657l39.739,39.74   C77.999,311.912,79.912,309.999,82.099,308.442z" fill="#823c41"/><path d="M109.901,347.558l39.739,39.739c1.978-1.791,3.866-3.679,5.657-5.657l-39.739-39.74   C114.001,344.088,112.088,346.001,109.901,347.558z" fill="#823c41"/><path d="M119.662,324c-0.612-3.646-2.045-7.01-4.104-9.901c-1.557-2.187-3.47-4.1-5.657-5.657   c-2.891-2.059-6.256-3.492-9.901-4.104C98.699,304.12,97.364,304,96,304s-2.699,0.12-4,0.338c-3.646,0.612-7.01,2.045-9.901,4.104   c-2.187,1.557-4.1,3.47-5.657,5.657c-2.059,2.891-3.492,6.256-4.104,9.901C72.12,325.302,72,326.636,72,328s0.12,2.698,0.338,4   c0.612,3.646,2.045,7.01,4.104,9.901c1.557,2.187,3.47,4.1,5.657,5.657c2.891,2.059,6.256,3.492,9.901,4.104   c1.301,0.218,2.636,0.338,4,0.338s2.699-0.12,4-0.338c3.646-0.612,7.01-2.045,9.901-4.104c2.187-1.557,4.1-3.47,5.657-5.657   c2.059-2.891,3.492-6.256,4.104-9.901c0.218-1.302,0.338-2.636,0.338-4S119.88,325.302,119.662,324z M88,328c0-4.418,3.582-8,8-8   s8,3.582,8,8s-3.582,8-8,8S88,332.418,88,328z" fill="#c88c73"/><circle cx="96" cy="328" r="8" fill="#823c41"/><path d="M368,352c-1.364,0-2.699-0.12-4-0.338v56.237c1.325,0.066,2.659,0.102,4,0.102s2.675-0.036,4-0.102   v-56.237C370.699,351.88,369.364,352,368,352z" fill="#823c41"/><path d="M368,304c1.364,0,2.699,0.12,4,0.338v-56.237c-1.325-0.066-2.659-0.102-4-0.102   s-2.675,0.036-4,0.102v56.237C365.301,304.12,366.636,304,368,304z" fill="#823c41"/><path d="M344,328c0-1.364,0.12-2.698,0.338-4h-56.237c-0.066,1.325-0.102,2.659-0.102,4s0.036,2.675,0.102,4   h56.237C344.12,330.698,344,329.364,344,328z" fill="#823c41"/><path d="M392,328c0,1.364-0.12,2.698-0.338,4h56.237c0.066-1.325,0.102-2.659,0.102-4s-0.036-2.675-0.102-4   h-56.237C391.88,325.302,392,326.636,392,328z" fill="#823c41"/><path d="M348.442,341.901l-39.739,39.74c1.791,1.978,3.679,3.866,5.657,5.657l39.739-39.739   C351.912,346.001,349.999,344.088,348.442,341.901z" fill="#823c41"/><path d="M387.558,314.099l39.739-39.74c-1.791-1.978-3.679-3.866-5.657-5.657l-39.739,39.739   C384.088,309.999,386.001,311.912,387.558,314.099z" fill="#823c41"/><path d="M348.442,314.099c1.557-2.187,3.47-4.1,5.657-5.657l-19.346-19.346l-20.393-20.393   c-1.978,1.791-3.866,3.679-5.657,5.657l20.622,20.622L348.442,314.099z" fill="#823c41"/><path d="M381.901,347.558l39.739,39.739c1.978-1.791,3.866-3.679,5.657-5.657l-39.739-39.74   C386.001,344.088,384.088,346.001,381.901,347.558z" fill="#823c41"/><path d="M391.662,324c-0.612-3.646-2.045-7.01-4.104-9.901c-1.557-2.187-3.47-4.1-5.657-5.657   c-2.891-2.059-6.256-3.492-9.901-4.104c-1.301-0.218-2.636-0.338-4-0.338s-2.699,0.12-4,0.338c-3.646,0.612-7.01,2.045-9.901,4.104   c-2.187,1.557-4.1,3.47-5.657,5.657c-2.059,2.891-3.492,6.256-4.104,9.901c-0.218,1.302-0.338,2.636-0.338,4s0.12,2.698,0.338,4   c0.612,3.646,2.045,7.01,4.104,9.901c1.557,2.187,3.47,4.1,5.657,5.657c2.891,2.059,6.256,3.492,9.901,4.104   c1.301,0.218,2.636,0.338,4,0.338s2.699-0.12,4-0.338c3.646-0.612,7.01-2.045,9.901-4.104c2.187-1.557,4.1-3.47,5.657-5.657   c2.059-2.891,3.492-6.256,4.104-9.901c0.218-1.302,0.338-2.636,0.338-4S391.88,325.302,391.662,324z M360,328c0-4.418,3.582-8,8-8   s8,3.582,8,8s-3.582,8-8,8S360,332.418,360,328z" fill="#c88c73"/><circle cx="368" cy="328" r="8" fill="#823c41"/><path d="M368,232c-1.279,0-2.55,0.033-3.817,0.083c-37.674,1.481-69.836,24.771-84.183,57.572   c-4.124,9.428-6.776,19.639-7.664,30.346h-80.672c-0.887-10.706-3.54-20.918-7.664-30.346   c-14.348-32.801-46.51-56.091-84.183-57.572C98.55,232.033,97.279,232,96,232c-52.934,0-96,43.063-96,96s43.066,96,96,96   c50.24,0,91.585-38.792,95.664-88H232h0h40.336c4.079,49.208,45.424,88,95.664,88c52.934,0,96-43.063,96-96S420.934,232,368,232z    M155.297,381.641c-1.791,1.978-3.679,3.866-5.657,5.657c-13.276,12.021-30.592,19.658-49.641,20.601   c-1.325,0.066-2.659,0.102-4,0.102s-2.675-0.036-4-0.102c-19.049-0.943-36.364-8.58-49.641-20.601   c-1.978-1.791-3.866-3.679-5.657-5.657C24.681,368.364,17.044,351.048,16.102,332c-0.066-1.325-0.102-2.659-0.102-4   s0.036-2.675,0.102-4c0.943-19.048,8.579-36.364,20.601-49.641c1.791-1.978,3.679-3.866,5.657-5.657   C55.636,256.681,72.951,249.044,92,248.102c1.325-0.066,2.659-0.102,4-0.102s2.675,0.036,4,0.102   c1.654,0.082,3.291,0.226,4.917,0.408c17.105,1.906,32.6,9.216,44.724,20.193c1.978,1.791,3.866,3.679,5.657,5.657   c12.006,13.259,19.64,30.546,20.599,49.564c0.001,0.025,0.001,0.051,0.002,0.077c0.066,1.325,0.102,2.659,0.102,4   s-0.036,2.675-0.102,4C174.956,351.048,167.319,368.364,155.297,381.641z M427.297,381.641c-1.791,1.978-3.679,3.866-5.657,5.657   c-13.276,12.021-30.592,19.658-49.641,20.601c-1.325,0.066-2.659,0.102-4,0.102s-2.675-0.036-4-0.102   c-19.049-0.943-36.364-8.58-49.641-20.601c-1.978-1.791-3.866-3.679-5.657-5.657c-12.022-13.277-19.658-30.593-20.601-49.641   c-0.066-1.325-0.102-2.659-0.102-4s0.036-2.675,0.102-4c0.001-0.025,0.001-0.051,0.002-0.077   c0.959-19.018,8.594-36.305,20.599-49.564c1.791-1.978,3.679-3.866,5.657-5.657c12.124-10.978,27.619-18.287,44.724-20.193   c1.626-0.181,3.263-0.326,4.917-0.408c1.325-0.066,2.659-0.102,4-0.102s2.675,0.036,4,0.102   c19.049,0.943,36.364,8.58,49.641,20.601c1.978,1.791,3.866,3.679,5.657,5.657c12.022,13.277,19.658,30.593,20.601,49.641   c0.066,1.325,0.102,2.659,0.102,4s-0.036,2.675-0.102,4C446.956,351.048,439.319,368.364,427.297,381.641z" fill="#c88c73"/></g></defs><g fi:class="KUsePattern"><pattern id="pattern_L1_1318" width="350" height="350" patternUnits="userSpaceOnUse"><use xlink:href="#L1_1318" x="-350" y="-350"/><use xlink:href="#L1_1318" x="0" y="-350"/><use xlink:href="#L1_1318" x="350" y="-350"/><use xlink:href="#L1_1318" x="-350" y="0"/><use xlink:href="#L1_1318" x="0" y="0"/><use xlink:href="#L1_1318" x="350" y="0"/><use xlink:href="#L1_1318" x="-350" y="350"/><use xlink:href="#L1_1318" x="0" y="350"/><use xlink:href="#L1_1318" x="350" y="350"/></pattern><rect x="0" y="0" width="100%" height="100%" fill="url(#pattern_L1_1318)"/></g><g fi:class="KUsePattern"><pattern id="pattern_L1_1319" width="350" height="350" patternUnits="userSpaceOnUse"><use xlink:href="#L1_1319" x="-350" y="-350"/><use xlink:href="#L1_1319" x="0" y="-350"/><use xlink:href="#L1_1319" x="350" y="-350"/><use xlink:href="#L1_1319" x="-350" y="0"/><use xlink:href="#L1_1319" x="0" y="0"/><use xlink:href="#L1_1319" x="350" y="0"/><use xlink:href="#L1_1319" x="-350" y="350"/><use xlink:href="#L1_1319" x="0" y="350"/><use xlink:href="#L1_1319" x="350" y="350"/></pattern><rect x="0" y="0" width="100%" height="100%" fill="url(#pattern_L1_1319)"/></g><g fi:class="KUsePattern"><pattern id="pattern_L1_1320" width="350" height="350" patternUnits="userSpaceOnUse"><use xlink:href="#L1_1320" x="-350" y="-350"/><use xlink:href="#L1_1320" x="0" y="-350"/><use xlink:href="#L1_1320" x="350" y="-350"/><use xlink:href="#L1_1320" x="-350" y="0"/><use xlink:href="#L1_1320" x="0" y="0"/><use xlink:href="#L1_1320" x="350" y="0"/><use xlink:href="#L1_1320" x="-350" y="350"/><use xlink:href="#L1_1320" x="0" y="350"/><use xlink:href="#L1_1320" x="350" y="350"/></pattern><rect x="0" y="0" width="100%" height="100%" fill="url(#pattern_L1_1320)"/></g><g fi:class="KUsePattern"><pattern id="pattern_L1_1321" width="350" height="350" patternUnits="userSpaceOnUse"><use xlink:href="#L1_1321" x="-350" y="-350"/><use xlink:href="#L1_1321" x="0" y="-350"/><use xlink:href="#L1_1321" x="350" y="-350"/><use xlink:href="#L1_1321" x="-350" y="0"/><use xlink:href="#L1_1321" x="0" y="0"/><use xlink:href="#L1_1321" x="350" y="0"/><use xlink:href="#L1_1321" x="-350" y="350"/><use xlink:href="#L1_1321" x="0" y="350"/><use xlink:href="#L1_1321" x="350" y="350"/></pattern><rect x="0" y="0" width="100%" height="100%" fill="url(#pattern_L1_1321)"/></g></svg>